<?xml version="1.0" encoding="UTF-8" standalone="no"?>
<!-- Created with Inkscape (http://www.inkscape.org/) -->

<svg
   version="1.1"
   id="svg1"
   width="794.888"
   height="239.744"
   viewBox="0 0 794.888 239.744"
   sodipodi:docname="Australian_Red_Cross_full_logo.ai"
   xmlns:inkscape="http://www.inkscape.org/namespaces/inkscape"
   xmlns:sodipodi="http://sodipodi.sourceforge.net/DTD/sodipodi-0.dtd"
   xmlns="http://www.w3.org/2000/svg"
   xmlns:svg="http://www.w3.org/2000/svg">
  <defs
     id="defs1">
    <clipPath
       clipPathUnits="userSpaceOnUse"
       id="clipPath2">
      <path
         d="M 0,1.182 H 594.984 V 179.809 H 0 Z"
         transform="translate(-409.44171,-29.034301)"
         id="path2" />
    </clipPath>
    <clipPath
       clipPathUnits="userSpaceOnUse"
       id="clipPath4">
      <path
         d="M 0,1.182 H 594.984 V 179.809 H 0 Z"
         transform="translate(-179.8083,-119.0843)"
         id="path4" />
    </clipPath>
  </defs>
  <sodipodi:namedview
     id="namedview1"
     pagecolor="#ffffff"
     bordercolor="#000000"
     borderopacity="0.25"
     inkscape:showpageshadow="2"
     inkscape:pageopacity="0.0"
     inkscape:pagecheckerboard="0"
     inkscape:deskcolor="#d1d1d1">
    <inkscape:page
       x="0"
       y="0"
       inkscape:label="1"
       id="page1"
       width="794.888"
       height="239.744"
       margin="0"
       bleed="0" />
  </sodipodi:namedview>
  <g
     id="layer-MC0"
     inkscape:groupmode="layer"
     inkscape:label="Layer 1">
    <path
       id="path1"
       d="m 0,0 c -13.248,0 -16.531,12.971 -16.531,20.995 0,13.131 6.916,20.499 16.619,20.499 6.58,0 12.066,-4.523 12.737,-10.957 l 11.044,2.845 C 21.345,41.83 15.013,51.62 -0.336,51.62 c -20.747,0 -28.261,-17.319 -28.261,-30.45 0,-22.089 13.744,-31.631 27.838,-31.631 17.129,0 23.782,12.971 25.723,17.989 L 14.415,11.876 C 12.664,5.851 7.689,0 0,0 m -152.248,31.369 c 0,6.288 -4.391,9.031 -11.555,9.031 h -10.125 V 22.177 h 8.608 c 8.01,0 13.072,2.32 13.072,9.192 m -0.423,-16.268 13.248,-24.293 h -12.737 l -11.73,22.104 h -10.038 V -9.192 h -11.045 V 50.35 h 24.38 c 11.73,0 19.653,-7.674 19.653,-18.894 0,-5.734 -2.291,-13.248 -11.731,-16.355 m -3.881,76.525 -8.185,27.137 -8.185,-27.137 z m -1.765,38.124 20.163,-59.542 h -11.978 l -3.458,11.642 h -22.264 l -3.458,-11.642 h -11.979 l 20.164,59.542 z M 92.107,112.373 H 81.821 V 70.208 h 10.286 z m 0,17.377 H 81.821 v -9.95 h 10.286 z m 25.022,-51.941 c 4.64,0 10.374,2.364 10.374,7.674 v 5.647 c -1.693,-0.847 -4.129,-1.766 -8.01,-2.364 -4.64,-0.671 -9.279,-1.605 -9.279,-5.821 0,-2.772 1.852,-5.136 6.915,-5.136 m -2.276,-8.871 c -9.615,0 -15.349,6.011 -15.349,13.102 0,9.192 7.004,12.825 15.014,14.255 6.332,1.181 10.286,2.188 12.985,3.122 0,3.21 -0.934,6.332 -7.252,6.332 -7.674,0 -8.52,-4.129 -8.52,-6.332 L 101.445,100 c 0.175,2.787 0.759,13.642 18.471,13.642 12.402,0 17.712,-4.625 17.712,-12.037 V 76.977 c 0,-3.18 0.175,-4.114 1.824,-6.769 h -11.949 l -0.248,3.224 c -2.787,-2.203 -7.252,-4.494 -12.402,-4.494 M 41.188,85.483 v 5.647 c -1.693,-0.847 -4.129,-1.766 -8.01,-2.364 -4.64,-0.671 -9.279,-1.605 -9.279,-5.821 0,-2.787 1.852,-5.151 6.915,-5.151 4.64,0.015 10.374,2.379 10.374,7.689 M 40.925,73.432 c -2.787,-2.189 -7.251,-4.494 -12.401,-4.494 -9.615,0 -15.349,6.011 -15.349,13.102 0,9.192 7.003,12.825 15.013,14.255 6.332,1.181 10.286,2.188 12.985,3.122 0,3.21 -0.934,6.332 -7.251,6.332 -7.674,0 -8.521,-4.129 -8.521,-6.332 L 15.115,100 c 0.175,2.787 0.759,13.642 18.471,13.642 12.402,0 17.713,-4.625 17.713,-12.037 V 76.977 c 0,-3.18 0.175,-4.114 1.824,-6.769 h -11.95 z m -61.118,-3.224 v 8.52 c -1.269,-0.335 -2.786,-0.511 -4.216,-0.511 -0.423,0 -2.612,0 -3.794,1.27 -0.933,1.007 -1.006,2.874 -1.006,4.464 v 21.258 h 9.031 v 7.164 h -9.031 v 15.013 h -10.286 v -15.013 h -6.157 v -7.164 h 6.157 V 80.07 c 0,-6.915 2.874,-11.132 11.891,-11.132 3.443,0 6.084,0.919 7.411,1.27 M -59.936,11.891 c 0,6.507 -3.21,12.927 -10.082,12.927 -6.886,0 -10.082,-6.42 -10.082,-12.927 0,-6.507 3.21,-12.927 10.082,-12.927 6.887,0 10.082,6.42 10.082,12.927 m -0.263,38.459 h 10.286 V -9.192 h -10.286 v 4.042 c -0.846,-1.007 -4.216,-5.311 -11.73,-5.311 -8.856,0 -18.719,6.157 -18.719,21.506 0,15.1 9.192,23.198 19.142,23.198 3.458,0 8.521,-1.269 11.307,-4.727 z M 89.452,11.891 c 0,6.507 -3.502,12.927 -11.016,12.927 -7.514,0 -11.015,-6.42 -11.015,-12.927 0,-6.507 3.501,-12.927 11.015,-12.927 7.514,0 11.016,6.42 11.016,12.927 m 10.665,0 C 99.913,0.598 92.749,-10.461 78.436,-10.461 c -14.313,0 -21.462,11.059 -21.681,22.352 0.205,11.293 7.368,22.352 21.681,22.352 14.313,0 21.462,-11.059 21.681,-22.352 M 40.575,26.992 v 5.982 H 30.289 V -9.192 H 40.575 V 8.856 c 0,2.451 0,4.552 0.759,6.916 2.451,7.762 10.548,7.762 12.649,7.762 v 10.373 h -0.846 c -2.013,0 -9.352,-0.262 -12.562,-6.915 M -3.589,88.255 c 0,2.452 0,4.553 0.759,6.916 2.451,7.762 10.548,7.762 12.649,7.762 v 10.374 H 8.973 c -2.028,0 -9.367,-0.248 -12.562,-6.916 v 5.982 H -13.875 V 70.208 h 10.286 z m 179.02,-72.483 -6.828,1.269 c -6.069,1.094 -8.608,1.941 -8.608,4.727 0,3.794 5.063,4.392 7.003,4.392 4.888,0 9.192,-1.94 11.468,-6.405 l 7.164,6.668 c -6.332,7.338 -14.838,7.849 -18.136,7.849 -10.125,0 -18.135,-5.398 -18.135,-13.744 0,-9.95 11.38,-12.066 14.677,-12.649 l 5.224,-0.934 c 3.881,-0.671 6.244,-1.605 6.244,-4.042 0,-1.853 -2.188,-4.975 -8.272,-4.975 -6.333,0 -10.126,2.699 -12.139,5.399 l -7.587,-6.157 c 2.363,-2.452 8.608,-7.587 20.236,-7.587 11.643,0 18.982,6.667 18.982,14.429 0,6.785 -4.888,10.578 -11.293,11.76 m -43.61,0 -6.828,1.269 c -6.069,1.094 -8.608,1.941 -8.608,4.727 0,3.794 5.063,4.392 7.003,4.392 4.888,0 9.192,-1.94 11.468,-6.405 l 7.164,6.668 c -6.332,7.338 -14.838,7.849 -18.136,7.849 -10.125,0 -18.135,-5.398 -18.135,-13.744 0,-9.95 11.38,-12.066 14.678,-12.649 l 5.223,-0.934 c 3.881,-0.671 6.244,-1.605 6.244,-4.042 0,-1.853 -2.188,-4.975 -8.272,-4.975 -6.332,0 -10.126,2.699 -12.139,5.399 l -7.587,-6.157 c 2.364,-2.452 8.608,-7.587 20.236,-7.587 11.643,0 18.982,6.667 18.982,14.429 0.015,6.785 -4.873,10.578 -11.293,11.76 m -258.755,1.517 h 19.741 c -0.175,2.101 -1.518,8.856 -9.44,8.856 -8.36,0 -9.965,-7.178 -10.301,-8.856 m 22.615,-12.066 8.608,-4.975 c -3.37,-4.552 -9.527,-10.709 -20.587,-10.709 -12.562,0 -21.68,8.608 -21.68,22.6 0,15.101 10.213,22.104 21.17,22.104 16.107,0 20.747,-12.912 20.747,-24.38 h -31.208 c 0.175,-2.116 2.115,-10.461 11.891,-10.461 7.178,0 10.213,4.391 11.059,5.821 m 9.41,107.15 h -10.198 V 94.062 c 0,-7.251 -0.934,-10.796 -3.969,-13.32 -2.115,-1.766 -4.216,-1.941 -5.31,-1.941 -6.245,0 -7.427,5.223 -7.427,9.863 v 23.709 h -10.286 V 83.018 c 0,-8.273 4.728,-14.08 13.671,-14.08 1.693,0 9.528,0.511 13.321,6.245 v -4.975 h 10.286 v 42.165 z M 157.383,70.208 v 18.295 c 0,7.252 0.934,10.797 3.969,13.321 2.115,1.766 4.216,1.941 5.311,1.941 6.244,0 7.426,-5.224 7.426,-9.863 V 70.208 h 10.286 v 29.34 c 0,8.273 -4.727,14.08 -13.671,14.08 -1.692,0 -9.527,-0.511 -13.321,-6.245 v 4.975 H 147.097 V 70.193 h 10.286 z M 71.491,129.75 H 61.205 V 70.208 H 71.491 Z M -49.008,83.353 c 0,-7.762 -7.339,-14.429 -18.982,-14.429 -11.643,0 -17.887,5.15 -20.236,7.586 l 7.587,6.157 c 2.028,-2.699 5.821,-5.398 12.139,-5.398 6.069,0 8.272,3.122 8.272,4.975 0,2.451 -2.363,3.371 -6.244,4.042 l -5.224,0.934 c -3.282,0.583 -14.677,2.699 -14.677,12.649 0,8.346 8.01,13.744 18.135,13.744 3.283,0 11.804,-0.511 18.136,-7.849 l -7.164,-6.668 c -2.276,4.464 -6.58,6.405 -11.468,6.405 -1.94,0 -7.003,-0.584 -7.003,-4.392 0,-2.786 2.524,-3.633 8.608,-4.727 l 6.828,-1.269 c 6.391,-1.124 11.293,-4.917 11.293,-11.76"
       style="fill:#000000;fill-opacity:1;fill-rule:nonzero;stroke:none"
       transform="matrix(1.3333333,0,0,-1.3333333,545.92227,201.0316)"
       clip-path="url(#clipPath2)" />
    <path
       id="path3"
       d="m 0,0 h -59.528 v 59.542 h -59.556 V 0 h -59.542 v -59.542 h 59.542 v -59.542 h 59.556 v 59.542 H 0 Z"
       style="fill:#e42313;fill-opacity:1;fill-rule:nonzero;stroke:none"
       transform="matrix(1.3333333,0,0,-1.3333333,239.7444,80.964933)"
       clip-path="url(#clipPath4)" />
  </g>
</svg>
