<?xml version="1.0" encoding="UTF-8"?>
<svg xmlns="http://www.w3.org/2000/svg" xmlns:xlink="http://www.w3.org/1999/xlink" width="841.81pt" height="275.49pt" viewBox="0 0 841.81 275.49" version="1.1">
<defs>
<clipPath id="clip1">
  <path d="M 781 104 L 841.808594 104 L 841.808594 185 L 781 185 Z M 781 104 "/>
</clipPath>
<clipPath id="clip2">
  <path d="M 0 0 L 276 0 L 276 275.488281 L 0 275.488281 Z M 0 0 "/>
</clipPath>
</defs>
<g id="surface1">
<path style=" stroke:none;fill-rule:nonzero;fill:rgb(0%,0%,0%);fill-opacity:1;" d="M 376.390625 73.683594 L 376.390625 82.292969 C 372 75.683594 364.542969 71.765625 356.609375 71.902344 C 336.058594 71.902344 321.941406 95.167969 321.941406 128.597656 C 321.941406 152.5625 329.699219 185.058594 357.695313 185.058594 C 370.726563 185.058594 385.460938 176.292969 390.347656 146.667969 L 377.007813 136.351563 C 374.605469 154.5 367.777344 164.972656 358.628906 164.972656 C 347.691406 164.972656 340.089844 150.234375 340.089844 128.90625 C 340.089844 107.578125 347.847656 91.523438 359.714844 91.523438 C 364.574219 91.636719 368.972656 94.445313 371.113281 98.8125 C 373.511719 103.039063 375.214844 107.621094 376.15625 112.386719 L 387.324219 112.386719 L 387.324219 73.609375 L 376.15625 73.609375 "/>
<path style=" stroke:none;fill-rule:nonzero;fill:rgb(0%,0%,0%);fill-opacity:1;" d="M 431.996094 165.980469 L 422.304688 165.980469 L 422.304688 158.222656 C 422.304688 142.710938 425.792969 129.371094 438.589844 129.371094 L 440.449219 129.371094 L 440.449219 106.105469 L 438.125 106.105469 C 429.902344 106.105469 423.699219 113.394531 420.75 126.65625 L 420.75 107.269531 L 397.949219 107.269531 L 397.949219 124.871094 L 406.402344 124.871094 L 406.402344 166.132813 L 397.175781 166.132813 L 397.175781 183.738281 L 432.230469 183.738281 L 432.230469 165.980469 "/>
<path style=" stroke:none;fill-rule:nonzero;fill:rgb(0%,0%,0%);fill-opacity:1;" d="M 510.019531 165.980469 L 502.265625 165.980469 L 502.265625 107.035156 L 481.945313 107.035156 L 481.945313 124.640625 L 486.210938 124.640625 L 486.210938 159.152344 C 484.230469 162.066406 481.148438 164.054688 477.679688 164.660156 C 473.957031 164.660156 472.871094 162.257813 472.871094 154.8125 L 472.871094 107.035156 L 449.601563 107.035156 L 449.601563 124.640625 L 456.894531 124.640625 L 456.894531 160.9375 C 456.894531 175.675781 462.710938 184.746094 472.402344 184.746094 C 478.023438 184.304688 483.1875 181.484375 486.597656 176.992188 L 486.597656 183.429688 L 510.40625 183.429688 L 510.40625 165.980469 "/>
<path style=" stroke:none;fill-rule:nonzero;fill:rgb(0%,0%,0%);fill-opacity:1;" d="M 518.550781 183.660156 L 566.792969 183.660156 L 566.792969 155.121094 L 556.320313 155.121094 L 556.320313 168.074219 L 537.632813 168.074219 L 566.792969 122.933594 L 566.792969 107.035156 L 520.957031 107.035156 L 520.957031 134.414063 L 531.8125 134.414063 L 531.8125 122.933594 L 547.789063 122.933594 L 518.550781 168.074219 L 518.550781 183.660156 "/>
<path style=" stroke:none;fill-rule:nonzero;fill:rgb(0%,0%,0%);fill-opacity:1;" d="M 673.125 165.050781 L 664.59375 165.050781 L 653.890625 131.855469 C 661.972656 125.167969 666.238281 114.925781 665.289063 104.476563 C 665.289063 87.800781 658.3125 73.453125 645.515625 73.453125 L 604.40625 73.453125 L 604.40625 92.066406 L 613.40625 92.066406 L 613.40625 165.203125 L 604.40625 165.203125 L 604.40625 183.816406 L 638.921875 183.816406 L 638.921875 165.203125 L 630.621094 165.203125 L 630.621094 135.574219 L 638.378906 135.574219 L 653.269531 183.816406 L 673.355469 183.816406 L 673.355469 165.203125 Z M 630.855469 117.738281 L 630.855469 92.300781 L 639.617188 92.300781 C 646.058594 92.300781 647.375 100.054688 647.375 104.785156 C 648.46875 110.769531 644.5 116.503906 638.519531 117.597656 C 638.164063 117.660156 637.808594 117.707031 637.449219 117.738281 L 630.546875 117.738281 "/>
<path style=" stroke:none;fill-rule:nonzero;fill:rgb(0%,0%,0%);fill-opacity:1;" d="M 735.789063 145.273438 C 735.789063 119.523438 723.226563 105.25 707.558594 105.25 C 691.894531 105.25 679.484375 118.667969 679.484375 145.273438 C 679.484375 170.710938 691.738281 185.445313 707.558594 185.445313 C 723.382813 185.445313 735.789063 169.390625 735.789063 145.273438 Z M 718.261719 145.273438 C 718.261719 158.6875 714.386719 166.523438 707.636719 166.523438 C 700.890625 166.523438 697.089844 158.765625 697.089844 145.816406 C 697.089844 132.859375 700.8125 124.253906 707.636719 124.253906 C 714.464844 124.253906 718.261719 132.007813 718.261719 145.273438 "/>
<path style=" stroke:none;fill-rule:nonzero;fill:rgb(0%,0%,0%);fill-opacity:1;" d="M 743.777344 124.949219 L 751.535156 124.949219 L 751.535156 185.988281 C 751.535156 195.527344 748.589844 197.621094 742.925781 197.621094 L 739.125 197.621094 L 739.125 217.398438 C 740.988281 217.398438 742.460938 217.398438 744.941406 217.398438 C 761.074219 217.398438 767.667969 208.792969 767.667969 185.988281 L 767.667969 107.035156 L 743.855469 107.035156 L 743.855469 124.640625 Z M 759.289063 72.132813 C 754.480469 72.132813 750.683594 77.949219 750.683594 85.398438 C 750.683594 92.84375 754.480469 98.8125 759.289063 98.8125 C 765.246094 97.285156 769.050781 91.464844 768.054688 85.398438 C 769.082031 79.359375 765.246094 73.558594 759.289063 72.132813 "/>
<g clip-path="url(#clip1)" clip-rule="nonzero">
<path style=" stroke:none;fill-rule:nonzero;fill:rgb(0%,0%,0%);fill-opacity:1;" d="M 841.8125 165.746094 L 833.203125 165.746094 L 833.203125 134.335938 C 833.203125 113.9375 825.449219 105.019531 808.074219 105.019531 C 796.140625 103.902344 785.152344 111.578125 782.09375 123.167969 L 795.820313 126.425781 C 798.1875 121.007813 804.496094 118.535156 809.914063 120.902344 C 815.019531 123.132813 817.5625 128.90625 815.753906 134.179688 L 815.753906 138.367188 C 812.082031 136.203125 807.914063 135.027344 803.652344 134.957031 C 790.855469 134.957031 781.628906 145.8125 781.628906 160.703125 C 781.628906 175.597656 790.003906 184.671875 801.25 184.671875 C 806.886719 184.484375 812.167969 181.886719 815.753906 177.535156 L 815.753906 183.507813 L 841.734375 183.507813 L 841.734375 165.980469 Z M 815.90625 155.277344 L 815.90625 161.558594 C 813.789063 165.675781 809.851563 168.554688 805.28125 169.316406 C 800.523438 168.410156 797.375 163.847656 798.226563 159.074219 C 797.652344 154.398438 800.980469 150.144531 805.65625 149.570313 C 805.765625 149.558594 805.871094 149.546875 805.980469 149.535156 C 809.824219 150.113281 813.324219 152.070313 815.828125 155.042969 "/>
</g>
<g clip-path="url(#clip2)" clip-rule="nonzero">
<path style=" stroke:none;fill-rule:nonzero;fill:rgb(77.2995%,16.499329%,19.599915%);fill-opacity:1;" d="M 91.828125 0.00390625 L 183.65625 0.00390625 L 183.65625 91.835938 L 275.484375 91.835938 L 275.484375 183.660156 L 183.65625 183.660156 L 183.65625 275.488281 L 91.828125 275.488281 L 91.828125 183.660156 L 0 183.660156 L 0 91.835938 L 91.828125 91.835938 L 91.828125 0.00390625 "/>
</g>
</g>
</svg>
