<?xml version="1.0" encoding="UTF-8" standalone="no"?>
<!-- Created with Inkscape (http://www.inkscape.org/) -->

<svg
   version="1.1"
   id="svg1"
   width="492.108"
   height="469.68268"
   viewBox="0 0 492.108 469.68268"
   sodipodi:docname="Logo-Squaree-RGB (1).ai"
   xmlns:inkscape="http://www.inkscape.org/namespaces/inkscape"
   xmlns:sodipodi="http://sodipodi.sourceforge.net/DTD/sodipodi-0.dtd"
   xmlns="http://www.w3.org/2000/svg"
   xmlns:svg="http://www.w3.org/2000/svg">
  <defs
     id="defs1">
    <clipPath
       clipPathUnits="userSpaceOnUse"
       id="clipPath4">
      <path
         d="M 0,352.262 H 369.081 V 0 H 0 Z"
         transform="translate(-237.67041,-231.4626)"
         id="path4" />
    </clipPath>
    <clipPath
       clipPathUnits="userSpaceOnUse"
       id="clipPath6">
      <path
         d="M 0,352.262 H 369.081 V 0 H 0 Z"
         id="path6" />
    </clipPath>
  </defs>
  <sodipodi:namedview
     id="namedview1"
     pagecolor="#ffffff"
     bordercolor="#000000"
     borderopacity="0.25"
     inkscape:showpageshadow="2"
     inkscape:pageopacity="0.0"
     inkscape:pagecheckerboard="0"
     inkscape:deskcolor="#d1d1d1">
    <inkscape:page
       x="0"
       y="0"
       inkscape:label="1"
       id="page1"
       width="492.108"
       height="469.68268"
       margin="0"
       bleed="0" />
  </sodipodi:namedview>
  <g
     id="layer-MC0"
     inkscape:groupmode="layer"
     inkscape:label="Layer 1">
    <path
       id="path1"
       d="M 0,0 H 369.081 V 352.262 H 0 Z"
       style="fill:#ffffff;fill-opacity:1;fill-rule:nonzero;stroke:none"
       transform="matrix(1.3333333,0,0,-1.3333333,0,469.68267)" />
    <path
       id="path2"
       d="M 0,0 H -42.203 V 36.174 H 0 l -0.003,0.024 V 78.401 H 36.171 V 36.198 L 36.162,36.18 h 42.21 V 0.003 h -42.21 l 0.009,0.012 V -42.189 H -0.003 V 0.015 Z"
       style="fill:#ee2435;fill-opacity:1;fill-rule:nonzero;stroke:none"
       transform="matrix(1.3333333,0,0,-1.3333333,137.78333,186.06507)" />
    <path
       id="path3"
       d="m 0,0 c 0,28.106 22.786,50.892 50.892,50.892 6.258,0 12.251,-1.134 17.787,-3.2 -10.41,8.241 -23.564,13.16 -37.869,13.16 -33.728,0 -61.068,-27.346 -61.068,-61.075 0,-33.725 27.34,-61.065 61.068,-61.065 14.783,0 28.341,5.254 38.905,13.994 C 63.888,-49.61 57.539,-50.892 50.892,-50.892 22.786,-50.892 0,-28.103 0,0"
       style="fill:#ee2435;fill-opacity:1;fill-rule:nonzero;stroke:none"
       transform="matrix(1.3333333,0,0,-1.3333333,316.89387,161.06587)"
       clip-path="url(#clipPath4)" />
    <path
       id="path5"
       d="m 61.134,61.194 h 16.829 v 72.717 H 61.134 Z m 89.022,59.213 v 13.504 H 95.206 V 61.194 h 16.829 v 26.491 h 33.657 v 13.504 h -33.657 v 19.218 z m 78.948,-59.213 -16.309,23.374 c 4.779,2.078 8.466,5.07 11.063,8.986 2.598,3.909 3.895,8.57 3.895,13.97 0,5.402 -1.279,10.078 -3.841,14.026 -2.565,3.945 -6.216,6.994 -10.96,9.14 -4.743,2.146 -10.336,3.221 -16.778,3.221 H 164.699 V 61.194 h 16.829 v 20.257 h 14.646 0.831 l 14.024,-20.257 z m -18.387,46.33 c 0,-4.017 -1.315,-7.134 -3.945,-9.348 -2.633,-2.218 -6.478,-3.325 -11.533,-3.325 h -13.711 v 25.348 h 13.711 c 5.055,0 8.9,-1.092 11.533,-3.274 2.63,-2.182 3.945,-5.314 3.945,-9.401 m 67.21,-47.577 c 6.302,0 12.014,1.111 17.14,3.325 5.124,2.215 9.416,5.435 12.881,9.66 l -10.803,9.974 c -4.919,-5.75 -11.01,-8.624 -18.283,-8.624 -4.503,0 -8.52,0.989 -12.049,2.963 -3.533,1.974 -6.284,4.726 -8.259,8.258 -1.974,3.53 -2.962,7.546 -2.962,12.049 0,4.501 0.988,8.517 2.962,12.05 1.975,3.532 4.726,6.284 8.259,8.258 3.529,1.974 7.546,2.963 12.049,2.963 7.273,0 13.364,-2.841 18.283,-8.52 l 10.803,9.971 c -3.465,4.156 -7.739,7.341 -12.827,9.559 -5.091,2.214 -10.788,3.325 -17.09,3.325 -7.481,0 -14.216,-1.612 -20.204,-4.83 -5.99,-3.221 -10.701,-7.689 -14.127,-13.403 -3.429,-5.711 -5.144,-12.171 -5.144,-19.373 0,-7.204 1.715,-13.661 5.144,-19.372 3.426,-5.714 8.137,-10.182 14.127,-13.403 5.988,-3.218 12.688,-4.83 20.1,-4.83"
       style="fill:#000000;fill-opacity:1;fill-rule:nonzero;stroke:none"
       transform="matrix(1.3333333,0,0,-1.3333333,0,469.68267)"
       clip-path="url(#clipPath6)" />
  </g>
</svg>
