<?xml version="1.0" encoding="UTF-8" standalone="no"?>
<!-- Created with Inkscape (http://www.inkscape.org/) -->

<svg
   version="1.1"
   id="svg1"
   width="227.73334"
   height="67.199997"
   viewBox="0 0 227.73334 67.199997"
   sodipodi:docname="logo.2017.ai"
   xmlns:inkscape="http://www.inkscape.org/namespaces/inkscape"
   xmlns:sodipodi="http://sodipodi.sourceforge.net/DTD/sodipodi-0.dtd"
   xmlns="http://www.w3.org/2000/svg"
   xmlns:svg="http://www.w3.org/2000/svg">
  <defs
     id="defs1">
    <clipPath
       clipPathUnits="userSpaceOnUse"
       id="clipPath3">
      <path
         d="M 0,50.4 H 170.8 V 0 H 0 Z"
         transform="translate(-94.100005,-45.400001)"
         id="path3" />
    </clipPath>
    <clipPath
       clipPathUnits="userSpaceOnUse"
       id="clipPath5">
      <path
         d="M 0,50.4 H 170.8 V 0 H 0 Z"
         transform="translate(-101.5,-41.000001)"
         id="path5" />
    </clipPath>
    <clipPath
       clipPathUnits="userSpaceOnUse"
       id="clipPath7">
      <path
         d="M 0,50.4 H 170.8 V 0 H 0 Z"
         transform="translate(-115.2,-42.500001)"
         id="path7" />
    </clipPath>
    <clipPath
       clipPathUnits="userSpaceOnUse"
       id="clipPath9">
      <path
         d="M 0,50.4 H 170.8 V 0 H 0 Z"
         transform="translate(-123,-41.000001)"
         id="path9" />
    </clipPath>
    <clipPath
       clipPathUnits="userSpaceOnUse"
       id="clipPath11">
      <path
         d="M 0,50.4 H 170.8 V 0 H 0 Z"
         transform="translate(-130,-41.400001)"
         id="path11" />
    </clipPath>
    <clipPath
       clipPathUnits="userSpaceOnUse"
       id="clipPath13">
      <path
         d="M 0,50.4 H 170.8 V 0 H 0 Z"
         id="path13" />
    </clipPath>
    <clipPath
       clipPathUnits="userSpaceOnUse"
       id="clipPath15">
      <path
         d="M 0,50.4 H 170.8 V 0 H 0 Z"
         transform="translate(-149.60001,-41.000001)"
         id="path15" />
    </clipPath>
    <clipPath
       clipPathUnits="userSpaceOnUse"
       id="clipPath17">
      <path
         d="M 0,50.4 H 170.8 V 0 H 0 Z"
         transform="translate(-163.3,-42.500001)"
         id="path17" />
    </clipPath>
    <clipPath
       clipPathUnits="userSpaceOnUse"
       id="clipPath19">
      <path
         d="M 0,50.4 H 170.8 V 0 H 0 Z"
         transform="translate(-86.100002,-24.000001)"
         id="path19" />
    </clipPath>
    <clipPath
       clipPathUnits="userSpaceOnUse"
       id="clipPath21">
      <path
         d="M 0,50.4 H 170.8 V 0 H 0 Z"
         transform="translate(-97.400005,-22.500001)"
         id="path21" />
    </clipPath>
    <clipPath
       clipPathUnits="userSpaceOnUse"
       id="clipPath23">
      <path
         d="M 0,50.4 H 170.8 V 0 H 0 Z"
         transform="translate(-108.4,-21.4)"
         id="path23" />
    </clipPath>
    <clipPath
       clipPathUnits="userSpaceOnUse"
       id="clipPath25">
      <path
         d="M 0,50.4 H 170.8 V 0 H 0 Z"
         transform="translate(-132.80001,-25.400001)"
         id="path25" />
    </clipPath>
    <clipPath
       clipPathUnits="userSpaceOnUse"
       id="clipPath27">
      <path
         d="M 0,50.4 H 170.8 V 0 H 0 Z"
         transform="translate(-140.8,-26.2)"
         id="path27" />
    </clipPath>
    <clipPath
       clipPathUnits="userSpaceOnUse"
       id="clipPath29">
      <path
         d="M 0,50.4 H 170.8 V 0 H 0 Z"
         transform="translate(-144.20001,-21.4)"
         id="path29" />
    </clipPath>
    <clipPath
       clipPathUnits="userSpaceOnUse"
       id="clipPath31">
      <path
         d="M 0,50.4 H 170.8 V 0 H 0 Z"
         transform="translate(-160.70001,-23.300001)"
         id="path31" />
    </clipPath>
    <clipPath
       clipPathUnits="userSpaceOnUse"
       id="clipPath33">
      <path
         d="M 0,50.4 H 170.8 V 0 H 0 Z"
         transform="translate(-170.5,-23.300001)"
         id="path33" />
    </clipPath>
  </defs>
  <sodipodi:namedview
     id="namedview1"
     pagecolor="#ffffff"
     bordercolor="#000000"
     borderopacity="0.25"
     inkscape:showpageshadow="2"
     inkscape:pageopacity="0.0"
     inkscape:pagecheckerboard="0"
     inkscape:deskcolor="#d1d1d1">
    <inkscape:page
       x="0"
       y="0"
       inkscape:label="1"
       id="page1"
       width="227.73334"
       height="67.199997"
       margin="0"
       bleed="0" />
  </sodipodi:namedview>
  <g
     id="layer-MC0"
     inkscape:groupmode="layer"
     inkscape:label="Layer 1">
    <path
       id="path1"
       d="M 0,0 V -16.7 H -16.7 V -33.3 H 0 V -50 h 16.6 v 16.7 h 16.7 v 16.6 H 16.6 l 0,16.7 z"
       style="fill:#ee0000;fill-opacity:1;fill-rule:nonzero;stroke:none"
       transform="matrix(1.3333333,0,0,-1.3333333,22.2672,0.5328)" />
    <path
       id="path2"
       d="M 0,0 H -2.8 C -2.857,1.44 -4.071,2.562 -5.511,2.505 -5.541,2.504 -5.57,2.502 -5.6,2.5 c -2,0 -3.3,-1.7 -3.3,-4.5 0,-2.8 1.2,-4.5 3.2,-4.5 1.438,-0.106 2.689,0.973 2.795,2.411 0.002,0.03 0.004,0.059 0.005,0.089 h 2.8 c -0.3,-3.2 -2.4,-5 -5.6,-5 -3.7,0 -6,2.6 -6,7 0,4.4 2.3,7 6.1,7 C -2.2,4.9 -0.1,2.9 0,0"
       style="fill:#000000;fill-opacity:1;fill-rule:nonzero;stroke:none"
       transform="matrix(1.3333333,0,0,-1.3333333,125.46667,6.6666667)"
       clip-path="url(#clipPath3)" />
    <path
       id="path4"
       d="m 0,0 c -0.638,-0.017 -1.273,-0.084 -1.9,-0.2 -1.1,-0.2 -1.5,-0.5 -1.5,-1.3 0,-0.8 0.5,-1.2 1.4,-1.2 0.539,0.013 1.061,0.187 1.5,0.5 0.4,0.509 0.58,1.157 0.5,1.8 z M 2.5,1.7 V -1.7 C 2.463,-2.577 2.564,-3.454 2.8,-4.3 H 0.4 c -0.087,0.428 -0.121,0.864 -0.1,1.3 -0.714,-0.991 -1.88,-1.555 -3.1,-1.5 -1.575,-0.182 -2.999,0.946 -3.181,2.52 -0.015,0.126 -0.021,0.253 -0.019,0.38 0,1.6 0.9,2.6 3.7,3 0.7,0.1 1.8,0.2 2.4,0.3 L 0.1,2 C 0.1,3.2 -0.5,3.7 -1.5,3.7 -2.278,3.799 -2.989,3.249 -3.089,2.471 -3.096,2.415 -3.1,2.357 -3.1,2.3 h -2.5 c 0.1,1.8 1.4,3.3 4.1,3.3 2.7,0 4,-1.4 4,-3.9"
       style="fill:#000000;fill-opacity:1;fill-rule:nonzero;stroke:none"
       transform="matrix(1.3333333,0,0,-1.3333333,135.33333,12.533333)"
       clip-path="url(#clipPath5)" />
    <path
       id="path6"
       d="m 0,0 v -5.8 h -2.6 v 5.6 c 0,1.4 -0.6,2.1 -1.7,2.1 -1.1,0 -1.9,-0.9 -1.9,-2.6 v -5.1 h -2.6 v 9.5 h 2.5 V 2.5 c 0.661,0.881 1.698,1.4 2.8,1.4 C -1.3,3.9 0,2.6 0,0"
       style="fill:#000000;fill-opacity:1;fill-rule:nonzero;stroke:none"
       transform="matrix(1.3333333,0,0,-1.3333333,153.6,10.533333)"
       clip-path="url(#clipPath7)" />
    <path
       id="path8"
       d="m 0,0 c -0.638,-0.017 -1.273,-0.084 -1.9,-0.2 -1.1,-0.2 -1.5,-0.5 -1.5,-1.3 0,-0.8 0.5,-1.2 1.4,-1.2 0.539,0.013 1.061,0.187 1.5,0.5 0.4,0.509 0.58,1.157 0.5,1.8 z M 2.5,1.7 V -1.7 C 2.463,-2.577 2.564,-3.454 2.8,-4.3 H 0.4 c -0.087,0.428 -0.121,0.864 -0.1,1.3 -0.714,-0.991 -1.88,-1.555 -3.1,-1.5 -1.575,-0.182 -2.999,0.946 -3.181,2.52 -0.015,0.126 -0.021,0.253 -0.019,0.38 0,1.6 0.9,2.6 3.7,3 0.7,0.1 1.8,0.2 2.4,0.3 L 0.1,2 C 0.1,3.2 -0.5,3.7 -1.5,3.7 -2.278,3.799 -2.989,3.249 -3.089,2.471 -3.096,2.415 -3.1,2.357 -3.1,2.3 h -2.5 c 0.1,1.8 1.4,3.3 4.1,3.3 2.7,0 4,-1.4 4,-3.9"
       style="fill:#000000;fill-opacity:1;fill-rule:nonzero;stroke:none"
       transform="matrix(1.3333333,0,0,-1.3333333,164,12.533333)"
       clip-path="url(#clipPath9)" />
    <path
       id="path10"
       d="m 0,0 c 0,-1.8 0.8,-3 2.1,-3 1.3,0 2,1.1 2,3 0,1.9 -0.8,3 -2,3 C 0.9,3 0,1.8 0,0 m 4,-4.7 v 1.3 C 3.437,-4.351 2.405,-4.924 1.3,-4.9 c -2.4,0 -4,2 -4,5 0,3 1.5,5 3.9,5 1.079,0.02 2.095,-0.507 2.7,-1.4 v 5 H 6.5 V -4.6 H 4 Z"
       style="fill:#000000;fill-opacity:1;fill-rule:nonzero;stroke:none"
       transform="matrix(1.3333333,0,0,-1.3333333,173.33333,12)"
       clip-path="url(#clipPath11)" />
    <path
       id="path12"
       d="m 139.1,46.2 h 2.6 v -9.5 h -2.6 z m 0,1.5 V 50 h 2.6 v -2.2 h -2.6 z"
       style="fill:#000000;fill-opacity:1;fill-rule:nonzero;stroke:none"
       transform="matrix(1.3333333,0,0,-1.3333333,0,67.2)"
       clip-path="url(#clipPath13)" />
    <path
       id="path14"
       d="m 0,0 c -0.638,-0.017 -1.273,-0.084 -1.9,-0.2 -1.1,-0.2 -1.5,-0.5 -1.5,-1.3 0,-0.8 0.5,-1.2 1.4,-1.2 0.539,0.013 1.061,0.187 1.5,0.5 0.4,0.509 0.58,1.157 0.5,1.8 z M 2.5,1.7 V -1.7 C 2.463,-2.577 2.564,-3.454 2.8,-4.3 H 0.4 C 0.313,-3.872 0.279,-3.436 0.3,-3 -0.414,-3.991 -1.58,-4.555 -2.8,-4.5 -4.375,-4.682 -5.799,-3.554 -5.981,-1.979 -5.996,-1.854 -6.002,-1.727 -6,-1.6 c 0,1.6 0.9,2.6 3.7,3 0.7,0.1 1.8,0.2 2.4,0.3 L 0.1,2 C 0.1,3.2 -0.5,3.7 -1.5,3.7 -2.278,3.799 -2.989,3.249 -3.089,2.471 -3.096,2.415 -3.1,2.357 -3.1,2.3 h -2.5 c 0.1,1.8 1.4,3.3 4.1,3.3 2.7,0 4,-1.4 4,-3.9"
       style="fill:#000000;fill-opacity:1;fill-rule:nonzero;stroke:none"
       transform="matrix(1.3333333,0,0,-1.3333333,199.46667,12.533333)"
       clip-path="url(#clipPath15)" />
    <path
       id="path16"
       d="m 0,0 v -5.8 h -2.6 v 5.6 c 0,1.4 -0.6,2.1 -1.7,2.1 -1.1,0 -1.9,-0.9 -1.9,-2.6 v -5.1 h -2.6 v 9.5 h 2.5 V 2.5 c 0.661,0.881 1.698,1.4 2.8,1.4 C -1.4,3.9 0,2.6 0,0"
       style="fill:#000000;fill-opacity:1;fill-rule:nonzero;stroke:none"
       transform="matrix(1.3333333,0,0,-1.3333333,217.73333,10.533333)"
       clip-path="url(#clipPath17)" />
    <path
       id="path18"
       d="M 0,0 H 1.9 C 3.6,0 4.2,0.7 4.2,2 4.2,3.3 3.3,3.9 1.7,3.9 H -0.1 V 0 Z M 2.1,6 C 5.5,6 7,4.6 7,2.2 7.047,0.681 6.059,-0.676 4.6,-1.1 5.5,-1.4 6,-2 6.6,-3.7 l 1.3,-3.7 h -3 l -1.1,3.2 c -0.5,1.4 -1,1.9 -2.3,1.9 H 0 V -7.4 H -2.8 V 6 Z"
       style="fill:#000000;fill-opacity:1;fill-rule:nonzero;stroke:none"
       transform="matrix(1.3333333,0,0,-1.3333333,114.8,35.2)"
       clip-path="url(#clipPath19)" />
    <path
       id="path20"
       d="M 0,0 H 4.2 C 4,1.4 3.2,2.1 2.1,2.1 1,2.1 0.2,1.5 0,0 M 3.9,-3 H 6.6 C 6.053,-5.002 4.17,-6.34 2.1,-6.2 c -3,0 -4.7,2.1 -4.7,5.1 0,2.8 1.7,5 4.7,5 C 4.136,3.999 5.967,2.668 6.5,0.7 6.717,-0.081 6.818,-0.89 6.8,-1.7 H 0 c 0.1,-2 1,-2.7 2.2,-2.7 0.814,0.039 1.506,0.608 1.7,1.4"
       style="fill:#000000;fill-opacity:1;fill-rule:nonzero;stroke:none"
       transform="matrix(1.3333333,0,0,-1.3333333,129.86667,37.2)"
       clip-path="url(#clipPath21)" />
    <path
       id="path22"
       d="m 0,0 c 0,-1.8 0.8,-3 2.1,-3 1.3,0 2,1.1 2,3 0,1.9 -0.8,3 -2,3 C 0.9,3 0,1.8 0,0 m 4,-4.7 v 1.3 C 3.437,-4.351 2.405,-4.924 1.3,-4.9 c -2.4,0 -4,2 -4,5 0,3 1.5,5 3.9,5 1.079,0.02 2.095,-0.507 2.7,-1.4 v 5 H 6.5 V -4.6 H 4 Z"
       style="fill:#000000;fill-opacity:1;fill-rule:nonzero;stroke:none"
       transform="matrix(1.3333333,0,0,-1.3333333,144.53333,38.666667)"
       clip-path="url(#clipPath23)" />
    <path
       id="path24"
       d="M 0,0 H -2.8 C -2.857,1.44 -4.071,2.562 -5.511,2.505 -5.541,2.504 -5.57,2.502 -5.6,2.5 c -2,0 -3.3,-1.7 -3.3,-4.5 0,-2.8 1.2,-4.5 3.2,-4.5 1.438,-0.106 2.689,0.973 2.795,2.411 0.002,0.03 0.004,0.059 0.005,0.089 h 2.8 c -0.3,-3.2 -2.4,-5 -5.6,-5 -3.7,0 -6,2.6 -6,7 0,4.4 2.3,7 6.1,7 C -2.2,4.9 -0.1,2.9 0,0"
       style="fill:#000000;fill-opacity:1;fill-rule:nonzero;stroke:none"
       transform="matrix(1.3333333,0,0,-1.3333333,177.06667,33.333333)"
       clip-path="url(#clipPath25)" />
    <path
       id="path26"
       d="m 0,0 v -2.3 c -0.259,0.077 -0.53,0.111 -0.8,0.1 -1.6,0 -2.5,-1 -2.5,-2.9 v -4.5 h -2.6 v 9.5 h 2.4 v -1.3 c 0.52,0.945 1.522,1.522 2.6,1.5 C -0.596,0.122 -0.291,0.088 0,0"
       style="fill:#000000;fill-opacity:1;fill-rule:nonzero;stroke:none"
       transform="matrix(1.3333333,0,0,-1.3333333,187.73333,32.266667)"
       clip-path="url(#clipPath27)" />
    <path
       id="path28"
       d="M 0,0 C 0,-1.9 0.8,-3 2.1,-3 3.4,-3 4.2,-1.8 4.2,0 4.2,1.8 3.4,3 2.1,3 0.8,3 0,1.9 0,0 Z M 6.9,0 C 6.9,-3.1 5,-5.1 2,-5.1 c -3,0 -4.9,2 -4.9,5.1 0,3.1 1.9,5.1 4.9,5.1 3,0 4.9,-2 4.9,-5.1"
       style="fill:#000000;fill-opacity:1;fill-rule:nonzero;stroke:none"
       transform="matrix(1.3333333,0,0,-1.3333333,192.26667,38.666667)"
       clip-path="url(#clipPath29)" />
    <path
       id="path30"
       d="m 0,0 h -2.5 c 0,1 -0.6,1.4 -1.5,1.4 -0.9,0 -1.3,-0.3 -1.3,-0.9 0,-0.6 0.6,-0.8 2,-1.2 1.7,-0.4 3.6,-0.9 3.6,-3.2 0,-1.8 -1.6,-3 -4.2,-3 -2.6,0 -4.3,1.1 -4.3,3.4 h 2.7 c 0,-1 0.6,-1.5 1.7,-1.5 0.9,0 1.4,0.4 1.4,0.9 0,0.8 -0.7,1 -2.2,1.4 -1.5,0.4 -3.3,0.8 -3.3,3 0,1.7 1.6,2.9 3.9,2.9 2.5,0 4,-1.1 4,-3.2"
       style="fill:#000000;fill-opacity:1;fill-rule:nonzero;stroke:none"
       transform="matrix(1.3333333,0,0,-1.3333333,214.26667,36.133333)"
       clip-path="url(#clipPath31)" />
    <path
       id="path32"
       d="m 0,0 h -2.5 c 0,1 -0.6,1.4 -1.5,1.4 -0.9,0 -1.3,-0.3 -1.3,-0.9 0,-0.6 0.6,-0.8 2,-1.2 1.7,-0.4 3.6,-0.9 3.6,-3.2 0,-1.8 -1.6,-3 -4.2,-3 -2.6,0 -4.3,1.1 -4.3,3.4 h 2.7 c 0,-1 0.6,-1.5 1.7,-1.5 0.9,0 1.4,0.4 1.4,0.9 0,0.8 -0.7,1 -2.2,1.4 -1.5,0.4 -3.3,0.8 -3.3,3 0,1.7 1.6,2.9 3.9,2.9 2.5,0 4,-1.1 4,-3.2"
       style="fill:#000000;fill-opacity:1;fill-rule:nonzero;stroke:none"
       transform="matrix(1.3333333,0,0,-1.3333333,227.33333,36.133333)"
       clip-path="url(#clipPath33)" />
  </g>
</svg>
