<svg xmlns="http://www.w3.org/2000/svg" width="442.91" height="143.91" viewBox="0 0 442.91 143.91">
  <rect data-name="background" fill="#FFFFFF" width="442.91" height="143.91" />
  <polygon data-name="red_cross" fill="#D52D27" points="57.56,28.64 57.56,57.52 28.68,57.52 28.68,86.4 57.56,86.4 57.56,115.28 86.44,115.28 86.44,86.4 115.32,86.4 115.32,57.52 86.44,57.52 86.44,28.64" />
  <path data-name="text_rode_kors" fill="#282929" d="m 392,78.55 a 17.55,17.55 0 0 0 7.76,2.19 c 2.72,0 3.85,-0.95 3.85,-2.43 0,-1.48 -0.89,-2.25 -4.27,-3.31 -6,-2 -8.23,-5.27 -8.23,-8.71 0,-5.38 4.56,-9.47 11.79,-9.47 a 19.42,19.42 0 0 1 8.1,1.66 l -1.6,6.22 A 14.12,14.12 0 0 0 403.14,63 c -2.19,0 -3.43,0.89 -3.43,2.37 0,1.48 1.12,2.13 4.68,3.31 5.5,1.9 7.81,4.68 7.87,8.94 0,5.39 -4.26,9.41 -12.55,9.41 A 20.56,20.56 0 0 1 390.35,85 Z M 369.58,67 c 0,-4.26 -0.12,-7 -0.24,-9.53 h 7.75 l 0.3,5.33 h 0.24 a 8.51,8.51 0 0 1 7.81,-6 9.25,9.25 0 0 1 1.9,0.12 v 8.47 a 14,14 0 0 0 -2.49,-0.24 c -3.32,0 -5.57,1.77 -6.16,4.56 a 10.47,10.47 0 0 0 -0.17,2 v 14.71 h -9 z m -20.84,20.07 c -8.47,0 -15,-5.56 -15,-14.92 0,-9.36 6.16,-15.33 15.45,-15.33 8.88,0 14.8,6.1 14.8,14.8 0,10.6 -7.52,15.45 -15.21,15.45 z m 0.18,-6.45 c 3.49,0 5.74,-3.49 5.74,-8.7 0,-4.32 -1.66,-8.7 -5.74,-8.7 -4.33,0 -5.92,4.43 -5.92,8.7 0,5 2.07,8.7 5.86,8.7 z m -48.37,-34.1 h 8.94 v 17.64 h 0.18 c 0.89,-1.54 1.77,-3 2.72,-4.38 l 9.06,-13.26 h 11.07 l -13.2,17 13.91,22.91 h -10.54 l -9.77,-17.23 -3.43,4.21 v 13 h -8.94 z M 264,74.76 c 0.29,3.73 4,5.51 8.17,5.51 a 25.52,25.52 0 0 0 8,-1.19 l 1.18,6.1 A 28.63,28.63 0 0 1 270.83,87 c -9.82,0 -15.45,-5.74 -15.45,-14.8 0,-7.34 4.56,-15.45 14.62,-15.45 9.36,0 12.91,7.28 12.91,14.45 a 21.92,21.92 0 0 1 -0.3,3.61 z m 10.59,-6.16 c 0,-2.19 -0.94,-5.86 -5.09,-5.86 -3.79,0 -5.33,3.49 -5.56,5.86 z M 249.82,44.39 v 33.39 c 0,3.25 0.11,6.69 0.23,8.64 h -8 l -0.41,-4.26 h -0.12 a 10.1,10.1 0 0 1 -9.06,4.91 c -6.87,0 -12.37,-5.86 -12.37,-14.86 0,-9.76 6,-15.39 13,-15.39 3.56,0 6.34,1.24 7.64,3.26 h 0.12 V 44.39 Z m -9,25.34 a 14.18,14.18 0 0 0 -0.12,-1.6 5.4,5.4 0 0 0 -5.27,-4.44 c -4.08,0 -6.22,3.67 -6.22,8.23 0,4.91 2.43,8 6.16,8 a 5.27,5.27 0 0 0 5.21,-4.32 7.54,7.54 0 0 0 0.24,-2.07 z M 201.16,56.82 a 15,15 0 0 1 7,1.54 l 2.78,-4.08 3.14,2.19 -2.66,4 a 14.59,14.59 0 0 1 4.85,11.43 c 0,10.3 -7.58,15.21 -15.09,15.21 a 14.59,14.59 0 0 1 -6.87,-1.54 l -2.9,4.21 -3,-2.37 2.6,-3.85 c -3.14,-2.55 -5,-6.45 -5,-11.54 0,-9.12 6.16,-15.16 15.1,-15.16 z m 3.19,7.46 a 5.18,5.18 0 0 0 -3.19,-1.06 c -4.68,0 -6.46,4.67 -6.46,8.7 a 9.34,9.34 0 0 0 1.07,4.62 h 0.12 z m -6.21,15.28 a 4.32,4.32 0 0 0 3,1.06 c 4,0 6.45,-3.43 6.45,-8.52 a 10.89,10.89 0 0 0 -0.89,-4.5 l -0.18,-0.06 z M 152.85,47.05 a 79.71,79.71 0 0 1 12,-0.83 c 5.92,0 10.06,0.89 12.9,3.14 a 10.14,10.14 0 0 1 3.67,8.35 10.6,10.6 0 0 1 -7,9.83 v 0.17 c 2.78,1.13 4.32,3.79 5.33,7.46 1.24,4.5 2.48,9.71 3.25,11.25 h -9.23 c -0.65,-1.12 -1.66,-4.38 -2.79,-9.29 -1.13,-4.91 -2.78,-6.4 -6.45,-6.4 h -2.72 v 15.69 h -8.94 z m 8.94,17.17 h 3.55 c 4.5,0 7.16,-2.25 7.16,-5.74 0,-3.67 -2.48,-5.51 -6.63,-5.57 a 22.16,22.16 0 0 0 -4.08,0.3 z" />
</svg>
