<?xml version="1.0" encoding="UTF-8"?>
<svg id="Layer_1" data-name="Layer 1" xmlns="http://www.w3.org/2000/svg" viewBox="0 0 638.14 240">
  <defs>
    <style>
      .cls-1 {
        fill: #ee2435;
      }
    </style>
  </defs>
  <polygon class="cls-1" points="120.75 67.59 120.75 102.53 85.81 102.53 85.81 137.48 120.75 137.48 120.75 172.42 155.7 172.42 155.7 137.48 190.64 137.48 190.64 102.53 155.7 102.53 155.7 67.59 120.75 67.59"/>
  <path d="M525.43,127.98c2.88,1.6,6.1,2.51,9.39,2.65,3.29,0,4.66-1.15,4.66-2.94s-1.08-2.72-5.17-4.01c-7.26-2.42-9.96-6.38-9.96-10.54,0-6.51,5.52-11.46,14.27-11.46,3.37-.04,6.72.64,9.8,2.01l-1.94,7.53c-2.33-1.26-4.92-1.97-7.57-2.06-2.65,0-4.15,1.08-4.15,2.87s1.36,2.58,5.66,4.01c6.65,2.3,9.45,5.66,9.52,10.82,0,6.52-5.15,11.39-15.19,11.39-3.92.08-7.8-.76-11.33-2.46l2-7.8ZM498.3,114c0-5.15-.15-8.47-.29-11.53h9.38l.36,6.45h.29c1.29-4.18,5.08-7.09,9.45-7.26.77-.03,1.54.02,2.3.15v10.25c-.99-.19-2-.28-3.01-.29-4.02,0-6.74,2.14-7.45,5.52-.15.8-.21,1.61-.21,2.42v17.8h-10.89l.07-23.5ZM473.08,138.29c-10.25,0-18.15-6.73-18.15-18.05s7.45-18.55,18.69-18.55,17.91,7.38,17.91,17.91c0,12.83-9.1,18.69-18.4,18.69h-.05ZM473.3,130.48c4.22,0,6.95-4.22,6.95-10.53,0-5.23-2.01-10.53-6.95-10.53-5.24,0-7.16,5.36-7.16,10.53,0,6.05,2.5,10.53,7.09,10.53h.07ZM414.77,89.22h10.82v21.34h.22c1.08-1.86,2.14-3.63,3.29-5.3l10.96-16.04h13.39l-15.97,20.57,16.83,27.72h-12.75l-11.82-20.85-4.15,5.09v15.73h-10.82v-48.27ZM370.55,123.39c.35,4.51,4.84,6.67,9.89,6.67,3.28.04,6.55-.45,9.68-1.44l1.43,7.38c-4.07,1.53-8.39,2.27-12.73,2.2-11.88,0-18.69-6.95-18.69-17.91,0-8.88,5.52-18.69,17.69-18.69,11.33,0,15.62,8.81,15.62,17.48,0,1.46-.12,2.92-.36,4.37l-22.52-.06ZM383.36,115.94c0-2.65-1.14-7.09-6.16-7.09-4.59,0-6.45,4.22-6.73,7.09h12.89ZM353.39,86.65v40.4c0,3.93.13,8.09.28,10.45h-9.68l-.5-5.15h-.15c-2.29,3.84-6.5,6.11-10.96,5.94-8.31,0-14.97-7.09-14.97-17.98,0-11.81,7.26-18.62,15.73-18.62,4.31,0,7.67,1.5,9.24,3.94h.15v-18.98h10.85ZM342.5,117.31c-.01-.65-.06-1.29-.15-1.94-.56-3.09-3.24-5.35-6.38-5.37-4.94,0-7.53,4.44-7.53,9.96,0,5.94,2.94,9.68,7.45,9.68,3.09.02,5.75-2.19,6.3-5.23.21-.82.31-1.66.29-2.5v-4.6ZM294.51,101.69c2.93-.07,5.84.57,8.47,1.86l3.36-4.94,3.8,2.65-3.22,4.84c3.92,3.51,6.07,8.58,5.87,13.83,0,12.46-9.17,18.4-18.26,18.4-2.88.07-5.74-.57-8.31-1.86l-3.51,5.09-3.63-2.87,3.15-4.66c-3.8-3.09-6.05-7.8-6.05-13.96,0-11.04,7.45-18.34,18.27-18.34l.06-.05ZM298.37,110.71c-1.11-.84-2.47-1.3-3.86-1.28-5.66,0-7.82,5.65-7.82,10.53-.06,1.94.39,3.87,1.29,5.59h.15l10.24-14.83ZM290.86,129.2c1,.87,2.3,1.33,3.63,1.28,4.84,0,7.8-4.15,7.8-10.31.03-1.87-.34-3.73-1.08-5.44l-.22-.07-10.14,14.54ZM236.06,89.86c4.81-.7,9.66-1.04,14.52-1,7.16,0,12.17,1.08,15.61,3.8,3,2.47,4.64,6.22,4.44,10.1-.07,5.34-3.45,10.08-8.47,11.89v.21c3.36,1.37,5.23,4.59,6.45,9.03,1.5,5.44,3,11.75,3.93,13.61h-11.17c-.79-1.36-2.01-5.3-3.38-11.24-1.37-5.94-3.36-7.74-7.8-7.74h-3.29v18.98h-10.82l-.02-47.64ZM246.87,110.64h4.3c5.44,0,8.66-2.72,8.66-6.95,0-4.44-3-6.67-8.02-6.74-1.65-.03-3.31.09-4.94.36v13.32Z"/>
</svg>