<?xml version="1.0" encoding="UTF-8"?>
<svg id="Layer_1" data-name="Layer 1" xmlns="http://www.w3.org/2000/svg" viewBox="0 0 688.6 240">
  <defs>
    <style>
      .cls-1 {
        fill: #ee2435;
      }

      .cls-2 {
        fill-rule: evenodd;
      }
    </style>
  </defs>
  <path class="cls-2" d="M385.24,69.11c-.29-.09-.61-.18-.94-.29-.2,0-.43-.26-.64-.26-.12-.19-.4-.02-.5-.19-.2,0-.25-.38-.48-.38-.32-.36-.67-.73-1.01-1.1-1.02-.61-3.25-1.31-4.74-1.38-1.22-.04-2.83-.45-3.37.02-1.32.04-4.46.37-5.25-.24-.31-1.11-.67-1.93-.97-3.05-.09,0-.14-.3-.25-.3-.02-.18-.13-.06-.14-.25-.1,0-.1-.32-.2-.32-.14-.38-.29-.75-.41-1.12-.21-.1-.25-.53-.46-.63-.15-.39-.46-.4-.58-.78-.43-.27-.88-.55-1.32-.83-.09-.18-.22-.37-.35-.55-1.03-.19-2.1-.64-3.14-.82-1.02.09-2.03.2-3.04.3-.2,0-.38.28-.58.28,0,.09.08-.09.09,0-.18,0-.48.28-.7.28,0,.09.04,0,.05.09-.2,0-.43.18-.65.18l-.59.37c-.22,0-.39.21-.59.21,0,.08-.38.06-.37.16-.54.56-.18.49-.48.68.22,2.06.99,2.87,1.9,4.2.02.18.33.37.35.55.07.84.45,1.68.52,2.52,0,0,.8.55,1.01.84.57.09.63.28.63.28,1.03,0,2.04-.01,3.08-.02.11,0,.25.28.33.27-.57,1.03-.97.88-2.03,1.42-.2,0-.4.28-.61.28-.52,0-.51.19-.88.19,0,.08,0,.01,0,.09-.61.18-1.19.65-1.78.85-.42,0-.94.2-1.34.2,0,.08.13,0,.14.09-.52,0-1.01.28-1.53.29-.4.11-.79.2-1.2.29-.3,0-.58.29-.9.29-.21,0-.39.28-.59.28-.93.46-1.67,1.21-2.93,1.42-.15-.19-.68-.55-.68-.55-.05-.56-.1-1.13-.15-1.69-.36-.37-.99-.75-1.33-1.12-1.84,0-3.24.25-3.55,1.43.17.85.33,1.68.52,2.53-.08.37-.46.74-.52,1.12-.19.1-.14.26-.33.35.02.18-.23.3-.21.48l-.34.65c.02.18-.2.3-.19.48-.08,0-.07.33-.18.33.02.2-.09.05-.07.23-.11,0-.21.6-.31.6-.31.87.16,1-.42,1.66.42,1.98,2.07,2.28,3.09,3.62.3,0,.6,0,.9,0,.66-.74,1.31-1.49,1.96-2.25.05-.46.42-.93.48-1.41.08-.38.45-.74.51-1.11-.03-.3.27-.58.24-.86.29-.89-.15-1.58.44-2.24.67-1.2,1.02-.52,2.05-1.13.08-.19.16-.38.27-.57.2,0,.41-.38.62-.38.18-.3.35-.19.53-.48.2,0,.38-.27.59-.27,1.12-.22,2.19-.67,3.31-.87,1.41-.29,2.83-.58,4.22-.87.31,0,.59-.28.9-.28,0-.09.34-.01.33-.09.4,0,.47-.2.88-.2.3,0,.61-.28.9-.28,2.67-.11,5.27-.79,7.93-.89,1.55-.02,3.5-.12,4.62.25.02.28.32.37.07.84-.29.1-.22.32-.52.41-.09.19-.54.26-.64.43-.22,0-.33.3-.54.3-.1.19-.24.08-.34.27-.57.18-.59.48-.85.57-.22,0-.36.25-.55.25-.08.2-.25.13-.34.31-.39.11-.48.41-.88.51-.11.21-.5.17-.59.35-.21,0-.68.57-.88.57-.04.08-.02.04,0,0-.59.18-1.18.37-1.77.56-.05.09-.02.04,0,0-.21,0-.67.57-.87.57-.83.09-1.6.75-2.4.85-.9.28-1.79.57-2.69.87-.2,0-.38.26-.6.26-.2,0-.37.29-.59.29-.2,0-.38.29-.58.29l-.56.58c-.41.08-.82.18-1.22.27-.09.18-.16.38-.25.58-.88.46-1.76.93-2.64,1.41.02.28.05.55.07.84.13.18,2.28.65,2.81.54.43,0,.81-.28,1.21-.28.4-.09,1.05-.75,1.45-.85-.02.05-.04.09,0,0,.22,0,.49-.36.69-.36l.5-.21c.2,0,.4-.28.58-.28.87-.45,1.82-.46,2.36-1.13.51.09,1.06.17,1.55.28.17.36.29.74.42,1.1-.06.38-.45.75-.53,1.13-.09.04-.04.03,0,0,.02.19-.56.66-.55.84-.08.29-.46.56-.53.83-.29.1-.59.2-.88.3-.31,0-.58.29-.91.29-.79.09-1.57.74-2.39.83-.3.2-.58.38-.87.58-.07.28.14.55.07.84.02.18.03.36.05.55l.66.56c.2,0,.43,0,.63,0,.12.17.3,0,.42.19.2,0,.35.36.55.36.19.12.28.38.65.56-.05.56-.08,1.13-.15,1.68-3.95.74-6.69,1.89-9.89,3.16.53,1.5,2.48,1.85,3.93,2.5,0,.1.02.18.02.27.18,0,.42.29.63.29,1.25.4,4.46-.18,4.86-.59,1.34.05,1.06.16,1.89.55.1,1.24-.12,2.43-.33,3.37.03,1.48.08,2.97.09,4.47-.06.55-.42,1.13-.48,1.7.02.17-.27.37-.26.55-.2.08-.04.47-.25.58-.07.35-.48.43-.56.82-.09,0-.2,0-.29,0-.28.38-.54.76-.82,1.13-.2,0-.66.54-.87.56.02-.04.04-.08-.01,0-.19,0-.37.29-.58.29-.3,0-.59.28-.89.28-.92,0-1.86.01-2.76.02-1.52.41-3.09.6-5.19.6-.25.31.02.04-.29.29.13,1.15.53,1.61,1.4,1.95.4,0,.86.27,1.25.27.19,0,.44.27.64.27.2,0,.77.56.97.56.07.09.04.05,0,0,.41.1.85.47,1.27.56.42.09.86.46,1.27.56.31,0,.69.17.98.17,0,.1-.02.01-.01.1.18,0,.42.27.63.27,1.13.09,2.24-.1,3.37-.02.41,0,1.08-.56,1.49-.56.05-.1.03-.05,0,0,.48-.28,1-.57,1.47-.86.22-.09.34-.74.56-.84.96-.56,1.88-1.7,2.85-2.26-.04-.46.4-1.47.36-1.94.11,0-.06-.42.04-.42-.1-1.13.05-1.84-.04-2.96.1,0-.05-.84.04-.84-.03-.3.27-.57.24-.85-.1-1.12.12-2.24.02-3.36-.1-1.17.04-3.55-.68-4.2-.06-.66-.11-1.31-.17-1.96.09,0,.2,0,.32,0,.8-1.1,1.59-.62,2.97-1.16.3,0,.59-.27.89-.27.21,0,.4-.29.59-.29.92,0,1.82-.28,2.75-.29-.03.05-.05.09,0,0,.2,0,.68-.57.86-.57.18-.1.18-.38.57-.56.12,0,.18-.29.29-.29-.02-.27.26-.56.23-.84-.22-1.08-.65-1.45-1.1-2.24-1.04-.18-3-1.36-3.94-1.07,0,.09-.46.17-.45.26-.44.11-.34.4-.87.55-.11.19-.51.11-.59.3-.21,0-.38.28-.58.28-.21,0-.39.29-.59.29-.76.26-2.45,0-2.79-.27-.64-.16-.58.04-.94-.27-.16-.55-.6-1.11-.75-1.69-.07-1.6-.06-1.17.73-1.95.1-.19.19-.38.26-.55.32-.1.62-.2.91-.29.47-.58.94-1.13,1.4-1.7-.02-.17.11-.3.09-.48.09,0,.06-.08.15-.08-.02-.18.28-.37.27-.55-.02-.18.26-.37.24-.57.26-.76.12-2.21-.24-2.82-.02-.17-.32-.36-.34-.55.06-.37-.18-.74-.1-1.13.61-.09,1.19-.45,1.79-.56,1.86-.09,3.64-.48,5.48-.59.43,0,.82-.28,1.21-.28.32,0,.58-.29.91-.29.28,0,.57-.28.89-.28.62,0,1.24,0,1.84-.01,1.93-.56,4.55-1.62,4.93-3.4-.26-.53-.21-.73-.43-1.39"/>
  <path class="cls-2" d="M438.59,105.85c0-.4.11-.88.12-1.27-.13-.54-.08-1.08-.17-1.44.03-1.48-.37-2.71-.35-4.2.01-.61-.3-1.2-.29-1.79.01-.68-.28-1.39-.27-2.08.01-.59-.29-1.19-.28-1.79.02-.99-.28-1.97-.27-2.97.02-1.09-.26-2.17-.24-3.26.02-1.28-.28-2.57-.25-3.85-.09-.59-.18-1.2-.28-1.79.27-3.36.54-6.71.81-10.07,1.12-3.54,1.45-6.06-.49-8.99-1.01-.81-2-1.82-3.02-2.63-.32,0-.62-.31-.92-.32-.62-.01-1.24-.02-1.86-.03-.32,0-.61-.3-.93-.3-.31,0-.6-.31-.92-.32-.52,0-1.03-.31-1.54-.32-1.53-.46-3.98-.05-4.96.21-.61-.01-1.24.28-1.87.27-.2,0-.43.28-.61.27-.84.08-.45.23-1.28.31,0,.1-1.22.15-1.22.24-.31,0-.09.16-.4.15,0,.1-.54.04-.54.13-.2,0-.42.29-.62.28-.94.19-1.87.67-2.8.85-.74.08-.36.14-1.08.24,0,.09-1.11.22-1.11.31-.41.09-.23.18-.64.27,0,.11-.6.21-.6.29-.2,0-.39.16-.6.16,0,.1-.01.04-.01.14-.32,0-.63.28-.94.28-.42.1-.83.48-1.25.58-.42.08-.42.36-.84.46-.1.19-.62.2-.73.41,0,.1-.63.18-.63.28-.31.19-.62.39-.93.58,0,.39-.23.54-.24.95.1,0,.43.24.53.24,1.13,1.09,4.94.69,7.11.71,2.3.03,4.73-.52,6.22-1.38.12-.19.22-.39.32-.58.21,0,.42-.29.62-.28.42-.09.84-.48,1.25-.58.73-.08.85-.38,1.58-.47,0-.09.57-.14.57-.23.2,0,.45-.14.66-.13.65.01.83-.29,1.24-.28.73.01,1.45-.27,2.19-.26.88-.22,4.33-.12,4.63.08.31.11.61.51.92.61.2,1.14.74,3.81.21,5.34-.19.55-.66,1.26-.35,2.36,0,.29.3.59.29.9-.03,1.98-.07,3.96-.1,5.92,0,.11,0,.21,0,.3,0,.28-.32.59-.32.88-.16,2.57.01,5.15-.13,7.71-.13,1,.07,1.97-.05,2.96.09.98.19,1.98.26,2.96.05,1.14-.32,2.92.25,3.57-.03,1.92.16,4.52-.42,5.92-2.38-.11-1.88-1.62-2.41-3.29-.89-.15-1.92-.13-3.11.23-.3,0-.35.26-.65.25,0,.1-.26-.06-.27.03-.32,0-.63.28-.94.28-.82.09-1.66.44-2.48.54-1.25.08-2.49.15-3.73.25-1.4.37-3.26.99-4.67,1.39-1.24.08-2.5.45-3.73.52-1.64-.03-3.29-.06-4.95-.09-.4-.11-.82-.5-1.23-.61-.08-.54-.29-.59-.29-.59.02-.88-.28-1.6-.26-2.48-.11,0,.09-.18,0-.19.02-1-.28-1.98-.27-2.98,0-.39-.29-.79-.28-1.19.02-1.38.05-2.77.07-4.15,0,0-.15-.25.02-.89-.09-.89-.18-1.78-.27-2.67.03-1.49.37-2.96.39-4.45.49-1.61-.15-4.43.41-6.21.34-1.13,1.29-6.34.76-7.99-.1-.5-.81-1-.9-1.5-.51-.63-1-.91-1.21-1.8-.42-.59-1.08-.64-1.24-.32-.25.61-.64,2.22-.37,3.26-.11.78.1,1.57-.04,2.37-.01.68-.33,1.37-.34,2.06-.39,3.76-.74,7.5-1.13,11.24-.04,2.28-.08,4.55-.12,6.82-.02,1.38-.68,2.76-.7,4.14-.47,1.5-.13,4.42.22,5.63-.01.6.29,1.2.28,1.79,0,.3.31.59.3.9.19.59.69,1.2.88,1.79,0,.21.31.41.31.61.4.49.76,1.62,1.22,1.5,6.3.65,13.02.18,18.29-1.16.72.01,1.44.02,2.17.04,1.76-.46,4.15.08,5.28-1.1,2.27.08,1.9.55,2.44,2.12,0,.41-.01.8-.02,1.18,0,.41.92.5.91.91.1.05.04.02,0,0,.09.49.18,1,.28,1.49.21.1-.09-.08.13.02,0,.2.48.67.48.87.31.2.04.53.36.73.19.7.96,1.27,1.15,1.98.31.4.65.46.95.87.79.61,2.33,1.05,3.97.69-.03.05-.05.1,0,0,.21,0,.67-.13.94-.58.21-.57.44-1.17.66-1.76.04-2.37.38-4.74.43-7.1-.13-.58,0,.08-.1.08"/>
  <path d="M429.34,108.56h0c-.11-.05-.06-.03,0,0"/>
  <path class="cls-2" d="M411.08,72.09c-.21,0-.37.18-.57.18,0,.11-.05.02-.05.11-1.55.08-3.1.15-4.64.21-.28.34.03.05-.33.3-.01.69-.02,1.39-.04,2.07.52.41,1.03.81,1.54,1.22,0,0,.16.24.37.24.38.51,1.04,1.06,1.46,1.56.2,0,.4.29.6.29.21,0,.41.32.62.32,0,.1.93.2.93.3.3,0,.61.31.92.32,0,.1.62.21.62.31.31.09.61.2.91.31,0,.28-.01.6-.02.89-.1,0-.01.14-.12.13,0,.1-.18.06-.18.15-.11,0-.21.29-.31.29-.21,0-.41.18-.6.18,0,.1-.02,0-.02.11-.22,0-.41.29-.63.28-.19,0-.29.34-.5.33-.11.18-.33.05-.45.25-.19,0-.41.3-.61.29-.2,0-.31.23-.51.23,0,.1-.11-.04-.11.06-.31.09-.61.19-.93.28-.34,1.56-.48,4.2.84,5.06,0,.59-.02,1.17-.03,1.76-.62.5-1.25.97-1.87,1.46-1.01,1.36-1.57,4.71-.1,5.93.56.56,4.68,1.08,6.17.7.52,0,1.03-.29,1.55-.29.31,0,.62-.27.93-.27v-.1c.32,0,.63-.19.94-.19.31,0,.63-.27.93-.27-.03.04-.06.08,0,0,.21,0,.73-.59.94-.58.31-.38.64-.78.95-1.17.12-.19.84-.38.95-.58.21,0,.6-.33.81-.33.42-.48.65-.64,1.07-1.13.2,0,.16-.15.35-.15,0-.09.27-.03.27-.13.32-.2.63-.39.94-.57.11-.5.53-.98.66-1.48.02-1.07-.02-1.67-.28-2.36-1.73-.08-3.25-.05-4.05.8-.73-.19-.68-.32-1.23-.61.34-.89.65-1.76.98-2.65.12-.89.75-1.83.87-2.72.1,0-.01-.2.09-.19.01-.7.05-1.12.07-1.81,0-.39-.3-.79-.29-1.2-.72-.4-1.42-.81-2.14-1.22.29-1.91.59-1.25,1.95-1.96,0-.1.56-.25.56-.36.2,0,.26-.42.46-.41.1-.29.36-.16.48-.45.21-.1.42-.19.62-.29.43-.29.84-1.17,1.27-1.46.1,0,.22-.59.32-.59.36-.59.29-.41.65-1.17.01-.79.03-1.58.04-2.38-.12,0-.03-.44-.12-.44-.11-.31-.4-.15-.49-.45-.89-.33-1.25-.02-1.86-.03-.58.5-1.68.57-2.49.84-.41,0-.83.28-1.23.27-.32,0-.63.3-.94.3-.41.08-.84.47-1.24.56-1.25.08-2.49.46-3.73.52-.62.11-1.26.48-1.87.56"/>
  <path d="M423.26,83.86c0,.5-.02.99-.03,1.49.31.1.63.21.93.31.19.3.39.6.61.91.2,0-.12.05.09.05,0,.11.53.15.53.24.18,0,.39,0,.6.01.32,0,.62.01.94.02,1.36-.28,1.34-.94,1.59-2.35v-.28c-.02-2.44-2.18-2.56-4.29-2.16-.18.84-.33,1.38-.97,1.76"/>
  <path d="M419.8,76.38h0c-.05.09-.03.04,0,0"/>
  <path class="cls-2" d="M601.63,74.58c-.04-.17-.08-.34-.12-.51-.04,0-.08,0-.13,0-.31-.98.55-2.06.82-2.52,0-.08,0-.17,0-.25.09-.04.17-.08.26-.12.05-.17.09-.34.14-.51.04,0,.08,0,.13,0,0-.21.01-.42.02-.64-.56-.35-.39-.51-1.38-.54,0,.04,0,.08,0,.13-.3.04-.59.07-.89.11,0,.04,0,.08,0,.13-.08,0-.17,0-.25,0,0,.04,0,.08,0,.13-.13,0-.25,0-.38,0,0,.04,0,.08,0,.13-.08,0-.17,0-.25,0,0,.04,0,.08,0,.13-.21.04-.43.07-.64.11,0,.04,0,.08,0,.13-.13,0-.25,0-.38,0,0,.04,0,.08,0,.13-.13,0-.25,0-.38,0,0,.04,0,.08,0,.13-.13,0-.25,0-.38,0,0,.04,0,.08,0,.13-.13,0-.25,0-.38,0,0,.04,0,.08,0,.13-.17.04-.34.08-.51.11,0,.04,0,.08,0,.13-.13,0-.25,0-.38,0-.6.2-1.19.39-1.79.59-.04.08-.09.17-.13.25-.08,0-.17,0-.25,0-.09.12-.18.25-.26.37-.08,0-.17,0-.25,0,0,.04,0,.08,0,.13-.08,0-.17,0-.25,0,0,.04,0,.08,0,.13-.13,0-.25,0-.38,0,0,.04,0,.08,0,.13-.08,0-.17,0-.25,0,0,.04,0,.08,0,.13-.08,0-.17,0-.25,0-.04.08-.09.17-.13.25-.08,0-.17,0-.25,0-.13.17-.26.33-.39.5-.08,0-.17,0-.25,0-.04.08-.09.17-.13.25-.08,0-.17,0-.25,0-.09.12-.18.25-.26.38-.08,0-.17,0-.25,0-.04.08-.09.17-.13.25-.21.04-.43.07-.64.11,0,.04,0,.08,0,.13-.26.08-.51.16-.77.24,0,.04,0,.08,0,.13-.08,0-.17,0-.25,0-.22.25-.43.5-.65.75-.08,0-.17,0-.25,0l-.13.25c-.13,0-.25,0-.38,0,0,.04,0,.08,0,.13-.08,0-.17,0-.25,0,0,.04,0,.08,0,.13-.08,0-.17,0-.25,0,0,.04,0,.08,0,.13-.08,0-.17,0-.25,0,0,.04,0,.08,0,.13-.08,0-.17,0-.25,0,0,.04,0,.08,0,.13-.08,0-.17,0-.25,0,0,.04,0,.08,0,.13l-.77.24c-.26.38-.53.75-.79,1.12,0,.08,0,.17,0,.25-.09.04-.17.08-.26.12,0,.08,0,.17,0,.25-.39.33-.78.66-1.17.99,0,.08,0,.17,0,.25-.09.04-.17.08-.26.12-.17.21-.35.42-.52.62-.22.14-.29,0-.51.24-1.06-.02-1.35-.48-2.14-.69-.04-.13-.08-.26-.12-.38-.04,0-.08,0-.13,0-.04-.25-.07-.51-.11-.76-.04,0-.08,0-.13,0-.3-1.04.56-1.52.32-2.53-.04,0-.08,0-.13,0-.14-.57.18-1.8.31-2.15,0-.17,0-.34.01-.51.04,0,.08,0,.13,0,0-.08,0-.17,0-.25.13-.08.26-.16.39-.24,0-.08,0-.17,0-.25.09-.04.17-.08.26-.12,0-.08,0-.17,0-.25.09-.04.17-.08.26-.12.05-.17.09-.34.14-.51.09-.04.17-.08.26-.12.05-.17.09-.34.14-.51.04,0,.08,0,.13,0l.14-.38c.09-.04.17-.08.26-.12,0-.08,0-.17,0-.25.17-.12.34-.25.52-.37.05-.25.1-.51.15-.76.04,0,.08,0,.13,0,0-.13,0-.25,0-.38.04,0,.08,0,.13,0,0-.08,0-.17,0-.25.04,0,.08,0,.13,0,0-.13,0-.25,0-.38.04,0,.08,0,.13,0,0-.13,0-.25,0-.38.04,0,.08,0,.13,0,0-.08,0-.17,0-.25.04,0,.08,0,.13,0,0-.13,0-.25,0-.38.22-.29.44-.58.66-.87.17,0,.34,0,.51.01.13.32.35.62.49.9,0,.08,0,.17,0,.25.04,0,.08,0,.13,0,.04.17.08.34.12.51.08.04.17.09.25.13,0,.08,0,.17,0,.25.04,0,.08,0,.13,0,0,.08,0,.17,0,.25.04,0,.08,0,.13,0,.13.27-.02.55.11.89.04,0,.08,0,.13,0,.04.13.08.26.12.38.04,0,.08,0,.13,0,0,.04,0,.08,0,.13.08,0,.17,0,.25,0,.08.13.16.26.24.39.08,0,.17,0,.25,0,.08.13.16.26.24.39.21,0,.42,0,.64.02.26-.4.8-.71,1.29-.86.6-.18.64.2,1.15-.23.09-.04.17-.08.26-.12,0-.25.01-.51.02-.76.38-.4.07-2.21.07-2.79,0-1.26-.53-2.13-.82-3.07,0-.25.01-.51.02-.76-.05-.19-.22-.77-.1-1.15.04,0,.08,0,.13,0,.05-.21.09-.42.14-.63.23-.11.2-.17.51-.24.66-.54,1.02.49,1.77.3,0-.04,0-.08,0-.13.13,0,.25,0,.38,0,0-.04,0-.08,0-.13.73-.21,1.26.26,1.64.42.13,0,.25,0,.38,0,0,.04,0,.08,0,.13.08,0,.17,0,.25,0,0,.04,0,.08,0,.13.38.05.76.1,1.14.15,0,.04,0,.08,0,.13.08,0,.17,0,.25,0,.29.26.58.52.87.78,0,.08,0,.17,0,.25.12.09.25.18.38.26.08.26.16.51.24.77.04,0,.08,0,.13,0,0,.08,0,.17,0,.25.04,0,.08,0,.13,0-.01.51-.02,1.02-.04,1.52-.04,0-.08,0-.13,0-.17.6.44,1.65.72,1.8.25,0,.51.01.76.02.23-.26.47-.3.77-.49.04-.08.09-.17.13-.25.08,0,.17,0,.25,0,0-.04,0-.08,0-.13.08,0,.17,0,.25,0,0-.04,0-.08,0-.13.17,0,.34,0,.51.01,0-.04,0-.08,0-.13.17-.04.34-.08.51-.12,0-.04,0-.08,0-.13.08,0,.17,0,.25,0l.39-.5c.08,0,.17,0,.25,0,.04-.08.09-.17.13-.25.08,0,.17,0,.25,0,0-.04,0-.08,0-.13.51.01,1.02.02,1.52.04,0-.04,0-.08,0-.13.08,0,.17,0,.25,0,.04-.08.09-.17.13-.25.34-.2.64-.22,1.15-.23.22.25.28.11.5.27.04.09.08.17.12.26.08,0,.17,0,.25,0,.04.09.08.17.12.26.08,0,.17,0,.25,0v.13c.37.14.75.27,1.13.41.04.09.08.17.12.26l.5.14c.04.09.08.17.12.26.33.3.66.61.99.91,0,.08,0,.17,0,.25.08.04.17.09.25.13.13.22.35,1.11.22,1.53-.04,0-.08,0-.13,0-.15.5.13,1.2-.16,1.52,0,.08,0,.17,0,.25-.04,0-.08,0-.13,0-.35.37-.7.75-1.04,1.12-.08,0-.17,0-.25,0v.13c-.26.08-.51.16-.77.24,0,.04,0,.08,0,.13-.13,0-.25,0-.38,0,0,.04,0,.08,0,.13-.17.04-.34.08-.51.12,0,.04,0,.08,0,.13-.08,0-.17,0-.25,0-.04.08-.09.17-.13.25-.08,0-.17,0-.25,0l-.13.25c-.08,0-.17,0-.25,0,0,.04,0,.08,0,.13-.17.04-.34.08-.51.12,0,.04,0,.08,0,.13-.38.08-.77.15-1.15.23,0,.04,0,.08,0,.13-.59-.06-1.18-.11-1.77-.17,0,.04,0,.08,0,.13-.39.17-.52.31-1.03.36-.14-.15,0-.05-.25-.13"/>
  <path class="cls-2" d="M571.04,91.54c-.73-.16-1.46-.63-1.94-1.08-.22-.25-.44-.49-.66-.74-.3,0-.59.02-.89.03-.03.26-.07.51-.1.77.04,0,.08,0,.13,0,.01.42.03.85.04,1.27-.04,0-.08,0-.13,0,.01.34.02.68.03,1.02.04,0,.08,0,.13,0,.02.76.05,1.52.07,2.29-.16.66.13,1.8-.05,2.54-.04,0-.08,0-.13,0,0,.3.02.59.03.89.04,0,.08,0,.13,0,0,.17.01.34.02.51.04,0,.08,0,.13,0,0,.17.01.34.02.51.04,0,.08,0,.13,0,0,.25.02.51.02.76.04,0,.08,0,.13,0,0,.3.02.59.03.89.04,0,.08,0,.13,0l.03,1.02c-.23.77-.46,1.54-.69,2.31.06.55.12,1.1.18,1.65-.22.88-.45,1.94-.67,2.82.02.68.04,1.35.06,2.03-.04,0-.08,0-.13,0-.04.17-.07.34-.11.51-.41.24-1.52,1.3-2.38.96-.04-.08-.09-.17-.13-.25-.08,0-.17,0-.25,0-.13-.4-.41-.61-.66-.87l-.26-.12c-.09-.25-.18-.5-.28-.75-.04,0-.08,0-.13,0-.21-.53.02-1.55.07-1.91-.06-.68-.13-1.35-.19-2.03.04,0,.08,0,.13,0,.03-.42.06-.85.09-1.27.17-.59.42-1.3.58-1.92-.02-1.95-.04-3.9-.05-5.84.04,0,.08,0,.13,0-.01-.38-.02-.76-.04-1.14.04,0,.08,0,.13,0-.01-.38-.02-.76-.04-1.14.04,0,.08,0,.13,0,0-.25-.02-.51-.02-.76.04,0,.08,0,.13,0,0-.17-.01-.34-.02-.51.04,0,.08,0,.13,0l-.02-.64s.08,0,.13,0c0-.13,0-.25-.01-.38.04,0,.08,0,.13,0-.07-1.01-.15-2.03-.22-3.04-.03-1.02.02-2.37-.23-3.17-.18-.58-.05-2.13.05-2.54.26-1.06-.4-2.86-.62-3.54-.08-1.23-.16-2.45-.24-3.68-.04,0-.08,0-.13,0-.06-.46-.11-.93-.17-1.39-.12-.32-.57-1.06-.43-1.64.04,0,.08,0,.13,0l-.02-.63s.08,0,.13,0c0-.17-.01-.34-.02-.51.04,0,.08,0,.13,0v-.25s.08,0,.12,0c.22-.52-.1-.53.61-.65.09.12.18.25.27.37.04,0,.08,0,.13,0,.37.48.14.63,1.04.6.04-.13.08-.26.12-.38.04,0,.08,0,.13,0,.18-.55-.11-1.02.21-1.53.12-.09.25-.18.37-.27,0-.08,0-.17,0-.25l.37-.27.11-.51s.08,0,.13,0c.14-.2.17-.23.24-.52.08,0,.17,0,.25,0,.12-.17.24-.35.37-.52.04,0,.08,0,.13,0,0-.08,0-.17,0-.25.08-.04.17-.09.25-.13,0-.08,0-.17,0-.25.08-.05.17-.09.25-.13,0-.08,0-.17,0-.25.08-.04.17-.09.25-.13.04-.13.08-.26.12-.39.08,0,.17,0,.25,0,.08-.13.16-.26.24-.39.08,0,.17,0,.25,0,.04-.09.08-.17.12-.26l.5-.4c.21-.31.23-.64.48-.9.21-.22.55-.3.75-.53.72-.02,1.44-.04,2.16-.07,0,.04,0,.08,0,.13.13,0,.25,0,.38-.01,0,.04,0,.08,0,.13.17.04.34.07.51.11,0,.04,0,.08,0,.13.59-.06,1.18-.12,1.77-.18.13.17.26.33.4.5.04,0,.08,0,.13,0v.25c.14.08.27.16.4.24.22.3.26.65.54.87.05.99-.22,1.38-.44,2.05,0,.17.01.34.02.51-.04,0-.08,0-.13,0,0,.08,0,.17,0,.25-.04,0-.08,0-.13,0-.08.26-.15.51-.23.77-.04,0-.08,0-.13,0-.04.17-.07.34-.11.51-.08.04-.17.09-.25.13-.06.68-.13,1.36-.19,2.04-.04,0-.08,0-.13,0,0,.17.01.34.02.51-.04,0-.08,0-.13,0-.07.47-.14.94-.21,1.4-.04,0-.08,0-.13,0,0,.13,0,.25.01.38-.04,0-.08,0-.13,0-.03.38-.06.76-.09,1.15-.04,0-.08,0-.13,0,0,.13,0,.25.01.38-.04,0-.08,0-.13,0,0,.13,0,.25.01.38-.04,0-.08,0-.13,0,0,.17.01.34.02.51-.04,0-.08,0-.13,0-.28.98.49,2.62.73,3.15v.38c.05,0,.1,0,.14,0,0,.08,0,.17,0,.25.04,0,.08,0,.13,0,0,.13,0,.25.01.38.04,0,.08,0,.13,0,.05.17.09.34.14.5.04,0,.08,0,.13,0,.05.21.1.42.15.63.04,0,.08,0,.13,0,0,.17.01.34.02.51.04,0,.08,0,.13,0l.18,1.65c.27.78.72,1.41.71,2.52-.1.72-.21,1.45-.31,2.17-.04,0-.08,0-.13,0,0,.13,0,.25.01.38-.04,0-.08,0-.13,0-.03.3-.07.6-.1.89-.04,0-.08,0-.13,0,0,.13,0,.25.01.38-.08.04-.17.09-.25.13,0,.08,0,.17,0,.25-.08.04-.17.09-.25.13v.25c-.08.04-.16.09-.24.13-.12.17-.24.35-.37.52-.08,0-.17,0-.25,0,0,.04,0,.08,0,.13-.5.23-1,.45-1.5.68,0-.04,0-.08,0-.13-.4-.09-.42-.24-.65-.49-.04,0-.08,0-.13,0v-.25s-.27-.25-.27-.25c-.08,0-.17,0-.25,0-.22-.25-.44-.49-.66-.74-.04,0-.08,0-.13,0,0-.08,0-.17,0-.25M568.07,73.71c-.42.46-1.5.19-2.28.2-.21.43-.24.56-.21,1.28.38.25.2.24.4.62.04,0,.08,0,.13,0,.33.74-.07,1.79.21,2.66.04,0,.08,0,.13,0,.01.34.02.68.03,1.02.04,0,.08,0,.13,0,0,.25.02.51.02.76.04,0,.08,0,.13,0,0,.3.02.59.03.89.04,0,.08,0,.13,0,.01.42.03.85.04,1.27.04,0,.08,0,.13,0,.01.34.02.68.03,1.02.04,0,.08,0,.13,0v.38c.1.04.18.08.27.12.05.17.1.34.14.5.13.08.26.16.39.24,0,.08,0,.17,0,.25.04,0,.08,0,.13,0,.26.45.1.69.54,1,0,.04,0,.08,0,.13.47-.01.93-.03,1.4-.04.17.17.94.22,1.15.09.04-.09.08-.17.12-.26.04,0,.08,0,.13,0l-.02-.51s.08,0,.13,0c-.06-.46-.11-.93-.17-1.39-.04,0-.08,0-.13,0,0-.13,0-.25-.01-.38-.04,0-.08,0-.13,0,0-.08,0-.17,0-.25-.04,0-.08,0-.13,0,0-.13,0-.25-.01-.38-.04,0-.08,0-.13,0,0-.13,0-.25-.01-.38-.04,0-.08,0-.13,0-.05-.17-.1-.34-.14-.5-.04,0-.08,0-.13,0v-.38c-.05,0-.1,0-.14,0l-.02-.63s-.08,0-.13,0c0-.25-.02-.51-.02-.76-.04,0-.08,0-.13,0-.01-.42-.03-.85-.04-1.27-.04,0-.08,0-.13,0,0-.25-.02-.51-.02-.76-.04,0-.08,0-.13,0,0-.17-.01-.34-.02-.51-.04,0-.08,0-.13,0,.03-.51.05-1.02.08-1.53-.04,0-.08,0-.13,0,0-.17-.01-.34-.02-.51-.04,0-.08,0-.13,0,0-.3-.02-.59-.03-.89.04,0,.08,0,.13,0,.08-.42-.17-.75-.29-1.01-.15-.1-.02.02-.13-.12-.34.01-.68.02-1.02.03"/>
  <path class="cls-2" d="M598.74,78.2c.07.39.47,1.03.21,1.66-.04,0-.08,0-.13,0,0,.08,0,.17,0,.25-.09.04-.17.08-.26.12-.09.25-.18.5-.27.76-.09.04-.17.08-.26.12,0,.08,0,.17,0,.25-.04,0-.08,0-.13,0,0,.08,0,.17,0,.25-.22.16-.43.33-.65.49l-.13.25c-.08,0-.17,0-.25,0l-.13.25c-.08,0-.17,0-.25,0l-.13.25c-.08,0-.17,0-.25,0-.09.12-.18.25-.26.37-.17.04-.34.08-.51.12,0,.04,0,.08,0,.13-.13,0-.25,0-.38,0,0,.04,0,.08,0,.13-.13,0-.25,0-.38,0,0,.04,0,.08,0,.13-.13,0-.25,0-.38,0,0,.04,0,.08,0,.13-.13,0-.25,0-.38,0l-.13.25c-.3.17-.66.11-1.02.23,0,.04,0,.08,0,.13-.34,0-.68-.02-1.02-.02,0,.04,0,.09,0,.13-.13,0-.25,0-.38,0,0,.04,0,.08,0,.13-.41.18-.68.23-1.28.22-.2-.31-.1-.08-.37-.26,0-.04,0-.08,0-.13-.08,0-.17,0-.25,0-.04-.09-.08-.17-.12-.26-.13-.05-.25-.09-.38-.14,0-.08,0-.17,0-.25-.04,0-.08,0-.13,0,0-.08,0-.17,0-.25-.2-.3-.41-.6-.61-.9-.08,0-.17,0-.25,0,0-.04,0-.08,0-.13-.47-.3-.58-.15-.61-.9.13-.06.23-.23.26-.25.13,0,.25,0,.38,0,0-.04,0-.08,0-.13.13,0,.25,0,.38,0v-.13c.17-.04.34-.08.51-.12,0-.04,0-.08,0-.13.13,0,.25,0,.38,0,0-.04,0-.08,0-.13l.77-.24s0-.08,0-.13c.08,0,.17,0,.25,0,0-.04,0-.08,0-.13.13,0,.25,0,.38,0,0-.04,0-.08,0-.13.13-.04.26-.08.38-.12,0-.08,0-.17,0-.25.13-.04.26-.08.38-.12.3-.33.61-.66.91-.99.22-.14.29,0,.51-.24.32.07.63.36,1.01.28,0-.04,0-.08,0-.13.13,0,.25,0,.38,0,0-.04,0-.08,0-.13.17-.04.34-.08.51-.12,0-.04,0-.08,0-.13.08,0,.17,0,.25,0,0-.04,0-.08,0-.13.38-.08.77-.15,1.15-.23,0-.04,0-.08,0-.13.08,0,.17,0,.25,0,0-.04,0-.08,0-.13.24-.08,1.89.23,2.03.3,0,.04,0,.08,0,.13.13.05.25.09.38.14"/>
  <path class="cls-2" d="M612.45,99.87c.08-.28.12-.31.27-.5.04,0,.08,0,.13,0,.05-.17.09-.34.14-.5l.26-.12c.05-.17.09-.34.14-.5.09-.04.17-.08.26-.12,0-.13,0-.25,0-.38.04,0,.08,0,.13,0,.05-.17.09-.34.14-.5.04,0,.08,0,.13,0,.05-.25.1-.51.15-.76.04,0,.08,0,.13,0,0-.21.01-.42.02-.63h.13c0-.34.02-.67.02-1.01.04,0,.08,0,.13,0,0-.21.01-.42.02-.64,0,0,.08,0,.13-.25.34-.17.22-.22.77-.24.08.13.16.26.24.39.04,0,.08,0,.13,0,.04.26.07.51.11.77.04,0,.08,0,.13,0-.01.59-.03,1.19-.04,1.78.04,0,.08,0,.13,0,0,.13,0,.25,0,.38.04,0,.08,0,.13,0,0,.25-.01.51-.02.76.04,0,.08,0,.13,0,.3,1.18-.61,2.14-.33,3.17.16.58.72,2.41.43,3.31-.04,0-.08,0-.13,0-.05.25-.1.51-.15.76-.13.06-.23.23-.26.25-.21.04-.43.07-.64.11-.13.17-.26.33-.39.5-.17.12-.34.25-.52.37l-.13.25c-.08,0-.17,0-.25,0l-.13.25c-.08,0-.17,0-.25,0l-.13.25c-.17.04-.34.08-.51.11,0,.04,0,.08,0,.13-.25,0-.51-.01-.76-.02-.67.18-1.57.22-2.42.2-.42,0-.85-.02-1.27-.03,0,.04,0,.08,0,.13-1.14-.07-2.28-.14-3.42-.21-1.69,0-3.39,0-5.08,0,0-.04,0-.08,0-.13-.21,0-.42,0-.63-.02,0-.04,0-.08,0-.13-.17,0-.34,0-.51-.01,0-.04,0-.08,0-.13l-.76-.27s0-.08,0-.13c-.08,0-.17,0-.25,0,0-.04,0-.08,0-.13-.42-.05-.84-.1-1.27-.16-.21-.26-.41-.52-.62-.78-.04,0-.08,0-.13,0,0-.08,0-.17,0-.25-.08-.04-.17-.09-.25-.13,0-.08,0-.17,0-.25-.12-.09-.25-.18-.38-.26-.04-.17-.08-.34-.11-.51-.04,0-.08,0-.13,0l-.24-.77h-.13c0-.17,0-.34.01-.51-.04,0-.08,0-.13,0,0-.17,0-.34.01-.51-.04,0-.08,0-.13,0,0-.21,0-.42.02-.63h-.13c.02-.64.03-1.27.05-1.91-.04,0-.08,0-.13,0,0-.13,0-.25,0-.38-.04,0-.08,0-.13,0,0-.38.02-.76.03-1.14h.13c0-.08,0-.17,0-.25.04,0,.08,0,.13,0-.03-.42-.06-.85-.1-1.27-.13-.05-.25-.09-.38-.14-.37-.36-1.13.13-1.53.22-.05.13-.09.25-.14.38h-.13c0,.08,0,.17,0,.25-.04,0-.08,0-.13,0v.38s-.14,0-.14,0c0,.08,0,.17,0,.25-.04,0-.08,0-.13,0,0,.08,0,.17,0,.25-.3.25-.6.49-.91.74,0,.08,0,.17,0,.25-.04,0-.08,0-.13,0,0,.08,0,.17,0,.25-.04,0-.08,0-.13,0,0,.13,0,.25,0,.38h-.13c0,.12,0,.25,0,.38-.04,0-.08,0-.13,0,0,.08,0,.17,0,.25-.17.12-.34.25-.52.37,0,.08,0,.17,0,.25l-.26.25c-.08,0-.17,0-.25,0l-.13.25c-.26.21-.52.41-.78.62,0,.04,0,.08,0,.13-.09.04-.17.08-.26.12,0,.08,0,.17,0,.25-.22.16-.43.33-.65.49-.04.08-.09.17-.13.25-.3.08-.6.16-.89.23-.04.08-.09.17-.13.25-.08,0-.17,0-.25,0l-.13.25c-.13,0-.25,0-.38,0,0,.04,0,.08,0,.13-.08,0-.17,0-.25,0,0,.04,0,.08,0,.13l-.64.11c-.22.29-.44.58-.66.87-.13,0-.25,0-.38,0,0,.04,0,.08,0,.13-.13,0-.25,0-.38,0,0,.04,0,.08,0,.13-.08,0-.17,0-.25,0,0,.04,0,.08,0,.13-.08,0-.17,0-.25,0l-.13.25c-.08,0-.17,0-.25,0-.17.21-.35.42-.52.62-.21.04-.43.07-.64.11,0,.04,0,.08,0,.13-.08,0-.17,0-.25,0v.13c-.09,0-.17,0-.26,0l-.13.25c-.17.04-.34.08-.51.11,0,.04,0,.08,0,.13-.5.17-1.59-.11-1.77-.3-.04,0-.08,0-.13,0,0-.3.01-.59.02-.89.04,0,.08,0,.13,0,.05-.21.09-.42.14-.63.04,0,.08,0,.13,0,0-.13,0-.25,0-.38.04,0,.08,0,.13,0,.05-.17.09-.34.14-.51.04,0,.08,0,.13,0,.05-.21.1-.42.14-.63h.13s0-.08,0-.12c.13-.04.26-.08.38-.12v-.13c.13,0,.26,0,.38,0,0-.04,0-.08,0-.13.08,0,.17,0,.25,0l.13-.25c.41-.37.75-.76,1.17-1.12l.13-.25c.17,0,.34,0,.51.01,0-.04,0-.08,0-.13.3,0,.59.01.89.02,0-.04,0-.08,0-.13.17-.04.34-.08.51-.12.15-.66.51-1,.92-1.38l.13-.25c.08,0,.17,0,.25,0,.09-.12.18-.25.26-.38.13-.04.26-.08.38-.12,0-.13,0-.25,0-.38.04,0,.08,0,.13,0,.05-.17.09-.34.14-.51.13-.08.26-.16.39-.24,0-.08,0-.17,0-.25.17-.12.34-.25.52-.37,0-.08,0-.17,0-.25.17-.12.34-.25.52-.37,0-.08,0-.17,0-.25.22-.16.43-.33.65-.49,0-.08,0-.17,0-.25l.26-.25c0-.08,0-.17,0-.25.04,0,.08,0,.13,0,0-.08,0-.17,0-.25.04,0,.08,0,.13,0,0-.08,0-.17,0-.25.09-.04.17-.08.26-.12.26-.28.36-.48.41-1.01h-.13c-.04-.22-.07-.43-.11-.64-.13-.09-.25-.18-.37-.26,0-.04,0-.08,0-.13-.5-.18-1.01-.36-1.51-.54,0-.04,0-.08,0-.13-.12-.09-.25-.17-.38-.26,0-.08,0-.17,0-.25-.08-.04-.17-.09-.25-.13,0-.08,0-.17,0-.25-.08-.04-.17-.09-.25-.13,0-.08,0-.17,0-.25-.13-.09-.25-.18-.38-.26-.34-.55-.35-1.26-.33-2.17.35-.19.32-.34.9-.36.56.6,2.19,0,2.8-.19.17,0,.34,0,.51.01,0-.04,0-.08,0-.13.21-.04.42-.07.64-.11.04-.08.09-.17.13-.25.08,0,.17,0,.25,0,.04-.08.09-.17.13-.25.3-.08.6-.16.89-.23.09-.12.17-.25.26-.37.17-.04.34-.08.51-.12,0-.04,0-.08,0-.13.34,0,.68.02,1.02.02,0-.04,0-.08,0-.13.08,0,.17,0,.25,0,0-.04,0-.08,0-.13.21-.04.43-.07.64-.11,0-.04,0-.08,0-.13.38,0,.76.02,1.14.03.05-.13.09-.25.14-.38.09-.04.17-.08.26-.12,0-.08,0-.17,0-.25.04,0,.08,0,.13,0,.04-.08.09-.17.13-.25.08,0,.17,0,.25,0,0-.04,0-.08,0-.13.08,0,.17,0,.25,0,.61-.31.85-.69,1.8-.72,0,.04,0,.08,0,.13.13,0,.25,0,.38,0,.04.09.08.17.12.26.08,0,.17,0,.25,0,0,.04,0,.08,0,.13.08,0,.17,0,.25,0,0,.04,0,.08,0,.13.25.14.99.34,1.13.53.04.17.08.34.12.51.08.04.17.09.25.13.03.42.06.85.1,1.27h-.13c-.05.25-.1.5-.15.76-.04,0-.08,0-.13,0,0,.08,0,.17,0,.25-.09.04-.17.08-.26.12,0,.08,0,.17,0,.25l-.26.12c-.17.21-.35.42-.52.62-.08,0-.17,0-.25,0-.56.28-1.47.33-1.68.98-.62.5-.38,1.27-.17,1.9,0,.17,0,.34-.01.51.04,0,.08,0,.13,0,0,.08,0,.17,0,.25.04,0,.08,0,.13,0,0,.13,0,.25,0,.38.08.04.17.09.25.13,0,.08,0,.17,0,.25.04,0,.08,0,.13,0,0,.13,0,.25,0,.38.04,0,.08,0,.13,0-.02.97-.05,1.95-.07,2.92.04,0,.08,0,.13,0,0,.17,0,.34-.01.51.04,0,.08,0,.13,0,.04.17.08.34.12.51.04,0,.08,0,.13,0-.02.68-.03,1.35-.05,2.03.04,0,.08,0,.13,0,0,.08,0,.17,0,.25.08.04.17.09.25.13,0,.08,0,.17,0,.25.04,0,.08,0,.13,0,0,.21-.01.42-.02.63.04,0,.08,0,.13,0,.04.21.07.43.11.64.33.18.67.36,1,.53.13,0,.25,0,.38,0,0,.04,0,.08,0,.13.08,0,.17,0,.25,0,0,.04,0,.08,0,.13.13,0,.25,0,.38,0,0,.04,0,.08,0,.13.08,0,.17,0,.25,0,0,.04,0,.08,0,.13.69.26,2.2-.31,2.68-.44.25,0,.51.01.76.02,0-.04,0-.08,0-.13.21,0,.42.01.63.02,0-.04,0-.08,0-.13.17,0,.34,0,.51.01,0-.04,0-.08,0-.13.25,0,.51.01.76.02,0-.04,0-.08,0-.13.51.01,1.02.02,1.52.04,0-.04,0-.08,0-.13.17-.04.34-.08.51-.11.09-.12.17-.25.26-.38.17-.04.34-.08.51-.12,0-.04,0-.08,0-.13.3-.03.59-.07.89-.11.75-.32.97-1.39,1.82-1.61"/>
  <path class="cls-2" d="M547.24,70.27c.21.04.36.21.5.33.02.04.05.08.07.12.04,0,.08,0,.12,0,.07.08.13.15.2.23.04,0,.08,0,.12,0,.17.17.35.34.52.51.04,0,.08,0,.12,0,.02.04.05.08.07.12.04,0,.08,0,.12,0,.09.09.17.19.26.28.04,0,.08,0,.12,0,.02.04.05.08.07.12.02,0,.04,0,.06,0,.02.04.05.08.07.12.04,0,.08,0,.12,0l.07.12s.08,0,.12,0c.02.04.05.08.07.12.04,0,.08,0,.12,0,.02.04.05.08.07.12.04,0,.08,0,.12,0,0,.02,0,.04,0,.06.04,0,.08,0,.12,0,0,.02,0,.04,0,.06.06,0,.12,0,.18,0,0,.02,0,.04,0,.06.06,0,.12,0,.18,0,0,.02,0,.04,0,.06.08,0,.16,0,.24-.01,0,.02,0,.04,0,.06.06,0,.12,0,.18,0,0,.02,0,.04,0,.06.06,0,.12,0,.18,0,0,.02,0,.04,0,.06.06,0,.12,0,.18,0,0,.02,0,.04,0,.06.06,0,.12,0,.18,0,0,.02,0,.04,0,.06.04,0,.08,0,.12,0,0,.02,0,.04,0,.06.06,0,.12,0,.18,0,.02.04.05.08.07.12.04,0,.08,0,.12,0,.23.19.47.37.7.56v.12c.07.04.14.07.2.11v.12c.2.28.43.5.33.93,0,.08.01.16.02.24-.02,0-.04,0-.06,0,0,.06.01.12.02.18h-.06c0,.06.01.12.02.18-.04.02-.08.04-.11.06,0,.04,0,.08.01.12-.02,0-.04,0-.06,0,0,.04,0,.08.01.12-.2.25-.39.49-.59.74-.04,0-.08,0-.12,0-.02.04-.03.08-.05.12-.04,0-.08,0-.12,0,0,.02,0,.04,0,.06-.08.02-.15.05-.23.07,0,.02,0,.04,0,.06-.1.02-.19.05-.29.07,0,.02,0,.04,0,.06l-.35.08s0,.04,0,.06c-.08,0-.16,0-.24.01,0,.02,0,.04,0,.06l-.7.15s0,.04,0,.06c-.04,0-.08,0-.12,0,0,.02,0,.04,0,.06-.04,0-.08,0-.12,0,0,.02,0,.04,0,.06-.04,0-.08,0-.12,0,0,.02,0,.04,0,.06-.04,0-.08,0-.12,0,0,.02,0,.04,0,.06-.04,0-.08,0-.12,0,0,.02,0,.04,0,.06-.04,0-.08,0-.12,0l-.11.12s-.08,0-.12,0c-.02.04-.03.08-.05.12-.04,0-.08,0-.12,0,0,.02,0,.04,0,.06-.11.04-.23.09-.34.13,0,.02,0,.04,0,.06-.12.03-.23.05-.35.08,0,.02,0,.04,0,.06-.34.13-.96-.02-1.3.12,0,.02,0,.04,0,.06-.06,0-.12,0-.18,0,0,.02,0,.04,0,.06-.08.02-.15.05-.23.07,0,.02,0,.04,0,.06-.06,0-.12,0-.18,0,0,.02,0,.04,0,.06-.04,0-.08,0-.12,0,0,.02,0,.04,0,.06-.06,0-.12,0-.18,0-.02.04-.03.08-.05.12-.04,0-.08,0-.12,0-.03.06-.07.12-.1.18-.04,0-.08,0-.12,0-.02.04-.03.08-.05.12-.04,0-.08,0-.12,0-.02.04-.03.08-.05.12-.04,0-.08,0-.12,0-.02.04-.03.08-.05.12-.06,0-.12,0-.18,0-.02.04-.03.08-.05.12-.08.02-.15.05-.23.07-.02.04-.03.08-.05.12-.06,0-.12,0-.18,0,0,.02,0,.04,0,.06-.04,0-.08,0-.12,0,0,.02,0,.04,0,.06-.06,0-.12,0-.18,0,0,.02,0,.04,0,.06-.06,0-.12,0-.18,0,0,.02,0,.04,0,.06-.06,0-.12,0-.18,0,0,.02,0,.04,0,.06h-.18s0,.05,0,.07c-.14.03-.27.05-.41.08,0,.02,0,.04,0,.06-.04,0-.08,0-.12,0,0,.02,0,.04,0,.06l-.77.04c-.53.03-.91.1-1.22.3-.04,0-.08,0-.12,0-.02.04-.03.08-.05.12-.04,0-.08,0-.12,0l-.11.12v.12s-.1.08-.16.13c0,.04,0,.08.01.12-.07.06-.15.13-.22.19v.12s-.07.04-.1.07c-.09.12-.18.25-.26.37-.04,0-.08,0-.12,0-.09.12-.18.25-.26.37-.04,0-.08,0-.12,0-.07.1-.14.2-.21.31-.04,0-.08,0-.12,0-.05.08-.1.16-.16.24-.04,0-.08,0-.12,0-.05.08-.1.16-.16.24-.04,0-.08,0-.12,0-.02.04-.03.08-.05.12-.08.02-.15.05-.23.07-.02.04-.03.08-.05.12-.08.02-.15.05-.23.07,0,.02,0,.04,0,.06-.04,0-.08,0-.12,0,0,.02,0,.04,0,.06-.11.04-.23.09-.34.13,0,.02,0,.04,0,.06-.06,0-.12,0-.18,0,0,.02,0,.04,0,.06-.04,0-.08,0-.12,0,0,.02,0,.04,0,.06-.04,0-.08,0-.12,0,0,.02,0,.04,0,.06-.06.02-.12.05-.17.07-.02.04-.03.08-.05.12-.04,0-.08,0-.12,0,0,.02,0,.04,0,.06-.06.02-.11.05-.17.07-.02.04-.03.08-.05.12-.04,0-.08,0-.12,0-.05.08-.1.16-.16.24-.04,0-.08,0-.12,0-.07.1-.14.2-.21.31-.04,0-.08,0-.12,0-.02.04-.03.08-.05.12-.06.02-.11.04-.17.07,0,.02,0,.04,0,.06-.04,0-.08,0-.12,0-.02.04-.03.08-.05.12-.04,0-.08,0-.12,0-.02.04-.03.08-.05.12-.04,0-.08,0-.12,0-.02.04-.03.08-.05.12-.04,0-.08,0-.12,0-.05.08-.1.16-.16.24-.04,0-.08,0-.12,0-.34.37-.69.74-1.03,1.12v.12s-.32.31-.32.31c0,.04,0,.08.01.12-.06.04-.11.08-.17.13,0,.02,0,.04,0,.06-.04,0-.08,0-.12,0-.04.2-.16.28-.26.43-.02,0-.04,0-.06,0-.09.16-.32.93-.19,1.25.08.2.27.36.35.58.04,0,.08,0,.12,0v.12c.15.03.16.04.26.11,0,.02,0,.04,0,.06.1.02.2.03.3.04,0,.02,0,.04,0,.06.3,0,.59.01.89.02,0-.02,0-.04,0-.06.29-.03.59-.07.88-.1,0-.02,0-.04,0-.06.08-.02.15-.05.23-.07.11-.14.21-.29.32-.43.04,0,.08,0,.12,0,.03-.06.07-.12.1-.18.04,0,.08,0,.12,0,.05-.08.1-.16.16-.24.08-.02.15-.05.23-.07.02-.04.03-.08.05-.12.12-.04.23-.09.34-.13.02-.04.03-.08.05-.12.08-.02.15-.05.23-.07.03-.06.07-.12.1-.18.04,0,.08,0,.12,0,.02-.04.03-.08.05-.12.04,0,.08,0,.12,0,.05-.08.1-.16.16-.24.04,0,.08,0,.12,0,.05-.08.1-.16.16-.24.19-.14.97-.4,1.4-.3,0,.02,0,.04,0,.06h.3s0,.02,0,.04c.06,0,.12,0,.18,0,0,.02,0,.04,0,.06.06,0,.12,0,.18,0,0,.02,0,.04,0,.06.12.03.24.07.37.1l.07.12c.15.11.3.22.45.33v.12s.33.22.33.22c0,.04,0,.08.01.12l.32.22s0,.08.01.12c.06.04.13.07.19.11v.12s.05,0,.07,0c.04.06.09.11.13.17.26.21.51.41.77.62,0,.04,0,.08.01.12.04.02.08.04.12.05.02.06.05.12.07.17h.06c.05.11.1.23.15.35.02,0,.04,0,.06,0v.12s.07,0,.07,0c0,.06.01.12.02.18.02,0,.04,0,.06,0,.06.12.17.64.13.82-.02,0-.04,0-.06,0l-.03.3c-.26.19-.52.38-.78.57-.06,0-.12,0-.18,0,0,.02,0,.04,0,.06-.04,0-.08,0-.12,0,0,.02,0,.04,0,.06-.08,0-.16,0-.24.01,0,.02,0,.04,0,.06-.04,0-.08,0-.12,0,0,.02,0,.04,0,.06-.08,0-.16,0-.24.01,0,.02,0,.04,0,.06-.18.03-.35.06-.53.08,0,.02,0,.04,0,.06-.27.03-.55.07-.82.1-.61.21-1.3.3-1.92.51-.2-.01-.4-.02-.6-.03-.64.02-1.31.08-1.69.32-.02.04-.03.08-.05.12-.04,0-.08,0-.12,0-.03.06-.07.12-.1.18-.04,0-.08,0-.12,0,0,.02,0,.04,0,.06-.07.06-.15.13-.22.19v.12c-.06.06-.14.13-.21.19-.01.08-.03.16-.04.24-.04.02-.07.04-.11.07-.04.18-.09.36-.13.54-.02,0-.04,0-.06,0v.12s-.03,0-.05,0c0,.06.01.12.02.18-.02,0-.04,0-.06,0-.04.17.07.45.11.53l.04.41s.04,0,.06,0c0,.02,0,.04,0,.06l-.05.06s.04,0,.06,0c0,0,0,.5-.01.53-.02,0-.04,0-.06,0l.02.18h-.06c0,.06.01.12.02.18-.02,0-.04,0-.06,0,0,.08.01.16.02.24h-.06c.07.55.14,1.1.21,1.65-.02,0-.04,0-.06,0,.02.18.03.35.05.53-.02,0-.04,0-.06,0,.02.22.04.43.06.65-.02,0-.04,0-.06,0-.05.26.12,1.3.19,1.47.02.28.05.55.07.83.02,0,.04,0,.06,0,.01.12.02.24.03.35.02,0,.04,0,.06,0,.12.32.08,1.38.02,1.6h-.06c0,.08.01.16.02.24-.02,0-.04,0-.06,0,0,.18,0,.36-.01.53-.02,0-.04,0-.06,0,.07.57.14,1.14.21,1.71-.07.32-.07.76-.14,1.07,0,.08.01.16.02.24-.02,0-.04,0-.06,0,0,.06.01.12.02.18h-.06s0,.08.01.12c-.02,0-.04,0-.06,0l-.03.3s-.04,0-.06,0c-.03.12-.06.24-.09.36-.02,0-.04,0-.06,0-.03.12-.06.24-.09.36-.04.02-.07.04-.11.06-.01.08-.03.16-.04.24-.04.02-.07.04-.11.06,0,.06.01.12.02.18-.02,0-.04,0-.06,0,0,.06.01.12.02.18-.02,0-.04,0-.06,0v.12s-.03,0-.05,0c0,.06,0,.12.02.18h-.06s0,.08.01.12c-.02,0-.04,0-.06,0,0,.04,0,.08.01.12-.07.06-.15.13-.22.19,0,.04,0,.08.01.12h-.06c-.07.1-.14.21-.21.31-.04,0-.08,0-.12,0v.12s-.03,0-.05,0c-.11.14-.21.29-.32.43-.04,0-.08,0-.12,0-.07.1-.14.2-.21.31-.04,0-.08,0-.12,0-.2.25-.39.49-.59.74-.04,0-.08,0-.12,0,0,.02,0,.04,0,.06-.14.13-.23.31-.44.38v.12s-.07,0-.11,0c-.1.21-.17.18-.33.31-.07.1-.14.2-.21.31-.04,0-.08,0-.12,0-.05.08-.1.16-.16.24-.04,0-.08,0-.12,0-.02.04-.03.08-.05.12-.04,0-.08,0-.12,0,0,.02,0,.04,0,.06-.08.02-.15.05-.23.07,0,.02,0,.04,0,.06-.12.03-.23.05-.35.08,0,.02,0,.04,0,.06-.08,0-.16,0-.24.01,0,.02,0,.04,0,.06h-.3s0,.05,0,.07c-.17.06-.93.05-1.01-.01-.04,0-.08,0-.12,0,0-.02,0-.04,0-.06-.15-.11-.3-.22-.45-.33v-.12c-.07-.04-.14-.07-.2-.11v-.12c-.05-.02-.09-.04-.13-.05-.03-.06-.05-.12-.07-.17-.02,0-.04,0-.06,0,0-.04,0-.08-.01-.12-.06-.04-.13-.07-.19-.11v-.12s-.07,0-.07,0v-.12c-.05-.02-.09-.04-.13-.05-.05-.12-.1-.23-.15-.35-.06-.04-.13-.07-.19-.11v-.12c-.05-.02-.09-.04-.13-.05-.09-.09-.17-.19-.26-.28-.04,0-.08,0-.12,0-.04-.06-.09-.11-.13-.17-.08-.02-.16-.03-.24-.05-.02-.04-.05-.08-.07-.12-.04,0-.08,0-.12,0-.04-.06-.09-.11-.13-.17-.04,0-.08,0-.12,0,0-.02,0-.04,0-.06-.04,0-.08,0-.12,0-.02-.04-.05-.08-.07-.12-.08-.02-.16-.03-.24-.05-.02-.04-.05-.08-.07-.12-.04,0-.08,0-.12,0,0-.02,0-.04,0-.06-.04,0-.08,0-.12,0l-.13-.11s-.08,0-.12,0c-.02-.04-.05-.08-.07-.12-.08-.02-.16-.03-.24-.05-.02-.04-.05-.08-.07-.12-.04,0-.08,0-.12,0-.04-.06-.09-.11-.13-.17-.04,0-.08,0-.12,0-.02-.04-.05-.08-.07-.12-.19-.16-.28-.21-.4-.46,0-.06-.01-.12-.02-.18-.02,0-.04,0-.06,0-.06-.17.06-.33.08-.48.06-.04.11-.08.17-.13v-.06s.07,0,.11,0c.02-.04.03-.08.05-.12l.34-.13v-.06c.17-.03.35-.06.52-.08.1-.03.39-.13.59-.09.84.2,2.44.61,3.27.02.02-.04.03-.08.05-.12.04,0,.08,0,.12,0,.02-.04.03-.08.05-.12.04,0,.08,0,.12,0,0-.02,0-.04,0-.06.04,0,.08,0,.12,0,.05-.08.1-.16.16-.24.04,0,.08,0,.12,0,.09-.12.18-.25.26-.37.16-.17.33-.33.49-.5,0-.04,0-.08-.01-.12.04-.02.08-.04.11-.06.01-.08.03-.16.04-.24.04-.02.07-.04.11-.06,0-.04,0-.08-.01-.12h.06s0-.08-.01-.12c.02,0,.04,0,.06,0,0-.06-.01-.12-.02-.18.02,0,.04,0,.06,0,.01-.08.03-.16.04-.24.02,0,.04,0,.06,0,.02-.2.04-.4.07-.6.02,0,.04,0,.06,0,0-.06-.01-.12-.02-.18h.06c0-.24,0-.48,0-.71.02,0,.04,0,.06,0l-.04-.41s.04,0,.06,0c-.01-.14-.02-.28-.04-.41.02,0,.04,0,.06,0l-.03-.3h.06s-.03-.3-.03-.3c.02,0,.04,0,.06,0,0-.22,0-.44,0-.65.02,0,.04,0,.06,0-.02-.18-.03-.35-.05-.53.02,0,.04,0,.06,0,.02-.24.04-.48.06-.71.02,0,.04,0,.06,0,0-.06-.01-.12-.02-.18h.06s-.02-.18-.02-.18c.02,0,.04,0,.06,0,0-.06-.01-.12-.02-.18.02,0,.04,0,.06,0,0-.06-.01-.12-.02-.18.02,0,.04,0,.06,0l-.03-.3h.06c-.01-.12-.02-.24-.03-.36.02,0,.04,0,.06,0,.05-.24-.05-1.04-.1-1.18-.01-.16-.03-.31-.04-.47-.02,0-.04,0-.06,0,0-.06-.01-.12-.02-.18h-.06c-.05-.11-.1-.23-.15-.35-.02,0-.04,0-.06,0l-.04-.41s-.04,0-.06,0c0-.06,0-.12-.02-.18-.02,0-.04,0-.06,0-.03-.08-.05-.16-.08-.23h-.06c0-.06-.01-.12-.02-.17-.04-.02-.08-.04-.12-.05v-.12c-.05-.02-.09-.04-.13-.05v-.12c-.07-.04-.14-.07-.2-.11v-.12c-.11-.05-.22-.11-.32-.16-.07-.08-.13-.15-.2-.23-.04,0-.08,0-.12,0-.25-.15-.64-.48-1.16-.3,0,.02,0,.04,0,.06-.17.05-.35.1-.52.14,0,.02,0,.04,0,.06-.04,0-.08,0-.12,0-.02.04-.03.08-.05.12-.1.02-.19.05-.29.07,0,.02,0,.04,0,.06-.04,0-.08,0-.12,0,0,.02,0,.04,0,.06-.06,0-.12,0-.18,0,0,.02,0,.04,0,.06-.31.13-.75-.01-1.12.11v.06c-.43.04-.86.08-1.29.12,0-.02,0-.04,0-.06-.55.03-1.1.05-1.66.08v-.06c-.22,0-.44-.02-.66-.03-.24-.09-.92-.67-1.03-.9,0-.1-.02-.2-.03-.3.1-.1.04-.12.1-.24.02,0,.04,0,.06,0v-.12s.06-.04.1-.06c0-.04,0-.08-.01-.12.07-.06.15-.13.22-.19l.04-.24c.06-.04.11-.08.17-.13,0-.04,0-.08-.01-.12.02,0,.04,0,.06,0,.05-.08.1-.16.16-.24.83-.26,1.66-.51,2.49-.77,0-.02,0-.04,0-.06.04,0,.08,0,.12,0v-.06c.05,0,.11,0,.17,0,0-.02,0-.04,0-.06.06,0,.12,0,.18,0,0-.02,0-.04,0-.06.08-.02.15-.05.23-.07,0-.02,0-.04,0-.06.04,0,.08,0,.12,0,0-.02,0-.04,0-.06.06-.02.11-.04.17-.07.02-.04.03-.08.05-.12.08-.02.15-.05.23-.07.02-.04.03-.08.05-.12.08-.02.15-.05.23-.07.02-.04.03-.08.05-.12.04,0,.08,0,.12,0,.03-.06.07-.12.1-.18.04,0,.08,0,.12,0,.18-.23.36-.45.53-.68.04,0,.08,0,.12,0,.07-.1.14-.2.21-.31.04,0,.08,0,.12,0,.12-.16.25-.33.37-.49.06-.04.11-.08.17-.13v-.12s.1-.08.16-.13v-.12s.07-.04.1-.07c.01-.08.02-.16.04-.24.06-.04.11-.08.17-.13.01-.08.03-.16.04-.24.04-.02.08-.04.11-.07v-.12s.03,0,.05,0v-.12s.03,0,.05,0c0-.06-.01-.12-.02-.18h.06c.01-.08.03-.16.04-.24h.06c0-.06-.01-.12-.02-.18.04-.02.08-.04.11-.07,0-.08-.01-.16-.02-.24.02,0,.04,0,.06,0,0-.06-.01-.12-.02-.18.02,0,.04,0,.06,0,0-.06-.01-.12-.02-.18.02,0,.04,0,.06,0,0-.24,0-.47,0-.71.07-.31.21-.63.4-.85l.33-.31s.03-.08.05-.12c.04,0,.08,0,.12,0,.02-.04.03-.08.05-.12.04,0,.08,0,.12,0,.02-.04.03-.08.05-.12.04,0,.08,0,.12,0,.02-.04.03-.08.05-.12.04,0,.08,0,.12,0l.05-.12c.08-.02.15-.05.23-.07,0-.02,0-.04,0-.06.06-.02.11-.05.17-.07.02-.04.03-.08.05-.12.08-.02.15-.05.23-.07.02-.04.03-.08.05-.12.08-.02.15-.05.23-.07.02-.04.03-.08.05-.12.04,0,.08,0,.12,0,.03-.06.07-.12.1-.18.04,0,.08,0,.12,0,.02-.04.03-.08.05-.12.06-.02.12-.04.17-.07,0-.02,0-.04,0-.06.08-.02.15-.05.23-.07.07-.1.14-.2.21-.31.04-.02.08-.04.11-.06v-.12c.06-.06.14-.13.21-.19v-.12c.11-.28.14-.34.1-.78-.19-.11-.03-.09-.14-.23-.04-.02-.08-.04-.12-.05,0-.02,0-.04,0-.06-.15-.1-.37-.14-.5-.27-.34,0-.67,0-1.01-.01,0,.02,0,.04,0,.06-.06,0-.12,0-.18,0,0,.02,0,.04,0,.06-.04,0-.08,0-.12,0,0,.02,0,.04,0,.06-.06,0-.12,0-.18,0-.02.04-.03.08-.05.12-.04,0-.08,0-.12,0,0,.02,0,.04,0,.06-.08.02-.15.05-.23.07-.02.04-.03.08-.05.12-.08.02-.15.05-.23.07-.02.04-.03.08-.05.12-.04,0-.08,0-.12,0-.02.04-.03.08-.05.12-.04,0-.08,0-.12,0,0,.02,0,.04,0,.06-.12.04-.23.09-.34.13,0,.02,0,.04,0,.06-.06,0-.12,0-.18,0,0,.02,0,.04,0,.06-.06,0-.12,0-.18,0,0,.02,0,.04,0,.06-.04,0-.08,0-.12,0,0,.02,0,.04,0,.06-.06,0-.12,0-.18,0-.02.04-.03.08-.05.12-.08.02-.15.05-.23.07-.09.12-.18.25-.26.37-.04,0-.08,0-.12,0-.03.06-.07.12-.1.18-.08.02-.15.05-.23.07-.02.04-.03.08-.05.12-.04,0-.08,0-.12,0,0,.02,0,.04,0,.06-.04,0-.08,0-.12,0,0,.02,0,.04,0,.06-.1.02-.19.05-.29.07,0,.02,0,.04,0,.06-.1,0-.2,0-.3.01v.06c-.13,0-.27.01-.41.02v.06c-.09,0-.19,0-.29.01v.06c-.11.03-.23.05-.34.08,0,.02,0,.04,0,.06-.04,0-.08,0-.12,0v.06c-.28.17-1.21.64-1.79.5v-.06c-.16-.01-.32-.02-.48-.04v-.06c-.09-.02-.17-.03-.25-.05v-.06s-.08,0-.12,0c-.04-.06-.09-.11-.13-.17-.04,0-.08,0-.12,0,0-.02,0-.04,0-.06-.15-.11-.24-.23-.44-.27-.06-.15-.11-.19-.2-.29-.02,0-.04,0-.06,0-.12-.16-.36-.82-.28-1.17.02,0,.04,0,.06,0,0-.08-.01-.16-.02-.24.02,0,.04,0,.06,0,0-.04,0-.08-.01-.12.02,0,.04,0,.06,0,0-.04,0-.08-.01-.12.07-.06.15-.13.22-.19,0-.04,0-.08-.01-.12.07-.06.15-.13.22-.19v-.06s.07,0,.11,0c.03-.06.07-.12.1-.18.04,0,.08,0,.12,0,.02-.04.03-.08.05-.12.04,0,.08,0,.12,0,.02-.04.03-.08.05-.12.04,0,.08,0,.12,0,.02-.04.03-.08.05-.12.04,0,.08,0,.12,0,.07-.1.14-.2.21-.31.04,0,.08,0,.12,0,.09-.12.18-.25.26-.37.04,0,.08,0,.12,0,.07-.1.14-.2.21-.31.04,0,.08,0,.12,0,.03-.06.07-.12.1-.18.04,0,.08,0,.12,0,.02-.04.03-.08.05-.12.08-.02.15-.05.23-.07v-.06c.07-.02.15-.05.23-.07v-.06c.52-.1,1.05-.21,1.57-.31v-.06c.05,0,.11,0,.17,0v-.06s.07,0,.11,0v-.06c.17-.05.34-.1.52-.14,0-.02,0-.04,0-.06.08-.02.15-.05.23-.07,0-.02,0-.04,0-.06.39-.08.78-.16,1.17-.23,0-.02,0-.04,0-.06.08,0,.16,0,.24-.01,0-.02,0-.04,0-.06.06,0,.12,0,.18,0,0-.02,0-.04,0-.06.06,0,.12,0,.18,0,0-.02,0-.04,0-.06.06,0,.12,0,.18,0,0-.02,0-.04,0-.06.06,0,.12,0,.18,0,0-.02,0-.04,0-.06.06,0,.12,0,.18,0,0-.02,0-.04,0-.06.18-.03.35-.06.53-.08,0-.02,0-.04,0-.06.3-.01.59-.03.89-.04,0,.02,0,.04,0,.06.55-.05,1.1-.09,1.65-.14,0-.02,0-.04,0-.06.19-.06.28.06.42.04,0-.02,0-.04,0-.06.02,0,.04,0,.06,0,0,.02,0,.04,0,.06.12-.02.23-.05.35-.08.14,0,.28-.01.41-.02.49-.18,1-.43,1.49-.61.24-.01.47-.02.71-.03,0,.02,0,.04,0,.06.6.03,1.19.06,1.79.09,0-.02,0-.04,0-.06.25-.03.51-.06.76-.1v-.06c.11-.04.22-.09.34-.13,0-.02,0-.04,0-.06.04,0,.08,0,.12,0,.05-.08.1-.16.16-.24.06-.04.11-.08.17-.13,0-.02,0-.04,0-.06.04,0,.08,0,.12,0,.02-.04.03-.08.05-.12.13-.14.36-.44.55-.5,0-.04,0-.08-.01-.12.04,0,.08,0,.12,0,.18-.36.69-.72,1.05-.94.12-.05.23-.09.34-.14.02-.04.03-.08.05-.12.1-.02.19-.05.29-.07.02-.04.03-.08.05-.12.04,0,.08,0,.12,0,.02-.04.03-.08.05-.12.04,0,.08,0,.12,0,.02-.04.03-.08.05-.12.04,0,.08,0,.12,0,.02-.04.03-.08.05-.12.04,0,.08,0,.12,0,.11-.14.21-.29.32-.43.02,0,.04,0,.06,0,0-.06-.01-.12-.02-.18h.06c0-.08-.01-.16-.02-.24.02,0,.04,0,.06,0,.02-.13-.07-.17-.08-.17,0-.1-.02-.2-.03-.3-.02,0-.04,0-.06,0-.05-.12-.1-.23-.15-.35h-.06c-.08-.08-.09-.1-.14-.23-.18-.04-.24-.13-.38-.22,0-.02,0-.04,0-.06-.04,0-.08,0-.12,0,0-.02,0-.04,0-.06-.04,0-.08,0-.12,0,0-.02,0-.04,0-.06-.06,0-.12,0-.18,0,0-.02,0-.04,0-.06-.48-.13-1.35.21-1.64.32-.12,0-.24.01-.36.02,0,.02,0,.04,0,.06-.16,0-.32.02-.47.02,0,.02,0,.04,0,.06-.24.01-.47.02-.71.03,0,.02,0,.04,0,.06-.37.02-.75.04-1.12.05-.39.02-.79.04-1.18.06,0-.02,0-.04,0-.06-.14,0-.28.01-.41.02,0-.02,0-.04,0-.06-.06,0-.12,0-.18,0,0-.02,0-.04,0-.06-.1,0-.2,0-.3.01-.54-.13-1.22.05-1.65.2-.45.02-.91.04-1.36.07,0,.02,0,.04,0,.06-.06,0-.12,0-.18,0,0,.02,0,.04,0,.06-.04,0-.08,0-.12,0,0,.02,0,.04,0,.06h-.18s0,.05,0,.07c-.04,0-.08,0-.12,0,0,.02,0,.04,0,.06-.06,0-.12,0-.18,0,0,.02,0,.04,0,.06-.06,0-.12,0-.18,0,0,.02,0,.04,0,.06-.06,0-.12,0-.18,0,0,.02,0,.04,0,.06-.2.03-.39.06-.59.09,0,.02,0,.04,0,.06-.08.02-.15.05-.23.07-.02.04-.03.08-.05.12-.11.04-.23.09-.34.14,0,.02,0,.04,0,.06-.04,0-.08,0-.12,0,0,.02,0,.04,0,.06-.04,0-.08,0-.12,0,0,.02,0,.04,0,.06-.11.05-.23.09-.34.14,0,.02,0,.04,0,.06-.06,0-.12,0-.18,0,0,.02,0,.04,0,.06-.04,0-.08,0-.12,0,0,.02,0,.04,0,.06-.12.03-.23.05-.35.08,0,.02,0,.04,0,.06-.04,0-.08,0-.12,0,0,.02,0,.04,0,.06-.12.03-.23.05-.35.08,0,.02,0,.04,0,.06l-.35.08s0,.04,0,.06c-.04,0-.08,0-.12,0,0,.02,0,.04,0,.06-.11.04-.23.09-.34.13,0,.02,0,.04,0,.06-.37.1-.74.19-1.1.29,0,.02,0,.04,0,.06-.12.02-.23.05-.35.08v.06c-.09.02-.19.05-.28.07v.06c-.07.02-.15.05-.23.07,0,.02,0,.04,0,.06-.06,0-.12,0-.18,0-.02.04-.03.08-.05.12-.04,0-.08,0-.12,0,0,.02,0,.04,0,.06-.04,0-.08,0-.12,0v.06c-.05,0-.11,0-.17,0,0,.02,0,.04,0,.06-.04,0-.08,0-.12,0,0,.02,0,.04,0,.06-.14.03-.27.05-.41.08v.06c-.05,0-.11,0-.17,0v.06c-.05,0-.11,0-.17,0,0,.02,0,.04,0,.06-.06,0-.12,0-.18,0,0,.02,0,.04,0,.06-.06,0-.12,0-.18,0v.06c-.07.02-.15.05-.23.07,0,.02,0,.04,0,.06-.04,0-.08,0-.12,0-.02.04-.03.08-.05.12-.06,0-.12,0-.18,0-.02.04-.03.08-.05.12-.11.04-.23.09-.34.13-.02.04-.03.08-.05.12-.04,0-.08,0-.12,0-.02.04-.03.08-.05.12-.04,0-.08,0-.12,0-.02.04-.03.08-.05.12-.04,0-.08,0-.12,0v.06s-.07,0-.11,0l-.11.12s-.08,0-.12,0c-.02.04-.03.08-.05.12-.11.04-.23.09-.34.13-.02.04-.03.08-.05.12-.08.02-.15.05-.23.07,0,.02,0,.04,0,.06-.11.04-.23.09-.34.13v.06c-.05,0-.11,0-.17,0,0,.02,0,.04,0,.06-.12.04-.23.09-.34.13v.06s-.07,0-.11,0v.06s-.34.13-.34.13c-.02.04-.03.08-.05.12-.04,0-.08,0-.12,0v.06s-.07,0-.11,0v.06s-.07,0-.11,0l-.11.12s-.08,0-.12,0c-.02.04-.03.08-.05.12-.12.04-.23.09-.34.13-.02.04-.03.08-.05.12-.06,0-.12,0-.18,0v.06s-.07,0-.11,0c-.02.04-.03.08-.05.12-.04,0-.08,0-.12,0-.02.04-.03.08-.05.12-.04,0-.08,0-.12,0-.03.06-.07.12-.1.18-.04,0-.08,0-.12,0-.16.21-.32.41-.48.62-.22.21-.44.42-.66.62v.12c-.06.06-.14.13-.21.19v.12s-.1.08-.16.13v.12c-.06.06-.14.13-.21.19v.12s-.1.08-.16.13c-.12.16-.25.33-.37.49-.04,0-.08,0-.12,0-.07.1-.14.2-.21.31-.21.17-.49.32-.54.62-.04,0-.08,0-.12,0-.13.27-.37.43-.6.62-.03.06-.07.12-.1.18-.04,0-.08,0-.12,0-.03.06-.07.12-.1.18-.04,0-.08,0-.12,0-.02.04-.03.08-.05.12-.02,0-.04,0-.06,0-.02.04-.03.08-.05.12-.04,0-.08,0-.12,0-.07.1-.14.2-.21.31-.65.53-1.32,1.08-2.19,1.41-.12,0-.24.01-.35.02,0,.02,0,.04,0,.06-.1,0-.2,0-.3.01v-.06c-.14,0-.28.01-.42.02,0-.02,0-.04,0-.06-.06,0-.12,0-.18,0v-.06s-.08,0-.12,0v-.06s-.08,0-.12,0l-.07-.12s-.08,0-.12,0c-.07-.08-.13-.15-.2-.23-.02,0-.04,0-.06,0v-.12c-.05-.02-.09-.04-.13-.05l-.08-.23s-.08-.04-.12-.05c-.03-.08-.05-.16-.08-.23-.02,0-.04,0-.06,0,0-.08-.01-.16-.02-.24-.02,0-.04,0-.06,0,0-.06-.01-.12-.02-.18-.02,0-.04,0-.06,0,0-.1-.02-.2-.03-.3-.02,0-.04,0-.06,0,0-.22,0-.44,0-.65.02,0,.04,0,.06,0,0-.08-.01-.16-.02-.24.02,0,.04,0,.06,0,0-.06-.01-.12-.02-.18.02,0,.04,0,.06,0,0-.12.02-.24.03-.36.04-.02.07-.04.11-.07,0-.06-.01-.12-.02-.18.02,0,.04,0,.06,0,0-.04,0-.08-.01-.12.02,0,.04,0,.06,0,0-.04,0-.08-.01-.12.04-.02.08-.04.11-.06,0-.04,0-.08-.01-.12.06-.04.11-.08.17-.13,0-.04,0-.08-.01-.12l.11-.06.04-.18s.04,0,.06,0c0-.04,0-.08-.01-.12.04-.02.08-.04.11-.06v-.12s.03,0,.05,0c0-.04,0-.08-.01-.12.02,0,.04,0,.06,0,0-.06-.01-.12-.02-.18.02,0,.04,0,.06,0,0-.06-.01-.12-.02-.18.02,0,.04,0,.06,0,0-.08-.01-.16-.02-.24.02,0,.04,0,.06,0,0-.06-.01-.12-.02-.18.02,0,.04,0,.06,0,0-.06-.01-.12-.02-.18.02,0,.04,0,.06,0,0-.06-.01-.12-.02-.18.02,0,.04,0,.06,0v-.12s.03,0,.05,0c0-.06-.01-.12-.02-.18.02,0,.04,0,.06,0,0-.04,0-.08-.01-.12.02,0,.04,0,.06,0,0-.06-.01-.12-.02-.18.02,0,.04,0,.06,0,0-.08-.01-.16-.02-.24.02,0,.04,0,.06,0,0-.08-.01-.16-.02-.24.02,0,.04,0,.06,0,0-.1-.02-.2-.03-.3.02,0,.04,0,.06,0-.01-.16-.03-.31-.04-.47.02,0,.04,0,.06,0-.01-.14-.02-.28-.04-.41.02,0,.04,0,.06,0-.01-.12-.02-.24-.03-.35.02,0,.04,0,.06,0,0-.1-.02-.2-.03-.3.02,0,.04,0,.06,0,0-.18,0-.36.01-.53.02,0,.04,0,.06,0,0-.06-.01-.12-.02-.18.02,0,.04,0,.06,0l.03-.36s.08-.04.11-.06c0-.06-.01-.12-.02-.18.04-.02.08-.04.11-.06.01-.06.03-.12.04-.18.04,0,.08,0,.12,0v-.06c.06-.06.11-.05.16-.13.8-.03,1.43.07,1.94.38.28.26.56.53.84.79.04,0,.08,0,.12,0,.07.08.13.15.2.23.22.13.94.4,1.39.23,0-.02,0-.04,0-.06.12-.03.23-.05.35-.08v-.06s.07,0,.11,0v-.06c.05,0,.11,0,.17,0v-.06s.07,0,.11,0v-.06s.07,0,.11,0c.02-.04.03-.08.05-.12.08-.02.15-.05.23-.07.02-.04.03-.08.05-.12.04,0,.08,0,.12,0,.03-.06.07-.12.1-.18.04,0,.08,0,.12,0,.02-.04.03-.08.05-.12.04,0,.08,0,.12,0,.02-.04.03-.08.05-.12.04,0,.08,0,.12,0v-.06s.07,0,.11,0v-.06c.11-.05.22-.09.34-.14,0-.02,0-.04,0-.06.17-.07.34-.13.52-.2.02-.04.03-.08.05-.12.04,0,.08,0,.12,0v-.06s.07,0,.11,0l.11-.12s.08,0,.12,0c.02-.04.03-.08.05-.12.04,0,.08,0,.12,0v-.06c.05-.02.11-.05.17-.07.02-.04.03-.08.05-.12.17-.05.35-.1.52-.14v-.06c.11-.04.22-.09.34-.13,0-.02,0-.04,0-.06.04,0,.08,0,.12,0,0-.02,0-.04,0-.06.04,0,.08,0,.12,0v-.06s.34-.13.34-.13c.02-.04.03-.08.05-.12.08-.02.15-.05.23-.07.03-.06.07-.12.1-.18.12-.04.23-.09.34-.13.02-.04.03-.08.05-.12.06,0,.12,0,.18,0v-.06s.07,0,.11,0v-.06c.07-.02.15-.05.23-.07v-.06c.17-.07.34-.13.51-.2.03-.06.07-.12.1-.18.04,0,.08,0,.12,0,.02-.04.03-.08.05-.12.04,0,.08,0,.12,0,.02-.04.03-.08.05-.12.08-.02.15-.05.23-.07v-.06c.11-.05.22-.09.34-.14,0-.02,0-.04,0-.06.06,0,.12,0,.18,0v-.06c.07,0,.15,0,.23-.01v-.06c.09,0,.19,0,.29-.01v-.06c.09,0,.19,0,.29-.01v-.06s.29-.01.29-.01c0-.02,0-.04,0-.06.14-.03.27-.05.41-.08v-.06s.34-.13.34-.13v-.06s.07,0,.11,0c0-.02,0-.04,0-.06.06,0,.12,0,.18,0v-.06c.11-.05.22-.09.34-.14,0-.02,0-.04,0-.06.08-.02.15-.05.23-.07.02-.04.03-.08.05-.12.08-.02.15-.05.23-.07.03-.06.07-.12.1-.18.04,0,.08,0,.12,0,.02-.04.03-.08.05-.12.16-.17.33-.33.49-.5.03-.06.07-.12.1-.18.04,0,.08,0,.12,0,.04-.23.12-.18.27-.31.07-.1.14-.2.21-.31.04,0,.08,0,.12,0,.02-.04.03-.08.05-.12.09-.08.18-.17.27-.25.21-.27.43-.53.64-.8v-.12s.03,0,.05,0v-.12s.03,0,.05,0c0-.06-.01-.12-.02-.18.02,0,.04,0,.06,0,.01-.08.02-.16.04-.24.04-.02.08-.04.11-.06v-.12s.03,0,.05,0v-.12c.22-.25.46-.5.7-.75v-.12s.1-.08.16-.13c.12-.2.04-.34.32-.43.03-.17,0-.13.16-.19.15-.19.59-.24.8-.39.02-.04.03-.08.05-.12.04,0,.08,0,.12,0l.11-.12v-.12s.32-.31.32-.31c.05-.09.21-.68.1-.89-.04-.02-.08-.04-.12-.05v-.12c-.11-.02-.21-.03-.31-.04,0,.02,0,.04,0,.06h-.3s0,.05,0,.07c-.04,0-.08,0-.12,0,0,.02,0,.04,0,.06-.06,0-.12,0-.18,0,0,.02,0,.04,0,.06-.04,0-.08,0-.12,0,0,.02,0,.04,0,.06-.04,0-.08,0-.12,0-.02.04-.03.08-.05.12-.04,0-.08,0-.12,0-.11.14-.21.29-.32.43v.12s-.03,0-.05,0c0,.06.01.12.02.18h-.06c-.01.1-.02.2-.03.3-.02,0-.04,0-.06,0v.12s-.32.31-.32.31c-.04,0-.08,0-.12,0,0,.02,0,.04,0,.06-.14.03-.27.05-.41.08,0,.02,0,.04,0,.06-.08.02-.15.05-.23.07,0,.02,0,.04,0,.06-.06,0-.12,0-.18,0-.02.04-.03.08-.05.12-.12.05-.23.09-.34.14-.02.04-.03.08-.05.12-.06.02-.12.04-.17.07,0,.02,0,.04,0,.06-.21.09-.42.18-.63.27-.14,0-.28.01-.41.02,0,.02,0,.04,0,.06-.12,0-.24.01-.35.02,0-.02,0-.04,0-.06-.26,0-.52-.01-.77-.02v-.06s-.08,0-.12,0v-.06s-.08,0-.12,0c0-.02,0-.04,0-.06-.04,0-.08,0-.12,0-.17-.11-.34-.22-.5-.33,0-.04,0-.08-.01-.12-.06-.04-.13-.07-.19-.11v-.12c-.05-.02-.09-.04-.13-.05,0-.04,0-.08-.01-.12-.21-.13-.42-.26-.63-.38-.2,0-.39.02-.59.03,0,.02,0,.04,0,.06-.08.02-.15.05-.23.07-.02.04-.03.08-.05.12-.04,0-.08,0-.12,0-.02.04-.03.08-.05.12-.04,0-.08,0-.12,0-.03.06-.07.12-.1.18-.04,0-.08,0-.12,0-.03.06-.07.12-.1.18-.02,0-.04,0-.06,0,0,.04,0,.08.01.12-.06.04-.11.08-.17.13-.11.28-.23.56-.34.85,0,.08.01.16.02.24-.02,0-.04,0-.06,0,0,.16-.01.32-.02.48-.02,0-.04,0-.06,0,0,.06.01.12.02.18-.02,0-.04,0-.06,0,0,.06.01.12.02.18-.02,0-.04,0-.06,0,0,.06.01.12.02.18-.02,0-.04,0-.06,0,0,.06.01.12.02.18-.02,0-.04,0-.06,0-.01.08-.03.16-.04.24-.02,0-.04,0-.06,0v.12s-.07.04-.1.06c-.01.08-.03.16-.04.24-.06.04-.11.08-.17.13,0,.04,0,.08.01.12-.09.08-.18.17-.27.25v.12c-.15.17-.32.33-.48.5-.05.08-.1.16-.16.24-.04,0-.08,0-.12,0-.02.04-.03.08-.05.12-.04,0-.08,0-.12,0-.03.06-.07.12-.1.18-.04,0-.08,0-.12,0-.02.04-.03.08-.05.12-.04,0-.08,0-.12,0-.02.04-.03.08-.05.12-.04,0-.08,0-.12,0-.02.04-.03.08-.05.12-.04,0-.08,0-.12,0-.02.04-.03.08-.05.12-.24.17-1.07.64-1.62.49v-.06c-.13-.01-.25-.03-.37-.04v-.06s-.08,0-.12,0v-.06s-.08,0-.12,0c-.02-.04-.05-.08-.07-.12-.08-.02-.16-.03-.24-.05l-.07-.12s-.08,0-.12,0c-.07-.08-.13-.15-.2-.23-.04,0-.08,0-.12,0-.13-.13-.26-.26-.39-.4-.11-.07-.21-.15-.32-.22,0-.04,0-.08-.01-.12-.04-.02-.08-.04-.12-.05-.03-.08-.05-.16-.08-.23-.04-.02-.08-.04-.12-.05-.03-.08-.05-.16-.08-.23-.02,0-.04,0-.06,0,0-.04,0-.08-.01-.12-.02,0-.04,0-.06,0-.05-.12-.1-.23-.15-.35-.02,0-.04,0-.06,0,0-.06-.01-.12-.02-.18-.02,0-.04,0-.06,0v-.12s-.05,0-.07,0c-.03-.12-.06-.23-.09-.35-.02,0-.04,0-.06,0,0-.1-.02-.2-.03-.3-.09-.23-.32-1.12-.25-1.47.02,0,.04,0,.06,0-.02-.2-.03-.39-.05-.59.02,0,.04,0,.06,0-.02-.45-.04-.91-.06-1.36.02,0,.04,0,.06,0,0-.16.01-.32.02-.47.02,0,.04,0,.06,0,0-.04,0-.08-.01-.12.02,0,.04,0,.06,0,0-.06-.01-.12-.02-.18.02,0,.04,0,.06,0,0-.06-.01-.12-.02-.18.02,0,.04,0,.06,0,0-.06-.01-.12-.02-.18.02,0,.04,0,.06,0,.19-.73-.36-2.51.35-2.74.28-.31,1.45.25,1.76.39l.13.11s.08,0,.12,0c.04.06.09.11.13.17.04,0,.08,0,.12,0,.11.11.22.23.33.34.04,0,.08,0,.12,0,.04.06.09.11.13.17.04,0,.08,0,.12,0,.04.06.09.11.13.17.04,0,.08,0,.12,0,.02.04.05.08.07.12.04,0,.08,0,.12,0,0,.02,0,.04,0,.06.06.02.12.03.18.05.02.04.05.08.07.12.04,0,.08,0,.12,0,.04.06.09.11.13.17.08.02.16.03.24.05.02.04.05.08.07.12.04,0,.08,0,.12,0,.02.04.05.08.07.12.04,0,.08,0,.12,0,0,.02,0,.04,0,.06.06,0,.12,0,.18,0,.22.07.99.26,1.38.11,0-.02,0-.04,0-.06.06,0,.12,0,.18,0v-.06s.07,0,.11,0c0-.02,0-.04,0-.06.06,0,.12,0,.18,0,.02-.04.03-.08.05-.12.04,0,.08,0,.12,0,.03-.06.07-.12.1-.18.04,0,.08,0,.12,0,.05-.08.1-.16.16-.24.04,0,.08,0,.12,0,.03-.06.07-.12.1-.18.08-.02.15-.05.23-.07,0-.02,0-.04,0-.06.04,0,.08,0,.12,0v-.06s.34-.13.34-.13v-.06c.05,0,.11,0,.17,0v-.06s.07,0,.11,0v-.06s.07,0,.11,0v-.06c.05-.02.11-.05.17-.07.02-.04.03-.08.05-.12.04,0,.08,0,.12,0,.03-.06.07-.12.1-.18.04,0,.08,0,.12,0,.03-.06.07-.12.1-.18.15-.14.29-.29.44-.44,0-.04,0-.08-.01-.12.04-.02.08-.04.11-.06.03-.06.07-.12.1-.18.02,0,.04,0,.06,0v-.12c.08-.08.17-.17.26-.25,0-.04,0-.08-.01-.12l.33-.31s.03-.08.05-.12c.09-.07.13,0,.23-.13.5-.01.82.12,1.1.36.07.08.13.15.2.23.04,0,.08,0,.12,0,0,.02,0,.04,0,.06.08.06.17.11.25.17.09.09.18.19.26.28.04,0,.08,0,.12,0,.07.08.13.15.2.23.04,0,.08,0,.12,0,.09.09.18.19.26.28.22.11,1.15.03,1.48-.01.11-.02.11-.06.11-.06.22-.01.43-.02.65-.03,0-.02,0-.04,0-.06.08,0,.16,0,.24-.01,0-.02,0-.04,0-.06.06,0,.12,0,.18,0,0-.02,0-.04,0-.06.12-.05.23-.09.34-.14,0-.02,0-.04,0-.06.04,0,.08,0,.12,0,.02-.04.03-.08.05-.12.04,0,.08,0,.12,0,0-.02,0-.04,0-.06.04,0,.08,0,.12,0,0-.02,0-.04,0-.06.06,0,.12,0,.18,0,0-.02,0-.04,0-.06.04,0,.08,0,.12,0,0-.02,0-.04,0-.06.06,0,.12,0,.18,0,0-.02,0-.04,0-.06.08,0,.16,0,.24-.01,0-.02,0-.04,0-.06.1-.02.19-.05.29-.07,0-.02,0-.04,0-.06.08-.02.15-.05.23-.07,0-.02,0-.04,0-.06.06,0,.12,0,.18,0,0-.02,0-.04,0-.06.04,0,.08,0,.12,0,0-.02,0-.04,0-.06.04,0,.08,0,.12,0,.02-.04.03-.08.05-.12.04,0,.08,0,.12,0,.02-.04.03-.08.05-.12.04,0,.08,0,.12,0,0-.02,0-.04,0-.06.06-.02.11-.04.17-.07.02-.04.03-.08.05-.12.04,0,.08,0,.12,0,.03-.06.07-.12.1-.18.13-.12.26-.25.38-.37.14-.18.28-.37.43-.55.04,0,.08,0,.12,0,.05-.08.1-.16.16-.24.04,0,.08,0,.12,0,.05-.08.1-.16.16-.24.04,0,.08,0,.12,0,.03-.06.07-.12.1-.18.04,0,.08,0,.12,0,.03-.06.07-.12.1-.18.04,0,.08,0,.12,0,.07-.1.14-.2.21-.31.06-.02.12-.04.17-.07.02-.04.03-.08.05-.12.04,0,.08,0,.12,0,.02-.04.03-.08.05-.12.04,0,.08,0,.12,0,.02-.04.03-.08.05-.12.04,0,.08,0,.12,0,.02-.04.03-.08.05-.12.04,0,.08,0,.12,0,.02-.04.03-.08.05-.12.08-.02.15-.05.23-.07.05-.08.1-.16.16-.24.04,0,.08,0,.12,0,.11-.14.21-.29.32-.43.04,0,.08,0,.12,0,0-.02,0-.04,0-.06.04,0,.08,0,.12,0,.02-.04.03-.08.05-.12.04,0,.08,0,.12,0,0-.02,0-.04,0-.06.06-.02.11-.05.17-.07.02-.04.03-.08.05-.12.43-.26,1.18-.13,1.6-.02.08,0,.16,0,.24-.01,0,.02,0,.04,0,.06.14.01.28.03.42.04,0,.02,0,.04,0,.06l.37.1s0,.04,0,.06c.04,0,.08,0,.12,0,0,.02,0,.04,0,.06.04,0,.08,0,.12,0,.02.04.05.08.07.12.04,0,.08,0,.12,0,.04.06.09.11.13.17.04,0,.08,0,.12,0,.07.08.13.15.2.23.04,0,.08,0,.12,0,.04.06.09.11.13.17.04,0,.08,0,.12,0,.15.15.3.3.46.45.04.02.08.04.12.05.03.08.05.16.08.23.02,0,.04,0,.06,0,.03.08.05.16.08.23.02,0,.04,0,.06,0,.14.27.4,1.21.31,1.53-.02,0-.04,0-.06,0-.01.08-.03.16-.04.24h-.06s0,.08.01.12c-.04.02-.08.04-.11.07-.05.08-.1.16-.16.24-.04,0-.08,0-.12,0-.02.04-.03.08-.05.12-.08.02-.15.05-.23.07,0,.02,0,.04,0,.06-.12.02-.23.05-.35.08,0,.02,0,.04,0,.06-.08.02-.15.05-.23.07,0,.02,0,.04,0,.06-.04,0-.08,0-.12,0,0,.02,0,.04,0,.06-.06,0-.12,0-.18,0,0,.02,0,.04,0,.06-.12.04-.23.09-.34.13,0,.02,0,.04,0,.06-.08.02-.15.05-.23.07-.02.04-.03.08-.05.12-.08.02-.15.05-.23.07-.02.04-.03.08-.05.12-.04,0-.08,0-.12,0-.03.06-.07.12-.1.18-.04,0-.08,0-.12,0-.05.08-.1.16-.16.24-.71.58-1.12,1.42-1.71,2.1-.07.06-.15.13-.22.19,0,.02,0,.04,0,.06-.04,0-.08,0-.12,0-.07.1-.14.2-.21.31-.04,0-.08,0-.12,0-.03.06-.07.12-.1.18-.04,0-.08,0-.12,0-.03.06-.07.12-.1.18-.04,0-.08,0-.12,0-.02.04-.03.08-.05.12-.04,0-.08,0-.12,0-.05.08-.1.16-.16.24-.04,0-.08,0-.12,0-.02.04-.03.08-.05.12-.04,0-.08,0-.12,0-.02.04-.03.08-.05.12-.06.02-.11.04-.17.07,0,.02,0,.04,0,.06-.08.02-.15.05-.23.07,0,.02,0,.04,0,.06-.06.02-.11.05-.17.07-.02.04-.03.08-.05.12-.04,0-.08,0-.12,0-.02.04-.03.08-.05.12-.13.12-.26.25-.38.37v.12c-.1.1-.21.21-.32.31-.01.06-.03.12-.04.18-.06.04-.11.08-.17.13v.12s-.05,0-.05,0c-.05.08-.03.12-.1.18.05.29.09.59.14.88.11.07.21.15.32.22,0,.02,0,.04,0,.06.14.08.99.28,1.26.18,0-.02,0-.04,0-.06.12-.02.23-.05.35-.08.02-.04.03-.08.05-.12.08-.02.15-.05.23-.07,0-.02,0-.04,0-.06.08-.02.15-.05.23-.07,0-.02,0-.04,0-.06.06,0,.12,0,.18,0,0-.02,0-.04,0-.06.04,0,.08,0,.12,0,0-.02,0-.04,0-.06.06,0,.12,0,.18,0,0-.02,0-.04,0-.06.25-.05.51-.1.76-.15,0-.02,0-.04,0-.06.08,0,.16,0,.24-.01,0-.02,0-.04,0-.06.08,0,.16,0,.24-.01,0-.02,0-.04,0-.06.04,0,.08,0,.12,0,0-.02,0-.04,0-.06.08,0,.16,0,.24-.01,0-.02,0-.04,0-.06.53,0,1.07-.01,1.6-.02,0-.02,0-.04,0-.06.06,0,.12,0,.18,0,0-.02,0-.04,0-.06.16-.03.31-.05.47-.08,0-.02,0-.04,0-.06.16-.05.78.04.9.08,0,.02,0,.04,0,.06.26.03.52.05.78.08,0,.02,0,.04,0,.06.06,0,.12,0,.18,0,0,.02,0,.04,0,.06l.37.1s0,.04,0,.06c.04,0,.08,0,.12,0,.11.11.22.23.33.34.06.04.13.07.19.11,0,.04,0,.08.01.12.06.04.13.07.19.11.02.06.05.12.08.17.04.02.08.04.12.05.14.13.32.25.4.46"/>
  <path d="M329.79,76.87c-.03,1.75-1.2,2.04-2.91,1.63-.58-.14-1.06,0-1.59-.01-2.48-.03-5.7.56-7.99,1.28-.56.18-.96.54-1.1,1.17-.26,1.17-.55,2.33-.85,3.49-.85,3.21-1.02,7.63-1.09,11-.03,1.39-.17,2.89-1.23,4.03-.13.14-.26.35-.26.53.01,1.37-1.13,1.89-1.95,2.6-.47.41-1.06.45-1.72.08-1.68-.94-2.51-2.31-2.64-4.23-.06-.94-.83-1.78-.58-2.78.35-1.42.19-2.87.17-4.29-.03-1.58.35-4.01.2-5.58-.08-.83-.21-1.71-.57-2.52-.23-.51-.49-.57-.91-.36-1.98,1-4.12,1.14-6.28,1.3-1.22.09-2.43.46-3.65.65-1.84.29-3.95,1.34-5.82,1.17-.22-.02-.46-.07-.65-.18-1.34-.79-2.9-1.27-3.87-2.59-.33-.45-.82-.58-1.22-.88-1.12-.83-1.1-1.57-.06-2.44.83-.7,1.5-.69,2.5-.25,1.81.8,3.77.66,5.75.48,2.98-.26,5.8-1.13,8.67-1.87,1.46-.38,2.75-1.16,4.17-1.62.48-.15.52-.64.46-.99-.22-1.22-.05-2.43,0-3.63.06-1.08-.77-1.81-.77-2.81,0-.48-.17-.95-.42-1.36-.5-.78-.28-1.52.11-2.24.39-.71.63-1.49,1.26-2.09,1.19-1.13,1.96-1.94,3.66-1.15.95.44,2.04.73,2.96,1.17,1.14.54,2.59.94,3.09,2.45.21.62.75,1.09,1.1,1.66.48.79.52,2.24.49,3.1-.02.72.16,1.08,1,1.42,1.13.46,3.22.68,4.32.81.48.06.85-.26,1.27-.38,1.06-.31,2.17-.36,3.27-.35.41,0,.89.15,1.15.48.68.85,1.69.75,2,1.97.19.74.65,1.41.53,2.09"/>
  <path d="M270.47,68.51c-.1.92-.21,1.78-.62,2.56-.5.95-.47,2.18-1.11,3.07-.18.26-.22.73-.54.81-1.21.31-2.18,1.3-3.38,1.73-1.28.46-2.32,1.65-3.25,2.87-.45.59-.37,1.49-.5,2.19-.24,1.3-.59,4.63-.39,6.02.07.52.23.84.68,1.04,1.33.59,2.63.35,3.88-.28,2.09-1.05,4.13-.81,6.13.04.64.27,1.39.42,1.9.95,1.36.71,2.85.22,3.31,2.33.03.16.1.31.12.46.06.42.73.54.45,1-.38.63-.5,1.44-1.08,1.93-1.33,1.14-2.71,1.79-4.37,1.89-1.24.08-2.51.34-3.76.61-.68.15-1.4.1-2.11.18-.93.11-1.87.05-2.8.09-.75.03-1.35.72-2.14.75-.82.03-1.61.23-2.45.1-.84-.12-1.72.37-2.6.46-.56.06-1.08.2-1.62-.07-.17-.08-.39-.19-.54-.12-1.34.67-2.69.12-4.03.13-2.11.01-4.21.15-6.28-.61-1.48-.55-1.97-1.89-2.28-3.49-.05-.27.08-.64-.24-.74-.23-.07-.37.17-.53.36-1.4,1.75-2.81,3.5-4.35,5.07-.16.16-.25.43-.37.64-.42.73-.86,1.37-1.53,1.9-.91.73-1.98,1.13-2.82,2.02-.39.42-.99.45-1.49.64-1.83.7-3.5,1.88-5.35,2.5-1.46.49-2.91.98-4.44.68-1.31-.26-2.15-2.12-1.64-3.63.13-.39.22-.81.25-1.23.11-1.5.91-2.38,1.95-2.69,1.21-.36,2.19-1.19,3.25-1.87.61-.39,1.21-.81,1.82-1.22.12-.08.28-.14.28-.32,0-.23-.17-.32-.32-.37-1.77-.57-2.32-2.3-2.67-4.22-.06-.31-.03-.66.11-.96.55-1.18.81-2.49,1.27-3.71.21-.57.85-.69,1.24-1.12.39-.43.89-.72,1.14-1.34.14-.36.45-.31.69-.42.18-.08.36-.22.33-.49-.02-.23-.2-.26-.36-.31-.89-.26-1.61-1.14-2.62-.98-.12.02-.27-.19-.38-.32-.17-.2-.3-.47-.49-.63-1.4-1.18-1.94-2.97-2.35-4.89-.16-.77,0-1.51.26-2.09.54-1.14.94-2.4,1.71-3.38.26-.33.46-.74.64-1.14.11-.25.22-.49.44-.54,1.2-.25,1.89-1.42,2.73-2.31,1.12-1.17,2.18-2.42,3.32-3.55.53-.52,1.19-.97,1.83-1.39.51-.34,1.06-.66,1.39-1.31.24-.46.63-.72,1.01-.96.79-.51,1.48-1.15,2.03-2.05.27-.44.37-.88.36-1.37-.02-.83.38-1.32.94-1.53.52-.2.9.25,1.19.74.44.75.77,1.61,1.5,2.06.19.11.35.43.41.69.56,2.53,1.29,5.07.03,7.66-.07.13-.14.33-.11.46.29,1.1-.18,1.79-.84,2.42-.35.34-1.4,1.22-1.34,1.83.12,1.35-2.44,2.62-2.95,3.69-.35.73-.34,1.23.02,1.74,1.4,1.95,5.37-.4,3.14,5.63-.29.91.1,1.24.5,1.59.67.58,1.51.82,2.08,1.65.26.38.46.83.75,1.19.2.24.15.59-.06.89-.46.65-1.04,1.13-1.55,1.69-.8.87-1.96,1.29-2.37,2.67-.03.09-.09.23-.13.23-1.31.06-1.86,1.72-3.12,2.14-1.15.38-2.29,1.39-3.23,2.49-.37.43-.67.96-1.25,1-.15.01-.33.16-.29.39.04.25.25.23.4.19.96-.3,1.92-.57,2.78-1.22.47-.35.99-.56,1.48-.85,1.62-.96,2.96-2.41,4.36-3.72.68-.64,1.37-1.4,1.72-2.45.05-.15.09-.37.19-.42,1.23-.68,1.71-2.26,2.65-3.27.2-.21.43-.59.76-.29.3.28.31.72.15,1.07-.25.58-.6,1.09-.88,1.65-.13.27-.98,1.97-.8,2.31.2.39.96.27,1.18.27.69.02,1.31.26,2.01.28,1.26.03,2.48-.33,3.69-.76.49-.17.99-.41,1.48-.41,1.48,0,2.4-1.12,3.08-2.46.99-1.95,1.43-6.06.87-8.38-.17-.69-.53-1-1.02-1.2-.12-.05-.56-.3-.62-.38-1.15-1.62-2.9-1.81-3.59-4.06-.14-.47-.41-.93-.71-1.27-.53-.63-.49-1.49-.66-2.25-.17-.8.7-1.44,1.53-1.07,1.38.61,2.72.51,4.13.06.7-.22,1.48-.25,2.2-.29,1.35-.07,2.47-.82,3.65-1.41,1.4-.71,2.72-1.7,4.19-2.16,1.85-.58,3.69-.45,5.38.77.52.38.32.96.34,1.44"/>
  <path class="cls-2" d="M458.86,80.46c.03.1.06.2.09.3.21.04.29.13.46.21.06.3.12.6.19.91.03,0,.05,0,.08,0v.3s-.04,0-.06,0c0,.05,0,.1,0,.15-.03,0-.05,0-.08,0-.02.15-.04.31-.06.46-.03,0-.05,0-.08,0-.07.29.22.58.26.75,0,.03,0,.05,0,.08-.03,0-.05,0-.08,0,0,.18.01.35.02.53.02,0,.05,0,.08,0,0,.08,0,.15,0,.23.02,0,.05,0,.08,0,.01.38.03.76.04,1.14.03,0,.05,0,.08,0,0,.58,0,1.17-.01,1.75-.03,0-.05,0-.08,0-.03.09-.12.38-.06.53.03,0,.05,0,.08,0,0,.05,0,.1,0,.15.05.02.1.05.15.07.03.1.06.2.09.3.03,0,.05,0,.08,0,.1.24.04,1.71,0,1.9-.02,0-.05,0-.08,0-.13.53.17,1.11.28,1.44.15.44-.12.79-.11,1.22.03.25.07.5.1.76.02,0,.05,0,.08,0,0,.63,0,1.27,0,1.9.02,0,.05,0,.08,0,0,.08,0,.15,0,.23.02,0,.05,0,.08,0,0,.05,0,.1,0,.15.03,0,.05,0,.08,0-.01.33-.03.66-.04.99,0,.89.01,1.78.02,2.66-.03,0-.05,0-.08,0-.11.47.29.61.19,1.06-.03,0-.05,0-.08,0,0,.56,0,1.12-.01,1.67.03.13.18.45.1.68-.03,0-.05,0-.08,0-.07.18-.3.71-.19,1,.03,0,.05,0,.08,0,0,.05,0,.1,0,.15.03,0,.05,0,.08,0,.03.2.07.4.1.61-.16.11-.45.36-.51.55.04.53.09,1.06.13,1.59-.05.03-.1.05-.15.08,0,.05,0,.1,0,.15-.03,0-.05,0-.08,0,.01.33.02.66.04.99-.02,0-.05,0-.08,0,0,.05,0,.1,0,.15-.02,0-.05,0-.08,0,0,.08,0,.15,0,.23-.03,0-.05,0-.08,0,.03.15.06.3.09.45-.03,0-.05,0-.08,0,0,.05,0,.1,0,.15-.1.08-.2.16-.3.24,0,.05,0,.1,0,.15-.03,0-.05,0-.08,0-.02.28-.03.56-.05.84-.05.03-.1.05-.15.08,0,.05,0,.1,0,.15-.17.16-.34.32-.52.48,0,.05,0,.1,0,.15-.03,0-.05,0-.08,0-.02.05-.05.1-.07.15-.18,0-.35.01-.53.02-.23-.18-.34.08-.61-.05-.13-.15-.26-.29-.4-.44-.05,0-.1,0-.15,0-.03-.05-.05-.1-.08-.15l-.31-.06s0-.05,0-.08c-.08-.02-.15-.05-.23-.07-.03-.05-.05-.1-.08-.15-.05,0-.1,0-.15,0-.26-.27-.53-.54-.79-.81,0-.05,0-.1,0-.15-.21-.17-.42-.34-.63-.51-.03-.1-.06-.2-.09-.3-.05-.02-.1-.05-.15-.07,0-.05,0-.1,0-.15-.02,0-.05,0-.08,0-.03-.1-.06-.2-.09-.3-.03,0-.05,0-.08,0-.06-.25-.12-.5-.18-.75-.03,0-.05,0-.08,0,0-.08,0-.15,0-.23-.03,0-.05,0-.08,0,0-.08,0-.15,0-.23-.03,0-.05,0-.08,0,0-.05,0-.1,0-.15-.02,0-.05,0-.08,0-.13-.36.28-.54.2-.84-.03,0-.05,0-.08,0,0-.05,0-.1,0-.15-.03,0-.05,0-.08,0,0-.05,0-.1,0-.15-.05-.02-.1-.05-.15-.07-.21-.45.48-.58.26-1.15-.03,0-.05,0-.08,0,0-.05,0-.1,0-.15-.03,0-.05,0-.08,0-.06-.14.07-.95.11-1.07.03,0,.05,0,.08,0,.04-.23.08-.46.13-.69.05-.03.1-.05.15-.08,0-.05,0-.1,0-.15.05-.03.1-.05.15-.08,0-.05,0-.1,0-.15.03,0,.05,0,.08,0,0-.23-.02-.46-.03-.68.03,0,.05,0,.08,0,.05-.15.09-.31.14-.46.02,0,.05,0,.08,0,0-.05,0-.1,0-.15.02,0,.05,0,.08,0,0-.05,0-.1,0-.15.02,0,.05,0,.08,0,.04-.26.08-.51.12-.77.02,0,.05,0,.08,0,0-.05,0-.1,0-.15.03,0,.05,0,.08,0,0-.08,0-.15,0-.23.03,0,.05,0,.08,0,0-.08,0-.15,0-.23.03,0,.05,0,.08,0,0-.05,0-.1,0-.15.03,0,.05,0,.08,0,0-.05,0-.1,0-.15.02,0,.05,0,.08,0,0-.05,0-.1,0-.15.02,0,.05,0,.08,0,.04-.33.08-.66.12-.99.02,0,.05,0,.08,0,.02-.1.04-.2.07-.31.02,0,.05,0,.08,0,0-.08,0-.15,0-.23.03,0,.05,0,.08,0,0-.23-.02-.46-.02-.68.07-.05.15-.11.22-.16-.04-.3-.07-.61-.11-.91.02,0,.05,0,.08,0,.02-.1.04-.2.07-.31.03,0,.05,0,.08,0,0-.15-.01-.3-.02-.46.02,0,.05,0,.08,0,.02-.18.04-.36.06-.53.02,0,.05,0,.08,0,.09-.37-.3-.43-.18-.83.03,0,.05,0,.08,0,0-.05,0-.1,0-.15.03,0,.05,0,.08,0-.01-.28-.02-.56-.03-.84.03,0,.05,0,.08,0,0-.1,0-.2-.01-.3.03,0,.05,0,.08,0-.02-.43-.03-.86-.05-1.29.03,0,.05,0,.08,0,.01-.36.02-.71.04-1.07-.03,0-.05,0-.08,0,0-.15-.01-.3-.02-.46-.02,0-.05,0-.08,0,0-.06.12-.2.06-.38-.03,0-.05,0-.08,0,.01-.38.02-.76.03-1.14.03,0,.05,0,.08,0,0-.28-.02-.56-.03-.84-.02,0-.05,0-.08,0,0-.03,0-.05,0-.08.03,0,.05,0,.08,0-.06-.2-.12-.4-.17-.6-.03,0-.05,0-.08,0-.01-.41-.03-.81-.04-1.22.03,0,.05,0,.08,0-.01-.33-.02-.66-.04-.99.02,0,.05,0,.08,0-.04-.35-.08-.71-.12-1.06.03-.12.13-.53.05-.76-.02,0-.05,0-.08,0,0-.08,0-.15,0-.23-.03,0-.05,0-.08,0-.04-.51-.09-1.01-.13-1.52,0,0,.12-.07.07-.23-.03,0-.05,0-.08,0,0-.08,0-.15,0-.23-.03,0-.05,0-.08,0,0-.08,0-.15,0-.23-.03,0-.05,0-.08,0,0-.43.02-.86.03-1.29-.02,0-.05,0-.08,0,0-.05,0-.1,0-.15-.05-.02-.1-.05-.15-.07,0-.05,0-.1,0-.15-.02,0-.05,0-.08,0,.01-.33.03-.66.04-.99-.03,0-.05,0-.08,0,0-.05,0-.1,0-.15-.03,0-.05,0-.08,0-.01-.28-.02-.56-.03-.84-.02,0-.05,0-.08,0-.03-.1-.06-.2-.09-.3-.03,0-.05,0-.08,0-.01-.28-.02-.56-.03-.84-.02,0-.05,0-.08,0,0-.08,0-.15,0-.23-.03,0-.05,0-.08,0,0-.1,0-.2-.01-.3-.02,0-.05,0-.08,0,0-.05,0-.1,0-.15-.03,0-.05,0-.08,0,0-.08,0-.15,0-.23-.03,0-.05,0-.08,0-.03-.1-.06-.2-.09-.3-.02,0-.05,0-.08,0-.03-.2-.07-.4-.1-.6-.05-.02-.1-.05-.15-.07,0-.05,0-.1,0-.15-.1-.07-.21-.14-.31-.22-.15-.21.01-.55-.11-.83-.03,0-.05,0-.08,0,0-.05,0-.1,0-.15-.05-.02-.1-.05-.15-.07-.03-.1-.06-.2-.09-.3-.03,0-.05,0-.08,0-.04-.38-.08-.76-.12-1.14.03,0,.05,0,.08,0,0-.05,0-.1,0-.15.03,0,.05,0,.08,0,0-.05,0-.1,0-.15.05-.03.1-.05.15-.08.05-.08.1-.16.14-.23.28-.01.56-.02.84-.03.15-.2.33-.3.67-.33.06.07.39.34.47.36.33-.01.66-.02.99-.04.28.09.56.18.85.27.03.05.05.1.08.15.1.07.21.14.31.22,0,.05,0,.1,0,.15.05.02.1.05.16.07.03.1.06.2.09.3.02,0,.05,0,.08,0,0,.05,0,.1,0,.15.02,0,.05,0,.08,0,0,.08,0,.15,0,.23.02,0,.05,0,.08,0,0,.05,0,.1,0,.15.03,0,.05,0,.08,0,0,.08,0,.15,0,.23.03,0,.05,0,.08,0,0,.05,0,.1,0,.15.02,0,.05,0,.08,0,0,.05,0,.1,0,.15.08.05.16.1.23.14.04.28.07.56.11.83.03,0,.05,0,.08,0,0,.05,0,.1,0,.15.03,0,.05,0,.08,0,0,.13,0,.25.01.38.03,0,.05,0,.08,0,0,.13,0,.25.01.38.02,0,.05,0,.08,0,0,.18.01.35.02.53.03,0,.05,0,.08,0,0,.13,0,.25.01.38.02,0,.05,0,.08,0,0,.08,0,.15,0,.23.03,0,.05,0,.08,0,0,.13,0,.25.01.38-.02,0-.05,0-.08,0-.05.23.08.43.1.53.06.32-.19.65-.05.84,0,.05,0,.1,0,.15.1.07.21.14.31.22,0,.02,0,.05,0,.08.05,0,.1,0,.15,0,.16.17.32.34.48.52.05,0,.1,0,.15,0,.03.05.05.1.08.15.05,0,.1,0,.15,0,.05.07.11.15.16.22.05,0,.1,0,.15,0,.03.05.05.1.08.15.05,0,.1,0,.15,0,.03.05.05.1.08.15.05,0,.1,0,.15,0,.03.05.05.1.08.15.05,0,.1,0,.15,0,.03.05.05.1.08.15.05,0,.1,0,.15,0,.03.05.05.1.08.15.13.02.26.04.38.06,0,.03,0,.05,0,.08h.23s0,.04,0,.07c.05,0,.1,0,.15,0,0,.03,0,.05,0,.08.1.02.2.04.31.07,0,.03,0,.05,0,.08.36.04.71.08,1.07.11.29-.42.58-.83.87-1.25-.02-.36-.06-.51-.18-.75-.03,0-.05,0-.08,0-.04-.48-.09-.96-.13-1.44-.12-.33-.5-.75-.35-1.36.02,0,.05,0,.08,0-.04-.3-.07-.61-.11-.91.03,0,.05,0,.08,0,0-.05,0-.1,0-.15.05-.03.1-.05.15-.08,0-.05,0-.1,0-.15.03,0,.05,0,.08,0,.02-.18.04-.36.06-.53-.02,0-.05,0-.08,0,0-.03,0-.05,0-.08.02,0,.05,0,.08,0,0-.15-.01-.3-.02-.46.03,0,.05,0,.08,0,0-.1,0-.2-.01-.3.03,0,.05,0,.08,0,0-.43.02-.86.03-1.29-.13-.1-.26-.19-.39-.29,0-.03,0-.05,0-.08-.05,0-.1,0-.15,0,0-.03,0-.05,0-.08-.08,0-.15,0-.23,0,0-.03,0-.05,0-.08-.08,0-.15,0-.23,0,0-.03,0-.05,0-.08-.05,0-.1,0-.15,0,0-.03,0-.05,0-.08-.05,0-.1,0-.15,0-.03-.05-.05-.1-.08-.15-.05,0-.1,0-.15,0,0-.03,0-.05,0-.08-.34-.11-.5.23-.75.18,0-.02,0-.05,0-.08-.05,0-.1,0-.15,0-.05-.07-.11-.15-.16-.22-.15-.02-.31-.04-.46-.06,0-.03,0-.05,0-.08-.05,0-.1,0-.15,0,0-.03,0-.05,0-.08-.05,0-.1,0-.15,0,0-.03,0-.05,0-.08-.15-.05-.31-.09-.46-.14,0-.02,0-.05,0-.08-.18-.02-.36-.04-.53-.06,0-.02,0-.05,0-.08-.05,0-.1,0-.15,0-.03-.05-.05-.1-.08-.15-.08-.02-.15-.05-.23-.07-.04-.33-.07-.66-.11-.99.32-.32.64-.63.95-.95.06-.1.04-.31.14-.39.15-.12.44,0,.61-.1.1-.13.19-.26.29-.39.02,0,.05,0,.08,0,0-.05,0-.1,0-.15.07-.03.15-.06.22-.08.05-.08.1-.16.14-.23.05,0,.1,0,.15,0,0-.02,0-.05,0-.08l.23-.08c.02-.05.05-.1.07-.16.05,0,.1,0,.15,0l.14-.23c.05,0,.1,0,.15,0l.58-.71c.05,0,.1,0,.15,0,.02-.05.05-.1.07-.15.1-.03.2-.06.3-.09.22-.26.44-.52.66-.78.05,0,.1,0,.15,0,.19-.24.39-.47.58-.71.1-.03.2-.06.3-.09.02-.05.05-.1.07-.15.05,0,.1,0,.15,0l.14-.23c.05,0,.1,0,.15,0,.02-.05.05-.1.07-.15.15-.06.3-.11.45-.17.07-.1.14-.21.22-.31.15-.11.33,0,.53-.1,0-.03,0-.05,0-.08.05,0,.1,0,.15,0,0-.02,0-.05,0-.08.08,0,.15,0,.23,0,0-.02,0-.05,0-.08.05,0,.1,0,.15,0,0-.03,0-.05,0-.08.28-.04.56-.07.83-.11.38.39,1.12.37,1.18,1.1-.25.24-.12.44-.2.84-.02,0-.05,0-.08,0,.06.28.12.55.18.83-.03,0-.05,0-.08,0,0,.1,0,.2.01.3-.03,0-.05,0-.08,0,.01.33.02.66.04.99-.03,0-.05,0-.08,0,0,.08,0,.15,0,.23-.03,0-.05,0-.08,0,0,.05,0,.1,0,.15-.02,0-.05,0-.08,0,0,.05,0,.1,0,.15-.29.37-.58.73-.87,1.1-.05,0-.1,0-.15,0-.02.05-.05.1-.07.15-.17.16-.34.32-.52.48,0,.05,0,.1,0,.15-.12.11-.25.21-.37.32,0,.05,0,.1,0,.15-.05.03-.1.05-.15.08,0,.05,0,.1,0,.15-.05.03-.1.05-.15.08,0,.05,0,.1,0,.15-.03,0-.05,0-.08,0,0,.05,0,.1,0,.15-.03,0-.05,0-.08,0,0,.08,0,.15,0,.23-.03,0-.05,0-.08,0,0,.05,0,.1,0,.15-.02,0-.05,0-.08,0,0,.08,0,.15,0,.23-.02,0-.05,0-.08,0l-.06.31s-.05,0-.08,0c0,.2.02.41.02.61-.03,0-.05,0-.08,0,0,.05,0,.1,0,.15-.05.03-.1.05-.15.08-.02.1-.04.2-.07.31-.02,0-.05,0-.08,0-.03.13.08.13.08.15,0,.13,0,.25.01.38.03,0,.05,0,.08,0,0,.25.02.51.03.76.03,0,.05,0,.08,0,0,.08,0,.15,0,.23.02,0,.05,0,.08,0,.03.1.06.2.09.3.03,0,.05,0,.08,0,0,.05,0,.1,0,.15.02,0,.05,0,.08,0,.09.25.17.5.26.75.1.07.21.14.31.22,0,.05,0,.1,0,.15.08.05.16.1.23.14,0,.05,0,.1,0,.15.08.05.16.1.23.14,0,.05,0,.1,0,.15.1.07.21.14.31.22,0,.05,0,.1,0,.15.05.02.1.05.16.07,0,.05,0,.1,0,.15.05.02.1.05.15.07.03.1.06.2.09.3.03,0,.05,0,.08,0,.03.1.06.2.09.3.02,0,.05,0,.08,0,0,.1,0,.2.01.3.02,0,.05,0,.08,0,.06.15.11.3.17.45.03,0,.05,0,.08,0,.06.15.11.3.17.45.05.02.1.05.16.07,0,.05,0,.1,0,.15.03,0,.05,0,.08,0,.03.1.06.2.09.3.03,0,.05,0,.08,0,0,.25.02.51.03.76.03,0,.05,0,.08,0v.3s.06,0,.09,0c0,.03,0,.05,0,.08-.03,0-.05,0-.08,0,0,.23.02.46.02.68.03,0,.05,0,.08,0v.3s.06,0,.09,0c0,.08,0,.15,0,.23.03,0,.05,0,.08,0,.08.23.03.7-.05.84-.05.03-.1.05-.15.08.01.3.02.61.03.91-.03,0-.05,0-.08,0,0,.08,0,.15,0,.23-.03,0-.05,0-.08,0,0,.08,0,.15,0,.23-.03,0-.05,0-.08,0-.02.1-.04.2-.07.31-.07.05-.15.11-.22.16,0,.05,0,.1,0,.15-.07.05-.15.11-.22.16,0,.05,0,.1,0,.15-.07.05-.15.11-.22.16-.17.21-.34.42-.51.63-.1.03-.2.06-.3.09-.02.05-.05.1-.07.15-.05,0-.1,0-.15,0,0,.03,0,.05,0,.08-.05,0-.1,0-.15,0,0,.03,0,.05,0,.08l-.45.09s0,.05,0,.08c-.05,0-.1,0-.15,0,0,.03,0,.05,0,.08-.28.01-.56.02-.84.03,0,.03,0,.05,0,.08-.08,0-.15,0-.23,0,0,.03,0,.05,0,.08-.36-.01-.71-.02-1.07-.04-.15.03-.3.06-.45.09-.08-.1-.16-.2-.24-.3-.05,0-.1,0-.15,0,0-.03,0-.05,0-.08-.25,0-.51.02-.76.03-.08-.1-.16-.2-.24-.3-.05,0-.1,0-.15,0-.03-.05-.05-.1-.08-.15l-.31-.06c-.05-.07-.11-.15-.16-.22-.05,0-.1,0-.15,0-.03-.05-.05-.1-.08-.15-.05,0-.1,0-.15,0l-.16-.15c-.05,0-.1,0-.15,0,0-.03,0-.05,0-.08-.05,0-.1,0-.15,0,0-.03,0-.05,0-.08l-.31-.07s-.05-.1-.08-.15c-.05,0-.1,0-.15,0-.05-.07-.11-.15-.16-.22-.05,0-.1,0-.15,0-.08-.1-.16-.2-.24-.3-.05,0-.1,0-.15,0,0-.03,0-.05,0-.08-.08-.02-.15-.04-.23-.07-.03-.05-.05-.1-.08-.15-.05,0-.1,0-.15,0-.08-.1-.16-.2-.24-.3-.05-.02-.1-.05-.15-.07,0-.05,0-.1,0-.15-.05-.02-.1-.05-.15-.07,0-.03,0-.05,0-.08-.23-.04-.46-.08-.69-.13-.03-.05-.05-.1-.08-.15-.17-.15-.22-.2-.54-.21"/>
  <path class="cls-2" d="M484.21,72.38c-.28-.09-.56-.18-.85-.27,0-.03,0-.05,0-.08-.05,0-.1,0-.15,0-.05-.07-.11-.15-.16-.22-.05,0-.1,0-.15,0-.05-.07-.11-.15-.16-.22-.05,0-.1,0-.15,0-.05-.07-.11-.15-.16-.22-.15-.05-.31-.09-.46-.14-.05-.07-.11-.15-.16-.22-.05,0-.1,0-.15,0,0-.02,0-.05,0-.08-.15-.05-.31-.09-.46-.14,0-.03,0-.05,0-.08-.08,0-.15,0-.23,0,0-.03,0-.05,0-.08-.1-.02-.2-.04-.31-.06,0-.03,0-.05,0-.08l-.31-.07s-.05-.1-.08-.15c-.05,0-.1,0-.15,0,0-.03,0-.05,0-.08-.08,0-.15,0-.23,0-.03-.05-.05-.1-.08-.15-.1-.02-.2-.04-.31-.07-.03-.05-.05-.1-.08-.15-.08-.02-.15-.04-.23-.07,0-.03,0-.05,0-.08-.05,0-.1,0-.15,0,0-.02,0-.05,0-.08-.05,0-.1,0-.15,0,0-.03,0-.05,0-.08-.05,0-.1,0-.15,0l-.16-.15c-.05,0-.1,0-.15,0-.05-.07-.11-.15-.16-.22-.05,0-.1,0-.15,0,0-.03,0-.05,0-.08-.1-.07-.21-.14-.31-.22-.09-.12,0-.17-.16-.3-.01-.33-.02-.66-.04-.99.02,0,.05,0,.08,0,.02-.1.04-.2.07-.31.36-.21.61-.57,1.04-.72.33-.01.66-.02.99-.04,0-.03,0-.05,0-.08.08,0,.15,0,.23,0,0-.03,0-.05,0-.08.2,0,.41-.01.61-.02,0-.03,0-.05,0-.08.1-.03.2-.06.3-.09,0-.02,0-.05,0-.08.3.01.61.03.91.04,0-.03,0-.05,0-.08.1-.03.2-.06.3-.09,0-.02,0-.05,0-.08.23,0,.46-.02.68-.03,0-.02,0-.05,0-.08.05,0,.1,0,.15,0l.14-.23c.05,0,.1,0,.15,0,0-.03,0-.05,0-.08.15.02.31.04.46.06,0-.03,0-.05,0-.08.1,0,.2,0,.3-.01,0-.02,0-.05,0-.08.05,0,.1,0,.15,0,0-.03,0-.05,0-.08.15,0,.3-.01.46-.02,0-.02,0-.05,0-.08.56-.07,1.11-.14,1.67-.21.02-.05.05-.1.07-.15.05,0,.1,0,.15,0,0-.03,0-.05,0-.08.05,0,.1,0,.15,0,0-.03,0-.05,0-.08.23.07.46.14.69.2,0-.03,0-.05,0-.08.08,0,.15,0,.23,0,.02-.05.05-.1.07-.15.05,0,.1,0,.15,0,0-.03,0-.05,0-.08.48-.02.96-.03,1.44-.05,0,.03,0,.05,0,.08.1,0,.2,0,.3-.01,0-.03,0-.05,0-.08.05,0,.1,0,.15,0,0-.02,0-.05,0-.08h.23s0-.06,0-.08c.43-.02.86-.03,1.29-.05,0,.03,0,.05,0,.08.08,0,.15,0,.23,0,0,.03,0,.05,0,.08.08,0,.15,0,.23,0,0,.03,0,.05,0,.08.05,0,.1,0,.15,0,0,.02,0,.05,0,.08.05,0,.1,0,.15,0,.03.05.05.1.08.15.05,0,.1,0,.15,0,.03.05.05.1.08.15.05,0,.1,0,.15,0,.03.05.05.1.08.15.05,0,.1,0,.15,0,.05.07.11.15.16.22.05,0,.1,0,.15,0,.05.07.11.15.16.22.05,0,.1,0,.15,0,.03.05.05.1.08.15.18.15.37.29.55.44,0,.05,0,.1,0,.15.13.1.26.19.39.29,0,.05,0,.1,0,.15.08.05.16.1.23.14,0,.05,0,.1,0,.15.03,0,.05,0,.08,0,.06.15.11.3.17.45.03,0,.05,0,.08,0,.02.48.04.96.05,1.44-.2.14-.23.34-.36.55-.05.03-.1.05-.15.08,0,.05,0,.1,0,.15-.22.21-.44.42-.66.63,0,.05,0,.1,0,.15-.1.08-.2.16-.3.24,0,.05,0,.1,0,.15-.12.11-.25.21-.37.32,0,.05,0,.1,0,.15-.05.03-.1.05-.15.08-.07.1-.14.21-.22.31-.05,0-.1,0-.15,0-.12.16-.24.31-.36.47-.07.03-.15.06-.22.08-.02.05-.05.1-.07.15-.05,0-.1,0-.15,0-.22.26-.44.52-.66.78-.05,0-.1,0-.15,0l-.15.16c-.05,0-.1,0-.15,0,0,.03,0,.05,0,.08-.05,0-.1,0-.15,0,0,.03,0,.05,0,.08-.05,0-.1,0-.15,0-.02.05-.05.1-.07.15-.05,0-.1,0-.15,0-.05.08-.1.16-.14.23-.05,0-.1,0-.15,0-.02.05-.05.1-.07.15-.05,0-.1,0-.15,0,0,.03,0,.05,0,.08-.31.15-.75,0-1.14.12-.42.14-.78.26-1.29.12-.13,0-.25,0-.38.01,0-.03,0-.05,0-.08l-.31-.06c-.05-.07-.11-.15-.16-.22-.05,0-.1,0-.15,0-.03-.05-.05-.1-.08-.15-.05,0-.1,0-.15,0-.03-.05-.05-.1-.08-.15-.05,0-.1,0-.15,0-.03-.05-.05-.1-.08-.15-.05,0-.1,0-.15,0-.08-.1-.16-.2-.24-.3-.05,0-.1,0-.15,0-.08-.1-.16-.2-.24-.3-.03,0-.05,0-.08,0-.03-.05-.05-.1-.08-.15-.05,0-.1,0-.15,0-.11-.07-.28-.37-.32-.52"/>
  <path class="cls-2" d="M488.88,95.95c.21.05.17.02.24.22.13.13.18.94.12,1.21-.03,0-.05,0-.08,0-.11.5.39.57.34.98-.03.26-.37.61-.27.92.03,0,.05,0,.08,0,0,.08,0,.15,0,.23.03,0,.05,0,.08,0,.01.33.02.66.04.99.06.17.26.42.18.75-.03,0-.05,0-.08,0,.01.3.02.61.03.91-.03,0-.05,0-.08,0,0,.05,0,.1,0,.15-.05.03-.1.05-.15.08.01.35.03.71.04,1.06-.02,0-.05,0-.08,0,0,.23.02.46.03.68-.03,0-.05,0-.08,0,0,.08,0,.15,0,.23-.02,0-.05,0-.08,0,0,.23.02.46.03.68-.03,0-.05,0-.08,0-.02.13-.04.26-.06.38-.05.03-.1.05-.15.08-.01.3-.03.61-.04.91-.03,0-.05,0-.08,0,0,.05,0,.1,0,.15-.03,0-.05,0-.08,0,0,.05,0,.1,0,.15-.05.03-.1.05-.15.08,0,.08,0,.15,0,.23-.02,0-.05,0-.08,0,0,.05,0,.1,0,.15-.02,0-.05,0-.08,0,0,.05,0,.1,0,.15-.05.03-.1.05-.15.08,0,.05,0,.1,0,.15-.12.11-.25.21-.37.32,0,.05,0,.1,0,.15-.07.05-.15.11-.22.16,0,.05,0,.1,0,.15-.05.03-.1.05-.15.08,0,.05,0,.1,0,.15l-.15.08c-.02.1-.04.2-.06.31-.25.24-.49.48-.73.71-.12.16-.24.31-.36.47-.07.03-.15.06-.23.08-.19.24-.39.47-.58.71-.05,0-.1,0-.15,0-.02.05-.05.1-.07.15-.1.03-.2.06-.3.09-.02.05-.05.1-.07.15-.18.03-.35.06-.53.1-.19-.2-.41-.1-.69-.2,0-.03,0-.05,0-.08-.08,0-.15,0-.23,0-.11-.12-.21-.25-.32-.37-.08-.02-.15-.04-.23-.07-.03-.05-.05-.1-.08-.15-.1-.07-.21-.14-.31-.22,0-.05,0-.1,0-.15-.08-.05-.16-.1-.23-.14l-.17-.45c-.05-.02-.1-.05-.15-.07-.03-.07-.06-.15-.08-.23-.02,0-.05,0-.08,0-.06-.25-.12-.5-.18-.75-.1-.07-.21-.14-.31-.22,0-.05,0-.1,0-.15-.05-.02-.1-.05-.15-.07-.03-.18-.06-.35-.1-.53-.03,0-.05,0-.08,0-.03-.1-.06-.2-.09-.3-.02,0-.05,0-.08,0-.03-.18-.06-.35-.1-.53-.02,0-.05,0-.08,0-.03-.13-.06-.25-.09-.38-.03,0-.05,0-.08,0-.03-.1-.06-.2-.09-.3-.02,0-.05,0-.08,0-.06-.25-.12-.5-.18-.75-.02,0-.05,0-.08,0,0-.08,0-.15,0-.23-.02,0-.05,0-.08,0-.03-.1-.06-.2-.09-.3-.03,0-.05,0-.08,0,0-.08,0-.15,0-.23-.03,0-.05,0-.08,0-.03-.1-.06-.2-.09-.3-.03,0-.05,0-.08,0,0-.05,0-.1,0-.15-.05-.02-.1-.05-.16-.07-.03-.1-.06-.2-.09-.3-.05-.02-.1-.05-.16-.07,0-.05,0-.1,0-.15-.03,0-.05,0-.08,0,0-.05,0-.1,0-.15-.03,0-.05,0-.08,0,0-.05,0-.1,0-.15-.02,0-.05,0-.08,0,0-.05,0-.1,0-.15-.03,0-.05,0-.08,0,0-.08,0-.15,0-.23-.03,0-.05,0-.08,0,0-.05,0-.1,0-.15-.03,0-.05,0-.08,0,0-.05,0-.1,0-.15-.1-.07-.21-.14-.31-.22-.03-.05-.05-.1-.08-.15-.05,0-.1,0-.15,0-.11-.12-.21-.25-.32-.37-.05,0-.1,0-.15,0-.08-.1-.16-.2-.24-.3-.15-.04-.31-.09-.46-.13-.05-.07-.11-.15-.16-.22-.08-.02-.15-.04-.23-.07-.03-.05-.05-.1-.08-.15-.08,0-.15,0-.23,0,0-.03,0-.05,0-.08-.28.04-.56.07-.83.11,0-.03,0-.05,0-.08-.05,0-.1,0-.15,0,0-.03,0-.05,0-.08-.33-.1-.62.15-.75.18-.13.03-.14-.07-.16-.07-.26-.04-.43.06-.6.1-.07.16-.21.32-.29.47,0,.05,0,.1,0,.15-.05.03-.1.05-.15.08-.05.15-.09.31-.14.46-.02,0-.05,0-.08,0,0,.05,0,.1,0,.15-.02,0-.05,0-.08,0v.38s-.04,0-.06,0c0,.08,0,.15,0,.23-.02,0-.05,0-.08,0,0,.05,0,.1,0,.15-.03,0-.05,0-.08,0-.02.15-.04.31-.06.46-.03,0-.05,0-.08,0-.11.38.13.85-.03,1.14-.1.08-.2.16-.3.24,0,.05,0,.1,0,.15-.22.21-.44.42-.66.63-.07.1-.14.21-.22.31-.12.09-.17,0-.3.16-.3-.01-.61-.03-.91-.04,0-.03,0-.05,0-.08-.3.04-.61.07-.91.11,0-.03,0-.05,0-.08-.1-.02-.2-.04-.31-.07,0-.03,0-.05,0-.08-.08,0-.15,0-.23,0,0-.03,0-.05,0-.08-.18,0-.35.01-.53.02-.03-.05-.05-.1-.08-.15-.05,0-.1,0-.15,0-.05-.07-.11-.15-.16-.22-.05,0-.1,0-.15,0,0-.02,0-.05,0-.08-.1-.02-.2-.04-.31-.06,0-.03,0-.05,0-.08-.08,0-.15,0-.23,0,0-.03,0-.05,0-.08-.08,0-.15,0-.23,0,0-.02,0-.05,0-.08-.08-.02-.15-.05-.23-.07-.14-.35-.28-.7-.42-1.05-.02,0-.05,0-.08,0l-.09-.38s-.05,0-.08,0c-.01-.06.19-.49.21-.54-.01-.28-.02-.56-.03-.84.02,0,.05,0,.08,0,.12-.48-.31-.68-.19-1.06.03,0,.05,0,.08,0,0-.05,0-.1,0-.15.05-.03.1-.05.15-.08,0-.05,0-.1,0-.15.05-.03.1-.05.15-.08,0-.05,0-.1,0-.15.03,0,.05,0,.08,0,0-.46.02-.91.03-1.37.03,0,.05,0,.08,0,0-.08,0-.15,0-.23.07-.05.15-.11.22-.16,0-.23-.02-.46-.02-.68.02,0,.05,0,.08,0,0-.08,0-.15,0-.23.03,0,.05,0,.08,0,0-.05,0-.1,0-.15.03,0,.05,0,.08,0,0-.08,0-.15,0-.23.03,0,.05,0,.08,0,0-.08,0-.15,0-.23.02,0,.05,0,.08,0,0-.05,0-.1,0-.15.12-.11.25-.21.37-.32,0-.1,0-.2-.01-.3.02,0,.05,0,.08,0l.07-.31c.07-.05.15-.11.22-.16,0-.05,0-.1,0-.15.05-.03.1-.05.15-.08.04-.2.09-.41.13-.61.08-.12,1.04-.56,1.27-.58.06.09.46.4.55.44.3.13.42,0,.62.28.16.17.25.81.27,1.13,0,.15.01.3.02.46.02,0,.05,0,.08,0,0,.05,0,.1,0,.15.05.02.1.05.15.07,0,.05,0,.1,0,.15.05.02.1.05.15.07.03.23.07.45.1.68.02,0,.05,0,.08,0,0,.05,0,.1,0,.15.05.02.1.05.15.07.2.28.14.43.62.43,0-.03,0-.05,0-.08.32-.19.65.13.77.2,0,.03,0,.05,0,.08.35.15.6-.2.75-.26.23,0,.46-.02.68-.02.27-.11.55-.22.83-.34.02-.05.05-.1.07-.15.05,0,.1,0,.15,0l.15-.16c.05,0,.1,0,.15,0,0-.03,0-.05,0-.08.05,0,.1,0,.15,0l.15-.16c.05,0,.1,0,.15,0,.24-.29.49-.58.73-.86.15,0,.3-.01.46-.02,0,.02,0,.05,0,.08.05,0,.1,0,.15,0,0,.03,0,.05,0,.08.05.02.1.05.15.07,0,.2.02.41.02.61-.08.09-.03,0-.07.15-.18.09-.3.19-.52.25-.04.23-.23.67-.35.85-.05.03-.1.05-.15.08-.15.18-.2.3-.21.62.19.11.05.08.16.22.1.07.21.14.31.22,0,.03,0,.05,0,.08.05,0,.1,0,.15,0,0,.03,0,.05,0,.08.05,0,.1,0,.15,0,0,.03,0,.05,0,.08.08,0,.15,0,.23,0,0,.03,0,.05,0,.08.05,0,.1,0,.15,0,0,.03,0,.05,0,.08.15.05.31.09.46.14,0,.03,0,.05,0,.08.51,0,1.02.01,1.52.02,0,.03,0,.05,0,.08.43-.02.86-.03,1.29-.05,0,.03,0,.05,0,.08.08,0,.15,0,.23,0,0,.03,0,.05,0,.08.24.06.36-.08.53-.1.33.01.66.03.99.04l.14-.23s.05,0,.08,0c0-.05,0-.1,0-.15.05-.03.1-.05.15-.08.07-.26.13-.51.2-.77.03,0,.05,0,.08,0,.02-.1.04-.2.06-.31.03,0,.05,0,.08,0,.02-.23.03-.46.05-.69.02,0,.05,0,.08,0,0-.05,0-.1,0-.15.02,0,.05,0,.08,0,0-.05,0-.1,0-.15.05-.03.1-.05.15-.08.02-.1.04-.2.07-.31.02,0,.05,0,.08,0,.05-.25-.29-.41-.18-.75.03,0,.05,0,.08,0,0-.05,0-.1,0-.15.05-.03.1-.05.15-.08,0-.08,0-.15,0-.23.03,0,.05,0,.08,0-.01-.3-.02-.61-.03-.91.02,0,.05,0,.08,0,0-.08,0-.15,0-.23.02,0,.05,0,.08,0-.01-.35-.03-.71-.04-1.06.03,0,.05,0,.08,0,0-.08,0-.15,0-.23.02,0,.05,0,.08,0-.02-1.12-.03-2.23-.05-3.35,0-.76,0-1.52,0-2.28-.03,0-.05,0-.08,0,0-.03,0-.05,0-.08-.02-.16.07-.15.07-.15.09-.43-.2-1.35-.36-1.51-.11-.12-.17-.13-.39-.14-.23.29-.68.32-1.05.49,0,.02,0,.05,0,.08-.05,0-.1,0-.15,0,0,.03,0,.05,0,.08-.18.03-.35.06-.53.1,0,.03,0,.05,0,.08-.1,0-.2,0-.3.01,0,.03,0,.05,0,.08-.25,0-.51.02-.76.03,0,.02,0,.05,0,.08-.1.03-.2.06-.3.09,0,.03,0,.05,0,.08-.25.1-1.02-.12-1.15-.19-.03-.05-.05-.1-.08-.15-.25,0-.51.02-.76.03,0-.02,0-.05,0-.08-.1,0-.2,0-.3.01,0-.03,0-.05,0-.08-.18,0-.35.01-.53.02,0-.03,0-.05,0-.08-.1-.02-.2-.04-.31-.06-.03-.05-.05-.1-.08-.15-.1-.02-.2-.04-.31-.07-.03-.05-.05-.1-.08-.15-.05,0-.1,0-.15,0,0-.03,0-.05,0-.08-.18-.02-.36-.04-.53-.06,0-.03,0-.05,0-.08-.05,0-.1,0-.15,0-.05-.07-.11-.15-.16-.22-.1-.02-.2-.04-.31-.06,0-.03,0-.05,0-.08-.05,0-.1,0-.15,0l-.16-.15c-.05,0-.1,0-.15,0-.03-.05-.05-.1-.08-.15-.05,0-.1,0-.15,0-.05-.07-.11-.15-.16-.22-.05,0-.1,0-.15,0-.21-.22-.42-.44-.63-.66-.1-.02-.2-.04-.31-.07-.16-.17-.32-.34-.48-.52-.45-.41-1.21-.92-1.28-1.7.08-.09.03,0,.07-.15.17-.04.43-.09.6-.17,0-.03,0-.05,0-.08.05,0,.1,0,.15,0,0-.03,0-.05,0-.08.18,0,.35-.01.53-.02,0,.02,0,.05,0,.08.58,0,1.17,0,1.75.01,0-.03,0-.05,0-.08.08,0,.15,0,.23,0,0-.03,0-.05,0-.08.28-.01.56-.02.84-.03,0-.02,0-.05,0-.08.08,0,.15,0,.23,0,.02-.05.05-.1.07-.15.08,0,.15,0,.23,0,0-.02,0-.05,0-.08.38-.04.76-.08,1.14-.12,0-.03,0-.05,0-.08.08,0,.15,0,.23,0,0-.03,0-.05,0-.08.15-.06.3-.11.45-.17,0-.03,0-.05,0-.08.05,0,.1,0,.15,0,0-.03,0-.05,0-.08.3-.06.6-.12.91-.19,0-.03,0-.05,0-.08l.3-.09c.02-.05.05-.1.07-.16.05,0,.1,0,.15,0,.02-.05.05-.1.07-.15.05,0,.1,0,.15,0,.02-.05.05-.1.07-.15.18-.03.35-.06.53-.1,0-.03,0-.05,0-.08.1-.03.2-.06.3-.09,0-.02,0-.05,0-.08.05,0,.1,0,.15,0,.02-.05.05-.1.07-.15.18-.03.35-.06.53-.1,0-.02,0-.05,0-.08.1-.03.2-.06.3-.09,0-.03,0-.05,0-.08.05,0,.1,0,.15,0,.02-.05.05-.1.07-.16.05,0,.1,0,.15,0l.15-.16c.05,0,.1,0,.15,0,0-.03,0-.05,0-.08.05,0,.1,0,.15,0,.02-.05.05-.1.07-.15.08,0,.15,0,.23,0,0-.02,0-.05,0-.08l.45-.09s0-.05,0-.08c.05,0,.1,0,.15,0,0-.03,0-.05,0-.08.15-.03.3-.06.45-.09,0-.03,0-.05,0-.08.1-.03.2-.06.3-.09l.14-.23c.22-.08.45-.17.68-.25,0-.02,0-.05,0-.08.05,0,.1,0,.15,0,0-.03,0-.05,0-.08.28.02.56.03.84.05.12-.16.24-.31.36-.47.05,0,.1,0,.15,0,0-.02,0-.05,0-.08.18,0,.35-.01.53-.02,0-.03,0-.05,0-.08.08,0,.15,0,.23,0,0-.03,0-.05,0-.08.1-.03.2-.06.3-.09,0-.03,0-.05,0-.08.23-.03.45-.07.68-.1,0-.03,0-.05,0-.08.08,0,.15,0,.23,0,0-.03,0-.05,0-.08.23.02.46.03.69.05,0-.03,0-.05,0-.08.05,0,.1,0,.15,0,.05-.08.1-.16.14-.23.05,0,.1,0,.15,0,0-.03,0-.05,0-.08.36.01.71.02,1.07.04,0,.03,0,.05,0,.08.05,0,.1,0,.15,0,0,.03,0,.05,0,.08.18.02.36.04.53.06,0,.02,0,.05,0,.08.1.02.2.04.31.06.03.05.05.1.08.15.05,0,.1,0,.15,0,.03.05.05.1.08.15.05,0,.1,0,.15,0,0,.03,0,.05,0,.08.15.02.31.04.46.06,0,.02,0,.05,0,.08.08,0,.15,0,.23,0,0,.02,0,.05,0,.08.1.02.2.04.31.06,0,.03,0,.05,0,.08.08,0,.15,0,.23,0,0,.03,0,.05,0,.08.1.02.2.04.31.06.03.08.06.15.08.23.05.02.1.05.15.07.15.22.17.47.18.83-.22.19-.44.37-.66.56-.05.08-.1.16-.14.23-.05,0-.1,0-.15,0l-.29.39c-.05,0-.1,0-.15,0-.02.05-.05.1-.07.15-.05,0-.1,0-.15,0,0,.03,0,.05,0,.08-.13.03-.25.06-.38.09-.07.1-.14.21-.22.31-.05,0-.1,0-.15,0-.05.08-.1.16-.14.23-.05,0-.1,0-.15,0-.02.05-.05.1-.07.16-.23.08-.45.17-.68.25-.02.05-.05.1-.07.15-.07.03-.15.06-.22.08-.05.08-.1.16-.14.23-.05,0-.1,0-.15,0-.02.05-.05.1-.07.16-.05,0-.1,0-.15,0-.02.05-.05.1-.07.15-.05,0-.1,0-.15,0-.02.05-.05.1-.07.15-.05,0-.1,0-.15,0-.02.05-.05.1-.07.15-.1.03-.2.06-.3.09-.05.08-.1.16-.14.23-.15.13-.29.26-.44.4l-.06.31c-.07.05-.15.11-.22.16-.12.18-.13.33-.29.47.04.3.07.61.11.91-.03,0-.05,0-.08,0,0,.15.01.3.02.46.02,0,.05,0,.08,0,.01.28.02.56.03.84-.02,0-.05,0-.08,0,0,.1,0,.2.01.3-.03,0-.05,0-.08,0-.03.17.08.23.08.23-.01.38-.02.76-.03,1.14.03,0,.05,0,.08,0-.01.41-.02.81-.03,1.22.03,0,.05,0,.08,0v.3s.06,0,.09,0c0,.1,0,.2.01.3.02,0,.05,0,.08,0,.21.62-.33,1.02-.09,1.6.02,0,.05,0,.08,0,0,.05,0,.1,0,.15.05.02.1.05.15.07,0,.05,0,.1,0,.15.03,0,.05,0,.08,0,.22.52-.35,1.22-.17,1.68.03,0,.05,0,.08,0,0,.05,0,.1,0,.15.05.02.1.05.16.07,0,.05,0,.1,0,.15.03,0,.05,0,.08,0,.1.29-.27.33-.13.69.03,0,.05,0,.08,0,0,.05,0,.1,0,.15.08.05.16.1.23.14.11.27-.26.47-.28.54.03.15.06.3.09.45"/>
  <path class="cls-2" d="M496.09,89.22c.63,0,1.27,0,1.9,0,0,.03,0,.05,0,.08.41-.01.81-.03,1.22-.04,0,.03,0,.05,0,.08.42.09.6-.41.98-.26.03.05.05.1.08.15.05,0,.1,0,.15,0,0,.03,0,.05,0,.08.1.02.2.04.31.06,0,.03,0,.05,0,.08.15.02.31.04.46.06,0,.02,0,.05,0,.08.15,0,.3-.01.46-.02,0,.02,0,.05,0,.08.1,0,.2,0,.3-.01,0,.03,0,.05,0,.08.15.04.31.09.46.13,0,.03,0,.05,0,.08.13.02.26.04.38.06.11.12.21.25.32.37.05,0,.1,0,.15,0,.08.1.16.2.24.3.05,0,.1,0,.15,0,.03.05.05.1.08.15.16.12.31.24.47.36.06.2.12.4.17.6.08.02.15.05.23.07.11.08.1.24.17.37.03,0,.05,0,.08,0,.06.25.12.5.18.75.03,0,.05,0,.08,0,0,.05,0,.1,0,.15.03,0,.05,0,.08,0,0,.08,0,.15,0,.23.03,0,.05,0,.08,0,.03.1.06.2.09.3.03,0,.05,0,.08,0,.1.27-.16.45-.21.62.04.3.07.61.11.91-.02,0-.05,0-.08,0l-.07.31s-.05,0-.08,0c0,.08,0,.15,0,.23-.03,0-.05,0-.08,0,0,.13,0,.25.01.38-.03,0-.05,0-.08,0,0,.08,0,.15,0,.23-.05.03-.1.05-.15.08,0,.08,0,.15,0,.23-.03,0-.05,0-.08,0-.02.13-.04.26-.06.38-.07.05-.15.11-.22.16,0,.05,0,.1,0,.15-.03,0-.05,0-.08,0-.05.08-.1.16-.14.23-.05,0-.1,0-.15,0-.05.08-.1.16-.14.23-.05,0-.1,0-.15,0-.02.05-.05.1-.07.15-.05,0-.1,0-.15,0,0,.03,0,.05,0,.08-.05,0-.1,0-.15,0,0,.02,0,.05,0,.08-.08,0-.15,0-.23,0,0,.03,0,.05,0,.08-.08,0-.15,0-.23,0,0,.02,0,.05,0,.08-.08,0-.15,0-.23,0,0,.03,0,.05,0,.08-.08,0-.15,0-.23,0,0,.02,0,.05,0,.08-.26.09-1.2.04-1.37-.03,0-.02,0-.05,0-.08l-.31-.07s0-.05,0-.08c-.05,0-.1,0-.15,0-.03-.05-.05-.1-.08-.15-.1-.02-.2-.04-.31-.06l-.16-.15c-.05,0-.1,0-.15,0-.03-.05-.05-.1-.08-.15-.13-.02-.26-.04-.38-.06,0-.02,0-.05,0-.08-.1-.02-.2-.04-.31-.07-.03-.08-.06-.15-.08-.23-.03,0-.05,0-.08,0-.05-.07-.11-.15-.16-.22-.05,0-.1,0-.15,0,0-.03,0-.05,0-.08-.05,0-.1,0-.15,0,0-.03,0-.05,0-.08-.1,0-.2,0-.3.01,0-.02,0-.05,0-.08l-.31-.07s0-.05,0-.08c-.05,0-.1,0-.15,0-.03-.05-.05-.1-.08-.15-.08,0-.15,0-.23,0,0-.03,0-.05,0-.08-.23.03-.45.07-.68.1,0,.03,0,.05,0,.08,0,0-.25-.07-.38-.06-.38.04-.76.08-1.14.12-.05-.13-.08-.24-.09-.45.15-.13.24-.39.44-.47.23,0,.46-.02.68-.03,0-.02,0-.05,0-.08.05,0,.1,0,.15,0,0-.02,0-.05,0-.08.08,0,.15,0,.23,0,0-.03,0-.05,0-.08.31.04.61.08.92.12.18-.36.36-.44.34-1-.02,0-.05,0-.08,0-.05-.17-.07-.19-.16-.3-.03,0-.05,0-.08,0,0-.05,0-.1,0-.15-.21-.12-.41-.24-.62-.36-.05,0-.1,0-.15,0-.08-.1-.16-.2-.24-.3-.05,0-.1,0-.15,0-.03-.05-.05-.1-.08-.15l-.31-.06c-.03-.05-.05-.1-.08-.15-.05,0-.1,0-.15,0,0-.03,0-.05,0-.08-.08,0-.15,0-.23,0,0-.03,0-.05,0-.08-.05,0-.1,0-.15,0,0-.03,0-.05,0-.08-.23-.04-.46-.08-.69-.13,0-.03,0-.05,0-.08-.05,0-.1,0-.15,0,0-.03,0-.05,0-.08-.18,0-.35.01-.53.02,0-.03,0-.05,0-.08-.05,0-.1,0-.15,0-.03-.05-.05-.1-.08-.15-.05,0-.1,0-.15,0-.11-.12-.21-.25-.32-.37-.05,0-.1,0-.15,0-.03-.05-.05-.1-.08-.15-.1-.07-.21-.14-.31-.22-.03-.1-.06-.2-.09-.3-.05-.02-.1-.05-.15-.07,0-.05,0-.1,0-.15-.08-.05-.16-.1-.23-.14-.08-.17-.17-.35-.25-.52.03,0,.05,0,.08,0,0-.05,0-.1,0-.15.25-.12.35-.27.59-.4,0-.03,0-.05,0-.08.25-.03.5-.07.76-.1,0-.02,0-.05,0-.08.05,0,.1,0,.15,0,0-.03,0-.05,0-.08.25-.03.5-.07.76-.1,0-.03,0-.05,0-.08.05,0,.1,0,.15,0,0-.03,0-.05,0-.08.18,0,.35-.01.53-.02,0,.03,0,.05,0,.08.33.08.79-.12.9-.26"/>
  <g>
    <rect x="219.96" y="135.27" width="2.74" height="18.19"/>
    <polygon points="230.18 153.46 230.18 137.92 240.8 149.02 240.8 138.91 242.99 138.91 242.99 154.35 232.38 143.27 232.38 153.46 230.18 153.46"/>
    <polygon points="253.34 140.97 253.34 153.46 251.14 153.46 251.14 140.97 247.79 140.97 247.79 138.91 256.67 138.91 256.67 140.97 253.34 140.97"/>
    <polygon points="269.5 140.97 263.67 140.97 263.67 144.47 269.33 144.47 269.33 146.53 263.67 146.53 263.67 151.4 269.5 151.4 269.5 153.46 261.47 153.46 261.47 138.91 269.5 138.91 269.5 140.97"/>
    <path d="M280.15,147.26l4.51,6.2h-2.69l-4.16-5.96h-.4v5.96h-2.2v-14.55h2.57c1.92,0,3.31.36,4.17,1.08.94.8,1.41,1.87,1.41,3.19,0,1.03-.3,1.92-.89,2.66-.59.74-1.37,1.22-2.34,1.42M277.42,145.59h.7c2.08,0,3.12-.79,3.12-2.38,0-1.49-1.01-2.23-3.04-2.23h-.78v4.62Z"/>
    <polygon points="289.68 153.46 289.68 137.92 300.3 149.02 300.3 138.91 302.49 138.91 302.49 154.35 291.88 143.27 291.88 153.46 289.68 153.46"/>
    <path d="M317.48,149.93h-6.23l-1.62,3.53h-2.37l7.2-15.47,6.95,15.47h-2.4l-1.53-3.53ZM316.59,147.86l-2.16-4.95-2.26,4.95h4.42Z"/>
    <polygon points="329.27 140.97 329.27 153.46 327.08 153.46 327.08 140.97 323.73 140.97 323.73 138.91 332.61 138.91 332.61 140.97 329.27 140.97"/>
    <rect x="337.41" y="138.91" width="2.2" height="14.55"/>
    <path d="M345.22,146.12c0-2.05.75-3.81,2.25-5.28,1.5-1.47,3.29-2.21,5.39-2.21s3.85.74,5.34,2.22c1.49,1.48,2.23,3.26,2.23,5.34s-.75,3.87-2.24,5.33c-1.5,1.46-3.31,2.2-5.44,2.2-1.88,0-3.57-.65-5.06-1.95-1.65-1.44-2.47-3.32-2.47-5.66M347.43,146.15c0,1.61.54,2.93,1.62,3.97,1.07,1.04,2.32,1.56,3.72,1.56,1.53,0,2.82-.53,3.86-1.58,1.05-1.07,1.57-2.37,1.57-3.9s-.52-2.85-1.56-3.9c-1.03-1.06-2.31-1.58-3.83-1.58s-2.79.53-3.84,1.58c-1.04,1.04-1.56,2.33-1.56,3.86"/>
    <polygon points="366.03 153.46 366.03 137.92 376.64 149.02 376.64 138.91 378.84 138.91 378.84 154.35 368.22 143.27 368.22 153.46 366.03 153.46"/>
    <path d="M393.83,149.93h-6.23l-1.62,3.53h-2.37l7.2-15.47,6.95,15.47h-2.4l-1.53-3.53ZM392.93,147.86l-2.16-4.95-2.26,4.95h4.42Z"/>
    <polygon points="404.61 138.91 404.61 151.4 408.89 151.4 408.89 153.46 402.41 153.46 402.41 138.91 404.61 138.91"/>
    <path d="M433.73,149.04h-7.79l-2.03,4.42h-2.96l9-19.33,8.68,19.33h-3.01l-1.91-4.42ZM432.61,146.46l-2.7-6.19-2.83,6.19h5.53Z"/>
    <path d="M454.78,139.69v2.6c-1.27-1.06-2.58-1.59-3.94-1.59-1.5,0-2.75.54-3.78,1.61-1.03,1.07-1.55,2.37-1.55,3.92s.52,2.82,1.55,3.87c1.03,1.05,2.29,1.57,3.79,1.57.77,0,1.43-.13,1.97-.38.3-.13.61-.3.94-.51.32-.21.66-.47,1.02-.77v2.65c-1.26.71-2.58,1.06-3.96,1.06-2.08,0-3.86-.73-5.33-2.18-1.46-1.46-2.2-3.23-2.2-5.3,0-1.85.61-3.51,1.84-4.96,1.51-1.78,3.46-2.67,5.85-2.67,1.31,0,2.57.36,3.79,1.07"/>
    <path d="M469.29,149.93h-6.23l-1.62,3.53h-2.37l7.2-15.47,6.95,15.47h-2.4l-1.53-3.53ZM468.39,147.86l-2.16-4.95-2.26,4.95h4.42Z"/>
    <path d="M477.88,153.46v-14.55h3.05c1.46,0,2.62.14,3.47.43.91.28,1.74.76,2.48,1.44,1.5,1.37,2.25,3.17,2.25,5.4s-.78,4.05-2.35,5.43c-.79.69-1.61,1.17-2.47,1.44-.8.27-1.94.41-3.42.41h-3.02ZM480.07,151.4h.99c.99,0,1.81-.1,2.46-.31.65-.22,1.24-.57,1.77-1.05,1.08-.99,1.62-2.27,1.62-3.86s-.53-2.89-1.6-3.88c-.96-.89-2.38-1.33-4.25-1.33h-.99v10.42Z"/>
    <polygon points="502.76 140.97 496.93 140.97 496.93 144.47 502.59 144.47 502.59 146.53 496.93 146.53 496.93 151.4 502.76 151.4 502.76 153.46 494.73 153.46 494.73 138.91 502.76 138.91 502.76 140.97"/>
    <polygon points="507.98 153.46 511.04 137.81 516.03 149.12 521.21 137.81 523.96 153.46 521.71 153.46 520.31 144.68 516 154.13 511.81 144.67 510.25 153.46 507.98 153.46"/>
    <polygon points="532.82 147.17 528.07 138.91 530.6 138.91 533.93 144.72 537.26 138.91 539.79 138.91 535.02 147.17 535.02 153.46 532.82 153.46 532.82 147.17"/>
    <g>
      <path d="M219.96,176.44c0-2.05.75-3.81,2.25-5.28,1.5-1.47,3.29-2.21,5.39-2.21s3.85.74,5.34,2.22c1.49,1.48,2.23,3.26,2.23,5.34s-.75,3.87-2.24,5.33c-1.5,1.46-3.31,2.2-5.44,2.2-1.88,0-3.57-.65-5.06-1.95-1.65-1.44-2.47-3.32-2.47-5.66M222.17,176.47c0,1.61.54,2.93,1.62,3.97,1.07,1.04,2.32,1.56,3.72,1.56,1.53,0,2.82-.53,3.86-1.58,1.05-1.07,1.57-2.37,1.57-3.9s-.52-2.85-1.56-3.9c-1.03-1.06-2.31-1.58-3.83-1.58s-2.79.53-3.84,1.58c-1.04,1.04-1.56,2.33-1.56,3.86"/>
      <polygon points="248.04 171.3 242.97 171.3 242.97 174.8 247.86 174.8 247.86 176.86 242.97 176.86 242.97 183.79 240.77 183.79 240.77 169.23 248.04 169.23 248.04 171.3"/>
      <path d="M269.21,176.04l5.63,7.75h-3.36l-5.2-7.45h-.49v7.45h-2.74v-18.19h3.22c2.4,0,4.14.45,5.21,1.36,1.18,1.01,1.77,2.33,1.77,3.98,0,1.29-.37,2.4-1.11,3.32-.74.93-1.71,1.52-2.92,1.78M265.8,173.95h.87c2.6,0,3.9-.99,3.9-2.98,0-1.86-1.27-2.79-3.79-2.79h-.98v5.77Z"/>
      <polygon points="287.59 171.3 281.75 171.3 281.75 174.8 287.42 174.8 287.42 176.86 281.75 176.86 281.75 181.73 287.59 181.73 287.59 183.79 279.56 183.79 279.56 169.24 287.59 169.24 287.59 171.3"/>
      <path d="M292.4,183.79v-14.55h3.05c1.46,0,2.62.14,3.47.43.91.28,1.74.76,2.48,1.44,1.5,1.37,2.25,3.17,2.25,5.4s-.78,4.05-2.35,5.43c-.79.69-1.61,1.17-2.47,1.44-.8.27-1.94.41-3.42.41h-3.02ZM294.6,181.73h.99c.99,0,1.81-.1,2.46-.31.65-.22,1.24-.57,1.77-1.05,1.08-.99,1.62-2.27,1.62-3.86s-.53-2.89-1.6-3.88c-.96-.89-2.38-1.33-4.25-1.33h-.99v10.42Z"/>
      <path d="M329.09,166.58v3.25c-1.59-1.33-3.23-1.99-4.92-1.99-1.87,0-3.44.67-4.72,2.01-1.29,1.34-1.93,2.97-1.93,4.9s.64,3.52,1.93,4.83c1.29,1.31,2.87,1.97,4.74,1.97.97,0,1.79-.16,2.46-.47.38-.16.77-.37,1.17-.64.4-.27.83-.59,1.28-.97v3.31c-1.57.89-3.22,1.33-4.95,1.33-2.6,0-4.82-.91-6.66-2.72-1.83-1.83-2.75-4.04-2.75-6.62,0-2.32.77-4.38,2.3-6.2,1.88-2.22,4.32-3.33,7.32-3.33,1.63,0,3.21.44,4.74,1.33"/>
      <path d="M339.47,177.59l4.51,6.2h-2.69l-4.16-5.96h-.4v5.96h-2.2v-14.55h2.57c1.92,0,3.31.36,4.17,1.08.94.8,1.41,1.87,1.41,3.19,0,1.03-.3,1.92-.89,2.66s-1.37,1.22-2.34,1.42M336.73,175.92h.7c2.08,0,3.12-.79,3.12-2.38,0-1.49-1.01-2.23-3.04-2.23h-.78v4.62Z"/>
      <path d="M347.03,176.45c0-2.05.75-3.81,2.25-5.28,1.5-1.47,3.29-2.21,5.39-2.21s3.85.74,5.34,2.22c1.49,1.48,2.23,3.26,2.23,5.34s-.75,3.87-2.24,5.33c-1.5,1.46-3.31,2.2-5.44,2.2-1.88,0-3.57-.65-5.06-1.95-1.65-1.44-2.47-3.32-2.47-5.66M349.25,176.48c0,1.61.54,2.93,1.62,3.97,1.07,1.04,2.32,1.56,3.72,1.56,1.53,0,2.81-.53,3.86-1.58,1.05-1.07,1.57-2.37,1.57-3.9s-.52-2.85-1.56-3.9c-1.03-1.06-2.31-1.58-3.83-1.58s-2.79.53-3.84,1.58c-1.04,1.04-1.56,2.33-1.56,3.86"/>
      <path d="M375.17,171.41l-1.78,1.06c-.33-.58-.65-.96-.95-1.13-.32-.2-.72-.3-1.22-.3-.61,0-1.12.17-1.52.52-.4.34-.6.77-.6,1.28,0,.71.53,1.28,1.58,1.72l1.45.59c1.18.48,2.04,1.06,2.59,1.75.55.69.82,1.53.82,2.53,0,1.34-.45,2.44-1.34,3.32-.9.88-2.01,1.32-3.35,1.32-1.26,0-2.31-.37-3.13-1.12-.81-.75-1.32-1.8-1.52-3.16l2.22-.49c.1.86.28,1.45.53,1.77.45.63,1.11.94,1.98.94.68,0,1.25-.23,1.71-.69.45-.46.68-1.04.68-1.74,0-.28-.04-.54-.12-.78-.08-.24-.2-.45-.37-.65-.17-.2-.38-.38-.65-.56-.26-.17-.58-.34-.94-.5l-1.4-.58c-1.99-.84-2.99-2.07-2.99-3.7,0-1.09.42-2.01,1.25-2.74.84-.74,1.88-1.11,3.12-1.11,1.68,0,2.99.82,3.93,2.45"/>
      <path d="M388.35,171.41l-1.78,1.06c-.33-.58-.65-.96-.95-1.13-.32-.2-.72-.3-1.22-.3-.61,0-1.12.17-1.52.52-.4.34-.6.77-.6,1.28,0,.71.53,1.28,1.58,1.72l1.45.59c1.18.48,2.04,1.06,2.59,1.75.55.69.82,1.53.82,2.53,0,1.34-.45,2.44-1.34,3.32-.9.88-2.01,1.32-3.35,1.32-1.26,0-2.31-.37-3.13-1.12-.81-.75-1.32-1.8-1.52-3.16l2.22-.49c.1.86.28,1.45.53,1.77.45.63,1.11.94,1.98.94.68,0,1.25-.23,1.71-.69.45-.46.68-1.04.68-1.74,0-.28-.04-.54-.12-.78-.08-.24-.2-.45-.37-.65-.17-.2-.38-.38-.65-.56-.26-.17-.58-.34-.94-.5l-1.4-.58c-1.99-.84-2.99-2.07-2.99-3.7,0-1.09.42-2.01,1.25-2.74.84-.74,1.88-1.11,3.12-1.11,1.68,0,2.99.82,3.93,2.45"/>
    </g>
  </g>
  <polygon class="cls-1" points="135.72 101.28 135.72 64.6 99.04 64.6 99.04 101.28 62.36 101.28 62.36 137.97 99.04 137.97 99.04 174.65 135.72 174.65 135.72 137.97 172.41 137.97 172.41 101.28 135.72 101.28"/>
</svg>