<svg version="1.1" id="Layer_1" xmlns="http://www.w3.org/2000/svg" xmlns:xlink="http://www.w3.org/1999/xlink" x="0px" y="0px"
	 width="100%" viewBox="0 0 1330 501" enable-background="new 0 0 1330 501" xml:space="preserve">
<path fill="#FFFFFF" opacity="1.000000" stroke="none" 
	d="
M904.000000,502.000000 
	C602.666687,502.000000 301.833374,502.000000 1.000040,502.000000 
	C1.000027,335.000031 1.000027,168.000061 1.000013,1.000063 
	C444.333282,1.000042 887.666565,1.000042 1331.000000,1.000021 
	C1331.000000,167.999939 1331.000000,334.999878 1331.000000,501.999908 
	C1188.833374,502.000000 1046.666626,502.000000 904.000000,502.000000 
M1177.886597,288.221466 
	C1177.886597,267.616364 1177.886597,247.011246 1177.886597,225.930511 
	C1199.207397,225.930511 1219.933594,225.930511 1240.694824,225.930511 
	C1240.694824,204.394592 1240.694824,183.339600 1240.694824,161.807602 
	C1219.667725,161.807602 1198.941528,161.807602 1177.745972,161.807602 
	C1177.745972,140.605270 1177.745972,119.879013 1177.745972,99.220703 
	C1156.328491,99.220703 1135.391357,99.220703 1113.976562,99.220703 
	C1113.976562,120.160728 1113.976562,140.886993 1113.976562,162.085098 
	C1092.776733,162.085098 1072.050537,162.085098 1051.312988,162.085098 
	C1051.312988,183.621201 1051.312988,204.676300 1051.312988,226.208008 
	C1072.348145,226.208008 1093.074341,226.208008 1114.269653,226.208008 
	C1114.269653,247.410583 1114.269653,268.136841 1114.269653,288.889923 
	C1135.566528,288.889923 1156.383911,288.889923 1177.886597,288.221466 
M542.000000,337.500000 
	C542.000000,352.587799 542.000000,367.675629 542.000000,382.699249 
	C548.317566,382.699249 554.050903,382.699249 560.182861,382.699249 
	C560.182861,372.323242 560.182861,362.242554 560.182861,352.093140 
	C563.231995,352.093140 565.874695,352.093140 568.280518,352.093140 
	C574.389832,361.816132 580.373108,371.377045 586.421204,380.896820 
	C586.952332,381.732880 587.893921,382.881714 588.668091,382.899963 
	C595.386353,383.058319 602.109924,382.991211 609.725525,382.991211 
	C601.448853,370.926727 593.757996,359.716156 586.033508,348.456573 
	C595.956421,343.761627 602.898071,336.609344 601.176392,320.811127 
	C600.077942,310.732666 595.226868,304.759094 585.903625,301.982910 
	C571.484619,297.689362 556.786316,301.205627 542.000000,299.798309 
	C542.000000,312.560974 542.000000,324.530487 542.000000,337.500000 
M445.000000,330.500000 
	C445.000000,347.594788 445.000000,364.689575 445.000000,381.684418 
	C451.343262,381.684418 457.080994,381.684418 463.031250,381.684418 
	C463.031250,366.402191 463.031250,351.433990 463.031250,336.221649 
	C466.752411,335.306549 470.329956,334.467407 473.885742,333.544312 
	C482.725159,331.249573 486.990662,334.553772 486.997620,343.770172 
	C487.007141,356.386749 487.000000,369.003357 487.000000,381.765442 
	C493.176727,381.765442 498.911652,381.765442 505.000000,381.765442 
	C505.000000,366.906189 504.909302,352.277985 505.025513,337.651489 
	C505.141296,323.082367 491.651764,316.133942 479.847168,318.636475 
	C474.293060,319.813904 468.847412,321.502899 462.852600,323.092682 
	C462.852600,312.783295 462.852600,303.023956 462.852600,293.287903 
	C456.714172,293.287903 450.978882,293.287903 445.000000,293.287903 
	C445.000000,305.549622 445.000000,317.524811 445.000000,330.500000 
M714.000000,304.519012 
	C714.000000,309.636139 714.000000,314.753235 714.000000,319.647858 
	C701.838501,318.152344 690.910889,318.976074 681.705811,327.701752 
	C674.108459,334.903381 672.983398,343.855164 672.891968,353.636200 
	C672.731018,370.849274 686.454285,382.906952 702.545715,382.939789 
	C710.293518,382.955627 718.040283,382.197845 725.792297,382.056519 
	C729.717041,381.984955 731.118530,380.631561 731.090515,376.510010 
	C730.912415,350.354797 731.003418,324.197723 730.989502,298.041290 
	C730.988831,296.769470 730.836792,295.497711 730.759888,294.299744 
	C725.019653,294.299744 719.619385,294.299744 714.000000,294.299744 
	C714.000000,297.574127 714.000000,300.553101 714.000000,304.519012 
M667.991577,355.459778 
	C667.660950,351.543304 667.498230,347.603973 666.967957,343.714722 
	C665.430786,332.439423 661.621399,323.386871 649.318054,320.316467 
	C643.681519,318.909790 637.494690,318.613861 631.703186,319.216003 
	C625.327209,319.878906 618.644653,321.828369 614.520996,327.178741 
	C604.671936,339.957794 604.260742,354.401337 610.144348,368.670044 
	C614.856750,380.098419 625.742126,383.355988 636.973633,383.822144 
	C645.543091,384.177826 654.179443,382.921112 662.768921,382.382721 
	C662.768921,377.694946 662.768921,373.924011 662.768921,370.481812 
	C655.901489,370.998474 649.226196,372.083710 642.594116,371.864380 
	C632.378418,371.526611 625.730164,366.531616 625.183777,357.000000 
	C633.667908,357.000000 642.136963,357.074341 650.604065,356.974182 
	C656.373901,356.905945 662.140930,356.593750 667.991577,355.459778 
M286.000000,358.500000 
	C286.000000,351.169495 286.127380,343.836243 285.970154,336.509125 
	C285.733429,325.478058 275.621338,316.179993 263.297028,318.890869 
	C256.607178,320.362396 249.907532,321.789307 243.196365,323.239777 
	C243.054565,322.154236 242.853210,320.612701 242.669052,319.202789 
	C237.303040,319.202789 232.357193,319.202789 227.209625,319.202789 
	C227.209625,340.135284 227.209625,360.864960 227.209625,381.777771 
	C233.153671,381.777771 238.887192,381.777771 245.000000,381.777771 
	C245.000000,367.771912 244.963684,353.985260 245.054672,340.199463 
	C245.064056,338.778564 245.579910,336.282837 246.289703,336.116547 
	C251.610565,334.869873 257.061462,333.367218 262.422363,333.533447 
	C264.350922,333.593231 266.424927,337.861053 267.878113,340.512421 
	C268.580353,341.793671 267.999969,343.778076 267.999969,345.444092 
	C268.000031,357.542297 268.000000,369.640472 268.000000,381.709900 
	C274.292755,381.709900 280.026886,381.709900 286.000000,381.709900 
	C286.000000,374.114838 286.000000,366.807404 286.000000,358.500000 
M295.006348,320.722046 
	C295.006348,341.125031 295.006348,361.528046 295.006348,381.788635 
	C301.370270,381.788635 306.988373,381.788635 313.000000,381.788635 
	C313.000000,368.295654 313.398529,354.992432 312.806641,341.733398 
	C312.565063,336.321198 315.136658,334.959686 319.196411,334.051758 
	C320.153046,333.837799 321.223907,334.137817 322.182220,333.927704 
	C332.990845,331.558258 336.000000,333.936279 336.000000,344.922363 
	C336.000031,357.190125 336.000000,369.457886 336.000000,381.715454 
	C342.280701,381.715454 348.015076,381.715454 353.999237,381.715454 
	C353.999237,366.128082 354.392639,350.810211 353.863678,335.524261 
	C353.499084,324.988831 343.495239,316.277985 331.304504,318.893951 
	C324.605225,320.331512 317.910034,321.788177 311.193573,323.240417 
	C311.053802,322.158173 310.854614,320.615875 310.598419,318.632355 
	C305.175140,319.026428 300.123749,319.393433 295.006348,320.722046 
M779.027100,375.541321 
	C794.528381,386.218842 811.467224,385.076965 828.769714,381.891235 
	C828.769714,377.483215 828.769714,373.387878 828.769714,370.000000 
	C821.980713,370.000000 815.421448,370.348114 808.912354,369.924622 
	C796.857117,369.140350 788.079041,365.247253 784.546204,352.967926 
	C782.163452,344.686249 782.220276,336.198517 785.059875,327.955627 
	C787.472229,320.952820 792.201111,316.301453 799.413879,313.946472 
	C809.201172,310.750977 818.961731,312.424500 828.717468,313.474396 
	C828.717468,308.963226 828.717468,304.534546 828.717468,299.000000 
	C818.857849,299.000000 809.254395,298.563110 799.710632,299.130402 
	C791.209106,299.635773 783.282471,302.482819 776.918579,308.582123 
	C769.724487,315.477112 766.061646,323.785614 764.788696,333.824829 
	C762.736389,350.010681 765.740906,364.004395 779.027100,375.541321 
M926.933838,377.596130 
	C929.953247,373.759979 933.659790,370.278839 935.860352,366.019623 
	C941.899292,354.331024 939.230652,335.310089 929.097229,326.351288 
	C920.570618,318.813019 910.652283,317.984802 900.585022,319.216278 
	C888.308350,320.718048 879.578918,327.336151 875.821899,339.992126 
	C873.685791,347.187897 873.663208,354.298248 875.289001,361.187317 
	C877.267883,369.572845 881.885742,377.013733 890.168030,380.513885 
	C902.448059,385.703522 914.764709,385.649628 926.933838,377.596130 
M150.522217,299.000000 
	C147.087570,299.000000 143.652924,299.000000 140.267303,299.000000 
	C140.267303,326.957397 140.267303,354.334747 140.267303,381.725464 
	C146.269760,381.725464 152.000366,381.725464 158.137024,381.725464 
	C158.137024,370.725586 158.137024,359.994080 158.137024,348.860657 
	C167.610992,348.860657 176.678299,348.860657 185.713989,348.860657 
	C185.713989,344.041718 185.713989,339.642700 185.713989,334.837921 
	C176.367004,334.837921 167.299103,334.837921 158.294128,334.837921 
	C158.294128,327.354950 158.294128,320.291412 158.294128,312.826935 
	C170.980423,312.826935 183.377594,312.826935 195.699234,312.826935 
	C195.699234,308.010712 195.699234,303.611267 195.699234,299.000000 
	C180.772217,299.000000 166.144867,299.000000 150.522217,299.000000 
M408.095276,318.391357 
	C406.990601,318.594269 405.884949,318.791992 404.781403,319.000916 
	C399.064819,320.083191 393.773132,321.761505 389.768982,326.529938 
	C382.462799,335.230743 384.673218,350.725159 399.517975,354.957062 
	C405.075104,356.541290 410.878143,357.327789 416.331909,359.177307 
	C418.467499,359.901550 420.465576,362.303040 421.469025,364.437714 
	C421.845215,365.237915 419.515686,367.986420 417.888611,368.885437 
	C415.723389,370.081879 413.015137,370.975708 410.582397,370.883636 
	C402.483185,370.577087 394.402802,369.771820 386.000092,369.133789 
	C386.000092,371.331482 386.213867,374.487915 385.942719,377.602081 
	C385.644226,381.030304 387.545593,381.782623 390.299622,382.009888 
	C394.700562,382.373047 399.127258,382.599640 403.486420,383.258698 
	C413.968506,384.843567 423.932892,383.385559 432.787140,377.554749 
	C440.899475,372.212524 443.024475,360.309845 436.837189,352.540466 
	C434.084351,349.083679 429.275635,346.832153 424.963226,345.160522 
	C419.772583,343.148438 414.030792,342.599274 408.709991,340.859192 
	C406.863373,340.255249 404.033752,337.524200 404.321838,336.572449 
	C404.962036,334.457336 407.103729,331.551575 408.962524,331.287872 
	C414.179169,330.547699 419.565002,330.872864 424.879303,330.992249 
	C428.521820,331.074066 432.156250,331.514526 435.856903,331.799469 
	C435.856903,327.719910 435.856903,324.090118 435.856903,319.379089 
	C426.834656,318.928131 417.889313,318.481018 408.095276,318.391357 
M1005.634277,369.995422 
	C1003.861633,369.645569 1002.088989,369.295746 1000.000061,368.883484 
	C1000.000061,372.276703 1000.140991,374.937286 999.963318,377.576385 
	C999.754089,380.684052 1000.723450,382.004272 1004.120544,382.116302 
	C1007.976501,382.243500 1011.783630,383.513519 1015.647766,383.795105 
	C1026.036865,384.552094 1036.399170,383.916168 1044.981934,377.341980 
	C1054.008423,370.428009 1055.083740,353.441589 1042.878174,348.129120 
	C1037.212402,345.663086 1030.865601,344.800629 1024.911133,342.943512 
	C1021.643433,341.924377 1017.046021,341.406494 1017.189270,336.920288 
	C1017.337158,332.290527 1021.746704,331.668915 1025.473145,331.016754 
	C1026.119385,330.903656 1026.804810,330.961884 1027.467896,331.005920 
	C1034.136841,331.448853 1040.804932,331.905334 1047.721313,332.374817 
	C1047.721313,329.140686 1047.721313,325.388397 1047.721313,321.195129 
	C1036.788452,318.794708 1025.526367,317.422455 1014.498047,320.388245 
	C1003.906433,323.236633 1000.157043,327.726318 999.115845,336.641602 
	C998.054321,345.730011 1001.987366,351.311035 1011.710693,355.092255 
	C1016.458191,356.938446 1021.581482,357.897278 1026.600952,358.938354 
	C1030.181885,359.681091 1033.422729,360.979950 1033.344482,364.982574 
	C1033.256836,369.465851 1029.179565,370.751862 1025.746948,370.850586 
	C1019.353882,371.034424 1012.935303,370.332977 1005.634277,369.995422 
M945.910950,327.630096 
	C941.375916,334.830780 940.916260,342.731445 946.315857,348.903687 
	C949.807983,352.895538 956.023682,354.710999 961.272644,356.890747 
	C965.088684,358.475433 969.443237,358.743256 973.305847,360.245605 
	C974.878967,360.857452 976.610779,363.109894 976.753845,364.748291 
	C976.885010,366.251434 975.240845,369.015747 973.917969,369.339233 
	C969.325195,370.462372 964.516541,371.351349 959.818909,371.227966 
	C954.289490,371.082703 948.790222,369.789337 943.000061,368.953705 
	C943.000061,372.263916 943.139954,374.923187 942.963501,377.561249 
	C942.756287,380.660095 943.683411,382.103668 947.116577,382.088623 
	C950.855591,382.072296 954.664429,382.425171 958.325562,383.183197 
	C968.167053,385.220795 977.532837,383.651886 986.073792,378.859955 
	C993.549438,374.665802 996.287476,367.421722 994.919983,359.056793 
	C993.817383,352.312012 989.013306,348.393890 982.819580,346.437897 
	C977.157166,344.649658 971.211060,343.741455 965.589417,341.852112 
	C963.456116,341.135132 961.879639,338.761505 960.049377,337.142975 
	C961.951599,335.425629 963.762695,332.362244 965.772034,332.226135 
	C974.060669,331.664673 982.409424,331.990967 990.999817,331.990967 
	C990.999817,329.700500 990.811462,326.868134 991.052002,324.072662 
	C991.300232,321.188263 989.646912,320.197083 987.371094,320.051758 
	C980.296875,319.599915 973.179749,318.771942 966.137512,319.156555 
	C958.878418,319.553070 951.674988,321.170563 945.910950,327.630096 
M835.000000,371.482483 
	C835.000000,375.247711 835.000000,379.012939 835.000000,382.706848 
	C840.976624,382.706848 846.372192,382.706848 852.000000,382.706848 
	C852.000000,369.128265 852.148438,355.838867 851.910889,342.556366 
	C851.838440,338.503662 853.070740,336.484406 857.144165,335.956146 
	C862.725830,335.232269 868.268982,334.212494 873.664917,333.345886 
	C873.664917,328.923859 873.664917,324.525909 873.664917,318.695923 
	C865.420654,320.547302 857.807312,322.256989 850.131592,323.980682 
	C850.070740,323.248077 849.942078,321.698700 849.827148,320.315002 
	C844.653687,320.315002 839.920288,320.315002 835.000000,320.315002 
	C835.000000,337.249115 835.000000,353.868958 835.000000,371.482483 
M381.000000,340.500122 
	C381.000000,333.407074 381.000000,326.314056 381.000000,319.302399 
	C374.676270,319.302399 368.944092,319.302399 363.293701,319.302399 
	C363.293701,340.326233 363.293701,361.046387 363.293701,381.697784 
	C369.323364,381.697784 375.055511,381.697784 381.000000,381.697784 
	C381.000000,368.097809 381.000000,354.798920 381.000000,340.500122 
M217.000000,336.501282 
	C217.000000,330.741974 217.000000,324.982666 217.000000,319.303711 
	C211.007553,319.303711 205.608917,319.303711 200.294769,319.303711 
	C200.294769,340.328857 200.294769,361.048950 200.294769,381.696350 
	C205.993835,381.696350 211.391510,381.696350 217.000000,381.696350 
	C217.000000,366.762695 217.000000,352.131683 217.000000,336.501282 
M374.437531,293.000000 
	C370.682465,293.000000 366.927399,293.000000 363.318665,293.000000 
	C363.318665,298.698944 363.318665,303.760223 363.318665,308.679810 
	C369.371796,308.679810 375.102051,308.679810 380.675781,308.679810 
	C380.675781,303.292786 380.675781,298.230408 380.675781,293.000000 
	C378.703949,293.000000 377.055481,293.000000 374.437531,293.000000 
M210.442261,293.000000 
	C207.018463,293.000000 203.594666,293.000000 200.316833,293.000000 
	C200.316833,298.694305 200.316833,303.756470 200.316833,308.681335 
	C206.034012,308.681335 211.430237,308.681335 216.677979,308.681335 
	C216.677979,303.296295 216.677979,298.234314 216.677979,293.000000 
	C214.710983,293.000000 213.062149,293.000000 210.442261,293.000000 
z"/>
<path fill="#EE2435" opacity="1.000000" stroke="none" 
	d="
M1177.543945,288.555695 
	C1156.383911,288.889923 1135.566528,288.889923 1114.269653,288.889923 
	C1114.269653,268.136841 1114.269653,247.410583 1114.269653,226.208008 
	C1093.074341,226.208008 1072.348145,226.208008 1051.312988,226.208008 
	C1051.312988,204.676300 1051.312988,183.621201 1051.312988,162.085098 
	C1072.050537,162.085098 1092.776733,162.085098 1113.976562,162.085098 
	C1113.976562,140.886993 1113.976562,120.160728 1113.976562,99.220703 
	C1135.391357,99.220703 1156.328491,99.220703 1177.745972,99.220703 
	C1177.745972,119.879013 1177.745972,140.605270 1177.745972,161.807602 
	C1198.941528,161.807602 1219.667725,161.807602 1240.694824,161.807602 
	C1240.694824,183.339600 1240.694824,204.394592 1240.694824,225.930511 
	C1219.933594,225.930511 1199.207397,225.930511 1177.886597,225.930511 
	C1177.886597,247.011246 1177.886597,267.616364 1177.543945,288.555695 
z"/>
<path fill="#222221" opacity="1.000000" stroke="none" 
	d="
M542.000000,337.000000 
	C542.000000,324.530487 542.000000,312.560974 542.000000,299.798309 
	C556.786316,301.205627 571.484619,297.689362 585.903625,301.982910 
	C595.226868,304.759094 600.077942,310.732666 601.176392,320.811127 
	C602.898071,336.609344 595.956421,343.761627 586.033508,348.456573 
	C593.757996,359.716156 601.448853,370.926727 609.725525,382.991211 
	C602.109924,382.991211 595.386353,383.058319 588.668091,382.899963 
	C587.893921,382.881714 586.952332,381.732880 586.421204,380.896820 
	C580.373108,371.377045 574.389832,361.816132 568.280518,352.093140 
	C565.874695,352.093140 563.231995,352.093140 560.182861,352.093140 
	C560.182861,362.242554 560.182861,372.323242 560.182861,382.699249 
	C554.050903,382.699249 548.317566,382.699249 542.000000,382.699249 
	C542.000000,367.675629 542.000000,352.587799 542.000000,337.000000 
M571.111877,338.999908 
	C583.846375,337.015198 584.211731,330.757111 582.256409,319.950134 
	C581.878296,317.859985 579.573242,314.942810 577.685669,314.522156 
	C572.061768,313.268829 566.203369,313.067841 560.199463,312.430542 
	C560.199463,321.836426 560.199463,330.206787 560.199463,339.000000 
	C563.654785,339.000000 566.926331,339.000000 571.111877,338.999908 
z"/>
<path fill="#222221" opacity="1.000000" stroke="none" 
	d="
M445.000000,330.000000 
	C445.000000,317.524811 445.000000,305.549622 445.000000,293.287903 
	C450.978882,293.287903 456.714172,293.287903 462.852600,293.287903 
	C462.852600,303.023956 462.852600,312.783295 462.852600,323.092682 
	C468.847412,321.502899 474.293060,319.813904 479.847168,318.636475 
	C491.651764,316.133942 505.141296,323.082367 505.025513,337.651489 
	C504.909302,352.277985 505.000000,366.906189 505.000000,381.765442 
	C498.911652,381.765442 493.176727,381.765442 487.000000,381.765442 
	C487.000000,369.003357 487.007141,356.386749 486.997620,343.770172 
	C486.990662,334.553772 482.725159,331.249573 473.885742,333.544312 
	C470.329956,334.467407 466.752411,335.306549 463.031250,336.221649 
	C463.031250,351.433990 463.031250,366.402191 463.031250,381.684418 
	C457.080994,381.684418 451.343262,381.684418 445.000000,381.684418 
	C445.000000,364.689575 445.000000,347.594788 445.000000,330.000000 
z"/>
<path fill="#222221" opacity="1.000000" stroke="none" 
	d="
M714.000000,304.025513 
	C714.000000,300.553101 714.000000,297.574127 714.000000,294.299744 
	C719.619385,294.299744 725.019653,294.299744 730.759888,294.299744 
	C730.836792,295.497711 730.988831,296.769470 730.989502,298.041290 
	C731.003418,324.197723 730.912415,350.354797 731.090515,376.510010 
	C731.118530,380.631561 729.717041,381.984955 725.792297,382.056519 
	C718.040283,382.197845 710.293518,382.955627 702.545715,382.939789 
	C686.454285,382.906952 672.731018,370.849274 672.891968,353.636200 
	C672.983398,343.855164 674.108459,334.903381 681.705811,327.701752 
	C690.910889,318.976074 701.838501,318.152344 714.000000,319.647858 
	C714.000000,314.753235 714.000000,309.636139 714.000000,304.025513 
M714.000000,352.498840 
	C714.000000,345.754242 714.000000,339.009644 714.000000,332.126190 
	C705.632874,331.903809 697.450806,330.738525 692.935242,339.519073 
	C688.352478,348.430237 688.556213,357.644653 694.456116,365.504303 
	C699.165100,371.777466 706.564514,371.869385 714.000000,369.416473 
	C714.000000,364.089294 714.000000,358.793701 714.000000,352.498840 
z"/>
<path fill="#222221" opacity="1.000000" stroke="none" 
	d="
M667.950378,355.925201 
	C662.140930,356.593750 656.373901,356.905945 650.604065,356.974182 
	C642.136963,357.074341 633.667908,357.000000 625.183777,357.000000 
	C625.730164,366.531616 632.378418,371.526611 642.594116,371.864380 
	C649.226196,372.083710 655.901489,370.998474 662.768921,370.481812 
	C662.768921,373.924011 662.768921,377.694946 662.768921,382.382721 
	C654.179443,382.921112 645.543091,384.177826 636.973633,383.822144 
	C625.742126,383.355988 614.856750,380.098419 610.144348,368.670044 
	C604.260742,354.401337 604.671936,339.957794 614.520996,327.178741 
	C618.644653,321.828369 625.327209,319.878906 631.703186,319.216003 
	C637.494690,318.613861 643.681519,318.909790 649.318054,320.316467 
	C661.621399,323.386871 665.430786,332.439423 666.967957,343.714722 
	C667.498230,347.603973 667.660950,351.543304 667.950378,355.925201 
M627.022766,335.819244 
	C626.180115,338.672028 625.337402,341.524811 624.388794,344.736023 
	C633.129028,344.736023 641.010071,344.736023 649.075745,344.736023 
	C648.779663,339.037903 647.651428,334.098389 642.071960,331.615723 
	C637.429749,329.550110 631.514526,331.025909 627.022766,335.819244 
z"/>
<path fill="#222221" opacity="1.000000" stroke="none" 
	d="
M286.000000,359.000000 
	C286.000000,366.807404 286.000000,374.114838 286.000000,381.709900 
	C280.026886,381.709900 274.292755,381.709900 268.000000,381.709900 
	C268.000000,369.640472 268.000031,357.542297 267.999969,345.444092 
	C267.999969,343.778076 268.580353,341.793671 267.878113,340.512421 
	C266.424927,337.861053 264.350922,333.593231 262.422363,333.533447 
	C257.061462,333.367218 251.610565,334.869873 246.289703,336.116547 
	C245.579910,336.282837 245.064056,338.778564 245.054672,340.199463 
	C244.963684,353.985260 245.000000,367.771912 245.000000,381.777771 
	C238.887192,381.777771 233.153671,381.777771 227.209625,381.777771 
	C227.209625,360.864960 227.209625,340.135284 227.209625,319.202789 
	C232.357193,319.202789 237.303040,319.202789 242.669052,319.202789 
	C242.853210,320.612701 243.054565,322.154236 243.196365,323.239777 
	C249.907532,321.789307 256.607178,320.362396 263.297028,318.890869 
	C275.621338,316.179993 285.733429,325.478058 285.970154,336.509125 
	C286.127380,343.836243 286.000000,351.169495 286.000000,359.000000 
z"/>
<path fill="#222221" opacity="1.000000" stroke="none" 
	d="
M295.039337,320.241272 
	C300.123749,319.393433 305.175140,319.026428 310.598419,318.632355 
	C310.854614,320.615875 311.053802,322.158173 311.193573,323.240417 
	C317.910034,321.788177 324.605225,320.331512 331.304504,318.893951 
	C343.495239,316.277985 353.499084,324.988831 353.863678,335.524261 
	C354.392639,350.810211 353.999237,366.128082 353.999237,381.715454 
	C348.015076,381.715454 342.280701,381.715454 336.000000,381.715454 
	C336.000000,369.457886 336.000031,357.190125 336.000000,344.922363 
	C336.000000,333.936279 332.990845,331.558258 322.182220,333.927704 
	C321.223907,334.137817 320.153046,333.837799 319.196411,334.051758 
	C315.136658,334.959686 312.565063,336.321198 312.806641,341.733398 
	C313.398529,354.992432 313.000000,368.295654 313.000000,381.788635 
	C306.988373,381.788635 301.370270,381.788635 295.006348,381.788635 
	C295.006348,361.528046 295.006348,341.125031 295.039337,320.241272 
z"/>
<path fill="#222221" opacity="1.000000" stroke="none" 
	d="
M778.769165,375.274719 
	C765.740906,364.004395 762.736389,350.010681 764.788696,333.824829 
	C766.061646,323.785614 769.724487,315.477112 776.918579,308.582123 
	C783.282471,302.482819 791.209106,299.635773 799.710632,299.130402 
	C809.254395,298.563110 818.857849,299.000000 828.717468,299.000000 
	C828.717468,304.534546 828.717468,308.963226 828.717468,313.474396 
	C818.961731,312.424500 809.201172,310.750977 799.413879,313.946472 
	C792.201111,316.301453 787.472229,320.952820 785.059875,327.955627 
	C782.220276,336.198517 782.163452,344.686249 784.546204,352.967926 
	C788.079041,365.247253 796.857117,369.140350 808.912354,369.924622 
	C815.421448,370.348114 821.980713,370.000000 828.769714,370.000000 
	C828.769714,373.387878 828.769714,377.483215 828.769714,381.891235 
	C811.467224,385.076965 794.528381,386.218842 778.769165,375.274719 
z"/>
<path fill="#222221" opacity="1.000000" stroke="none" 
	d="
M926.656555,377.839111 
	C914.764709,385.649628 902.448059,385.703522 890.168030,380.513885 
	C881.885742,377.013733 877.267883,369.572845 875.289001,361.187317 
	C873.663208,354.298248 873.685791,347.187897 875.821899,339.992126 
	C879.578918,327.336151 888.308350,320.718048 900.585022,319.216278 
	C910.652283,317.984802 920.570618,318.813019 929.097229,326.351288 
	C939.230652,335.310089 941.899292,354.331024 935.860352,366.019623 
	C933.659790,370.278839 929.953247,373.759979 926.656555,377.839111 
M892.028076,345.998779 
	C892.684631,351.788544 892.951416,357.656952 894.099487,363.347565 
	C895.444458,370.013519 900.579895,371.317810 906.635132,371.755951 
	C910.965454,372.069214 915.705627,370.661346 918.036438,365.826447 
	C922.216248,357.156219 922.105469,348.308167 919.061646,339.395355 
	C916.672546,332.399658 911.730957,331.256348 903.928345,331.924957 
	C895.655945,332.633820 893.831299,338.681549 892.028076,345.998779 
z"/>
<path fill="#222221" opacity="1.000000" stroke="none" 
	d="
M151.019867,299.000000 
	C166.144867,299.000000 180.772217,299.000000 195.699234,299.000000 
	C195.699234,303.611267 195.699234,308.010712 195.699234,312.826935 
	C183.377594,312.826935 170.980423,312.826935 158.294128,312.826935 
	C158.294128,320.291412 158.294128,327.354950 158.294128,334.837921 
	C167.299103,334.837921 176.367004,334.837921 185.713989,334.837921 
	C185.713989,339.642700 185.713989,344.041718 185.713989,348.860657 
	C176.678299,348.860657 167.610992,348.860657 158.137024,348.860657 
	C158.137024,359.994080 158.137024,370.725586 158.137024,381.725464 
	C152.000366,381.725464 146.269760,381.725464 140.267303,381.725464 
	C140.267303,354.334747 140.267303,326.957397 140.267303,299.000000 
	C143.652924,299.000000 147.087570,299.000000 151.019867,299.000000 
z"/>
<path fill="#222221" opacity="1.000000" stroke="none" 
	d="
M408.519623,318.212646 
	C417.889313,318.481018 426.834656,318.928131 435.856903,319.379089 
	C435.856903,324.090118 435.856903,327.719910 435.856903,331.799469 
	C432.156250,331.514526 428.521820,331.074066 424.879303,330.992249 
	C419.565002,330.872864 414.179169,330.547699 408.962524,331.287872 
	C407.103729,331.551575 404.962036,334.457336 404.321838,336.572449 
	C404.033752,337.524200 406.863373,340.255249 408.709991,340.859192 
	C414.030792,342.599274 419.772583,343.148438 424.963226,345.160522 
	C429.275635,346.832153 434.084351,349.083679 436.837189,352.540466 
	C443.024475,360.309845 440.899475,372.212524 432.787140,377.554749 
	C423.932892,383.385559 413.968506,384.843567 403.486420,383.258698 
	C399.127258,382.599640 394.700562,382.373047 390.299622,382.009888 
	C387.545593,381.782623 385.644226,381.030304 385.942719,377.602081 
	C386.213867,374.487915 386.000092,371.331482 386.000092,369.133789 
	C394.402802,369.771820 402.483185,370.577087 410.582397,370.883636 
	C413.015137,370.975708 415.723389,370.081879 417.888611,368.885437 
	C419.515686,367.986420 421.845215,365.237915 421.469025,364.437714 
	C420.465576,362.303040 418.467499,359.901550 416.331909,359.177307 
	C410.878143,357.327789 405.075104,356.541290 399.517975,354.957062 
	C384.673218,350.725159 382.462799,335.230743 389.768982,326.529938 
	C393.773132,321.761505 399.064819,320.083191 404.781403,319.000916 
	C405.884949,318.791992 406.990601,318.594269 408.519623,318.212646 
z"/>
<path fill="#222221" opacity="1.000000" stroke="none" 
	d="
M1006.080811,369.997742 
	C1012.935303,370.332977 1019.353882,371.034424 1025.746948,370.850586 
	C1029.179565,370.751862 1033.256836,369.465851 1033.344482,364.982574 
	C1033.422729,360.979950 1030.181885,359.681091 1026.600952,358.938354 
	C1021.581482,357.897278 1016.458191,356.938446 1011.710693,355.092255 
	C1001.987366,351.311035 998.054321,345.730011 999.115845,336.641602 
	C1000.157043,327.726318 1003.906433,323.236633 1014.498047,320.388245 
	C1025.526367,317.422455 1036.788452,318.794708 1047.721313,321.195129 
	C1047.721313,325.388397 1047.721313,329.140686 1047.721313,332.374817 
	C1040.804932,331.905334 1034.136841,331.448853 1027.467896,331.005920 
	C1026.804810,330.961884 1026.119385,330.903656 1025.473145,331.016754 
	C1021.746704,331.668915 1017.337158,332.290527 1017.189270,336.920288 
	C1017.046021,341.406494 1021.643433,341.924377 1024.911133,342.943512 
	C1030.865601,344.800629 1037.212402,345.663086 1042.878174,348.129120 
	C1055.083740,353.441589 1054.008423,370.428009 1044.981934,377.341980 
	C1036.399170,383.916168 1026.036865,384.552094 1015.647766,383.795105 
	C1011.783630,383.513519 1007.976501,382.243500 1004.120544,382.116302 
	C1000.723450,382.004272 999.754089,380.684052 999.963318,377.576385 
	C1000.140991,374.937286 1000.000061,372.276703 1000.000061,368.883484 
	C1002.088989,369.295746 1003.861633,369.645569 1006.080811,369.997742 
z"/>
<path fill="#222221" opacity="1.000000" stroke="none" 
	d="
M946.161621,327.345398 
	C951.674988,321.170563 958.878418,319.553070 966.137512,319.156555 
	C973.179749,318.771942 980.296875,319.599915 987.371094,320.051758 
	C989.646912,320.197083 991.300232,321.188263 991.052002,324.072662 
	C990.811462,326.868134 990.999817,329.700500 990.999817,331.990967 
	C982.409424,331.990967 974.060669,331.664673 965.772034,332.226135 
	C963.762695,332.362244 961.951599,335.425629 960.049377,337.142975 
	C961.879639,338.761505 963.456116,341.135132 965.589417,341.852112 
	C971.211060,343.741455 977.157166,344.649658 982.819580,346.437897 
	C989.013306,348.393890 993.817383,352.312012 994.919983,359.056793 
	C996.287476,367.421722 993.549438,374.665802 986.073792,378.859955 
	C977.532837,383.651886 968.167053,385.220795 958.325562,383.183197 
	C954.664429,382.425171 950.855591,382.072296 947.116577,382.088623 
	C943.683411,382.103668 942.756287,380.660095 942.963501,377.561249 
	C943.139954,374.923187 943.000061,372.263916 943.000061,368.953705 
	C948.790222,369.789337 954.289490,371.082703 959.818909,371.227966 
	C964.516541,371.351349 969.325195,370.462372 973.917969,369.339233 
	C975.240845,369.015747 976.885010,366.251434 976.753845,364.748291 
	C976.610779,363.109894 974.878967,360.857452 973.305847,360.245605 
	C969.443237,358.743256 965.088684,358.475433 961.272644,356.890747 
	C956.023682,354.710999 949.807983,352.895538 946.315857,348.903687 
	C940.916260,342.731445 941.375916,334.830780 946.161621,327.345398 
z"/>
<path fill="#222221" opacity="1.000000" stroke="none" 
	d="
M835.000000,370.985626 
	C835.000000,353.868958 835.000000,337.249115 835.000000,320.315002 
	C839.920288,320.315002 844.653687,320.315002 849.827148,320.315002 
	C849.942078,321.698700 850.070740,323.248077 850.131592,323.980682 
	C857.807312,322.256989 865.420654,320.547302 873.664917,318.695923 
	C873.664917,324.525909 873.664917,328.923859 873.664917,333.345886 
	C868.268982,334.212494 862.725830,335.232269 857.144165,335.956146 
	C853.070740,336.484406 851.838440,338.503662 851.910889,342.556366 
	C852.148438,355.838867 852.000000,369.128265 852.000000,382.706848 
	C846.372192,382.706848 840.976624,382.706848 835.000000,382.706848 
	C835.000000,379.012939 835.000000,375.247711 835.000000,370.985626 
z"/>
<path fill="#222221" opacity="1.000000" stroke="none" 
	d="
M381.000000,341.000061 
	C381.000000,354.798920 381.000000,368.097809 381.000000,381.697784 
	C375.055511,381.697784 369.323364,381.697784 363.293701,381.697784 
	C363.293701,361.046387 363.293701,340.326233 363.293701,319.302399 
	C368.944092,319.302399 374.676270,319.302399 381.000000,319.302399 
	C381.000000,326.314056 381.000000,333.407074 381.000000,341.000061 
z"/>
<path fill="#222221" opacity="1.000000" stroke="none" 
	d="
M217.000000,337.000977 
	C217.000000,352.131683 217.000000,366.762695 217.000000,381.696350 
	C211.391510,381.696350 205.993835,381.696350 200.294769,381.696350 
	C200.294769,361.048950 200.294769,340.328857 200.294769,319.303711 
	C205.608917,319.303711 211.007553,319.303711 217.000000,319.303711 
	C217.000000,324.982666 217.000000,330.741974 217.000000,337.000977 
z"/>
<path fill="#222221" opacity="1.000000" stroke="none" 
	d="
M374.922272,293.000000 
	C377.055481,293.000000 378.703949,293.000000 380.675781,293.000000 
	C380.675781,298.230408 380.675781,303.292786 380.675781,308.679810 
	C375.102051,308.679810 369.371796,308.679810 363.318665,308.679810 
	C363.318665,303.760223 363.318665,298.698944 363.318665,293.000000 
	C366.927399,293.000000 370.682465,293.000000 374.922272,293.000000 
z"/>
<path fill="#222221" opacity="1.000000" stroke="none" 
	d="
M210.927795,293.000000 
	C213.062149,293.000000 214.710983,293.000000 216.677979,293.000000 
	C216.677979,298.234314 216.677979,303.296295 216.677979,308.681335 
	C211.430237,308.681335 206.034012,308.681335 200.316833,308.681335 
	C200.316833,303.756470 200.316833,298.694305 200.316833,293.000000 
	C203.594666,293.000000 207.018463,293.000000 210.927795,293.000000 
z"/>
<path fill="#FFFFFF" opacity="1.000000" stroke="none" 
	d="
M570.654907,338.999939 
	C566.926331,339.000000 563.654785,339.000000 560.199463,339.000000 
	C560.199463,330.206787 560.199463,321.836426 560.199463,312.430542 
	C566.203369,313.067841 572.061768,313.268829 577.685669,314.522156 
	C579.573242,314.942810 581.878296,317.859985 582.256409,319.950134 
	C584.211731,330.757111 583.846375,337.015198 570.654907,338.999939 
z"/>
<path fill="#FFFFFF" opacity="1.000000" stroke="none" 
	d="
M714.000000,352.998474 
	C714.000000,358.793701 714.000000,364.089294 714.000000,369.416473 
	C706.564514,371.869385 699.165100,371.777466 694.456116,365.504303 
	C688.556213,357.644653 688.352478,348.430237 692.935242,339.519073 
	C697.450806,330.738525 705.632874,331.903809 714.000000,332.126190 
	C714.000000,339.009644 714.000000,345.754242 714.000000,352.998474 
z"/>
<path fill="#FFFFFF" opacity="1.000000" stroke="none" 
	d="
M627.197571,335.465332 
	C631.514526,331.025909 637.429749,329.550110 642.071960,331.615723 
	C647.651428,334.098389 648.779663,339.037903 649.075745,344.736023 
	C641.010071,344.736023 633.129028,344.736023 624.388794,344.736023 
	C625.337402,341.524811 626.180115,338.672028 627.197571,335.465332 
z"/>
<path fill="#FFFFFF" opacity="1.000000" stroke="none" 
	d="
M892.178101,345.578552 
	C893.831299,338.681549 895.655945,332.633820 903.928345,331.924957 
	C911.730957,331.256348 916.672546,332.399658 919.061646,339.395355 
	C922.105469,348.308167 922.216248,357.156219 918.036438,365.826447 
	C915.705627,370.661346 910.965454,372.069214 906.635132,371.755951 
	C900.579895,371.317810 895.444458,370.013519 894.099487,363.347565 
	C892.951416,357.656952 892.684631,351.788544 892.178101,345.578552 
z"/>
</svg>