<?xml version="1.0" encoding="UTF-8"?>
<svg id="Layer_1" data-name="Layer 1" xmlns="http://www.w3.org/2000/svg" viewBox="0 0 638.14 240">
  <defs>
    <style>
      .cls-1 {
        fill: #ee2435;
      }
    </style>
  </defs>
  <g id="_レイヤー_2" data-name="レイヤー 2">
    <g id="_レイヤー_1-2" data-name="レイヤー 1-2">
      <polygon class="cls-1" points="218.03 100.48 178.14 100.48 178.14 60.59 144.17 60.59 144.17 100.48 104.29 100.48 104.29 134.46 144.17 134.46 144.17 174.33 178.14 174.33 178.14 134.46 218.03 134.46 218.03 100.48"/>
      <path d="M279.66,137.37v-39.76c-.02-1.94-1.59-3.51-3.53-3.52h-33.07c-1.95,0-3.53,1.59-3.53,3.53v39.74c0,1.95,1.59,3.53,3.53,3.53h33.07c1.95,0,3.53-1.59,3.53-3.53ZM274.45,99.46v15.7h-29.72v-15.7h29.72ZM244.73,135.35v-14.96h29.72v14.96h-29.72Z"/>
      <polygon points="413.81 141.21 413.81 116.7 434.93 116.7 434.93 111.46 413.81 111.46 413.81 93.97 408.16 93.97 408.16 111.46 387.02 111.46 387.02 116.7 408.16 116.7 408.16 141.21 413.81 141.21"/>
      <polygon points="337.46 136.28 342.69 136.28 344.25 119.58 339.04 119.58 337.46 136.28"/>
      <polygon points="380.92 136.28 379.35 119.58 374.14 119.58 375.69 136.28 380.92 136.28"/>
      <path d="M347.21,141.01c7.44-3.97,9.57-13.62,9.77-24.26h5.86v18.6h-6.7v5.56h8.38c1.96,0,3.54-1.58,3.55-3.53v-20.67h15.08v-5.23h-21.34v-5.86h18.91v-5.23h-18.91v-6.38h-5.23v6.38h-18.85v5.23h18.85v5.86h-21.34v5.23h16.85c0,5.91-1.68,14.61-4.81,17.76l-.07,6.55Z"/>
      <polygon points="519.92 135.75 511.21 135.75 511.21 140.96 533.84 140.96 533.84 135.75 525.13 135.75 525.13 105.32 533.84 105.32 533.84 100.1 525.13 100.1 525.13 93.93 519.92 93.93 519.92 100.1 511.21 100.1 511.21 105.32 519.92 105.32 519.92 135.75"/>
      <path d="M506.9,129.82h5.53l-8.06-13.82,1.89-1.68c1.29-1.22,3.08-2.23,3.08-5.28v-5.53c0-1.95-1.59-3.53-3.53-3.53h-4.47v-5.98h-5.21v6.06h-7.99v5.38h15.93v3.94l-15.9,13.2v6.38s3.95-3.03,8.14-6.48v18.53h5.23v-20.39l5.36,9.2Z"/>
      <path d="M332.39,128.49c-4.36-3.35-10.27-16.6-10.77-22.78h10.52v-5.21h-21.33v-6.4h-5.23v6.4h-21.39v5.21h10.92c-.5,6.18-6.42,19.47-10.77,22.78v7.02c7.29-4.37,15.85-20.64,16.54-29.8h4.71v22.92h-10.05v5.23h10.05v7.32h5.23v-7.32h10.29v-5.23h-10.29v-22.92h5.03c.67,9.16,9.23,25.43,16.52,29.8l.03-7.02Z"/>
      <path d="M444.5,105.34h34.46v11.31h5.19v-13.13c0-1.94-1.56-3.52-3.5-3.53h-16.17v-6.05h-5.21v6.05h-16.38c-1.95,0-3.52,1.59-3.52,3.53v12.92h5.19l-.07-11.09Z"/>
      <path d="M484.19,122.03h-19.92v-1.02l10.44-5.9h0v-5.24h-26.57v5.21h16.97l-6,3.25h0v3.69h-19.75v5.21h19.8v7.92h-6.7v5.55h8.38c1.94,0,3.51-1.58,3.52-3.52v-9.93h19.92l-.08-5.21Z"/>
      <path d="M247.1,168.11c0,2.35-.15,4.57-2.75,4.57s-2.3-2.58-2.35-4.31h-2.55c-.14,1.53.13,3.06.77,4.46.96,1.24,2.47,1.94,4.04,1.88,5.26,0,5.29-4.12,5.29-5.16v-14.41h-2.46v12.97Z"/>
      <path d="M262.63,164.68c0-2.26-.9-4.04-4.36-4.04-2.85,0-4.46,1.04-4.54,4.04h2.36c-.22-1.08.47-2.13,1.54-2.36.18-.04.37-.05.55-.04,2.35,0,2.31,1.96,2.26,3.74-3.07,0-7.04.1-7.04,4.17,0,2.56.82,4.41,3.67,4.41,1.48.09,2.85-.81,3.35-2.21h0v1.94h2.4c-.15-1.05-.22-2.11-.2-3.17v-6.48ZM257.6,172.82c-1.46,0-2.09-1.17-2.09-2.46,0-2.86,2.78-2.66,4.86-2.7.28,4.32-1.36,5.18-2.68,5.18l-.08-.02Z"/>
      <path d="M272.11,160.64c-1.3-.03-2.49.7-3.07,1.86h0v-1.59h-2.24v18.43h2.18v-6.37h0c.61,1.05,1.73,1.69,2.95,1.68,4.32,0,4.44-3.85,4.44-7.2.08-5.95-2.09-6.8-4.26-6.8ZM271.51,172.84c-2.43,0-2.53-2.86-2.53-4.62,0-2.06-.23-5.78,2.45-5.78s2.73,2.95,2.73,5.03c0,3.52-.32,5.38-2.65,5.38Z"/>
      <path d="M288.66,164.68c0-2.26-.89-4.04-4.34-4.04-2.85,0-4.46,1.04-4.56,4.04h2.36c-.23-1.08.47-2.13,1.54-2.36.19-.04.38-.05.57-.04,2.33,0,2.31,1.96,2.24,3.74-3.05,0-7.04.1-7.04,4.17,0,2.56.82,4.41,3.67,4.41,1.48.09,2.85-.81,3.35-2.21h0v1.94h2.38c-.17-1.06-.26-2.13-.27-3.2l.08-6.45ZM283.74,172.84c-1.47,0-2.11-1.17-2.11-2.46,0-2.86,2.8-2.66,4.86-2.7.22,4.31-1.42,5.16-2.75,5.16Z"/>
      <path d="M298.53,160.64c-1.5-.17-2.94.63-3.59,1.99h-.1v-1.68h-2.31c0,.92.13,1.86.13,2.8v10.62h2.18v-7.99c0-1.84.34-3.97,2.73-3.97,1.86,0,2.36,1.17,2.36,2.61v9.3h2.18v-9.3c0-2.65-.7-4.39-3.59-4.39Z"/>
      <path d="M310.57,160.64c-4.66,0-5.03,3.23-5.03,7.17,0,5.93,2.26,6.7,5.03,6.7s4.64-1.36,4.67-4.32h-2.4c.14,1.32-.81,2.5-2.13,2.63-.07,0-.13.01-.2.01-1.68,0-2.71-.75-2.71-4.51h7.57v-1.14c0-4.41-.99-6.55-4.81-6.55ZM307.81,166.67c0-3.72,1.16-4.39,2.55-4.39s2.68.49,2.68,4.39h-5.23Z"/>
      <path d="M320.64,164.09c.01-1.02.84-1.83,1.86-1.82.07,0,.14,0,.22.01,1.04-.12,1.98.62,2.1,1.66.02.17.02.35-.01.52h2.43c.18-2.66-1.88-3.8-4.26-3.8-3.77,0-4.62,2.26-4.62,3.67,0,4,6.7,4.07,6.7,6.47,0,1.37-1.02,2.04-2.33,2.04-2.19,0-2.23-1.81-2.23-2.6h-2.48c0,3.1,1.68,4.37,4.64,4.37s4.67-1.14,4.67-4.09c0-4.12-6.7-4.07-6.7-6.43Z"/>
      <path d="M335.13,160.64c-4.66,0-5.03,3.23-5.03,7.17,0,5.93,2.26,6.7,5.03,6.7s4.64-1.36,4.67-4.32h-2.4c.07,1.33-.94,2.47-2.27,2.54-.02,0-.05,0-.07,0-1.68,0-2.71-.75-2.71-4.51h7.56v-1.14c0-4.31-.95-6.45-4.77-6.45ZM332.35,166.67c0-3.72,1.17-4.39,2.56-4.39s2.68.49,2.68,4.39h-5.24Z"/>
      <path d="M356.8,164.36h0c2.13-.33,3.65-2.24,3.5-4.39.26-2.37-1.46-4.5-3.83-4.76-.26-.03-.52-.03-.77-.01h-6.62v19.13h2.45v-8.83h2.88c1.4-.18,2.67.81,2.85,2.21.01.08.02.16.02.24.2,2.56,0,5.03.74,6.38h2.61c-.37-1.65-.59-3.33-.65-5.03-.17-3.85-1.02-4.59-3.17-4.94ZM355.12,163.39h-3.67v-6.11h3.7c1.43,0,2.6,1.16,2.6,2.59,0,.11,0,.21-.02.32.07,1.68-.79,3.2-2.55,3.2h-.07Z"/>
      <path d="M368.29,160.64c-4.66,0-5.03,3.23-5.03,7.17,0,5.93,2.26,6.7,5.03,6.7s4.66-1.36,4.67-4.32h-2.3c.07,1.33-.94,2.47-2.27,2.54-.02,0-.05,0-.07,0-1.68,0-2.71-.75-2.71-4.51h7.56v-1.14c-.08-4.31-1.04-6.45-4.88-6.45ZM365.52,166.67c0-3.72,1.17-4.39,2.55-4.39s2.7.49,2.7,4.39h-5.24Z"/>
      <path d="M383.52,162.27h0c-.61-1.05-1.73-1.69-2.95-1.68-4.32,0-4.44,3.85-4.44,7.2,0,5.9,2.18,6.7,4.34,6.7,1.3.03,2.5-.69,3.08-1.86h0v1.68h2.19v-19.17h-2.19l-.03,7.12ZM381.07,172.84c-2.73,0-2.73-2.93-2.73-4.94,0-3.59.32-5.46,2.65-5.46s2.53,2.88,2.53,4.66c0,2.68,0,5.75-2.45,5.75Z"/>
      <path d="M399.95,172.69c-1.89,0-3.35-.57-3.35-5.26v-5.14c0-3.35.49-3.77.55-3.97.59-1.03,1.72-1.62,2.9-1.51.79,0,1.56.3,2.16.82.48.85.68,1.83.55,2.8h2.53c.23-3.72-1.22-5.68-5.03-5.68s-6.17,1.54-6.17,6.97v5.41c0,7.44,3.65,7.61,6.06,7.61,1.24,0,5.53,0,5.41-6.06h-2.53c-.1,3.75-2.36,4.02-3.1,4.02Z"/>
      <path d="M410.87,162.94h0v-2.03h-2.18v13.4h2.18v-7.91c0-1.79.6-3.64,3.02-3.64.39.02.79.06,1.17.13v-2.26c-2.23,0-3.35.25-4.19,2.3Z"/>
      <path d="M421.83,160.64c-4.67,0-5.03,3.23-5.03,7.17,0,5.93,2.26,6.7,5.03,6.7s5.03-.85,5.03-6.7c.07-3.94-.39-7.17-5.03-7.17ZM421.83,172.82c-2.26,0-2.81-1.57-2.81-5.93,0-3.67,1.12-4.47,2.81-4.47s2.81.8,2.81,4.47c0,4.36-.57,5.95-2.81,5.95v-.02Z"/>
      <path d="M432.05,164.09c.01-1.02.84-1.83,1.86-1.82.07,0,.14,0,.22.01,1.04-.12,1.98.62,2.1,1.66.02.17.02.35-.01.52h2.41c.18-2.66-1.86-3.8-4.24-3.8-3.77,0-4.62,2.26-4.62,3.67,0,4,6.7,4.07,6.7,6.47,0,1.37-1.01,2.04-2.31,2.04-2.19,0-2.23-1.81-2.23-2.6h-2.48c0,3.1,1.68,4.37,4.64,4.37s4.67-1.14,4.67-4.09c-.02-4.12-6.72-4.07-6.72-6.43Z"/>
      <path d="M443.58,164.09c.01-1.02.84-1.83,1.86-1.82.07,0,.14,0,.22.01,1.03-.13,1.96.61,2.09,1.63.02.18.02.36-.01.54h2.43c.18-2.66-1.86-3.8-4.26-3.8-3.77,0-4.62,2.26-4.62,3.67,0,4,6.7,4.07,6.7,6.47,0,1.13-.9,2.05-2.03,2.06-.09,0-.18,0-.27-.02-2.21,0-2.23-1.81-2.23-2.6h-2.43c-.08,3.1,1.68,4.37,4.62,4.37s4.67-1.14,4.67-4.09c-.05-4.12-6.75-4.07-6.75-6.43Z"/>
      <path d="M460.9,159.69c-.09-1.47,1.02-2.73,2.49-2.83.15,0,.3,0,.46.01,2.31,0,2.98,1.37,2.95,3.48h2.56c.15-3.92-1.83-5.61-5.33-5.61-3.22,0-5.63,1.81-5.63,5.21,0,5.76,8.61,5.29,8.61,9.53,0,2.3-1.49,3.12-3.35,3.12-1.68.1-3.13-1.18-3.23-2.86,0-.16,0-.33,0-.49v-.55h-2.5c0,1.84,0,6.17,5.6,6.11,3.18,0,5.96-1.31,5.96-5.34,0-6.17-8.61-5.56-8.61-9.78Z"/>
      <path d="M476.97,160.64c-4.66,0-5.03,3.23-5.03,7.17,0,5.93,2.26,6.7,5.03,6.7s5.11-.85,5.11-6.7c0-3.94-.47-7.17-5.11-7.17ZM476.97,172.82c-2.26,0-2.81-1.57-2.81-5.93,0-3.67,1.14-4.47,2.81-4.47s2.81.8,2.81,4.47c0,4.36-.55,5.95-2.81,5.95v-.02Z"/>
      <path d="M489.87,172.84c-2.26,0-2.81-1.57-2.81-5.93,0-3.67,1.16-4.47,2.81-4.47.82,0,1.91.6,1.86,2.8h2.26c.13-3-1.44-4.57-4.12-4.57-4.66,0-5.11,3.23-5.11,7.17,0,5.93,2.26,6.7,5.11,6.7,2.32.03,4.23-1.83,4.25-4.16,0-.19,0-.38-.03-.57h-2.28c.08,2.48-1.44,3.03-1.94,3.03Z"/>
      <rect x="497.56" y="155.15" width="2.45" height="2.35"/>
      <rect x="497.67" y="160.91" width="2.18" height="13.44"/>
      <path d="M507.72,160.64c-4.66,0-5.11,3.23-5.11,7.17,0,5.93,2.26,6.7,5.11,6.7s4.64-1.36,4.67-4.32h-2.4c.07,1.33-.94,2.47-2.27,2.54-.02,0-.05,0-.07,0-1.68,0-2.71-.75-2.71-4.51h7.56v-1.14c0-4.31-.95-6.45-4.77-6.45ZM504.94,166.67c0-3.72,1.17-4.39,2.56-4.39s2.68.49,2.68,4.39h-5.24Z"/>
      <path d="M518.26,170.78v-8.23h2.93v-1.68h-2.93v-3.53l-2.18.99v2.58h-2.19v1.68h2.19v9.55c0,1.54.94,2.38,3.02,2.38.7,0,1.42-.15,2.13-.2v-1.68c-.47,0-.8.1-.97.1-1.99-.03-1.99-1.11-1.99-1.96Z"/>
      <polygon points="531.36 160.91 528.15 171.83 528.1 171.83 524.88 160.91 522.35 160.91 526.91 174.33 525.38 179.41 527.64 179.41 533.74 160.91 531.36 160.91"/>
    </g>
  </g>
</svg>