<?xml version="1.0" encoding="UTF-8"?>
<svg id="Layer_1" data-name="Layer 1" xmlns="http://www.w3.org/2000/svg" viewBox="0 0 638.14 240">
  <defs>
    <style>
      .cls-1 {
        fill: #ee2435;
      }
    </style>
  </defs>
  <g id="layer1">
    <g id="g2722">
      <g id="g2728">
        <g id="g2730">
          <g id="g2736">
            <g id="g2738">
              <g id="g2744">
                <polygon class="cls-1" points="362.6 75.68 333.21 75.68 333.21 46.29 303.82 46.29 303.82 75.68 274.43 75.68 274.43 105.06 303.82 105.06 303.82 134.46 333.21 134.46 333.21 105.06 362.6 105.06 362.6 75.68"/>
                <g id="g2754">
                  <path id="path2756" d="M35.92,163.97c1.41,0,2.56,1.15,2.56,2.6s-1.15,2.56-2.56,2.56-2.56-1.15-2.56-2.56,1.15-2.6,2.56-2.6ZM46.46,193.56c-8.32,0-13.11-6.23-13.11-13.51s5.09-13.59,13.11-13.59,13.33,6.31,13.33,13.37c0,6.68-5.2,13.73-13.33,13.73ZM46.46,171.92c-4.64,0-7.31,3.86-7.31,7.98,0,3.82,2.52,8.32,7.31,8.32,4.46,0,7.46-4.45,7.46-8.32s-2.86-7.98-7.46-7.98ZM57.23,163.97c1.41,0,2.56,1.15,2.56,2.6s-1.15,2.56-2.56,2.56-2.56-1.15-2.56-2.56,1.15-2.6,2.56-2.6Z"/>
                </g>
                <g id="g2758">
                  <path id="path2760" d="M70.22,193.71c-3.38,0-6.01-1.45-8.39-3.75l3.71-4.09c1.34,1.53,2.79,2.97,4.94,2.97,1.78,0,3.3-1.26,3.3-3.12,0-.93-.37-1.63-1.04-2.23-.67-.6-1.56-1-2.37-1.38-3.56-1.7-7.09-3.86-7.09-8.32,0-4.72,3.97-7.61,8.43-7.61,3.34,0,5.31,1.23,7.54,3.53l-3.64,4.08c-1-1.34-2.12-2.49-3.9-2.49-1.34,0-2.49.93-2.49,2.3,0,4.08,10.54,3.31,10.54,11.47,0,5.5-4.34,8.62-9.54,8.62Z"/>
                </g>
                <g id="g2762">
                  <path id="path2764" d="M93.13,171.96v21.16h-5.69v-21.09h-5.6v-5.12h16.89v5.05h-5.6Z"/>
                </g>
                <g id="g2766">
                  <path id="path2768" d="M107.13,171.99v5.2h7.24v5.09h-7.24v5.6h9.17v5.24h-14.85v-26.21h14.89v5.08h-9.21Z"/>
                </g>
                <g id="g2770">
                  <path id="path2772" d="M133.37,193.12l-5.09-10.77h-1.86v10.77h-5.53v-26.21h7.35c3.38,0,6.98.26,8.98,3.37.82,1.3,1.23,2.86,1.23,4.38,0,2.41-.93,4.94-3.01,6.28-.85.56-1.3.81-2.08,1.04l6.09,11.14h-6.09ZM128.4,171.47h-1.93v6.91h2.04c1.56,0,3.01-.15,3.9-1.63.33-.56.48-1.22.48-1.85,0-2.68-2.19-3.42-4.5-3.42Z"/>
                </g>
                <g id="g2774">
                  <path id="path2776" d="M155.76,193.12l-5.09-10.77h-1.86v10.77h-5.53v-26.21h7.35c3.38,0,6.98.26,8.98,3.37.82,1.3,1.23,2.86,1.23,4.38,0,2.41-.93,4.94-3.01,6.28-.85.56-1.3.81-2.08,1.04l6.09,11.14h-6.09ZM150.79,171.47h-1.93v6.91h2.04c1.56,0,3.01-.15,3.9-1.63.33-.56.48-1.22.48-1.85,0-2.68-2.19-3.42-4.49-3.42Z"/>
                </g>
                <g id="g2778">
                  <path id="path2780" d="M171.36,171.99v5.2h7.24v5.09h-7.24v5.6h9.17v5.24h-14.85v-26.21h14.89v5.08h-9.21Z"/>
                </g>
                <g id="g2782">
                  <rect x="185.13" y="166.91" width="5.72" height="26.21"/>
                </g>
                <g id="g2786">
                  <path id="path2788" d="M212.38,192.86c-1.63.52-3.23.81-4.9.81-7.61,0-12.81-5.53-12.81-13.59,0-9.47,6.24-13.78,13.26-13.78,1.37,0,2.74.15,4.05.48,1.22.3,1.6.56,2.93,1.26v6.31c-.56-.48-.96-.82-1.26-1.04-1.67-1.15-3.6-1.86-5.53-1.86-4.68,0-7.69,3.6-7.69,8.65s2.9,8.39,7.76,8.39c2.48,0,4.61-.89,6.72-2.64v5.8c-1.07.63-1.52.85-2.52,1.19Z"/>
                </g>
                <g id="g2790">
                  <path id="path2792" d="M234.18,193.12v-10.8h-9.73v10.8h-5.71v-26.21h5.71v10.32h9.73v-10.32h5.72v26.21h-5.72Z"/>
                </g>
                <g id="g2794">
                  <rect x="244.46" y="166.91" width="5.72" height="26.21"/>
                </g>
                <g id="g2798">
                  <path id="path2800" d="M261.35,193.71c-3.38,0-6.01-1.45-8.39-3.75l3.71-4.09c1.34,1.53,2.79,2.97,4.94,2.97,1.78,0,3.3-1.26,3.3-3.12,0-.93-.37-1.63-1.04-2.23-.66-.6-1.56-1-2.37-1.38-3.56-1.7-7.09-3.86-7.09-8.32,0-4.72,3.98-7.61,8.43-7.61,3.34,0,5.31,1.23,7.54,3.53l-3.64,4.08c-1-1.34-2.11-2.49-3.9-2.49-1.34,0-2.49.93-2.49,2.3,0,4.08,10.54,3.31,10.54,11.47,0,5.5-4.34,8.62-9.54,8.62Z"/>
                </g>
                <g id="g2802">
                  <path id="path2804" d="M291.8,192.86c-1.63.52-3.23.81-4.9.81-7.61,0-12.81-5.53-12.81-13.59,0-9.47,6.24-13.78,13.25-13.78,1.38,0,2.75.15,4.05.48,1.23.3,1.6.56,2.94,1.26v6.31c-.56-.48-.97-.82-1.26-1.04-1.67-1.15-3.6-1.86-5.53-1.86-4.68,0-7.69,3.6-7.69,8.65s2.9,8.39,7.76,8.39c2.48,0,4.61-.89,6.72-2.64v5.8c-1.08.63-1.52.85-2.52,1.19Z"/>
                </g>
                <g id="g2806">
                  <path id="path2808" d="M313.59,193.12v-10.8h-9.73v10.8h-5.72v-26.21h5.72v10.32h9.73v-10.32h5.71v26.21h-5.71Z"/>
                </g>
                <g id="g2810">
                  <path id="path2812" d="M329.56,171.99v5.2h7.24v5.09h-7.24v5.6h9.17v5.24h-14.86v-26.21h14.89v5.08h-9.2Z"/>
                </g>
                <g id="g2814">
                  <path id="path2816" d="M349.94,193.71c-3.38,0-6.01-1.45-8.39-3.75l3.71-4.09c1.34,1.53,2.78,2.97,4.94,2.97,1.78,0,3.3-1.26,3.3-3.12,0-.93-.37-1.63-1.04-2.23-.66-.6-1.56-1-2.37-1.38-3.57-1.7-7.1-3.86-7.1-8.32,0-4.72,3.97-7.61,8.43-7.61,3.34,0,5.31,1.23,7.54,3.53l-3.64,4.08c-1-1.34-2.12-2.49-3.9-2.49-1.34,0-2.49.93-2.49,2.3,0,4.08,10.55,3.31,10.55,11.47,0,5.5-4.34,8.62-9.55,8.62Z"/>
                </g>
                <g id="g2818">
                  <path id="path2820" d="M387.51,193.12l-5.09-10.77h-1.86v10.77h-5.53v-26.21h7.35c3.38,0,6.98.26,8.99,3.37.81,1.3,1.22,2.86,1.22,4.38,0,2.41-.93,4.94-3.01,6.28-.85.56-1.3.81-2.08,1.04l6.08,11.14h-6.08ZM382.54,171.47h-1.93v6.91h2.04c1.56,0,3.01-.15,3.9-1.63.33-.56.48-1.22.48-1.85,0-2.68-2.2-3.42-4.49-3.42Z"/>
                </g>
                <g id="g2822">
                  <path id="path2824" d="M409.87,193.56c-8.32,0-13.19-6.23-13.19-13.51s4.9-13.59,12.92-13.59,13.52,6.31,13.52,13.37c0,6.68-5.12,13.73-13.25,13.73ZM409.78,171.92c-4.64,0-7.31,3.86-7.31,7.98,0,3.82,2.67,8.32,7.46,8.32,4.45,0,7.31-4.45,7.31-8.32s-2.86-7.98-7.47-7.98Z"/>
                </g>
                <g id="g2826">
                  <path id="path2828" d="M436.37,171.96v21.16h-5.69v-21.09h-5.6v-5.12h16.89v5.05h-5.6Z"/>
                </g>
                <g id="g2830">
                  <path id="path2832" d="M450.37,171.99v5.2h7.24v5.09h-7.24v5.6h9.17v5.24h-14.85v-26.21h14.89v5.08h-9.21Z"/>
                </g>
                <g id="g2834">
                  <path id="path2836" d="M470.75,193.71c-3.38,0-6.01-1.45-8.39-3.75l3.71-4.09c1.34,1.53,2.78,2.97,4.93,2.97,1.78,0,3.3-1.26,3.3-3.12,0-.93-.37-1.63-1.04-2.23-.66-.6-1.56-1-2.37-1.38-3.56-1.7-7.09-3.86-7.09-8.32,0-4.72,3.98-7.61,8.43-7.61,3.34,0,5.3,1.23,7.53,3.53l-3.64,4.08c-1-1.34-2.11-2.49-3.89-2.49-1.34,0-2.49.93-2.49,2.3,0,4.08,10.54,3.31,10.54,11.47,0,5.5-4.34,8.62-9.54,8.62Z"/>
                </g>
                <g id="g2838">
                  <path id="path2840" d="M509.77,193.12l-5.9-8.8-2.27,3.31v5.49h-5.76v-26.21h5.76v11.43l8.06-11.43h6.49l-8.69,12.21,9.4,14h-7.09Z"/>
                </g>
                <g id="g2842">
                  <path id="path2844" d="M531.86,193.12l-5.08-10.77h-1.86v10.77h-5.53v-26.21h7.35c3.38,0,6.98.26,8.98,3.37.82,1.3,1.23,2.86,1.23,4.38,0,2.41-.93,4.94-3.01,6.28-.85.56-1.3.81-2.08,1.04l6.09,11.14h-6.09ZM526.88,171.47h-1.93v6.91h2.04c1.56,0,3.01-.15,3.9-1.63.33-.56.47-1.22.47-1.85,0-2.68-2.19-3.42-4.49-3.42Z"/>
                </g>
                <g id="g2846">
                  <path id="path2848" d="M547.46,171.99v5.2h7.24v5.09h-7.24v5.6h9.17v5.24h-14.86v-26.21h14.89v5.08h-9.2Z"/>
                </g>
                <g id="g2850">
                  <path id="path2852" d="M579.38,189.78c-2,2.9-4.79,3.78-8.2,3.78-4.04,0-7.72-1.52-9.25-5.49-.59-1.52-.71-3.15-.71-4.79v-16.37h5.58v16.37c0,2.49,1.19,5.42,4.42,5.42,3.49,0,4.45-2.9,4.45-5.42v-16.37h5.57v14.59c0,2.86-.15,5.83-1.86,8.28Z"/>
                </g>
                <g id="g2854">
                  <path id="path2856" d="M604.78,171.92l-10.96,16.11h10.96v5.09h-20.83l14.44-21.13h-13.11v-5.08h19.49v5.01Z"/>
                </g>
              </g>
            </g>
          </g>
        </g>
      </g>
    </g>
  </g>
</svg>