<?xml version="1.0" encoding="UTF-8"?>
<svg id="Layer_1" data-name="Layer 1" xmlns="http://www.w3.org/2000/svg" viewBox="0 0 796.63 240">
  <defs>
    <style>
      .cls-1 {
        fill: #ee2435;
      }
    </style>
  </defs>
  <polygon class="cls-1" points="133.36 105.25 133.36 75.76 103.86 75.76 103.86 105.25 74.37 105.25 74.37 134.75 103.86 134.75 103.86 164.24 133.36 164.24 133.36 134.75 162.85 134.75 162.85 105.25 133.36 105.25"/>
  <g>
    <path d="M202.08,133.97c-3.13-1.68-5.58-4.01-7.37-6.99-1.79-2.98-2.68-6.35-2.68-10.11s.89-7.13,2.68-10.11c1.79-2.98,4.25-5.31,7.37-6.99,3.12-1.68,6.64-2.52,10.54-2.52,3.29,0,6.26.58,8.92,1.73,2.66,1.16,4.89,2.82,6.69,4.99l-5.64,5.2c-2.57-2.96-5.75-4.44-9.54-4.44-2.35,0-4.44.51-6.29,1.54-1.84,1.03-3.28,2.47-4.31,4.31-1.03,1.84-1.54,3.94-1.54,6.29s.51,4.44,1.54,6.29c1.03,1.84,2.47,3.28,4.31,4.31,1.84,1.03,3.94,1.54,6.29,1.54,3.79,0,6.97-1.5,9.54-4.5l5.64,5.2c-1.81,2.2-4.05,3.88-6.72,5.04-2.67,1.16-5.66,1.73-8.94,1.73-3.87,0-7.36-.84-10.49-2.52"/>
    <path d="M245.71,107.33c1.72-.72,3.69-1.08,5.93-1.08v7.81c-.94-.07-1.57-.11-1.9-.11-2.42,0-4.32.68-5.69,2.03-1.37,1.35-2.06,3.39-2.06,6.1v13.77s-8.46,0-8.46,0v-29.16h8.08v3.85c1.01-1.41,2.37-2.47,4.09-3.2"/>
    <path d="M286.28,106.68v29.16h-8.02v-3.47c-1.12,1.27-2.46,2.23-4.01,2.9-1.55.67-3.23,1-5.04,1-3.83,0-6.87-1.1-9.11-3.31-2.24-2.2-3.36-5.47-3.36-9.81v-16.48h8.45v15.23c0,4.7,1.97,7.05,5.91,7.05,2.02,0,3.65-.66,4.88-1.98,1.23-1.32,1.84-3.28,1.84-5.88v-14.42h8.46Z"/>
    <polygon points="318.15 129.34 318.15 135.84 292.13 135.84 292.13 130.75 306.99 113.18 292.51 113.18 292.51 106.68 317.66 106.68 317.66 111.78 302.81 129.34 318.15 129.34"/>
    <path d="M363.68,135.84l-7.32-10.57h-8.08v10.57h-8.78v-37.94h16.42c3.36,0,6.28.56,8.75,1.68,2.48,1.12,4.38,2.71,5.72,4.77,1.34,2.06,2.01,4.5,2.01,7.32s-.68,5.25-2.03,7.29c-1.35,2.04-3.28,3.6-5.77,4.69l8.51,12.2h-9.43ZM361.46,106.76c-1.37-1.14-3.38-1.71-6.02-1.71h-7.15v13.23h7.15c2.64,0,4.64-.58,6.02-1.73,1.37-1.16,2.06-2.78,2.06-4.88s-.69-3.77-2.06-4.9"/>
    <path d="M384.35,134.35c-2.44-1.28-4.35-3.06-5.72-5.34-1.37-2.28-2.06-4.86-2.06-7.75s.69-5.47,2.06-7.75c1.37-2.28,3.28-4.06,5.72-5.34,2.44-1.28,5.19-1.92,8.27-1.92s5.82.64,8.24,1.92c2.42,1.28,4.32,3.06,5.69,5.34,1.37,2.28,2.06,4.86,2.06,7.75s-.69,5.47-2.06,7.75c-1.37,2.28-3.27,4.06-5.69,5.34-2.42,1.28-5.17,1.92-8.24,1.92s-5.83-.64-8.27-1.92M397.96,127.14c1.39-1.46,2.09-3.42,2.09-5.88s-.7-4.42-2.09-5.88c-1.39-1.46-3.17-2.2-5.34-2.2s-3.96.73-5.37,2.2c-1.41,1.46-2.11,3.42-2.11,5.88s.7,4.42,2.11,5.88c1.41,1.46,3.2,2.19,5.37,2.19s3.95-.73,5.34-2.19"/>
    <path d="M405.3,145.16l2.28-6.12c.98.69,2.17,1.03,3.58,1.03,1.08,0,1.93-.35,2.55-1.06.61-.7.92-1.76.92-3.17v-29.16h8.45v29.1c0,3.4-.97,6.08-2.9,8.05-1.93,1.97-4.63,2.95-8.1,2.95-2.96,0-5.22-.54-6.77-1.63M415.06,101.26c-.98-.9-1.46-2.02-1.46-3.36s.49-2.46,1.46-3.36c.98-.9,2.24-1.35,3.79-1.35s2.82.43,3.79,1.3c.98.87,1.46,1.95,1.46,3.25,0,1.41-.49,2.57-1.46,3.5-.98.92-2.24,1.38-3.79,1.38s-2.82-.45-3.79-1.35"/>
    <path d="M453.05,109.47c2.42,2.15,3.63,5.39,3.63,9.73v16.64h-7.91v-3.63c-1.59,2.71-4.55,4.07-8.89,4.07-2.24,0-4.18-.38-5.83-1.14-1.64-.76-2.9-1.81-3.77-3.14-.87-1.34-1.3-2.85-1.3-4.55,0-2.71,1.02-4.84,3.06-6.4,2.04-1.55,5.19-2.33,9.46-2.33h6.72c0-1.84-.56-3.26-1.68-4.25-1.12-.99-2.8-1.49-5.04-1.49-1.55,0-3.08.24-4.58.73-1.5.49-2.77,1.15-3.82,1.98l-3.04-5.91c1.59-1.12,3.5-1.99,5.72-2.6,2.22-.61,4.51-.92,6.86-.92,4.52,0,7.98,1.08,10.41,3.23M445.84,129.58c1.12-.67,1.91-1.65,2.38-2.95v-2.98h-5.8c-3.47,0-5.2,1.14-5.2,3.42,0,1.08.42,1.94,1.27,2.57.85.63,2.01.95,3.5.95s2.73-.33,3.85-1"/>
    <polygon points="508.98 131.12 508.98 135.84 481.45 135.84 481.45 97.9 508.23 97.9 508.23 102.62 486.87 102.62 486.87 114.27 505.9 114.27 505.9 118.88 486.87 118.88 486.87 131.12 508.98 131.12"/>
    <path d="M518.09,135.22c-2.17-.63-3.87-1.44-5.1-2.41l2.17-4.12c1.26.9,2.8,1.63,4.61,2.17,1.81.54,3.63.81,5.47.81,4.55,0,6.83-1.3,6.83-3.9,0-.87-.31-1.55-.92-2.06-.62-.5-1.38-.88-2.3-1.11-.92-.23-2.23-.5-3.93-.79-2.31-.36-4.2-.78-5.66-1.25-1.46-.47-2.72-1.26-3.77-2.38-1.05-1.12-1.57-2.69-1.57-4.71,0-2.6,1.08-4.69,3.25-6.26,2.17-1.57,5.08-2.36,8.73-2.36,1.92,0,3.83.24,5.74.7,1.91.47,3.49,1.1,4.72,1.9l-2.22,4.12c-2.35-1.52-5.11-2.28-8.29-2.28-2.21,0-3.89.36-5.04,1.08-1.16.72-1.73,1.68-1.73,2.87,0,.94.33,1.68.98,2.22.65.54,1.45.94,2.41,1.19.96.25,2.3.54,4.04.87,2.31.4,4.18.82,5.61,1.27,1.43.45,2.65,1.22,3.66,2.3,1.01,1.08,1.52,2.6,1.52,4.55,0,2.6-1.11,4.67-3.33,6.21-2.22,1.54-5.25,2.3-9.08,2.3-2.35,0-4.61-.32-6.77-.95"/>
    <path d="M566.49,108.69c2.2,1.23,3.93,2.95,5.18,5.15,1.25,2.2,1.87,4.75,1.87,7.64s-.62,5.45-1.87,7.67c-1.25,2.22-2.97,3.95-5.18,5.18-2.2,1.23-4.7,1.84-7.48,1.84-2.06,0-3.95-.4-5.66-1.19-1.72-.79-3.17-1.95-4.36-3.47v14.85h-5.2v-39.24h4.99v4.55c1.16-1.59,2.62-2.79,4.39-3.6,1.77-.81,3.72-1.22,5.85-1.22,2.78,0,5.28.61,7.48,1.84M563.54,130.34c1.46-.85,2.62-2.04,3.47-3.58.85-1.54,1.27-3.3,1.27-5.28s-.42-3.75-1.27-5.28c-.85-1.54-2.01-2.72-3.47-3.55-1.46-.83-3.12-1.25-4.96-1.25s-3.44.42-4.91,1.27c-1.46.85-2.62,2.03-3.47,3.55-.85,1.52-1.27,3.27-1.27,5.26s.42,3.75,1.25,5.28c.83,1.54,1.99,2.73,3.47,3.58,1.48.85,3.13,1.27,4.93,1.27s3.5-.42,4.96-1.27"/>
    <path d="M600.07,109.77c2.11,1.95,3.17,4.86,3.17,8.73v17.34h-4.93v-3.79c-.87,1.34-2.11,2.36-3.71,3.06-1.61.7-3.51,1.06-5.72,1.06-3.22,0-5.79-.78-7.72-2.33-1.93-1.55-2.9-3.6-2.9-6.12s.92-4.56,2.76-6.1c1.84-1.54,4.77-2.3,8.78-2.3h8.24v-1.03c0-2.24-.65-3.96-1.95-5.15-1.3-1.19-3.22-1.79-5.74-1.79-1.7,0-3.36.28-4.99.84-1.63.56-3,1.31-4.12,2.25l-2.17-3.9c1.48-1.19,3.25-2.1,5.31-2.74,2.06-.63,4.25-.95,6.56-.95,3.97,0,7.02.98,9.13,2.93M594.89,130.83c1.44-.88,2.49-2.14,3.14-3.77v-4.01h-8.02c-4.41,0-6.61,1.48-6.61,4.44,0,1.45.56,2.58,1.68,3.41,1.12.83,2.67,1.25,4.66,1.25s3.7-.44,5.15-1.33"/>
    <path d="M636.92,110.01c2.15,2.11,3.22,5.21,3.22,9.29v16.53h-5.2v-15.94c0-2.78-.67-4.88-2.01-6.29-1.34-1.41-3.25-2.11-5.75-2.11-2.82,0-5.04.82-6.67,2.47-1.63,1.64-2.44,4-2.44,7.07v14.8h-5.2v-28.73h4.99v4.34c1.05-1.48,2.47-2.62,4.25-3.41,1.79-.79,3.82-1.19,6.1-1.19,3.65,0,6.55,1.06,8.7,3.17M628.09,102.24c-.63-.36-1.42-.9-2.36-1.63-.54-.51-1.01-.88-1.41-1.11-.4-.23-.79-.35-1.19-.35-.8,0-1.45.3-1.95.89-.51.6-.78,1.42-.81,2.47h-2.93c.07-2.02.59-3.63,1.54-4.82.96-1.19,2.21-1.79,3.77-1.79.87,0,1.64.19,2.3.57.67.38,1.44.93,2.3,1.65.61.51,1.1.88,1.46,1.11.36.24.74.35,1.14.35.79,0,1.44-.29,1.95-.87.5-.58.78-1.37.81-2.38h2.93c-.07,1.95-.59,3.51-1.54,4.69-.96,1.18-2.21,1.76-3.77,1.76-.87,0-1.62-.18-2.25-.54"/>
    <path d="M654.56,134.27c-2.28-1.26-4.06-3.01-5.34-5.23-1.28-2.22-1.92-4.74-1.92-7.56s.64-5.34,1.92-7.56c1.28-2.22,3.06-3.96,5.34-5.2,2.28-1.25,4.84-1.87,7.7-1.87s5.41.62,7.67,1.87c2.26,1.25,4.03,2.98,5.31,5.2,1.28,2.22,1.92,4.74,1.92,7.56s-.64,5.34-1.92,7.56c-1.28,2.22-3.05,3.97-5.31,5.23-2.26,1.27-4.82,1.9-7.67,1.9s-5.42-.63-7.7-1.9M667.22,130.34c1.46-.85,2.61-2.04,3.44-3.58.83-1.54,1.25-3.3,1.25-5.28s-.42-3.75-1.25-5.28c-.83-1.54-1.98-2.72-3.44-3.55-1.46-.83-3.12-1.25-4.96-1.25s-3.5.42-4.96,1.25c-1.46.83-2.62,2.02-3.47,3.55-.85,1.54-1.27,3.3-1.27,5.28s.42,3.75,1.27,5.28c.85,1.54,2,2.73,3.47,3.58,1.46.85,3.12,1.27,4.96,1.27s3.5-.42,4.96-1.27"/>
    <rect x="684.37" y="95.62" width="5.2" height="40.22"/>
    <path d="M719.09,109.77c2.11,1.95,3.17,4.86,3.17,8.73v17.34h-4.93v-3.79c-.87,1.34-2.11,2.36-3.71,3.06s-3.51,1.06-5.72,1.06c-3.22,0-5.79-.78-7.72-2.33-1.93-1.55-2.9-3.6-2.9-6.12s.92-4.56,2.76-6.1c1.84-1.54,4.77-2.3,8.78-2.3h8.24v-1.03c0-2.24-.65-3.96-1.95-5.15-1.3-1.19-3.22-1.79-5.74-1.79-1.7,0-3.36.28-4.99.84-1.63.56-3,1.31-4.12,2.25l-2.17-3.9c1.48-1.19,3.25-2.1,5.31-2.74,2.06-.63,4.25-.95,6.56-.95,3.98,0,7.02.98,9.13,2.93M713.91,130.83c1.45-.88,2.49-2.14,3.14-3.77v-4.01h-8.02c-4.41,0-6.61,1.48-6.61,4.44,0,1.45.56,2.58,1.68,3.41,1.12.83,2.67,1.25,4.66,1.25s3.7-.44,5.15-1.33"/>
  </g>
</svg>