<?xml version="1.0" encoding="UTF-8"?>
<svg id="Layer_1" data-name="Layer 1" xmlns="http://www.w3.org/2000/svg" viewBox="0 0 638.14 240">
  <defs>
    <style>
      .cls-1 {
        fill: #ee2435;
      }
    </style>
  </defs>
  <g id="Artboard1">
    <g>
      <path d="M361.77,93.81c0,5.27-4.98,9.79-12.88,9.79s-12.13-3.49-13.73-5.15l5.15-4.18c1.38,1.83,3.95,3.66,8.23,3.66s5.61-2.12,5.61-3.37c0-1.66-1.6-2.29-4.24-2.74l-3.54-.63c-2.23-.4-9.96-1.83-9.96-8.58,0-5.66,5.43-9.32,12.3-9.32,2.23,0,8.01.35,12.3,5.32l-4.86,4.52c-1.54-3.03-4.46-4.34-7.78-4.34-1.32,0-4.75.4-4.75,2.98,0,1.89,1.71,2.46,5.84,3.21l4.63.86c4.33.76,7.66,3.34,7.66,7.98ZM443.51,62.34h-6.98v40.39h6.98v-40.39ZM501.77,102.73v-12.41c0-4.92.63-7.32,2.69-9.04,1.44-1.2,2.86-1.32,3.6-1.32,4.24,0,5.04,3.54,5.04,6.69v16.07h6.98v-19.9c0-5.61-3.21-9.55-9.27-9.55-1.15,0-6.46.35-9.04,4.24v-3.37h-6.98v28.6h6.98ZM330.64,74.13h-6.92v12.42c0,4.92-.63,7.32-2.69,9.04-1.44,1.2-2.86,1.32-3.6,1.32-4.24,0-5.04-3.54-5.04-6.69v-16.08h-6.98v19.91c0,5.61,3.21,9.55,9.27,9.55,1.15,0,6.46-.35,9.04-4.24v3.37h6.98v-28.6h-.06ZM324.25,146.81l5.84,3.37c-2.29,3.09-6.46,7.26-13.96,7.26-8.52,0-14.71-5.84-14.71-15.33,0-10.24,6.93-14.99,14.36-14.99,10.93,0,14.07,8.76,14.07,16.54h-21.17c.12,1.44,1.44,7.1,8.07,7.1,4.87,0,6.93-2.98,7.5-3.95ZM308.91,138.63h13.39c-.12-1.43-1.03-6.01-6.4-6.01-5.67,0-6.76,4.87-6.99,6.01ZM484.43,139.66l-4.63-.86c-4.12-.74-5.84-1.32-5.84-3.21,0-2.57,3.43-2.98,4.75-2.98,3.32,0,6.23,1.32,7.78,4.34l4.86-4.52c-4.3-4.98-10.07-5.32-12.3-5.32-6.87,0-12.3,3.66-12.3,9.32,0,6.75,7.72,8.18,9.96,8.58l3.54.63c2.63.46,4.24,1.09,4.24,2.74,0,1.26-1.48,3.37-5.61,3.37s-6.87-1.83-8.23-3.66l-5.15,4.18c1.6,1.66,5.84,5.15,13.73,5.15s12.88-4.52,12.88-9.79c0-4.6-3.31-7.18-7.66-7.98ZM514.01,139.66l-4.63-.86c-4.12-.74-5.84-1.32-5.84-3.21,0-2.57,3.43-2.98,4.75-2.98,3.32,0,6.23,1.32,7.78,4.34l4.86-4.52c-4.3-4.98-10.06-5.32-12.3-5.32-6.87,0-12.3,3.66-12.3,9.32,0,6.75,7.72,8.18,9.96,8.58l3.54.63c2.63.46,4.24,1.09,4.24,2.74,0,1.26-1.48,3.37-5.61,3.37s-6.87-1.83-8.23-3.66l-5.15,4.18c1.6,1.66,5.84,5.15,13.73,5.15s12.88-4.52,12.88-9.79c0-4.6-3.32-7.18-7.66-7.98ZM392.58,90.49c0-1.66,0-3.09.51-4.69,1.66-5.27,7.16-5.27,8.58-5.27v-7.04h-.57c-1.38,0-6.35.17-8.52,4.69v-4.06h-6.98v28.6h6.98v-12.24ZM422.54,132.04v-4.06h-6.98v28.6h6.98v-12.24c0-1.66,0-3.09.51-4.69,1.66-5.27,7.16-5.27,8.58-5.27v-7.04h-.57c-1.37,0-6.34.18-8.52,4.69ZM462.93,142.29c-.14,7.66-5,15.16-14.71,15.16s-14.56-7.5-14.71-15.16c.14-7.66,5-15.16,14.71-15.16s14.56,7.5,14.71,15.16ZM455.69,142.29c0-4.41-2.38-8.77-7.47-8.77s-7.47,4.35-7.47,8.77,2.38,8.77,7.47,8.77,7.47-4.35,7.47-8.77ZM354.18,116.2h6.98v40.39h-6.98v-2.74c-.57.68-2.86,3.6-7.96,3.6-6.01,0-12.7-4.18-12.7-14.59s6.23-15.74,12.98-15.74c2.35,0,5.78.86,7.67,3.21v-14.13ZM354.36,142.29c0-4.41-2.18-8.77-6.84-8.77s-6.84,4.35-6.84,8.77,2.18,8.77,6.84,8.77,6.84-4.35,6.84-8.77ZM381.32,102.73v-5.78c-.86.23-1.89.35-2.86.35-.29,0-1.77,0-2.57-.86-.63-.68-.68-1.95-.68-3.03v-14.42h6.13v-4.86h-6.13v-10.18h-6.98v10.18h-4.18v4.86h4.18v17.05c0,4.69,1.95,7.55,8.07,7.55,2.34,0,4.13-.62,5.03-.86ZM422.77,100.54c-1.89,1.48-4.92,3.05-8.41,3.05-6.52,0-10.41-4.08-10.41-8.89,0-6.23,4.75-8.7,10.18-9.67,4.3-.8,6.98-1.48,8.81-2.12,0-2.18-.63-4.3-4.92-4.3-5.21,0-5.78,2.8-5.78,4.3l-6.98-.4c.12-1.89.51-9.25,12.53-9.25,8.41,0,12.01,3.14,12.01,8.16v16.71c0,2.16.12,2.79,1.24,4.59h-8.11l-.17-2.19ZM422.95,92.37v-3.83c-1.15.57-2.8,1.2-5.43,1.6-3.15.46-6.29,1.09-6.29,3.95,0,1.89,1.26,3.49,4.69,3.49,3.15,0,7.04-1.61,7.04-5.22ZM472.92,103.59c-6.52,0-10.41-4.08-10.41-8.89,0-6.23,4.75-8.7,10.18-9.67,4.3-.8,6.98-1.48,8.81-2.12,0-2.18-.63-4.3-4.92-4.3-5.21,0-5.78,2.8-5.78,4.3l-6.98-.4c.12-1.89.51-9.25,12.53-9.25,8.41,0,12.01,3.14,12.01,8.16v16.71c0,2.16.12,2.79,1.24,4.59h-8.11l-.17-2.19c-1.89,1.49-4.92,3.05-8.41,3.05ZM474.46,97.57c3.15,0,7.04-1.6,7.04-5.21v-3.83c-1.15.57-2.8,1.2-5.43,1.6-3.15.46-6.29,1.09-6.29,3.95,0,1.88,1.26,3.48,4.69,3.48ZM457.49,62.34h-6.98v6.75h6.98v-6.75ZM457.49,74.13h-6.98v28.6h6.98v-28.6ZM287.62,62.34l13.68,40.39h-8.13l-2.35-7.9h-15.1l-2.35,7.9h-8.13l13.68-40.39h8.69ZM288.82,88.2l-5.55-18.41-5.55,18.41h11.1ZM291.45,140.11l8.99,16.48h-8.64l-7.96-14.99h-6.81v14.99h-7.49v-40.39h16.54c7.96,0,13.33,5.21,13.33,12.82,0,3.89-1.55,8.99-7.96,11.09ZM291.74,129.08c0-4.27-2.98-6.13-7.84-6.13h-6.87v12.36h5.84c5.43,0,8.87-1.57,8.87-6.23ZM395.01,150.35c-8.99,0-11.21-8.8-11.21-14.24,0-8.91,4.69-13.9,11.27-13.9,4.46,0,8.18,3.07,8.64,7.43l7.49-1.93c-1.71-5.73-6.01-12.37-16.42-12.37-14.07,0-19.17,11.75-19.17,20.65,0,14.98,9.32,21.46,18.88,21.46,11.62,0,16.13-8.8,17.45-12.2l-7.16-2.95c-1.19,4.09-4.56,8.06-9.78,8.06Z"/>
      <path class="cls-1" d="M239.25,89.27h-40.38v-40.39h-40.4v40.39h-40.39v40.39h40.39v40.39h40.4v-40.39h40.38v-40.39Z"/>
    </g>
  </g>
</svg>