<?xml version="1.0" encoding="UTF-8"?>
<svg id="Layer_1" data-name="Layer 1" xmlns="http://www.w3.org/2000/svg" viewBox="0 0 970.31 240">
  <defs>
    <style>
      .cls-1 {
        fill-rule: evenodd;
      }
    </style>
  </defs>
  <path class="cls-1" d="M294.78,111.61h-9.86l-1.17,2.72c-.39.91-.58,1.65-.58,2.24,0,.78.32,1.36.95,1.73.37.22,1.28.39,2.74.49v.76h-9.28v-.76c1-.15,1.82-.56,2.47-1.24.64-.69,1.44-2.09,2.39-4.22l9.98-22.27h.39l10.06,22.89c.96,2.17,1.75,3.53,2.37,4.1.47.43,1.13.67,1.98.74v.76h-13.5v-.76h.56c1.08,0,1.85-.15,2.28-.45.3-.22.45-.53.45-.95,0-.25-.04-.5-.12-.76-.03-.12-.23-.64-.62-1.54l-1.48-3.48h0ZM294.08,110.08l-4.16-9.61-4.28,9.61h8.44Z"/>
  <path d="M324.32,100.31v15.07c0,1.47.14,2.39.41,2.76.27.36.83.58,1.67.68v.74h-7.84v-2.57c-.92,1.1-1.84,1.9-2.76,2.41-.92.49-1.95.74-3.09.74s-2.05-.33-2.9-.99c-.84-.67-1.4-1.45-1.69-2.35-.29-.89-.43-2.45-.43-4.67v-7.64c0-1.45-.14-2.36-.41-2.72-.26-.36-.82-.59-1.67-.7v-.76h7.84v13.15c0,1.37.06,2.26.18,2.66.14.4.34.7.62.91.29.21.62.31.99.31.49,0,.94-.13,1.34-.39.55-.36,1.21-1.08,1.98-2.16v-10.29c0-1.45-.14-2.36-.41-2.72-.26-.36-.82-.59-1.67-.7v-.76h7.84Z"/>
  <path d="M339.87,99.77l.31,6.57h-.7c-.84-1.95-1.71-3.28-2.61-3.99-.89-.71-1.78-1.07-2.68-1.07-.56,0-1.04.19-1.44.58-.4.37-.6.8-.6,1.3,0,.37.14.73.41,1.07.44.56,1.67,1.53,3.68,2.9,2.02,1.36,3.34,2.52,3.97,3.48.64.95.97,2.01.97,3.19,0,1.07-.27,2.12-.8,3.15-.54,1.03-1.29,1.82-2.26,2.37-.97.55-2.05.82-3.23.82-.92,0-2.15-.29-3.68-.86-.41-.15-.69-.23-.84-.23-.45,0-.83.34-1.13,1.03h-.68l-.33-6.92h.7c.62,1.81,1.46,3.17,2.53,4.08,1.08.91,2.11,1.36,3.07,1.36.66,0,1.19-.2,1.61-.6.43-.41.64-.91.64-1.48,0-.66-.21-1.23-.62-1.71-.41-.48-1.33-1.21-2.76-2.18-2.1-1.45-3.46-2.57-4.08-3.33-.91-1.12-1.36-2.37-1.36-3.73,0-1.48.51-2.82,1.52-4.01,1.03-1.21,2.51-1.81,4.45-1.81,1.04,0,2.05.25,3.03.76.37.21.67.31.91.31.25,0,.45-.05.6-.14.15-.11.39-.4.72-.89h.7Z"/>
  <path d="M350.06,93.27v7.04h4.57v2.04h-4.57v11.88c0,1.11.05,1.83.14,2.16.11.32.29.58.56.78.26.19.5.29.72.29.89,0,1.74-.68,2.53-2.04l.62.45c-1.11,2.63-2.92,3.95-5.41,3.95-1.22,0-2.26-.34-3.11-1.01-.84-.69-1.37-1.45-1.61-2.28-.14-.47-.21-1.73-.21-3.79v-10.39h-2.51v-.72c1.73-1.22,3.2-2.5,4.4-3.85,1.22-1.34,2.28-2.85,3.19-4.51h.68Z"/>
  <path d="M364.02,100.31v4.36c1.28-1.99,2.39-3.31,3.36-3.95.96-.66,1.89-.99,2.78-.99.77,0,1.38.24,1.83.72.47.47.7,1.13.7,2,0,.92-.23,1.63-.68,2.14-.44.51-.97.76-1.61.76-.73,0-1.36-.23-1.89-.7-.54-.47-.85-.73-.95-.78-.14-.08-.29-.12-.47-.12-.4,0-.78.15-1.13.45-.56.47-.99,1.13-1.28,2-.44,1.33-.66,2.8-.66,4.4v4.43l.02,1.15c0,.78.05,1.28.14,1.5.16.37.4.65.72.82.33.16.88.27,1.65.31v.74h-10.39v-.74c.84-.07,1.4-.29,1.69-.68.3-.4.45-1.43.45-3.11v-10.64c0-1.1-.06-1.8-.16-2.1-.14-.38-.34-.67-.6-.84-.26-.18-.72-.3-1.38-.37v-.76h7.86Z"/>
  <path class="cls-1" d="M383.26,116.71c-2.35,2.07-4.45,3.11-6.32,3.11-1.1,0-2.01-.36-2.74-1.07-.73-.73-1.09-1.63-1.09-2.72,0-1.47.63-2.78,1.89-3.95,1.26-1.18,4.01-2.74,8.25-4.69v-1.93c0-1.45-.08-2.37-.25-2.74-.15-.38-.45-.71-.88-.99-.44-.29-.93-.43-1.48-.43-.89,0-1.63.2-2.2.6-.36.25-.53.53-.53.86,0,.29.19.65.58,1.07.52.59.78,1.16.78,1.71,0,.67-.25,1.25-.76,1.73-.49.47-1.15.7-1.96.7-.86,0-1.59-.26-2.18-.78-.58-.52-.86-1.13-.86-1.83,0-.99.39-1.93,1.17-2.82.78-.91,1.87-1.6,3.27-2.08,1.4-.48,2.85-.72,4.36-.72,1.83,0,3.27.39,4.32,1.17,1.07.77,1.76,1.61,2.08,2.51.19.58.29,1.9.29,3.97v7.47c0,.88.03,1.43.1,1.67.07.22.17.38.31.49.14.11.29.16.47.16.36,0,.72-.25,1.09-.76l.62.49c-.69,1.02-1.4,1.76-2.14,2.22-.73.45-1.56.68-2.49.68-1.1,0-1.96-.25-2.57-.76-.62-.52-1-1.3-1.13-2.35h0ZM383.26,115.21v-6.44c-1.66.97-2.9,2.02-3.7,3.13-.54.74-.8,1.49-.8,2.24,0,.63.23,1.19.68,1.67.34.37.82.56,1.44.56.69,0,1.48-.38,2.39-1.15h0Z"/>
  <path d="M399.98,91.64v23.92c0,1.36.16,2.23.47,2.61.32.37.93.58,1.85.64v.74h-10.39v-.74c.85-.03,1.48-.27,1.89-.74.27-.32.41-1.15.41-2.51v-19.92c0-1.34-.16-2.2-.47-2.57-.32-.38-.93-.6-1.83-.66v-.76h8.07Z"/>
  <path class="cls-1" d="M408.79,90.98c.89,0,1.65.32,2.26.95.62.62.93,1.37.93,2.24s-.32,1.63-.95,2.24c-.62.62-1.37.93-2.24.93s-1.63-.31-2.24-.93c-.62-.62-.93-1.36-.93-2.24s.31-1.63.93-2.24c.62-.63,1.36-.95,2.24-.95h0ZM411.67,100.31v15.25c0,1.36.16,2.23.47,2.61.32.37.93.58,1.85.64v.74h-10.39v-.74c.85-.03,1.48-.27,1.89-.74.27-.32.41-1.15.41-2.51v-11.24c0-1.36-.16-2.22-.47-2.59-.31-.38-.93-.6-1.83-.66v-.76h8.07Z"/>
  <path class="cls-1" d="M425.23,116.71c-2.35,2.07-4.45,3.11-6.32,3.11-1.1,0-2.01-.36-2.74-1.07-.73-.73-1.09-1.63-1.09-2.72,0-1.47.63-2.78,1.89-3.95,1.26-1.18,4.01-2.74,8.25-4.69v-1.93c0-1.45-.08-2.37-.25-2.74-.15-.38-.45-.71-.88-.99-.44-.29-.93-.43-1.48-.43-.89,0-1.63.2-2.2.6-.36.25-.54.53-.54.86,0,.29.19.65.58,1.07.52.59.78,1.16.78,1.71,0,.67-.25,1.25-.76,1.73-.49.47-1.15.7-1.96.7-.86,0-1.59-.26-2.18-.78-.58-.52-.86-1.13-.86-1.83,0-.99.39-1.93,1.17-2.82.78-.91,1.87-1.6,3.27-2.08,1.4-.48,2.85-.72,4.36-.72,1.82,0,3.27.39,4.32,1.17,1.07.77,1.76,1.61,2.08,2.51.19.58.29,1.9.29,3.97v7.47c0,.88.03,1.43.1,1.67.07.22.17.38.31.49.14.11.29.16.47.16.36,0,.72-.25,1.09-.76l.62.49c-.69,1.02-1.4,1.76-2.14,2.22-.73.45-1.56.68-2.49.68-1.1,0-1.96-.25-2.57-.76-.62-.52-.99-1.3-1.13-2.35h0ZM425.23,115.21v-6.44c-1.66.97-2.9,2.02-3.7,3.13-.53.74-.8,1.49-.8,2.24,0,.63.23,1.19.68,1.67.34.37.82.56,1.44.56.69,0,1.48-.38,2.39-1.15h0Z"/>
  <path d="M441.86,100.31v2.49c.99-1.07,1.93-1.85,2.84-2.33.91-.49,1.88-.74,2.92-.74,1.25,0,2.28.35,3.11,1.05.82.69,1.37,1.54,1.65,2.57.22.78.33,2.28.33,4.51v7.49c0,1.48.13,2.41.39,2.78.27.36.84.58,1.69.68v.74h-9.73v-.74c.73-.1,1.25-.4,1.56-.91.22-.34.33-1.19.33-2.55v-8.56c0-1.58-.06-2.57-.19-2.98-.12-.41-.34-.73-.64-.95-.29-.23-.61-.35-.97-.35-1.18,0-2.28.84-3.29,2.53v10.31c0,1.44.13,2.35.39,2.74.28.39.78.62,1.5.72v.74h-9.74v-.74c.81-.08,1.39-.34,1.73-.78.23-.3.35-1.19.35-2.68v-10.87c0-1.45-.14-2.36-.41-2.72-.26-.36-.82-.59-1.67-.7v-.76h7.84Z"/>
  <path d="M492.69,91v9.84h-.76c-.92-2.69-2.3-4.73-4.14-6.13-1.84-1.4-3.85-2.1-6.03-2.1s-3.82.59-5.21,1.77c-1.39,1.17-2.37,2.8-2.94,4.9-.58,2.1-.86,4.25-.86,6.46,0,2.68.32,5.02.95,7.04.63,2.02,1.65,3.5,3.05,4.45,1.41.95,3.09,1.42,5.02,1.42.67,0,1.36-.07,2.06-.21.71-.15,1.44-.36,2.18-.64v-5.8c0-1.1-.07-1.8-.23-2.12-.15-.33-.47-.62-.95-.88-.47-.26-1.04-.39-1.71-.39h-.72v-.76h13.56v.76c-1.03.07-1.75.21-2.16.43-.4.21-.71.56-.93,1.05-.12.26-.19.9-.19,1.91v5.8c-1.78.8-3.64,1.39-5.58,1.79-1.92.41-3.92.62-5.99.62-2.65,0-4.85-.36-6.61-1.07-1.74-.73-3.29-1.67-4.63-2.84-1.33-1.18-2.37-2.5-3.13-3.97-.96-1.89-1.44-4.01-1.44-6.36,0-4.2,1.47-7.75,4.42-10.64,2.95-2.89,6.66-4.34,11.13-4.34,1.39,0,2.63.11,3.75.33.6.11,1.58.43,2.92.95,1.36.51,2.16.76,2.41.76.39,0,.74-.14,1.07-.41.33-.29.63-.82.91-1.61h.76Z"/>
  <path class="cls-1" d="M506.05,99.73c1.67,0,3.23.43,4.67,1.3,1.44.86,2.53,2.09,3.27,3.68.75,1.59,1.13,3.33,1.13,5.23,0,2.73-.69,5.02-2.08,6.85-1.67,2.22-3.99,3.33-6.94,3.33s-5.13-1.01-6.69-3.05c-1.56-2.03-2.35-4.38-2.35-7.06s.8-5.16,2.39-7.2c1.6-2.06,3.8-3.09,6.59-3.09h0ZM506.13,101.19c-.7,0-1.3.27-1.81.8-.49.52-.82,1.56-.99,3.13-.15,1.55-.23,3.71-.23,6.48,0,1.47.1,2.84.29,4.12.15.97.47,1.72.97,2.22.49.51,1.06.76,1.69.76s1.13-.17,1.54-.51c.53-.47.89-1.12,1.07-1.96.27-1.3.41-3.94.41-7.9,0-2.33-.13-3.93-.39-4.8-.26-.88-.65-1.52-1.15-1.91-.36-.29-.82-.43-1.4-.43h0Z"/>
  <path d="M524.2,120.13l-6.48-14.92c-.78-1.8-1.39-2.94-1.83-3.42-.32-.36-.78-.6-1.4-.72v-.76h10.23v.76c-.65,0-1.09.12-1.32.35-.33.3-.49.66-.49,1.07,0,.51.3,1.46.91,2.86l3.17,7.22,2.53-6.24c.73-1.78,1.09-3.05,1.09-3.79,0-.42-.16-.77-.47-1.03-.3-.27-.84-.43-1.63-.45v-.76h6.3v.76c-.6.08-1.1.31-1.48.68-.38.37-.96,1.46-1.73,3.27l-6.42,15.11h-.97Z"/>
  <path class="cls-1" d="M549.94,109.24h-10.56c.12,2.55.8,4.57,2.04,6.05.95,1.14,2.08,1.71,3.42,1.71.82,0,1.57-.23,2.24-.68.67-.47,1.39-1.3,2.16-2.49l.7.45c-1.04,2.13-2.2,3.64-3.46,4.53-1.26.88-2.72,1.32-4.38,1.32-2.85,0-5.02-1.1-6.48-3.29-1.18-1.77-1.77-3.97-1.77-6.59,0-3.21.86-5.76,2.59-7.66,1.74-1.91,3.78-2.86,6.11-2.86,1.95,0,3.64.8,5.06,2.41,1.44,1.59,2.22,3.96,2.32,7.1h0ZM544.88,107.86c0-2.21-.12-3.73-.37-4.55-.23-.82-.6-1.45-1.11-1.87-.29-.25-.67-.37-1.15-.37-.71,0-1.3.35-1.75,1.05-.81,1.22-1.21,2.9-1.21,5.02v.72h5.6Z"/>
  <path d="M559.08,100.31v4.36c1.28-1.99,2.39-3.31,3.35-3.95.96-.66,1.89-.99,2.78-.99.77,0,1.38.24,1.83.72.47.47.7,1.13.7,2,0,.92-.22,1.63-.68,2.14-.44.51-.97.76-1.6.76-.73,0-1.36-.23-1.89-.7-.53-.47-.85-.73-.95-.78-.14-.08-.3-.12-.47-.12-.4,0-.77.15-1.13.45-.56.47-.99,1.13-1.28,2-.44,1.33-.66,2.8-.66,4.4v4.43l.02,1.15c0,.78.05,1.28.14,1.5.16.37.4.65.72.82.33.16.88.27,1.65.31v.74h-10.39v-.74c.84-.07,1.4-.29,1.69-.68.3-.4.45-1.43.45-3.11v-10.64c0-1.1-.06-1.8-.17-2.1-.14-.38-.34-.67-.6-.84-.26-.18-.72-.3-1.38-.37v-.76h7.86Z"/>
  <path d="M576.82,100.31v2.49c.99-1.07,1.93-1.85,2.84-2.33.91-.49,1.88-.74,2.92-.74,1.25,0,2.28.35,3.11,1.05.82.69,1.37,1.54,1.65,2.57.22.78.33,2.28.33,4.51v7.49c0,1.48.13,2.41.39,2.78.27.36.84.58,1.69.68v.74h-9.74v-.74c.73-.1,1.25-.4,1.57-.91.22-.34.33-1.19.33-2.55v-8.56c0-1.58-.06-2.57-.19-2.98-.12-.41-.34-.73-.64-.95-.29-.23-.61-.35-.97-.35-1.18,0-2.28.84-3.29,2.53v10.31c0,1.44.13,2.35.39,2.74.27.39.77.62,1.5.72v.74h-9.74v-.74c.81-.08,1.39-.34,1.73-.78.23-.3.35-1.19.35-2.68v-10.87c0-1.45-.14-2.36-.41-2.72-.26-.36-.82-.59-1.67-.7v-.76h7.84Z"/>
  <path d="M599.12,100.31v2.53c1.06-1.15,2.03-1.96,2.92-2.41.91-.47,1.89-.7,2.96-.7,1.24,0,2.27.29,3.11.86.84.58,1.48,1.46,1.93,2.64,1.1-1.24,2.15-2.13,3.15-2.68,1.01-.55,2.07-.82,3.17-.82,1.33,0,2.39.31,3.17.93.8.6,1.34,1.38,1.65,2.33.31.93.47,2.43.47,4.49v7.88c0,1.48.13,2.4.39,2.76.27.36.84.59,1.69.7v.74h-9.94v-.74c.78-.07,1.36-.37,1.73-.91.25-.37.37-1.22.37-2.55v-8.27c0-1.71-.07-2.81-.21-3.27-.14-.47-.36-.81-.66-1.03-.29-.23-.63-.35-1.03-.35-.59,0-1.19.22-1.79.66-.6.43-1.21,1.07-1.83,1.93v10.33c0,1.39.12,2.26.35,2.61.32.51.92.79,1.81.84v.74h-9.96v-.74c.53-.03.95-.16,1.26-.39.31-.25.52-.54.62-.86.11-.34.17-1.08.17-2.2v-8.27c0-1.74-.07-2.83-.21-3.27s-.37-.78-.7-1.03c-.31-.25-.66-.37-1.03-.37-.55,0-1.05.14-1.5.43-.65.43-1.33,1.15-2.06,2.18v10.33c0,1.36.13,2.26.39,2.7.27.43.84.68,1.69.76v.74h-9.92v-.74c.81-.08,1.39-.34,1.73-.78.23-.3.35-1.19.35-2.68v-10.87c0-1.45-.14-2.36-.41-2.72-.26-.36-.82-.59-1.67-.7v-.76h7.84Z"/>
  <path class="cls-1" d="M640.86,109.24h-10.56c.12,2.55.8,4.57,2.04,6.05.95,1.14,2.08,1.71,3.42,1.71.82,0,1.57-.23,2.24-.68.67-.47,1.39-1.3,2.16-2.49l.7.45c-1.04,2.13-2.2,3.64-3.46,4.53-1.26.88-2.72,1.32-4.38,1.32-2.85,0-5.02-1.1-6.48-3.29-1.18-1.77-1.77-3.97-1.77-6.59,0-3.21.86-5.76,2.59-7.66,1.74-1.91,3.78-2.86,6.11-2.86,1.95,0,3.64.8,5.06,2.41,1.44,1.59,2.22,3.96,2.32,7.1h0ZM635.8,107.86c0-2.21-.12-3.73-.37-4.55-.23-.82-.6-1.45-1.11-1.87-.29-.25-.67-.37-1.15-.37-.71,0-1.3.35-1.75,1.05-.81,1.22-1.21,2.9-1.21,5.02v.72h5.6Z"/>
  <path d="M649.45,100.31v2.49c.99-1.07,1.93-1.85,2.84-2.33.9-.49,1.88-.74,2.92-.74,1.25,0,2.28.35,3.11,1.05.82.69,1.37,1.54,1.65,2.57.22.78.33,2.28.33,4.51v7.49c0,1.48.13,2.41.39,2.78.27.36.84.58,1.69.68v.74h-9.74v-.74c.73-.1,1.25-.4,1.56-.91.22-.34.33-1.19.33-2.55v-8.56c0-1.58-.06-2.57-.18-2.98-.12-.41-.34-.73-.64-.95-.29-.23-.61-.35-.97-.35-1.18,0-2.28.84-3.29,2.53v10.31c0,1.44.13,2.35.39,2.74.27.39.78.62,1.5.72v.74h-9.73v-.74c.81-.08,1.38-.34,1.73-.78.23-.3.35-1.19.35-2.68v-10.87c0-1.45-.14-2.36-.41-2.72-.26-.36-.82-.59-1.67-.7v-.76h7.84Z"/>
  <path d="M670.55,93.27v7.04h4.57v2.04h-4.57v11.88c0,1.11.05,1.83.15,2.16.11.32.29.58.55.78.26.19.5.29.72.29.89,0,1.74-.68,2.53-2.04l.62.45c-1.11,2.63-2.92,3.95-5.41,3.95-1.22,0-2.26-.34-3.11-1.01-.84-.69-1.37-1.45-1.61-2.28-.14-.47-.21-1.73-.21-3.79v-10.39h-2.51v-.72c1.73-1.22,3.2-2.5,4.4-3.85,1.22-1.34,2.28-2.85,3.19-4.51h.68Z"/>
  <path d="M122.13,165.48c-.13.23-.3.42-.53.53"/>
  <path d="M126.95,127.8c.56,0,1.01-.45,1.01-1.02s-.45-1.01-1.01-1.01-1.01.46-1.01,1.01.45,1.02,1.01,1.02h0Z"/>
  <path d="M173.64,85.23v-.02h-36.31v.02h0l.03,29.32c0,2.83,1.2,5.3,2.85,6.07l13.97,8.34c.31.35.76.57,1.27.57.44,0,.84-.17,1.14-.44l14.18-8.47c1.66-.76,2.85-3.24,2.85-6.07l.03-29.32h0ZM149.4,93.72h-3.14v-7.51h3.14v7.51h0ZM147.12,96.33l.45-.47-.28-.51.59.06.35-.62.35.61.59-.05-.28.51.45.47-.57.11v.64l-.54-.4-.54.4v-.64l-.57-.11h0ZM138.36,105.68v-7.13h3.81v7.13h-3.81ZM138.99,95.36l.59.06.35-.62.35.61.59-.05-.28.51.45.47-.57.11v.64l-.54-.4-.54.4v-.64l-.57-.11.45-.47-.28-.51h0ZM143.29,102.6l.59.06.35-.62.34.61.6-.05-.28.51.45.47-.57.11v.64l-.54-.4-.54.4v-.64l-.57-.11.45-.47-.28-.51h0ZM145.82,96.87c-.03-.19-.28-.24-.39-.24-.34,0-.48.56-.76.58-.21.01-.36.03-.36-.23,0-.19.43-.34.6-.5-2.35,0-2.4,1.08-2.77,1.08-.62,0,.52-1.13.84-1.47-.48-.08-.75-.67-1.28-.96.25-.35.39-.2.69.05,0-.25.19-.54.73-.54,1.05,0,.76,1.02.93,1.02s-.01-1.02.69-1.02c1.04,0,2.35,2.68,1.17,2.68-.51,0-.1-.38-.11-.45h0ZM143.12,89.02l.45-.47-.28-.51.59.06.35-.62.34.61.6-.05-.28.51.45.47-.57.11v.64l-.54-.4-.54.4v-.64l-.57-.11h0ZM142.17,86.21v7.51h-3.81v-7.51h3.81ZM149.4,124.95l-8.69-5.19c-1.45-.99-2.17-2.73-2.36-4.84v-8.25h11.05v18.28h0ZM146.26,105.68v-7.13h3.14v7.13h-3.14ZM160.59,125.54l-4.01,2.4h-.07c-.29.23-.65.37-1.06.37s-.78-.15-1.07-.39l-3.99-2.38v-18.87h10.2v18.87h0ZM160.59,105.68h-10.2v-19.47h10.2v19.47h0ZM172.62,114.92c-.19,2.1-.9,3.85-2.36,4.84l-8.69,5.19v-18.28h11.04v8.25h0ZM172.62,105.68h-11.04v-19.47h11.04v19.47h0Z"/>
  <path d="M148.81,113.39c-.05-.12-1.38.44-1.01.41.04-.39.78-1.19,1.11-1.49-.06-.46-.66-.04-1.28.28,2.07-2.96.74-1.75-.41-1.54,1.85-1.99,1.36-1.96,0-1.34,1.07-.85,1.3-1.86,1.13-2.15-1,1.34-1.93,1.13-1.93,2.37,0,.82-.29,2.16-.71,2.61-.54.58-.13-2.19-1.54-2.19-.45,0-1.52-.04-1.85.52.29,0,.72.74.72,1.03s.27,1.1-.22,1.1-1.05-1.02-1.05-1.51-.03-.37-.03-1.07c0-1.17-1.91-2.82-2.69-2.82,0,.82,1.07,1.01,1.07,2.05-.45,0-1.1-.85-1.1-.32s.68.62.68,1.08-.78-.16-.78.33c0,.43.42.36.53.78-.31-.09-.6-.05-.65.11-.05.14.09.32.33.46-.11.1-.2.34-.2,1.03,0,2.32,1.45,3.39,2.52,3.39.76,0,.64-.53.73-.78.03.39.41-.2.41.49s-.74.4-.74,1.02c0,.83,1.16-.03,1.16.89,0,1.11-.14,1.09-.14,1.51,0,.29,1.22-.4,1.14-.53.29.11.28.97.82.94.35-.01.43-.88.7-.96-.16.04,1.1.82,1.1.43,0-1.08-.44-.62-.44-1.36,0-.68,1.5-.55,1.26-.9-.2-.29-.33-.11-.49-.62.03.09-1.17-1.72.25-.78,1.5.98,1.67-2.28,1.59-2.45h0Z"/>
  <path d="M187.55,121.06c.66,0,1.19-.47,1.19-1.05s-.53-1.05-1.19-1.05-1.19.47-1.19,1.05.53,1.05,1.19,1.05h0Z"/>
  <path d="M182.72,123.93c.66,0,1.19-.47,1.19-1.05s-.53-1.05-1.19-1.05-1.2.47-1.2,1.05.53,1.05,1.2,1.05h0Z"/>
  <path d="M125.33,130.55c.66,0,1.19-.47,1.19-1.05s-.54-1.05-1.19-1.05-1.2.47-1.2,1.05.54,1.05,1.2,1.05h0Z"/>
  <path d="M129.05,130.87c.66,0,1.19-.47,1.19-1.05s-.53-1.05-1.19-1.05-1.19.47-1.19,1.05.53,1.05,1.19,1.05h0Z"/>
  <path d="M232.38,80.78c1.77,2.11,2.15,5.49.89,7.91-.7-.06-.57-.96-.7-1.47-1.27-2.36-2.28-5.36-1.14-8.04.82.13.51,1.15.95,1.59h0Z"/>
  <path d="M80.76,83.65c-.38,1.53-.38,3.64,0,5.04-.32.32-.25-.32-.57-.26-2.47-1.79-1.33-5.29-1.96-7.78.13-.19.44-.25.63-.13,1.14.77,1.65,1.85,1.9,3.12h0Z"/>
  <path d="M237.82,83.85c.38.7-.32,1.4-.82,1.72-.57.13-1.2-.19-1.58-.7-.19-.7.19-1.34.76-1.66.63-.06,1.26.06,1.65.64h0Z"/>
  <path d="M76.89,86.65c-.13.57-.32,1.15-.82,1.4-.38,0-.95,0-1.2-.32-.38-.32-.44-.89-.26-1.34.26-.45.76-.51,1.2-.57.44.19.89.32,1.08.83h0Z"/>
  <path d="M240.29,87.74c.13.38.13.64,0,1.02-.44.58-1.08.83-1.71.58-.44-.26-.57-.7-.7-1.09.13-.51.63-.96,1.08-1.15.57,0,.95.32,1.33.64h0Z"/>
  <path d="M236.68,87.8c.51.25.13.89.06,1.27-.32.32-.76.83-1.33.64-.32-.32-.69-.32-.82-.76,0-.64.25-1.28.89-1.47.51-.13.82.13,1.2.32h0Z"/>
  <path d="M232.06,88.76c0,.7.06,1.6-.76,1.72-.76.25-1.27-.39-1.45-.9-.06-.64.32-1.28.95-1.53.51,0,.95.32,1.27.7h0Z"/>
  <path d="M83.8,89.08c.19.64-.44,1.02-.82,1.34-.45.13-1.01-.26-1.27-.7-.44-.44.13-.83.25-1.21.63-.58,1.58-.13,1.84.57h0Z"/>
  <path d="M80,89.27c0,.51-.25,1.02-.69,1.21-.51.19-1.01-.19-1.27-.58-.32-.64.07-1.21.57-1.47.7-.26,1.14.38,1.39.83h0Z"/>
  <path d="M216.73,89.52c.63,1.34,1.14,2.93,1.27,4.59-.25,1.21.19,2.81-.7,3.64-.89-.32-.95-1.4-1.52-1.98-1.14-2.23-.13-4.85.25-7.02.51-.19.51.45.7.76h0Z"/>
  <path d="M77.02,90.29c.19.77-.38,1.15-.82,1.59-.76.19-1.27-.38-1.58-.89-.06-.64.32-1.28.82-1.53.64-.06,1.27.25,1.58.83h0Z"/>
  <path d="M226.74,92.14c.82,1.85.89,4.08.32,6.12l-.38.32c-.89-1.72-2.15-3.32-2.6-5.17,0-1.34.25-2.55.76-3.64.44-.32.7.06.89.45.06.7.38,1.53,1.01,1.91h0Z"/>
  <path d="M234.72,90.99c-.06.64-.32,1.34-.95,1.53-.63.13-1.26-.06-1.46-.76-.19-.64.19-1.21.7-1.53.7-.38,1.4.26,1.71.77h0Z"/>
  <path d="M80.06,92.97c0,.51-.44,1.08-.95,1.21-.51.38-.88-.26-1.33-.45-.19-.51-.32-.96,0-1.47.19-.38.63-.38,1.01-.51.57.32,1.14.57,1.27,1.21h0Z"/>
  <path d="M82.85,92.65c.25.64-.44.96-.7,1.27-.76.26-1.14-.32-1.46-.76-.13-.64.25-1.02.7-1.4.76-.19,1.14.32,1.46.89h0Z"/>
  <path d="M236.49,92.46c-.06.83-1.33,1.66-1.46,2.49-.7,1.72-2.22,3-3.92,3.57-.38.32-.89.76-1.46.83-.13-1.27,1.02-2.42,1.71-3.57,1.33-1.72,3.17-2.81,5.13-3.32h0Z"/>
  <path d="M78.79,95.14c.95,1.08,1.46,2.04,2.6,3,.06.26-.13.64-.44.64-3.1-.19-5.19-3.38-6.71-5.61.19-.7,1.01-.13,1.46-.19,1.08.83,2.28,1.08,3.1,2.17h0Z"/>
  <path d="M237.38,96.03c-.13,2.74-1.46,5.55-3.93,6.89-.7.25-1.46.96-2.15.51,1.33-2.74,3.36-4.98,5.58-7.4h.51Z"/>
  <path d="M225.22,97.88c.19.96-.32,1.53-1.08,1.85-.7.06-1.14-.51-1.46-1.02-.06-.64.32-1.21.89-1.4.19-.19.5-.19.76-.19.38.13.57.45.89.77h0Z"/>
  <path d="M75.31,98.45c1.21.83,2.28,1.98,3.42,3-.82.58-1.84.06-2.79.06-2.15-.76-3.61-2.61-5.83-3.25.06-.7.89-.45,1.33-.64,1.39-.13,2.53.51,3.86.83h0Z"/>
  <path d="M143.14,79.57c-3.55-1.4-5.89,2.3-9.5,1.85-.44.26-.32.7-.57,1.02-.19.19-.51.06-.7-.06-.19-1.53-.7-2.93-.89-4.4-.38-.64-.19-1.53-.51-2.17-2.03-5.55,4.94-1.34,6.33-4.59,1.21-2.81-2.34-3.13-3.42-5.1v-.83c-1.01-1.02-2.09-1.34-2.72-2.68.44-1.59.63-3.32.19-4.91-.06-.38-.32-.89-.88-.7-1.21,1.66-2.09,3-3.23,4.59-1.2-.89-2.34-2.04-3.74-2.81-.95-.13-1.84-1.08-2.91-.7-.19.38,0,.7.19.95.06,2.49,1.33,4.47,3.1,6.25l.19.96c-1.14,2.61-.82,5.61-1.14,8.42-2.85,7.27-7.47,14.29-13.74,19.33-3.61,4.08-7.92,8.04-8.49,13.65-.19.89.13,1.98-.57,2.62-2.09-.77-4.18-1.79-5.89-3.12-2.91-2.04-7.09-1.79-8.99-5.49-.76-1.47.19-2.93.89-4.02,2.15-2.04,1.84-5.68.7-8.16-.25-.06-.32.25-.51.32-.19,3.77-3.17,6.38-2.03,10.53.25,1.21.89,1.98,1.2,3.13-.45-.13-1.08-.13-1.46-.32-1.39-.19-2.79-.77-4.24-.58-2.91,1.34-6.9-.32-9.25,2.36-.38.06-.89.13-.76.7,1.39,0,2.72.38,4.12.32,2.21.38,3.67-1.47,5.19-2.3h.38c.63-.64,1.71-.26,2.54-.38,3.99.45,7.09,2.36,10.39,4.34v.25c-1.27.58-2.72.96-3.99,1.66-1.46,1.08-3.1,2.49-3.55,4.27-1.01,1.59.32,3,.95,4.34.06.64.13,1.4.7,1.66,2.03-2.17.13-4.85.44-7.34.51-1.91,2.28-2.81,4.12-3.32,3.61-1.53,6.21,1.4,9.12,3.06-.06,2.94.32,5.74-.31,8.61-.89.32-2.03.51-2.98.45-5,.38-8.93,3.12-13.43,4.66-2.03.7-4.43.64-6.46,1.4,1.58.45,3.23-.13,4.88-.19,6.21-.89,10.96-5.68,17.67-4.85l.13.19c-.76,1.59-1.77,2.93-2.98,4.15-.19-.7-.25-1.27-.89-1.66-.51-.25-1.08,0-1.46.51-.19.32-.19.7,0,.96.32.57.82.7,1.39.89-.13.58-.82.83-1.2,1.34-1.77,3-5.38,1.79-7.47,3.89-.32.45-1.46.7-.95,1.4,2.41.26,4.75-.38,6.52-1.66,2.34-2.61,4.81-5.1,7.16-7.59.38,2.04-.19,4.15-1.39,5.8-.57-.32-1.02-.77-1.71-.96-.63.13-1.08.77-1.14,1.28.25.45.51.96.95,1.28-2.15,1.53-4.87,1.66-7.34,2.36-4.62.57-9.12.96-13.81,1.02-2.22-.13-4.75.64-6.84,0-2.41.45-5-.32-6.97,1.02-.25.32.06.64.06.96,2.92,1.92,6.91.38,10.2.96h24.95c1.84-.06,3.67-.13,5.13-.96,3.23-1.85,5-5.17,6.65-8.42.63-1.15,1.08-2.49,1.33-3.82.63-2.17,2.6-3.7,4.75-3.89.32,3.32-.31,6.63-1.08,9.7-.38,2.04-1.71,4.02-.89,6.19.19,1.02,1.27,1.02,2.09,1.15,7.66-.13,15.33-.45,23.43.13,1.46.25,2.72.7,4.31.64.13-.19.57-.25.38-.64-.19-.7-.7-1.6-1.52-1.79-.13-.38-.69-.25-.89-.51-4.05-2.3-8.93-1.09-13.68-1.02-2.47.26-4.94.7-7.03-.7-.95-1.15-.25-4.78-.25-4.78,0-1.44,3.48-11.48,3.93-12.31.13-.96.51-1.85.38-2.93.51-1.28.38-2.93.38-4.34.25-2.04,1.27-3.95,1.96-5.93.38-.96.7-1.98,1.08-2.94.38-1.21.51-2.36,1.27-3.32,2.07,1.31,4.09,1.27,5.08,3.62l.87,5.31c0,.32.25.96.7.58,1.65-1.09,1.14-3.51,1.14-5.17.38-1.98-1.01-2.94-1.58-4.66-.44-.32-1.17-1.84-1.17-1.84-.25-1.41-3.32-2.37-2.63-4.09.38-1.47.76-2.81,2.15-3.64.21.14.29.29.32.45l.76-.53.08-5.33c2.05,0,5.11.25,7.2.25.57.19,1.01.64,1.65.7l.51-.7,5.13-1c-2.18.24-3.5-2.26-5.58-2.26h0Z"/>
  <path d="M93.55,99.6c.06.77-.38,1.21-.95,1.47-.51-.19-.88-.25-1.2-.76-.25-.7.38-1.21.88-1.47.51.13,1.14.19,1.27.77h0Z"/>
  <path d="M89.43,99.6c.38.38.44,1.02.25,1.47-.44.38-1.14.7-1.52.19-.38-.38-.76-.83-.44-1.34.44-.45,1.2-.83,1.71-.32h0Z"/>
  <path d="M225.85,101.39c.25.7-.32,1.21-.82,1.47-.63-.19-1.46-.32-1.46-1.15.06-.51.5-.83.95-.96.57-.19,1.08.26,1.33.64h0Z"/>
  <path d="M229.21,101.26c.19.32.63.83.13,1.15-.25.19-.44.25-.63.51-.7.13-1.33-.13-1.52-.77-.13-.7.44-1.02.95-1.34.44-.13.76.19,1.08.45h0Z"/>
  <path d="M73.54,102.03c-.25.76-.89,1.08-1.71.83-.19-.19-.38-.51-.51-.83.06-.45.19-.89.7-1.09.76.06,1.33.38,1.52,1.09h0Z"/>
  <path d="M94.88,103.11c-.07.51-.63.96-1.08,1.21-.64.06-1.08-.45-1.4-.89,0-.51.25-1.15.76-1.28.7-.26,1.46.26,1.71.96h0Z"/>
  <path d="M91.14,102.66c.19.19.38.7.19,1.02-.38.32-.95.89-1.58.51-.38-.32-.82-.57-.7-1.21.25-.25.57-.64.95-.76.5-.13.76.19,1.14.45h0Z"/>
  <path d="M238.9,103.43c0,.51-.51,1.02-.82,1.21-.51.19-1.08.06-1.39-.32-.38-.13-.25-.64-.25-.96.32-.45.76-.7,1.2-.83.57.13.95.51,1.27.89h0Z"/>
  <path d="M242.95,104c-.19.57-.63,1.08-1.2,1.15-.38-.06-1.08-.19-.95-.77,0-.45.25-.89.57-1.02.63-.32,1.39,0,1.58.64h0Z"/>
  <path d="M80.76,104.9c.13.76-.13,1.27-.76,1.53-.44.25-.89-.06-1.2-.32-.32-.32-.57-.83-.32-1.28.13-.57.7-.45,1.08-.7.57.06.89.32,1.2.77h0Z"/>
  <path d="M83.86,105.47c.19.51-.38.7-.51,1.09-.32.19-.76.38-1.14.13-.44-.38-.95-.96-.51-1.53.51-.96,1.84-.45,2.15.32h0Z"/>
  <path d="M235.16,105.15c.06.64-.5,1.08-.88,1.47-.57.13-1.14-.26-1.27-.77-.06-.51.25-.89.7-1.21.57-.06,1.14,0,1.45.51h0Z"/>
  <path d="M240.35,106.17c-.13.57-.06,1.21-.7,1.59-.51.13-1.14.06-1.52-.25-.38-.32-.44-.89-.25-1.34.32-.51.89-.89,1.52-.76.45.25.57.57.95.76h0Z"/>
  <path d="M78.35,107.51c.25.51-.32.64-.51.89-.44.26-.89.06-1.27-.13-.45-.26-.25-.89-.19-1.21.57-1.09,1.71-.32,1.96.45h0Z"/>
  <path d="M236.36,108.72c.25.06.13.45.06.57-1.52.77-3.8.96-5.13-.25-.76-.64-1.71-.89-2.53-1.4.32-.83,1.46-.77,2.28-.96,1.84.26,3.29,1.98,5.32,2.04h0Z"/>
  <path d="M81.39,108.15c.13.51-.25.7-.38,1.08-.25.38-.76.25-1.08.13-.57-.38-.82-1.09-.44-1.6.7-.7,1.52-.32,1.9.38h0Z"/>
  <path d="M86.96,108.53c.25.57-.13,1.08-.63,1.4-.45.26-.82-.13-1.2-.19-.32-.45-.89-.96-.32-1.47.57-.95,1.71-.45,2.15.26h0Z"/>
  <path d="M160.19,111.23c-.12,1.27-2.23-.18-1.93,1.51.3,1.21.54,2.67,1.26,3.57.6.85.3,2.18.24,3.21-.54.91-1.44,1.57-2.41,2.06-1.8-.18-4.45.91-5.3-1.33-.36-.97-1.02-1.94-1.02-3.03.18-.12.42-.12.6-.3,0-.42-.48-.67-.42-1.09,2.05-.36-.84-2.18.9-2.3,1.44,1.51,3.79,1.03,5.05,2.67.3.24.54.61.9.79-.24-1.52-.96-3.03-1.2-4.67-.18-.85.12-1.64.72-2.12,1.08-.85,1.98.36,2.59,1.03h0Z"/>
  <path d="M92.54,110.83c.19.64-.32,1.02-.7,1.34-.57.25-.89-.38-1.14-.7-.19-.64.25-.96.63-1.28.44,0,.95.19,1.2.64h0Z"/>
  <path d="M131.61,111.47c.76,2.49.51,5.04-.76,7.14-.06.51.13,1.34-.57,1.28-1.71-2.36-.44-5.68.25-8.17.13-.64.89-.89,1.08-.25h0Z"/>
  <path d="M185.83,112.68c.89,1.79.95,4.15.13,5.93l-.51.51c-.7-1.47-1.27-2.93-1.46-4.53.32-1.15.7-2.17.76-3.38.89-.19.82.96,1.08,1.47h0Z"/>
  <path d="M97.48,113.38c-.38.76-1.46.96-2.15,1.47-1.52,1.15-3.74,1.4-5.64,1.09,1.65-2.3,4.18-3.64,7.22-3,.13.26.45.13.57.45h0Z"/>
  <path d="M71.45,115.68c2.34,1.66,2.98,3.95,4.37,6.25.19.26.82.32.57.83-.51.38-1.01-.38-1.71-.26-2.41-1.09-3.93-3.76-3.86-6.57,0-.26.38-.26.63-.26h0Z"/>
  <path d="M183.36,117.65c.06.64-.06,1.28-.57,1.47-.7.19-1.27-.19-1.46-.77-.19-.45.19-.7.32-1.02.51-.51,1.39-.25,1.71.32h0Z"/>
  <path d="M210.08,121.03c0-1.21.32-2.36.44-3.51.19-.38.32-.83.25-1.34,1.52-2.04,4.62-1.4,7.03-1.21.95.51,2.15.45,3.17.7.44-.32,1.08-.38,1.58-.32,2.02-1.09.7-3.44.82-5.29l-.76-1.91c-.19-.38-.38-.83-.51-1.28-.38-.45-.63-1.28-1.01-1.72-1.08-2.81-3.17-4.4-4.94-6.63-3.23-4.21-8.3-6.57-13.36-8.23-5-1.72-10.07.51-14.57,2.1-1.39-.38-2.09-1.47-2.47-2.68-.25-2.42.25-4.78,1.2-6.76.19-1.6,1.26-2.81,1.71-4.27,1.14-3.57,2.34-7.08,2.6-10.97.13-2.36-1.65-4.02-3.42-5.04-1.2-.32-2.6-.25-3.48.7-.82,1.72-2.6,2.87-4.12,3.7-.13,1.08,1.2.38,1.65.77,1.39.26,2.98-.19,4.12.7.13,2.55-1.33,4.66-2.66,6.57-2.15,3.19-4.43,6.44-5.76,9.95l-.25-.26.31,15.59c2.02,3.36,4.54,7.19,8.31,8.46,2.03,1.66,4.56,3.63,7.28,2.17,1.46-.45,1.58,1.59,2.28,2.42.76,2.36-.95,4.02-1.08,6.19l-1.65,3.51c-1.9,3.7-3.61,7.65-6.52,10.78-.95,0-1.52,1.02-2.47,1.08-.51.7-1.52.19-2.15.45-1.96.83-4.75.32-6.08,2.17.13.19.32.26.51.32,3.86.06,8.17.32,12.29.13.51-.19.95-.64,1.01-1.21-.57-1.09.19-2.04.7-2.87.32-1.53,1.33-2.49,1.78-3.96,1.33-2.61,2.85-5.17,4.31-7.78l1.96-3.19c.44-1.09,1.2-2.43,1.96-3.57.51-.51.76-1.09,1.14-1.72.06-.64-.25-.89-.63-1.34.44-.45,1.14-.32,1.71-.45,1.58.96,3.23,2.49,3.55,4.21l.57,1.66.25.77-.13,2.1.25,1.98c.32,3.06-.25,6.19-.57,9.25-1.08,3.7-5.32,3.32-8.36,4.15-.76.51-2.21.25-2.21,1.53,3.67.77,7.98.32,11.9.26.63-.26.76-.83,1.08-1.4.13-.83.95-1.53.7-2.42-.7-.89-.06-2.3-.25-3.51.13-.32.13-.77,0-1.21.51-1.85.38-4.08.76-5.87l.25-2.42h0Z"/>
  <path d="M241.24,118.55c-2.03,2.87-4.18,6.12-7.73,7.14-.25,0-.51.13-.64-.19,2.15-2.3,3.3-5.87,6.65-6.7.51-.25,1.2-.51,1.71-.25h0Z"/>
  <path d="M68.34,121.67c-.32.25-.06.83-.63.89-.51.26-1.07-.06-1.33-.57-.26-.64.31-1.28.82-1.4.51.26,1.01.45,1.14,1.08h0Z"/>
  <path d="M86.58,122.57c.19.57-.45.57-.76.7-2.66.96-5.38.06-7.28-1.85,0-.25,0-.51.25-.57,2.6.64,5.64.13,7.79,1.72h0Z"/>
  <path d="M71.83,121.74c.13.26.19.7.13.96-.38.57-.95.7-1.58.57-.38-.19-.57-.45-.82-.83.06-.64.57-1.02,1.08-1.21.51.06.89.19,1.2.51h0Z"/>
  <path d="M131.17,122.06c.13.57-.38.96-.76,1.21-.57.13-1.08-.13-1.33-.51-.19-.45,0-1.09.44-1.21.57-.13,1.46-.06,1.64.51h0Z"/>
  <path d="M243.65,122.31c.19.64-.38.96-.82,1.34-.38.19-.82,0-1.2-.19-.06-.32-.44-.57-.31-1.02.25-.57.82-.83,1.45-.77.32.25.57.32.89.64h0Z"/>
  <path d="M247.83,122.06c.38.57.06,1.02-.25,1.47-.25.45-.76.57-1.14.38-.38-.38-.89-.58-.95-1.15,0-.51.57-.89.95-1.09.63-.26.89.38,1.39.38h0Z"/>
  <path d="M65.68,123.91c.06.45-.32.7-.44,1.08-.32.13-.63.38-1.01.26-.45-.19-.76-.57-.95-1.02.13-.57.5-1.08,1.14-1.27.51.13,1.08.38,1.27.96h0Z"/>
  <path d="M199.06,123.91c.13.26.06.57.06.83-.38.51-.89.96-1.52.64-.38-.38-.82-.77-.63-1.34.51-.7,1.59-.95,2.09-.13h0Z"/>
  <path d="M75.88,124.86c-.13.45-.32.89-.89.96-.57.06-.76-.45-1.08-.7,0-.57-.06-1.15.51-1.47.76-.25,1.46.38,1.46,1.21h0Z"/>
  <path d="M69.8,124.99c.19.64-.25,1.09-.63,1.4-.76.26-1.39-.32-1.71-.89.06-.58.51-1.28,1.14-1.47.57,0,.89.64,1.21.96h0Z"/>
  <path d="M203.24,124.86c.13.64-.06,1.27-.7,1.53-.76.26-1.39-.38-1.71-.89.32-.51.38-1.21,1.14-1.34.57,0,.95.25,1.27.7h0Z"/>
  <path d="M72.78,125.12c.19.45-.19.64-.32.96-.31,0-.5.38-.88.25-.25-.32-.76-.45-.82-.89-.06-.64.38-.96.82-1.21.63-.06,1.02.38,1.2.89h0Z"/>
  <path d="M240.16,125.63c-.19.51-.57.77-1.08,1.02-.51.13-.82-.32-1.2-.51-.32-.25-.19-.83-.06-1.15.63-1.08,2.34-.57,2.34.64h0Z"/>
  <path d="M244.98,125.88c-.19.7-.89,1.02-1.52,1.09-.57-.25-1.2-.7-.76-1.47.25-.26.38-.51.76-.58.76-.25,1.33.32,1.52.96h0Z"/>
  <path d="M214.89,126.33c.32.83-.44,1.09-.95,1.47-.44-.07-.82-.26-1.21-.51-.13-.7.19-1.34.89-1.66.57,0,.88.25,1.26.7h0Z"/>
  <path d="M197.48,127.1c.32.13.19.57.12.77-.38.25-.88.89-1.46.51-.44-.26-.76-.64-.63-1.21.32-.7,1.65-.77,1.97-.06h0Z"/>
  <path d="M201.02,127.54c.06.51-.06.77-.51,1.02-.45.44-.95-.06-1.39-.19-.13-.26-.25-.64-.06-.96.19-.25.51-.45.82-.51.45.13.95.13,1.14.64h0Z"/>
  <path d="M93.55,127.61c.38.38-.06.83-.13,1.21-.32.38-1.01.7-1.58.32-.63-.26-.57-1.09-.44-1.6.38-.13.38-.57.88-.57.57.06.89.32,1.27.64h0Z"/>
  <path d="M221.67,127.86c.13.64-.51.89-.95,1.02-.76.26-1.14-.32-1.46-.83,0-.38.38-.64.51-.95.89-.38,1.46.26,1.9.77h0Z"/>
  <path d="M218.25,127.86c.25.64-.44.96-.7,1.28-.44.19-1.01.13-1.39-.26-.32-.19-.32-.57-.32-.96.38-.32.57-.7,1.02-.83.57,0,1.14.32,1.39.77h0Z"/>
  <path d="M246.82,128.62c.12.89-1.01.45-1.46.7-2.66,1.6-6.08.38-8.61-.57.19-.83,1.14-.51,1.65-.83,2.72-1.72,5.51.38,8.23.51l.19.19h0Z"/>
  <path d="M73.47,127.86l-.25.45c-2.34,1.4-5.38,2.36-8.17,1.47l-.25-.38c2.34-1.72,5.45-2.17,8.49-1.72l.19.19h0Z"/>
  <path d="M228.13,128.31c0,.51-.25.96-.63,1.21-.63.19-1.46,0-1.65-.7-.19-.51.32-1.02.82-1.21.44,0,1.2.06,1.46.7h0Z"/>
  <path d="M84.81,128.56c-.25.51-.13,1.02-.76,1.28-.63.25-1.39-.32-1.58-.83-.19-.7.32-.89.63-1.21.76-.38,1.33.19,1.71.77h0Z"/>
  <path d="M80.32,128.88c.19.45-.19.7-.32,1.02-.32.38-.89.32-1.27.19-.44-.38-.89-.83-.7-1.53.38-.32.57-.51,1.02-.7.57.13,1.14.38,1.27,1.02h0Z"/>
  <path d="M232.57,130.35c-.06.58-.51,1.02-1.01,1.15-.51.06-.95-.32-1.2-.64-.19-.38-.13-.89.25-1.21.13-.19.57-.19.82-.32.57.07,1.01.51,1.14,1.02h0Z"/>
  <path d="M75.63,129.65c.19.51-.25.7-.32,1.08-.19,1.09-.89,1.79-1.39,2.74-1.21,1.47-2.92,1.47-4.62,1.91l-.25-.51c1.84-2.36,3.8-4.21,6.4-5.36l.19.13h0Z"/>
  <path d="M229.4,131.05c.13.77-.51.89-.95,1.21-.57,0-1.01-.32-1.27-.76-.19-.7.44-.96.82-1.28.63-.13,1.21.32,1.39.83h0Z"/>
  <path d="M82.91,131.05c-.06.13.07.25.19.32-.06.7-.57.89-.95,1.21-.57,0-1.01-.19-1.39-.64-.25-.58,0-1.28.63-1.47.57-.06,1.33,0,1.52.57h0Z"/>
  <path d="M241.05,132.96c.63-.07.76-.83,1.46-.96.63-.13,1.2.25,1.52.7.25.76-.32,1.15-.82,1.47-.44.32-1.39-.38-1.33.45.45.32.82.77.89,1.28-.13.26-.57.19-.76.06-1.84-.77-3.8-2.04-4.56-3.95-.25-.58-1.45-1.02-.76-1.53,1.84-.13,3.36,1.34,4.37,2.49h0Z"/>
  <path d="M247.13,130.99c.32.32.19.89-.06,1.21-.32.64-1.27.38-1.84.32-.32-.32-.63-.64-.51-1.15.25-.38.51-.64.95-.83.57-.13,1.01.13,1.46.45h0Z"/>
  <path d="M224.14,134.43c.57.7,1.14,1.79,1.39,2.55-.13.19-.44.13-.57.13-2.15-1.21-4.94-2.55-5.76-5.1-.19-.26-.7-.58-.63-1.02,1.65-.32,3.23.89,4.37,1.79.44.64.95.96,1.2,1.66h0Z"/>
  <path d="M79.37,132.01c.25.57-.25,1.02-.57,1.28-.7.13-1.08-.13-1.46-.51-.44-.7.38-1.28.89-1.53.5-.06.82.45,1.14.77h0Z"/>
  <path d="M232.06,133.47c.06.38-.44.64-.63.89-.51.06-1.01.26-1.46-.19-.13-.32-.44-.83-.06-1.15.7-.9,1.71-.19,2.15.44h0Z"/>
  <path d="M247.83,134.37c.19.77-.38,1.28-.89,1.6-.63.19-1.14-.26-1.52-.57-.32-.38-.06-.77,0-1.21.44-.38,1.01-.7,1.65-.45.25.19.51.32.76.64h0Z"/>
  <path d="M204,143.17c0,.76-1.39.57-1.96,1.15-1.96,1.02-4.31,1.02-6.65.96v-.38c2.28-1.91,5.57-2.61,8.61-1.72h0Z"/>
  <path d="M111.6,145.91c-.07.58-.38.89-.95,1.09-.44,0-.89-.26-1.08-.64-.25-.77.38-1.08.82-1.4.57.06,1.08.51,1.21.96h0Z"/>
  <path d="M202.93,146.61c-.13.58-.32,1.21-.95,1.47-.57.13-.95-.19-1.4-.45-.32-.26-.12-.7-.19-1.02.44-1.15,2.09-1.15,2.53,0h0Z"/>
  <path d="M215.53,146.87c-1.58,1.02-3.36,2.23-5.45,2.23l-3.42-.07-.32-.25c2.09-2.55,5.89-2.55,9.19-2.3v.38h0Z"/>
  <path d="M94.25,148.4c0,.58-.25,1.02-.82,1.21-.63.13-1.08-.13-1.33-.57-.25-.57,0-1.15.51-1.47.7-.45,1.4.32,1.65.83h0Z"/>
  <path d="M97.41,149.04c.19.32-.12.51-.25.83-.38.19-.88.32-1.2,0-.44-.26-.57-.7-.38-1.09.19-.38.57-.32.76-.58.44.19.89.38,1.08.83h0Z"/>
  <path d="M73.16,155.48c-.63.77-1.65-.19-2.34-.58-2.22-1.27-2.15-3.76-4.37-5.23.25-.76.82.07,1.27-.06.38.26.89.51,1.33.7,2.15,1.21,2.66,3.25,4.12,5.17h0Z"/>
  <path d="M257.77,130.73c-1.01-1.85-2.72-2.61-4.75-2.61-1.64.13-2.85,1.21-3.55,2.61-.38,1.4.13,2.68,1.2,3.51.44.19,1.01.13,1.27-.32.32-.83-.57-.83-.7-1.47-.25-.89.06-1.66.7-2.23.63-.64,1.71-.32,2.47-.32.76.51,1.52.96,1.9,1.85.38,1.08.38,2.3,0,3.38-.7,1.6-2.28,2.87-3.93,3.19-5.26.76-62.95.51-62.95.51-6.77.64-14.5-1.28-20.33,2.3-2.66,1.28-3.99,4.21-4.69,6.82-1.71,1.53-3.55,3.32-4.94,5.04l-.19-.19c.32-1.53,1.01-2.87,1.33-4.4.95-1.28.95-3,1.65-4.4,2.41-3.89,4.69-7.84,8.42-10.59,1.58-2.11,4.37-1.72,6.78-1.72,2.6,1.21,5.64,1.6,8.8,1.28.13-.13.19-.26.19-.45-.89-.83-2.34-1.15-3.36-1.98-2.53-1.21-4.94.38-7.6.19-.13-.13-.25-.19-.19-.38,2.41-1.78,5.13-3.06,7.85-4.21,2.22-1.21,4.56-1.85,6.9-2.74.95,0,1.84-.83,2.72-.26l3.36-.89c.13.07.25.26.51.19,2.85-.96,6.46-.06,9.69-.13l.45.38,3.04.76c1.14.13,1.65,1.47,2.85,1.53.63-.89-.7-1.28-1.01-1.85,1.39-.32,2.98.06,4.24.64l-.63.7c-.38.7.19,1.21.76,1.47.44.13.76-.19,1.08-.32.82-.58-.06-1.15.19-1.66,4.69.83,9.18,1.98,13.49,3.83,1.2.38,2.34,1.27,3.67,1.21-1.33-1.21-3.17-1.85-4.81-2.55-1.08-.64-2.6-.7-3.42-1.6.19-.32.63-.19.82-.45,2.16-.25,3.99-1.85,5.51-3.57.13-.38.82-.26.76-.77-.57-.64-1.52.19-2.28.13-2.66.51-3.8,3.63-6.46,4.21-3.23-.77-6.52-1.53-9.75-2.36-1.58-.26-3.29-.38-4.75-1.02l-3.55-.32h-6.46c-.06-.13-.25-.19-.19-.38,2.28-.58,4.24-1.91,6.53-2.49l16.97-7.78c1.77-1.6,3.36-3.38,4.81-5.23.06-.51-.25-1.02-.7-1.21-.44-.19-.95-.13-1.27.25-.76.57,0,1.28,0,1.98-.76,1.02-1.97,1.91-2.91,2.49-.25-.06-17.48,7.85-17.48,7.85-2.53,1.08-5.07,2.3-7.73,2.87l-3.67.57c-.25.77-.89,1.21-1.59,1.47-1.01.19-1.84.83-2.91.83-8.23,3.19-16.78,6.57-23.31,13.08.38-.77.57-1.72.63-2.68-.13-.96-.06-2.04-.7-2.81-.15-.35-.61-1.38-.46-1.75l-.93.6c-.57,1.4-1.08,3.95-.51,5.42.19,1.15,1.14,2.49.25,3.51-3.04,3.7-4.75,8.17-6.78,12.37-.76-.13-1.14-.83-1.46-1.53,2.15-2.74,3.86-5.81,4.5-9.31.44-.32.13-1.15.57-1.53-.13-1.02.57-2.04.06-2.87.4-1.39-1.85-2.68-.41-3.57l-1.2.57c-2.72,3.57,1.41,8.93-1.69,12.38v.25c-.89,1.15-1.33,2.3-2.53,3.06-1.52-.64-2.09-2.36-2.98-3.64-1.39-1.34-1.39-4.08-.57-5.93.57-1.85-.38-3.44-.57-5.1l-.63-.38c-1.52,1.98-2.09,5.1-.89,7.46.63,1.15.7,2.74,1.65,3.7.57,1.85,1.71,3.06,2.72,4.72.25.64-.38.77-.7,1.09-.7-.45-.57-1.47-1.2-1.91-2.09-4.47-4.81-8.04-8.11-11.67-.13-.58-.7-1.09-.38-1.72,1.21-1.15,1.46-3.38.82-4.85-.12-.32-.5-.7-.44-1.02l-.95-.77c.13,2.23-1.33,4.21-.7,6.57v.13c-6.52-4.91-13.74-9.3-21.08-12.74l-.58,1.62c1.86.47,6.78,3.46,6.78,3.46,2.22.83,4.24,2.17,6.33,3.38,8.61,4.79,14.31,12.69,18.18,21.5.06.7.7,1.47.25,2.17-1.33-2.04-3.23-3.19-4.81-4.85-.45-3-2.22-5.87-4.81-7.08-.95-1.4-2.98-1.53-4.56-1.98l-23.05-.13c-18.75-.26-35.85.58-54.46.26-2.6-.26-5.76-1.15-6.52-3.89-.51-.96-.51-2.61,0-3.51.7-1.21,1.96-1.6,3.23-1.72,1.01.13,1.71,1.08,2.16,1.79,0,.83-.7,1.59-1.02,2.3.06.26.32.77.76.57.82-.32,1.46-1.21,1.65-2.04.06-.45.25-1.08-.19-1.4-.38-1.34-1.77-2.3-2.98-2.61-1.59-.13-3.23.32-4.31,1.47-1.52,1.28-1.46,3.57-1.01,5.36,1.01,2.81,3.99,4.72,6.84,5.1l61.62.26c6.02.32,12.79-.7,18.87.51,2.22.7,4.56,2.36,5.13,4.85-.07.13-.25.06-.44.06-5.01-3.25-11.59-4.46-17.99-3.7-2.53-.13-4.81.83-7.09,1.47-1.2.26-2.34-.32-3.1-1.02-2.28-2.04-6.27-1.91-9.18-1.15,0,.19-.06.38.06.45,3.1-.26,4.94,2.42,7.73,2.74.63.13,1.14-.57,1.71-.06-2.91,1.4-5.7,3.06-8.8,3.95-.95-.19-1.46-1.08-2.22-1.6-1.2-1.34-3.42-.77-5.07-.89-.57.13-1.08-.26-1.46,0,.51,1.02,1.65,1.59,2.73,2.1,1.58.7,3.42-.06,4.88.89-.38.45-.89.58-1.33.89-2.98,1.15-5.45,3.83-8.74,3.64-3.48.38-7.03-.64-9.37-3.06-1.01-2.49-3.61-3.83-6.4-3.7-.19.13-.44.13-.38.45,1.39.83,2.47,2.49,3.86,3.44.89,1.08,2.6,0,3.42,1.21,1.21.83,2.73,1.53,4.12,1.79,1.01.45,2.15.64,3.29.89l-.44.25c-5.76,1.91-12.41,2.11-18.87,1.85-1.9-.07-3.74-.64-5.64-.58.32.38.95.7,1.52.89-.5.32-1.08.45-1.71.51-.76.19-1.65.26-2.41.64-1.01-.06-1.9.32-2.72.64-1.08,1.15-2.34,2.36-3.61,2.93,0,.26-.06.64.25.64,1.2-.51,2.72-.13,3.93-.64,2.09-.19,3.29-2.49,4.94-3.44,1.77-1.4,4.31-1.08,6.46-.76,1.27.32-.13.83.25,1.66.51.45.95.96,1.65.76.13-.13.25-.26.44-.32.38-.51.32-1.09.06-1.6.89-.57,2.09.07,3.04-.32,2.41-.06,4.81-.57,7.16-.64.38-.06.82-.45,1.2-.06-.19.51-.82.58-.57,1.28.13.57.76.83,1.26.96.64-.26,1.2-.7.95-1.53-.13-.45-.63-.51-.95-.7,1.33-.64,2.85-.83,4.18-1.47.95-.19,1.84-.51,2.66-.89.82-.06,1.52-.83,2.28-.51-.32,1.08-.76,2.11-1.33,3.06-1.01,3.38-1.77,7.85,0,11.1.19.06.25-.06.38-.13-1.33-3.38-.57-7.27.57-10.46.89-5.42,6.46-7.02,10.45-9.06l.19.26c-1.08,2.81-2.66,5.49-2.41,8.87.13.57-.25,1.15,0,1.53,1.08-.58,1.77-1.85,2.34-2.94.44-2.87-1.2-6.44,1.71-8.55,5.19-2.04,10.07-4.72,16.09-4.78.19.19.63-.13.7.25-1.27,1.4-3.1,2.74-3.67,4.47-2.03,2.81-1.96,7.59-1.08,11.04.57,1.98-1.14,3.06-1.96,4.59-.39.54-.51,1.47-.87,2.09l1.25.14c1.08-1.15,2.09-2.55,2.15-4.21.13.64.69,1.15,1.2,1.28.44-.7-.38-1.21-.44-1.92,1.01-.57,1.46.7,2.28.96,1.33.32,2.47.89,3.86.89l.44-.45c-1.39-2.17-4.18-2.55-6.59-2.68-1.27-2.11-1.27-4.72-1.14-7.27.25-1.34.51-2.74,1.27-3.95.32-.89,1.2-1.72,1.77-2.42,1.14-1.09,2.6-1.85,3.99-2.17h.19c0,.13.06.19.06.19-1.71,1.34-1.9,3.19-2.91,4.85-1.08,1.59-1.59,3.76-.57,5.55.38.83.19,2.11,1.08,2.68.82-1.15.89-2.62,1.33-3.89-.19-2.1-1.45-4.08-.25-6.12.63-1.59,1.96-2.23,3.42-2.81,3.48-.32,6.52,1.47,9.56,2.81.64.45,1.71.83,1.84,1.72-.06,1.72-1.01,3.45-2.34,4.28-1.71,1.02-4.18,1.15-5.76-.06-.95-.96-1.33-2.61-1.01-3.89.7-.77,1.65-1.4,2.79-1.02.63.32,1.2.96,2.03.57.32-.19.44-.7.25-1.02-.7-.38-.95-1.34-1.9-1.47-1.2-.19-2.66-.13-3.48.7-1.33,1.15-1.84,2.87-1.46,4.47.44,2.04,1.96,3.51,3.93,4.08,2.91.7,5.96-.19,7.79-2.68.76-.83.95-1.72,1.39-2.74,3.04,1.85,5.32,5.11,6.52,8.42,0,1.09.32,2.23.06,3.19l2.21.19c-.19-.51,0-1.08.19-1.53.82-4.21,3.42-7.72,6.52-10.46,1.08-.64.82.83,1.08,1.28.95,2.42,3.17,4.14,5.51,4.85,2.66.44,5.19-.19,6.84-2.23.82-1.53,1.84-3.76.44-5.36-.89-1.08-2.09-1.66-3.48-1.66-1.65,0-2.66,1.15-3.48,2.36,0,.51-.06,1.08.38,1.34.25,0,.76.06.95-.32.13-.96.95-1.4,1.71-1.91.7-.38,1.46,0,2.03.38.7.57.82,1.53.89,2.49-.13,1.21-.95,2.49-2.09,3-1.84.96-4.5.51-6.08-.58-.76-.83-1.2-1.79-1.77-2.81-.13-1.02-.51-1.91,0-2.93,2.79-1.66,5.7-2.87,9.06-3.19,1.33.26,2.47,1.15,3.36,2.11,2.91,3-.63,7.27,1.39,10.59.76-.12.76-1.15,1.08-1.79.95-2.3-.25-4.78-.82-7.02-.76-1.4-1.2-2.62-2.41-3.76.32-.13.45-.13.76-.13,1.33.89,2.79,1.91,3.86,3.32,1.84,3,2.79,6.57,2.47,10.46-.5,1.91-2.53,2.81-4.12,3.51-.63.51-1.39,1.28-1.71,2.04.76.45,1.84,0,2.6-.32,1.2-.45,1.9-1.98,2.73-2.68.12.06.06.26.12.38.06.7-.32,1.66.32,1.85.32-.89.38-2.17.57-3.25.82.9.95,2.04,1.2,3.19.57,1.15,1.52,2.68,3.04,2.87.38-.57-.06-1.15-.19-1.66-.19-1.6-1.52-2.42-2.41-3.57-2.22-3.06-1.2-7.85-2.91-11.29-.63-1.85-1.96-3.19-3.42-4.72l.25-.26c3.1-.06,5.7.96,8.55,1.53,3.48,1.72,8.55,1.34,10.2,5.87.7,2.55,1.84,4.91,3.61,6.89l.19-.13c.38-.64.38-1.72,0-2.36-.38-3.19-3.17-3.95-4.63-6.63l.19-.26c1.52.45,3.1.83,4.62,1.47,5.07,1.4,8.61,6.38,9.25,11.55,0,4.08-.76,7.46-2.34,10.91-.19.51-1.08,1.09-.51,1.53.7-.51.82-1.34,1.2-1.91,2.09-3.51,3.16-8.36,2.09-12.82-.06-.83-1.01-1.47-.57-2.3.32.38.7.44,1.08.57.38-.26.95-.26,1.2-.7.06-.38.31-.83,0-1.15-.38-.57-1.2-.57-1.84-.44-.32.38-.7.89-.76,1.4-.63-1.09-1.27-2.49-2.28-3.38l.13-.19c2.85.96,5.45,2.36,8.36,3.12.63.38,1.33.7,2.22.7,2.47.96,5.19,1.34,7.79,1.98,1.9-.19,3.48.7,5.38.25v-.13l-.06.06c-.7-.89-2.21-.06-3.04-.7-4.37-.45-8.55-1.59-12.48-3.12.06-.19.32-.13.51-.13.63-.32,1.08-.89,1.01-1.6-.32-.45-.82-.7-1.46-.7-.38.19-.89.64-.95,1.08.06.51.51,1.09.95,1.21-.13.13-.38.07-.57.07-1.96-.9-3.87-1.72-5.76-2.62-.7-.13-1.27-.7-1.96-.83-1.46-.7-2.91-1.4-4.37-1.98-4.05-2.11-8.55-3.25-12.85-4.78-.95-.26-1.84-.51-2.72-.77-1.58-.45-3.17-.83-4.75-1.28-5.38-1.34-12.6-1.47-17.29,1.47-.76-.26-1.2.96-1.58.19,1.33-3.51,5.19-4.66,8.68-4.78,25.4-.26,49.21-.45,74.23-.83,2.91,0,5.76-1.02,7.28-3.64,1.08-1.53,1.27-4.15.44-5.87h0ZM157.07,154.27c-.25.77-.76,1.4-.7,2.23l-.25.13c.19-.96-.76-1.53-.51-2.55-.51-.77-.51-1.72-.95-2.55-.57-1.02.5-1.47.95-2.17.89.38,1.2,1.21,1.84,1.98.38,1.08-.44,1.91-.38,2.93h0Z"/>
  <path d="M225.79,150.25c0,.19.38.25.25.57-2.22,1.98-5.32,2.55-8.49,2.68-.25.06-.51.25-.82.19-.19-.13-.25-.32-.13-.45,2.28-2.49,5.76-3.76,9.18-3h0Z"/>
  <path d="M215.59,151.27c.25.89-.32,1.4-1.01,1.72-.7-.06-1.07-.51-1.39-1.02-.19-.51.25-.76.45-1.08.5-.51,1.71-.51,1.96.38h0Z"/>
  <path d="M95.2,151.4c.13.45.06,1.02-.32,1.34-.25.32-.82.38-1.14.32-.44-.06-.7-.57-.82-.96,0-.57.32-.89.82-1.21.51,0,1.08-.06,1.46.51h0Z"/>
  <path d="M83.86,155.54v.45c-1.52.32-2.98-.06-4.12-.96-.89-1.28-1.9-2.55-3.36-3.19,0-.19-.38-.45,0-.58,3.17,0,5.07,2.55,7.47,4.27h0Z"/>
  <path d="M235.41,151.33c-1.46,2.17-2.72,4.85-5.32,5.8-.45,0-.82.64-1.21.19,1.01-2.43,3.17-5.04,5.64-6.06.25,0,.63-.06.88.06h0Z"/>
  <path d="M98.87,152.1c.06.7-.44.83-.89,1.21-.51.06-.76-.32-1.08-.7-.25-.64.32-.89.63-1.21.51-.13,1.08.25,1.33.7h0Z"/>
  <path d="M243.39,152.48c-.57.83-.32,2.04-.88,2.94-1.27,1.47-2.35,3.12-4.37,3.44-.32-.64.44-1.27.76-1.85.89-1.91,2.15-4.08,4.18-4.91l.32.38h0Z"/>
  <path d="M64.23,153.06c.19.45.38.89,0,1.4-.38.32-.95.44-1.46.25-.57-.32-.76-1.02-.51-1.53.38-.57,1.52-.89,1.96-.13h0Z"/>
  <path d="M60.62,153.82c.06.32.25.58.19.89-.19.32-.5.7-.88.77-.7.13-1.14-.25-1.46-.83-.06-.57.13-1.08.63-1.34.57-.26,1.21.06,1.52.51h0Z"/>
  <path d="M68.09,154.2c.13.51.25,1.4-.5,1.53-.89.39-1.39-.25-1.9-.76,0-.57.32-1.02.76-1.28.63-.06,1.2,0,1.65.51h0Z"/>
  <path d="M78.48,155.03c-.06.45.06,1.09-.44,1.21-.32.32-.89.19-1.2.13-.13-.38-.82-.7-.44-1.15.25-.32.51-.51.89-.7.38.19.95,0,1.2.51h0Z"/>
  <path d="M249.47,155.48c-.19.45-.44,1.02-.95,1.02-.57-.06-1.14-.13-1.45-.7-.25-.7.32-1.08.82-1.27.63,0,1.46.25,1.58.96h0Z"/>
  <path d="M237.88,155.8c.06.51-.51.89-.76,1.09-.89.38-1.65-.25-1.97-.96.13-.57.57-.96,1.08-1.15.82-.06,1.27.38,1.65,1.02h0Z"/>
  <path d="M245.74,155.67c0,.45-.25.89-.57,1.08-.51.19-1.14.13-1.52-.25-.57-.51-.13-.96.25-1.34.57-.32,1.65-.26,1.84.51h0Z"/>
  <path d="M62.58,156.76c.13.7-.13,1.34-.76,1.6-.57,0-1.2-.32-1.39-.89-.06-.57.12-1.15.63-1.34.63-.19,1.14.19,1.52.64h0Z"/>
  <path d="M234.72,157.46c.19.7-.19,1.34-.89,1.66-.51.13-.82-.13-1.2-.45-.25-.32-.57-1.02-.06-1.34.51-.96,1.77-.58,2.15.13h0Z"/>
  <path d="M96.65,158.16c.25.7-.5.83-.69,1.21-.25.13-.76.19-.95-.06-.32-.38-.7-.77-.51-1.34.32-.26.44-.51.82-.64.7-.19.95.45,1.33.83h0Z"/>
  <path d="M248.33,158.61c.13.45-.25.64-.32.96-.38.32-1.01.38-1.46.26-.57-.32-.57-.83-.57-1.4.38-.26.44-.58.89-.7.57,0,1.27.26,1.46.9h0Z"/>
  <path d="M244.41,158.8c.25.77-.44,1.15-.95,1.34-.25.06-.63-.13-.7.25,1.65.83,2.66,2.17,3.93,3.38v.51c-2.28-.06-4.62-.64-6.27-2.42-.44-.32-1.2-.32-1.71-.77.82-.83,2.34-.51,3.48-.57.82-.89-.95-1.53.13-2.3.38-.06.63-.45,1.14-.32.44.19.7.51.95.89h0Z"/>
  <path d="M218.5,158.86c.13.32-.25.7-.31,1.02-.38.38-.95.45-1.39.26-.32-.45-.83-.83-.63-1.47.51-.96,2.15-.76,2.34.19h0Z"/>
  <path d="M76.89,161.09c-.19.57-.45.96-1.08,1.02-.51-.06-.95-.25-1.14-.76-.06-.45.25-.7.32-1.02.7-.57,1.96-.19,1.9.77h0Z"/>
  <path d="M82.02,160.27c0,.89-.95,1.4-1.27,2.3-.95,2.1-2.66,4.02-5.07,4.21-.25-.57.82-1.28,1.08-1.85,1.01-2.17,3.04-3.32,4.88-4.66h.38Z"/>
  <path d="M216.98,161.16c.06.7-.57,1.21-1.08,1.47-.57.19-1.01-.26-1.33-.51-.51-.51-.19-1.02.06-1.53.76-.76,1.84-.13,2.34.57h0Z"/>
  <path d="M220.91,161.6c-.06.7-.51,1.21-1.14,1.4-.13-.19-.44-.06-.63-.13-.44-.25-.82-.64-.82-1.15.32-.32.45-.83.89-.89.57-.06,1.52,0,1.71.77h0Z"/>
  <path d="M91.84,161.54c.06.7-.44,1.08-.95,1.34-.57.07-.95-.32-1.2-.77-.13-.57.44-.96.76-1.27.76-.26.95.32,1.39.7h0Z"/>
  <path d="M96.21,161.79c-.19.57-.57.96-1.2,1.08-.44-.13-.95-.25-1.14-.77-.06-.64.44-.96.89-1.27.63,0,1.33.25,1.46.96h0Z"/>
  <path d="M234.53,166.26c.32.25.88.57.76,1.02-1.01.45-1.84-.7-2.78-.89-1.52-1.53-2.66-3.19-3.29-5.1.57-.58,1.2.13,1.71.32,1.46,1.21,2.85,2.81,3.61,4.66h0Z"/>
  <path d="M236.87,161.79c.19.45.13.96-.13,1.4-.38.64-1.2.51-1.77.38-.32-.38-.89-.89-.51-1.47.19-.51.76-.64,1.2-.83.44-.06.76.32,1.2.51h0Z"/>
  <path d="M102.04,163.45c.07.51.19,1.28-.44,1.6-.57.13-1.33-.06-1.52-.77-.32-.76.38-.89.76-1.27.51-.13.82.13,1.2.45h0Z"/>
  <path d="M220.72,167.6c.89,1.28,1.52,2.87,1.65,4.53-.19.45.32.89-.06,1.21h-.25c-2.85-2.04-3.48-4.91-4.56-7.78-.25-.13-.32-.38-.25-.64.63-.57,1.08.57,1.71.77l1.77,1.91h0Z"/>
  <path d="M110.27,165.43c-.06.06,0,.13.06.13-2.53,1.79-6.08,2.87-8.99,1.15-.06-.19.06-.51.32-.57,1.84-.58,3.61-1.47,5.57-1.21l3.04.51h0Z"/>
  <path d="M95.83,165.75c-2.15,1.34-4.11,3.95-6.78,4.59-.51.19-.82.89-1.45.51,1.14-3.45,4.88-5.29,8.23-5.61v.51h0Z"/>
  <path d="M216.98,168.62c.19.51,0,1.21-.51,1.34-.32.32-.95.32-1.2,0-.57-.26-.57-.83-.57-1.28.19-.44.63-.51.95-.7.57.13,1.01.13,1.33.64h0Z"/>
  <path d="M211.73,168.94c-.38.89-1.46,1.4-2.28,1.66-2.15.77-4.12-.25-6.02-.76.06-.51.7-.32,1.01-.64,2.09-.45,4.24-.89,6.46-.32.19-.13.63-.19.82.06h0Z"/>
  <path d="M95.83,170.79c-.19.25-.25.83-.76,1.02-.44.19-.88,0-1.26-.25-.13-.39-.57-.7-.25-1.15.13-.45.63-.57,1.01-.7.63.06,1.14.45,1.27,1.09h0Z"/>
  <path d="M99.57,171.36c-.19.38-.38.96-.88,1.21-.51.13-.89-.13-1.27-.45-.19-.39-.38-.83-.19-1.28.13-.32.57-.38.89-.57.63-.06,1.2.57,1.46,1.09h0Z"/>
  <path d="M215.78,172c.06.51-.19.83-.44,1.21-.32.45-.95.51-1.39.26-.44-.07-.57-.58-.76-.89-.38-.51.25-.83.45-1.28.69-.58,1.84-.26,2.15.7h0Z"/>
  <path d="M218.57,171.87c.06.32.25.64.13.89-.38.32-.63,1.15-1.39.83-.38.12-.57-.38-.76-.51-.25-.64-.06-1.59.76-1.72.57-.19.95.32,1.27.51h0Z"/>
  <path d="M97.29,173.72c.12.7-.13,1.34-.64,1.72-.69.13-1.58.13-1.84-.7-.06-.64,0-1.47.76-1.85.63-.06,1.39.06,1.71.83h0Z"/>
  <path d="M100.9,173.47c-.13,1.78-.51,3.95-2.28,4.97-1.01.19-2.03,1.15-3.04.51v-.32c1.33-1.91,3.74-3.38,5.32-5.17h0Z"/>
  <path d="M205.84,174.93c.25.38-.19.7-.38,1.02-.38.44-1.08.25-1.52.06-.45-.19-.51-.83-.32-1.28.13-.38.51-.57.82-.7.57-.06,1.08.45,1.39.89h0Z"/>
  <path d="M107.23,177.87c.88,1.47.38,3.45.88,5.04-1.08.13-1.52-1.09-2.22-1.72-1.39-1.91-1.2-4.47-1.84-6.7.13-.19.32-.19.44-.13.95.64,1.65,1.85,2.41,2.68-.13.45.38.45.32.83h0Z"/>
  <path d="M209,175.45c0,.51-.57.64-.89.96-.44-.06-.82-.25-1.2-.57-.19-.64.32-.83.63-1.15.63-.26,1.27.06,1.46.76h0Z"/>
  <path d="M216.54,181.12c0,.19-.06.57-.38.44h-.25c-1.84-1.66-3.67-3.51-3.42-6.06l.38-.06c1.71,1.47,3.61,3.06,3.67,5.68h0Z"/>
  <path d="M211.79,179.08c.06.51-.25.9-.57,1.21-.7.19-1.77.13-1.9-.83-.06-.64.63-.96.95-1.28.76-.19,1.27.32,1.52.89h0Z"/>
  <path d="M207.61,180.42c-.89,2.36-3.29,3.57-4.94,5.36-.32-.19-.19-.7-.13-.96.63-2.42,2.53-4.78,4.88-5.74,1.01.13,0,.83.19,1.34h0Z"/>
  <path d="M212.36,182.33c0,.57-.57.83-.89,1.15-.51-.06-1.01-.19-1.39-.7-.06-.64.44-.83.82-1.15.63-.13,1.2.19,1.46.7h0Z"/>
  <path d="M165.24,66.53c.87,0,1.57.71,1.57,1.58s-.7,1.58-1.57,1.58h-18.78c-.86,0-1.57-.71-1.57-1.58s.7-1.58,1.57-1.58h18.78ZM151.96,69.26c1.84,0,.1-2.23-.89-2.23h-1.83c-1.84,0-.1,2.23.88,2.23h1.84ZM159.65,69.26c1.84,0,.1-2.23-.89-2.23h-1.83c-1.84,0-.1,2.23.89,2.23h1.83ZM165.32,67.03h-.7c-1.84,0-.28,2.23.71,2.23,1.23,0,1.3-2.23,0-2.23h0Z"/>
  <path d="M163.59,88.08l3.59,1.38,3.53-1.38-1.4,5.28,2.79-.58-.95,3.2.95,3.07-2.48-.67,1.08,5.7-3.53-1.38-3.59,1.38,1.46-5.7-2.86.8.76-3.2-.76-3.07,2.73.45-1.34-5.28h0ZM168.89,97.6c.81,0,.88-1.11.88-2.07,0-2.18-1.72,0-2.61-2.05-.64,1.73-2.41.13-2.41,1.99,0,1.28,0,2.13,1.26,2.13h2.88ZM165.37,95.64c0,.83,1.11.28,1.94.28s1.94.56,1.94-.28c0-1.18-1.11-.77-1.94-.77s-1.94-.41-1.94.77h0Z"/>
  <polygon points="155.19 95.85 155.19 95.18 154.59 95.06 155.06 94.57 154.77 94.03 155.38 94.1 155.76 93.44 156.12 94.09 156.75 94.03 156.45 94.57 156.93 95.06 156.32 95.18 156.32 95.85 155.76 95.42 155.19 95.85 155.19 95.85"/>
  <polygon points="152.41 99.43 152.41 98.76 151.8 98.65 152.28 98.16 151.98 97.62 152.6 97.68 152.97 97.03 153.34 97.68 153.96 97.62 153.67 98.16 154.14 98.65 153.54 98.76 153.54 99.43 152.97 99.01 152.41 99.43 152.41 99.43"/>
  <polygon points="157.13 98.98 157.13 98.31 156.53 98.19 157 97.7 156.71 97.16 157.33 97.23 157.7 96.57 158.06 97.22 158.69 97.16 158.4 97.7 158.87 98.19 158.27 98.31 158.27 98.98 157.7 98.55 157.13 98.98 157.13 98.98"/>
  <polygon points="157.69 101.66 157.69 101.28 157.35 101.21 157.62 100.94 157.45 100.63 157.8 100.67 158.01 100.3 158.21 100.66 158.57 100.63 158.4 100.94 158.67 101.21 158.33 101.28 158.33 101.66 158.01 101.41 157.69 101.66 157.69 101.66"/>
  <polygon points="153.3 104.72 153.3 103.57 152.27 103.38 153.08 102.53 152.58 101.61 153.63 101.72 154.27 100.6 154.9 101.71 155.97 101.61 155.47 102.53 156.27 103.38 155.24 103.57 155.24 104.72 154.27 103.99 153.3 104.72 153.3 104.72"/>
  <polygon points="155.54 44.55 157.76 50.03 163.41 48.37 160.55 53.55 165.36 56.96 159.55 57.93 159.91 63.85 155.54 59.88 151.16 63.85 151.51 57.93 145.71 56.96 150.52 53.55 147.66 48.37 153.3 50.03 155.54 44.55 155.54 44.55"/>
  <path d="M135.1,167.56c-.67.25-.93.44-.77,1.13l.8,3.36c.15.62.19,1.6-.22,2.2-.49.72-1.54,1.18-2.29,1.36-.55.13-1.75.36-2.71-.05-.63-.27-1.05-.56-1.32-1.7l-.83-3.52c-.21-.88-.54-.83-1.26-.72l-.06-.26,4.25-1.02.06.26c-.82.23-1.21.34-.99,1.26l.83,3.52c.14.6.49,2.06,2.3,1.62,2.21-.53,1.85-2.15,1.69-2.82l-.76-3.22c-.15-.64-.39-.97-1.48-.75l-.06-.27,2.76-.66.06.26h0Z"/>
  <path d="M141.39,168.27c-.39-.69-1.41-1.74-2.9-1.41-.66.15-1.28.62-1.13,1.31.13.57.42.75,1.58.96l2.02.36c.47.08,1.56.48,1.82,1.64.2.93-.32,2.39-2.64,2.91-1.2.27-1.85.04-2.24.12-.27.06-.29.27-.3.44l-.37.08-.58-2.61.36-.08c.49,1.01,1.49,2.04,3.08,1.69,1.51-.34,1.35-1.4,1.31-1.54-.15-.71-.8-.83-1.7-.98l-.92-.15c-2.35-.39-2.55-1.3-2.65-1.78-.14-.65-.07-2.17,2.33-2.71,1.01-.22,1.68,0,2.05-.09.29-.07.32-.24.34-.45l.38-.08.51,2.3-.35.08h0Z"/>
  <path d="M149.75,172.44l-4.59.44-.02-.27c.93-.16,1.24-.21,1.15-1.11l-.54-5.69c-.89.13-2.21.31-2.31,2.06l-.37.04-.17-2.17,7.72-.74.23,2.17-.37.04c-.42-1.7-1.75-1.63-2.64-1.59l.54,5.69c.09.92.4.91,1.36.87l.02.27h0Z"/>
  <path d="M160.49,172.44l-2.65-.05-2.6-3.45h-.35s-.04,2.12-.04,2.12c-.02.87.27.9,1.12,1.02v.27s-4.37-.09-4.37-.09v-.27c.88-.07,1.14-.1,1.16-.97l.09-4.79c.02-.93-.38-.96-1.11-1.02v-.27s4.16.08,4.16.08c.9.02,3.64.16,3.6,1.98-.03,1.33-1.36,1.65-2.06,1.81l2.54,3.14c.18.2.37.21.52.22v.27h0ZM154.9,168.59c1.69.02,2.37-.2,2.39-1.61.02-1.1-.5-1.57-1.53-1.59-.71-.01-.74.11-.81.44l-.05,2.76h0Z"/>
  <path d="M168.97,173.53l-4.15-.52.03-.27c.8.05,1.03.06,1.08-.29.04-.29-.28-1.14-.41-1.5l-2.88-.36c-.45.73-.71,1.14-.74,1.32-.05.41.56.52.99.59l-.03.27-2.6-.33.04-.27c.7,0,.93-.34,1.41-1.1l3.58-5.54.36.04,2.16,6.02c.43,1.22.59,1.62,1.21,1.67l-.03.27h0ZM165.38,170.5l-.97-2.77-1.53,2.46,2.5.31h0Z"/>
  <path d="M176.49,175.06l-7.35-1.35.05-.27c.73.05,1.11.09,1.23-.56l.94-5.16c.13-.7-.39-.82-.96-.96l.05-.27,4.44.82-.05.27c-.9-.13-1.29-.19-1.46.75l-.91,5.03c-.09.51.17.65,1.02.81,1.92.35,2.79-.4,3.59-1.5l.37.07-.96,2.32h0Z"/>
  <path d="M181.36,176.16l-4.42-.93.06-.27c.69.09,1.19.15,1.33-.51l1.06-5.13c.14-.7-.45-.85-1.02-1l.05-.26,4.43.93-.06.27c-.6-.1-1.21-.22-1.36.5l-1.06,5.13c-.14.68.36.82,1.04,1.01l-.05.27h0Z"/>
  <path d="M190.34,177.31l-4.17-.43.03-.27c.8.03,1.04.04,1.07-.31.03-.29-.3-1.13-.44-1.5l-2.89-.3c-.44.74-.69,1.16-.71,1.33-.04.41.57.51,1.01.57l-.03.27-2.61-.27.03-.27c.7-.01.92-.36,1.39-1.13l3.46-5.61.36.04,2.29,5.97c.46,1.21.63,1.6,1.25,1.65l-.03.27h0ZM186.68,174.35l-1.03-2.76-1.48,2.49,2.51.26h0Z"/>
  <path d="M157.32,89.83c0-2.61-1.46-.17-2.27-2.38-.59,1.87-2.35.3-2.35,2.31,0,.77.2,1.21.57,1.46v.77c0,.2.16.36.36.36h2.77c.2,0,.36-.16.36-.36v-.83c.33-.28.56-.74.56-1.33h0ZM155.06,90.33c-.76,0-1.78.52-1.78-.38,0-1.28.87-.99,1.63-.99s1.94-.29,1.94.99c0,.9-1.02.38-1.78.38h0Z"/>
  <path d="M179.98,121.79c.66,0,1.2-.47,1.2-1.05s-.53-1.05-1.2-1.05-1.19.47-1.19,1.05.53,1.05,1.19,1.05h0Z"/>
  <path d="M174.36,83.21s-.56.94-.56,1.12c0,.34.26.62.57.62s.57-.28.57-.62c0-.02-.58-1.12-.58-1.12h0Z"/>
  <path d="M136.11,83.21s-.56.94-.56,1.12c0,.34.25.62.57.62s.57-.28.57-.62c0-.02-.58-1.12-.58-1.12h0Z"/>
  <path d="M145.67,83.21s-.56.94-.56,1.12c0,.34.25.62.57.62s.57-.28.57-.62c0-.02-.58-1.12-.58-1.12h0Z"/>
  <path d="M155.24,83.21s-.56.94-.56,1.12c0,.34.25.62.57.62s.57-.28.57-.62c0-.02-.58-1.12-.58-1.12h0Z"/>
  <path d="M164.8,83.21s-.56.94-.56,1.12c0,.34.25.62.57.62s.57-.28.57-.62c0-.02-.58-1.12-.58-1.12h0Z"/>
  <path d="M136.13,96.34s.56.94.56,1.12c0,.35-.25.62-.57.62s-.57-.28-.57-.62c0-.02.58-1.12.58-1.12h0Z"/>
  <path d="M136.13,109.1s.56.94.56,1.12c0,.34-.25.62-.57.62s-.57-.28-.57-.62c0-.02.58-1.12.58-1.12h0Z"/>
  <path d="M137.66,119.2s.56.94.56,1.12c0,.34-.26.62-.57.62s-.57-.28-.57-.62c0-.02.58-1.12.58-1.12h0Z"/>
  <path d="M145.68,124.57s.56.94.56,1.12c0,.34-.25.62-.57.62s-.57-.28-.57-.62c0-.02.58-1.12.58-1.12h0Z"/>
  <path d="M174.85,96.34s-.56.94-.56,1.12c0,.35.25.62.57.62s.57-.28.57-.62c0-.02-.58-1.12-.58-1.12h0Z"/>
  <path d="M174.85,109.1s-.56.94-.56,1.12c0,.34.25.62.57.62s.57-.28.57-.62c0-.02-.58-1.12-.58-1.12h0Z"/>
  <path d="M173.32,119.2s-.56.94-.56,1.12c0,.34.25.62.57.62s.57-.28.57-.62c0-.02-.58-1.12-.58-1.12h0Z"/>
  <path d="M165.3,124.57s-.56.94-.56,1.12c0,.34.25.62.57.62s.57-.28.57-.62c0-.02-.58-1.12-.58-1.12h0Z"/>
  <path d="M155.53,130.26s-.56.94-.56,1.12c0,.34.25.63.57.63s.57-.28.57-.63c0-.02-.58-1.12-.58-1.12h0Z"/>
  <path d="M171.09,111.23c.12.18.42.24.8.11l.36-1.03c.03-.07-.42-.48-.68-.41-1.02.24-2.1.36-2.71,1.33,0,.67.48,1.27.96,1.57.36-.12.42.24.66.42.06.3-.12.55-.42.55-.72-.73-1.98.24-2.53-.67.24-.91.72-1.94-.06-2.79.06-.18.36-.36.18-.55-.3-.85-1.2-.18-1.74-.18-.9-.12-1.62.36-2.17,1.09.06.3.18.61.48.91.24-.06.36,0,.42.24l-.6.36c.18.18.18.42.24.67-.42.18-.84-.42-1.02-.73,0-.48.06-1.33-.6-1.45-.12,0-.52.18-.52.18-.15.18-.25.56-.25,1s.24,1.08.24,1.08c0,0,1.85,1.38,2.28,2.22-.54,1.09-.54,2.6-1.8,3.21-.36.24-.36.61-.36.97l.3.24c.78-.42,2.29-.55,2.17-1.88.3-.55.6-1.15,1.14-1.58.6-.12,1.15.18,1.38.66-.18.91-.78,1.52-1.62,1.82-.12.12-.06.3-.06.49.24.42.9.24,1.26.18,1.02-.67,1.45-1.88,2.35-2.24.12.61-1.2.79-.36,1.39.54-.12,1.26.06,1.62-.67-.42-1.03,1.44-1.51.3-2.42,0-.91.96-1.27.9-2.24-.36-.97-1.5-.97-1.8-1.88.36-.24.9-.18,1.26,0h0Z"/>
  <path d="M127.15,122.25c.66,0,1.19-.47,1.19-1.05s-.54-1.05-1.19-1.05-1.19.47-1.19,1.05.53,1.05,1.19,1.05h0Z"/>
  <path d="M65.12,158.49c.65,0,1.17-.51,1.17-1.13s-.53-1.13-1.17-1.13-1.17.51-1.17,1.13.52,1.13,1.17,1.13h0Z"/>
  <path d="M104.6,167.29h-.08l-.08-.1h-.01v.06s0,.03.03.03h0s-.13,0-.13,0h0s.03-.01.03-.04v-.14s-.01-.03-.03-.03h0s.12,0,.12,0c.03,0,.11,0,.11.06,0,.04-.04.05-.06.05l.07.09s.01,0,.01,0h0ZM104.43,167.18s.07,0,.07-.05c0-.03-.02-.05-.04-.05-.02,0-.02,0-.02.01v.08h0Z"/>
  <path d="M104.76,167.14s-.03-.06-.07-.06c-.02,0-.04.01-.04.03,0,.02,0,.02.04.04l.06.02s.04.03.04.06-.02.07-.09.07c-.03,0-.05-.01-.06-.01,0,0-.01,0-.01.01h-.01v-.08h.01s.03.07.08.07c.04,0,.05-.03.05-.04,0-.02-.02-.03-.04-.04h-.03c-.06-.04-.06-.06-.06-.08,0-.02.01-.06.08-.06.03,0,.05.01.06.01,0,0,.01,0,.01-.01h.01v.07h-.01Z"/>
  <path d="M105.16,167.08s-.02,0-.03.02l-.07.19h-.01l-.06-.15h0l-.07.15h0l-.08-.19s-.01-.02-.03-.02h0s.11,0,.11,0h0s-.02.01-.02.02c0,0,0,0,0,.01l.05.11h0l.04-.1v-.03s-.02,0-.04-.01h0s.12,0,.12,0h0s-.03,0-.03.02c0,0,0,.01,0,.02l.04.11h0l.04-.11s0,0,0-.01c0-.01-.01-.01-.03-.02h0s.07,0,.07,0h0Z"/>
  <path d="M105.17,167.28s.08-.02.1-.08c0,0,0,0-.02,0,0,0-.01,0-.02,0-.03,0-.07-.01-.07-.07,0-.02.01-.07.08-.07.03,0,.09.02.09.09,0,.06-.05.12-.17.13h0ZM105.26,167.2s.02,0,.02,0c0,0,0-.02,0-.03,0-.06,0-.08-.03-.08-.02,0-.02.02-.02.05,0,.05,0,.07.03.07h0Z"/>
  <path d="M105.39,167.14s.06,0,.08.01c.02,0,.04.03.04.06,0,.04-.04.07-.11.07-.03,0-.05,0-.05-.03,0,0,0-.02.02-.02.03,0,.05.03.07.03.01,0,.04,0,.04-.03,0-.02-.02-.03-.04-.04-.03-.01-.05-.01-.08-.01l.04-.11h.12l-.02.04h-.1v.03h0Z"/>
  <path d="M177.54,81.7v-.02h-44.14v.02h0l.03,33.73c0,3.44,1.46,6.45,3.47,7.37l16.97,10.78c.37.43.93.7,1.55.7.54,0,1.02-.21,1.38-.54l17.24-10.94c2.01-.93,3.47-3.93,3.47-7.37l.03-33.73h0ZM176.3,115.88c-.23,2.55-1.1,4.68-2.86,5.88l-16.64,10.58h-.09c-.35.28-.79.45-1.28.45s-.95-.18-1.3-.47l-16.61-10.56c-1.76-1.2-2.63-3.33-2.87-5.88v-33h41.65v33h0Z"/>
  <path d="M161.41,130.86l.54-.26c-.22.08-.39.17-.54.26h0Z"/>
  <path d="M128.12,176.96l-4.16.48-.03-.27c.79-.15,1.02-.18.98-.54-.03-.29-.54-1.04-.76-1.36l-2.89.34c-.27.82-.43,1.28-.41,1.45.05.41.67.37,1.11.34l.03.27-2.61.3-.03-.27c.68-.17.82-.55,1.11-1.41l2.17-6.23.36-.04,3.51,5.33c.71,1.09.96,1.43,1.57,1.34l.03.27h0ZM123.92,174.87l-1.6-2.46-.91,2.76,2.5-.29h0Z"/>
  <path d="M201.21,161.16c-.76-1.98-2.34-3.32-4.31-3.95-2.03-.45-4.18-.13-5.51,1.4-2.28,1.85-.7,4.91-.63,7.4,0,.51.06.89-.45,1.15-9.18-.83-17.73-3.13-26.85-4.08-2.1-.36-4.2-.27-6.19-.69l-2.55-.27c-7.92.26-15.83.7-23.24,2.62-1.58.51-3.36.64-4.94,1.21-1.14-.19-2.09.64-3.17.32l-2.08.49c-.2.03-.43.02-.7-.04-1.01-2.61,2.03-4.21,1.08-6.76-.82-1.47-2.47-2.87-4.37-2.61-2.15-.26-4.05.96-5.07,2.61-1.45,3.19.38,6.51.95,9.63-.13,1.02,1.01,2.17,0,3-2.03-1.4-4.69-2.17-7.16-1.47-.76.38-2.15-.13-2.53.77,2.72,1.47,6.21,1.28,9.24,1.15.38-.13.63-.19.95.06.25,1.66-.32,3.89.7,5.36,1.14,1.53,3.04,1.91,4.87,2.11,5.83-.19,11.02-1.91,16.34-3.25.82-.06,1.46-.51,2.34-.51,2.85-.64,5.95-1.15,8.99-1.21-1.33,1.72-2.09,3.63-2.66,5.74-.76,1.72,1.33,1.98,1.96,2.93-1.96.57-3.36,1.91-5.19,2.68-4.05-.13-7.47,1.4-11.27,1.85-.06.83,1.33.58,1.46,1.4-.19.57-.76.64-1.2.96-.06.38,0,.45.38.51.38-.45,1.2-.13,1.58-.58,1.27,0,2.34-.38,3.55-.45,1.08-.45,2.28-.51,3.23-1.28,1.33-.38,2.15-1.28,3.48-1.66,1.9,0,3.61-.64,5.38-.77v.38c-1.46,2.36-2.98,4.78-4.5,7.02-.25.45.06.89.44,1.02.89.26,1.77,0,2.47-.38,1.33-2.3,2.53-4.47,3.61-6.82.44-2.17,2.03-3.32,3.61-4.79.25-.13.63-.51.89-.13-1.27,1.47-2.09,2.87-3.04,4.46-.51,1.79-.64,4.08.95,5.55.76.64,1.9.45,2.91.51,2.47-1.28,5.64.77,7.54-1.66,1.14-.19,1.33,1.15,1.96,1.79,1.08.32,2.22,1.4,3.29.64-.06-.7-.82-1.34-1.2-1.98-.76-1.34-1.71-2.42-2.41-3.64-.32-.89-.89-1.47-1.01-2.36,1.14.38,2.15,1.15,3.42,1.34,1.08.45,2.41.38,3.42,1.02.82,1.08,2.09,1.72,3.17,2.42,1.58.77,3.36.89,5,1.53.63.06,1.59.57,2.03,0-.25-.32-.57-.51-.95-.7-.19-.83,1.14-.38,1.58-1.02-.16-.31-.43-.44-.74-.48-.91-.49-3.16-.66-3.76-.99-.76-.13-1.46-.45-2.21-.7-3.8,0-5.89-3.44-8.93-4.72.7-.64,1.77-1.15,2.22-2.11.57-.89.76-2.36.19-3.38-.57-1.98-3.1-1.72-4.56-2.81l.19-.19c2.47-.13,4.62.45,6.84.89,6.08.83,11.72,3.13,18.05,3.25,3.48,0,7.85.19,9.56-3.19.32-1.98.7-3.95,1.01-5.93.76-3.19,2.85-6.12,2.53-9.63h0ZM132.82,190.24l-.88-.83c.44-.58,1.39-.26,2.09-.64,1.65-.51,3.55-1.15,5.38-.76-1.9,1.53-4.37,1.72-6.59,2.23h0ZM172.36,189.23c1.51.68,4.56,1.35,6.75,1.6-.2.87-1.74.05-1.56,1.27-1.96-.77-4.24-1.15-5.7-2.68.13-.07.25-.26.51-.19h0ZM112.93,162.11c.19-1.15.44-2.36,1.52-3.19,1.52-.83,3.61-.64,5.01.19.44.25.76.64,1.02,1.21.31,1.08-.19,2.23-.95,2.87h-.63c0-1.02,0-2.04.38-2.87-.06-.77-.7-.83-1.2-1.15-1.08-.32-2.03.19-2.85.64-.63.76-1.2,1.72-.82,2.81.44.7.06,1.66.31,2.42l-.19.25c-.76-.83-1.77-1.72-1.58-3.19h0ZM115.91,163.94c.95.7,2.28.38,3.42.57.19.7.19,1.6-.32,2.17-1.08-.26-2.47-.13-3.04-1.15.13-.45-.19-1.09-.06-1.6h0ZM115.72,161.79c.19-.51,0-1.28.7-1.4.44-.13,1.14-.13,1.2.38-.06.77-.13,1.53-.32,2.23-.89.06-1.33-.45-1.58-1.21h0ZM145.42,182.27c-.31-2.23.57-4.15,2.03-5.74.88-.19,1.9-.38,2.72.13-1.65.45-3.74.83-4.12,2.93.06.83-.19,1.28.19,1.98.7,1.21,2.28.7,3.17,1.66,0,.32-.25.7-.57.76-1.08-.64-2.41-.89-3.42-1.72h0ZM143.14,186.67c1.52-.64,3.1-1.98,4.81-1.4-1.2.96-3.17,1.34-4.81,1.4h0ZM149.16,187.31c-.89,2.04-1.9,4.02-3.1,6-.13.32-.63.38-1.01.45,0-.89.89-1.6,1.27-2.36,1.33-1.72,1.71-3.57,3.23-5.23.38.38-.38.64-.38,1.15h0ZM150.74,183.61v.25h-.13v-.32h.25c-.06,0-.19,0-.25.06h.13ZM150.17,181.89c-1.08-.13-2.09-.45-3.04-.76-.63-.64,0-1.34,0-2.04.89-1.4,3.42-2.1,4.62-.83-.19,1.4-.7,2.62-1.58,3.64h0ZM151.56,181.89c.19-.83.57-1.91,1.01-2.68-.06.83-.44,1.98-1.01,2.68h0ZM152.26,176.72c-.82-.19-1.27-1.15-2.15-1.15.76-.26,1.52-.19,2.41-.07.32.45-.19.83-.25,1.21h0ZM153.02,178.64h-.06v-.7h.06v.7h0ZM153.08,181.57c-.06-.25.13-.57.19-.89.32-.32.63.26.76.45-.19.32-.57.51-.95.44h0ZM154.03,177.61c.32-.89.38-1.66.95-2.36.63,0,1.2,0,1.71.26.13,1.28,1.71,3,0,4.08-.57.26-1.39.83-2.03.26-.82-.7-.95-1.34-.63-2.23h0ZM158.66,175.83c-.13-.58.57-.13.82-.38l1.96.13c-1.02-.13-2.28,2.23-2.79.25h0ZM161.82,176.66c-.76.26-1.33,1.15-2.09,1.34.38-.7,1.33-1.4,2.09-1.34h0ZM159.16,180.61v.19h-.06v-.19h.06ZM159.29,184.5c-.06.13.06.32-.13.45l-1.46-1.15c.7-.13,1.2.19,1.58.7h0ZM157.58,182.53c.13-.13.44-.13.57,0h-.57ZM156.69,181.57c.25-.38.57-.96,1.01-.96,0,.06.06.13.13.19-.38.32-.7.64-1.14.76h0ZM155.24,181.44h-.25l.38-.38c.19.13-.06.26-.13.38h0ZM155.43,183.86c.82-.89,1.58.51,1.9,1.21.95,1.4,3.42,2.68,2.47,4.59-1.21,1.09-3.1.06-4.43.89-.7-.06-1.9.13-2.28-.57.7-2.04,1.33-4.34,2.34-6.12h0ZM153.65,185.08l.32-.51c-.51,1.53-1.27,3.13-2.09,4.59-.38-1.53,1.21-2.74,1.78-4.08h0ZM156.44,192.67c-1.2.06-3.04.77-4.18-.25.06-.51-.51-.77-.44-1.28,1.01-.38,1.9.83,2.85-.06,1.46.06,2.98-.19,4.43.13.7.19,1.77-1.15,1.9.19-.51,2.1-3.04.64-4.56,1.28h0ZM160.11,183.48v-.19h.13v.19h-.13ZM160.49,187.5c.06.64.7.89.32,1.47-.13-.25-.51-.83-.32-1.47h0ZM162.27,191.33l-.32.13c-.32-.26-.19-.96-.13-1.34.38.32.7.76.44,1.21h0ZM165.43,192.86c-.06.19-.38.19-.51.06-1.9-2.42-2.79-4.98-3.99-7.65l.25-.06c1.52,2.49,2.72,5.23,4.24,7.65h0ZM167.78,186.99c-.13.06-.13.19-.13.26-1.84.06-3.04-1.02-4.43-1.98l-.07-.32c1.71.13,3.1,1.21,4.62,2.04h0ZM166.13,178.51c.76.19.82,1.02.89,1.66-.06,1.4-.82,2.62-2.15,3.13-.7.38-1.77.51-2.47.25,1.52-.06,3.17-.64,3.8-2.17l-.06-2.87h0ZM164.74,178.25c.32.89.89,1.72.57,2.81-.63,1.21-1.9,1.21-3.04,1.47-.57.06-1.01-.13-1.46-.45.06-.26-.06-.45-.25-.64.19-.83-1.46-1.66-.32-2.36,1.01-.96,3.42-3.12,4.5-.83h0ZM196.91,173.6c-.51.64-.06,1.66-.7,2.23,0,1.15-.95,1.72-1.77,2.17-7.54,1.66-14.95-.89-22.23-2.17-10.2-2.23-22.1-2.87-32.49-.51-4.88.89-9.63,2.04-14.31,3.38-2.91.38-6.08.83-8.87-.06-2.28-1.09-1.33-4.02-2.03-6.06.13-1.6-.44-2.87-.5-4.4-.19-.51-.32-1.15-.25-1.66.95.13,1.9.83,2.91,1.09,5.32,1.02,10.07-.7,15.01-1.6,4.75-1.02,9.63-1.85,14.63-2.23,5.7-.06,11.53-.38,16.97.58,1.77.06,3.29.51,5,.64,3.55.45,6.84,1.4,10.45,1.66.57.19,1.27.19,1.9.32,5.7.89,12.1,2.49,17.54,0,0,2.3-.95,4.4-1.27,6.63h0ZM195.14,165.81c.06,1.02-.89.76-1.39,1.15h-1.52c-.32-.51-.19-1.28-.19-1.79,1.01.19,2.15.19,3.1.64h0ZM194.44,164.22c.7-.7-.19-4.72,1.77-2.11,0,.51.06,1.28-.45,1.66-.32.26-.82.77-1.33.45h0ZM199.57,163.58c-.57,1.15-1.46,1.98-2.72,2.17.06-1.53,1.46-2.62.95-4.34-.82-1.21-2.47-1.59-3.99-1.27-.57.38-.32,1.02-.51,1.6l-.25,2.1c-1.27,0-1.33-1.15-1.71-2.04.06-1.34.63-2.68,1.96-3.32,1.01-.51,2.66-.45,3.67.13.82.19,1.78.57,2.09,1.34.95.89.7,2.49.51,3.63h0Z"/>
  <rect x="277.57" y="139.23" width="639.22" height="1.15"/>
  <path class="cls-1" d="M277.57,183.69v-.69h.84c.74,0,1.3-.11,1.68-.34.4-.24.69-.56.88-.95.11-.26.17-1.05.17-2.36v-16.69c0-1.3-.07-2.11-.21-2.43-.14-.32-.42-.6-.84-.84-.41-.25-.97-.37-1.68-.37h-.84v-.69h11.36c3.03,0,5.47.41,7.32,1.23,2.26,1.01,3.97,2.54,5.13,4.58,1.17,2.05,1.76,4.36,1.76,6.94,0,1.78-.29,3.43-.86,4.94-.57,1.5-1.32,2.74-2.23,3.72-.91.97-1.96,1.76-3.16,2.36-1.19.59-2.64,1.04-4.36,1.37-.76.15-1.96.22-3.59.22h-11.36ZM287.24,159.76v19.8c0,1.05.05,1.69.15,1.93.1.24.27.42.51.54.34.19.82.28,1.46.28,2.08,0,3.67-.71,4.77-2.13,1.5-1.92,2.25-4.9,2.25-8.94,0-3.26-.51-5.86-1.53-7.8-.81-1.52-1.85-2.56-3.12-3.11-.9-.39-2.39-.57-4.47-.56h0Z"/>
  <path class="cls-1" d="M319.89,174.32h-9.6c.11,2.32.73,4.15,1.85,5.5.86,1.04,1.9,1.55,3.11,1.55.75,0,1.43-.21,2.04-.62.61-.42,1.27-1.18,1.96-2.26l.64.41c-.95,1.93-2,3.31-3.14,4.12-1.15.8-2.48,1.2-3.99,1.2-2.6,0-4.56-1-5.89-2.99-1.07-1.61-1.61-3.6-1.61-5.99,0-2.92.79-5.24,2.36-6.96,1.58-1.73,3.44-2.6,5.56-2.6,1.77,0,3.31.73,4.6,2.19,1.31,1.45,2.01,3.6,2.11,6.46h0ZM315.29,173.06c0-2.01-.11-3.39-.34-4.14-.21-.75-.55-1.32-1.01-1.7-.26-.22-.61-.34-1.05-.34-.65,0-1.18.32-1.59.95-.74,1.11-1.1,2.63-1.1,4.57v.65h5.09Z"/>
  <path class="cls-1" d="M328.09,181.92v6.51c0,.9.07,1.51.21,1.83.15.32.37.56.67.71.3.15.89.22,1.76.22v.69h-9.97v-.69c.77-.02,1.35-.24,1.72-.65.25-.29.37-1.03.37-2.23v-18.47c0-1.23-.14-2.02-.43-2.36-.29-.35-.84-.55-1.67-.6v-.69h7.33v2.3c.61-.9,1.23-1.55,1.87-1.95.91-.59,1.9-.88,2.97-.88,1.28,0,2.45.41,3.5,1.22,1.06.81,1.86,1.93,2.41,3.37.55,1.42.82,2.96.82,4.6,0,1.77-.29,3.39-.86,4.86-.56,1.46-1.38,2.58-2.47,3.35-1.07.76-2.27,1.14-3.59,1.14-.96,0-1.86-.21-2.69-.64-.62-.32-1.28-.88-1.96-1.67h0ZM328.09,180.03c1.07,1.52,2.22,2.28,3.44,2.28.67,0,1.23-.36,1.67-1.07.65-1.05.97-3.04.97-5.99,0-3.02-.36-5.08-1.07-6.19-.47-.74-1.11-1.1-1.91-1.1-1.26,0-2.3.91-3.11,2.73v9.34h0Z"/>
  <path class="cls-1" d="M351.51,181.11c-2.13,1.88-4.05,2.82-5.74,2.83-1,0-1.83-.32-2.49-.97-.66-.66-.99-1.48-.99-2.47,0-1.33.57-2.53,1.72-3.59,1.15-1.07,3.65-2.49,7.5-4.27v-1.76c0-1.32-.07-2.15-.22-2.49-.14-.35-.41-.65-.8-.9-.4-.26-.85-.39-1.35-.39-.81,0-1.48.18-2,.54-.33.22-.49.49-.49.79,0,.26.17.59.52.97.47.54.71,1.05.71,1.55,0,.61-.23,1.14-.69,1.57-.45.42-1.04.64-1.78.64-.79,0-1.45-.24-1.98-.71-.52-.47-.79-1.03-.79-1.67,0-.9.36-1.75,1.07-2.56.71-.82,1.7-1.45,2.98-1.89,1.27-.44,2.59-.65,3.97-.65,1.66,0,2.97.36,3.93,1.07.97.7,1.6,1.46,1.89,2.28.17.52.26,1.73.26,3.61v6.79c0,.8.03,1.3.09,1.52.06.2.16.35.28.45.12.1.27.15.43.15.32,0,.65-.23.99-.69l.56.45c-.62.92-1.27,1.6-1.95,2.02-.66.41-1.42.62-2.26.62-1,0-1.78-.23-2.34-.69-.56-.47-.91-1.19-1.03-2.13h0ZM351.51,179.74v-5.86c-1.51.89-2.63,1.83-3.37,2.84-.49.67-.73,1.35-.73,2.04,0,.57.21,1.08.62,1.52.31.34.75.51,1.31.51.62,0,1.35-.35,2.17-1.05h0Z"/>
  <path d="M367.13,166.2v3.97c1.16-1.81,2.18-3.01,3.05-3.59.87-.6,1.72-.9,2.53-.9.7,0,1.25.22,1.66.65.42.42.64,1.03.64,1.81,0,.84-.21,1.48-.62,1.95-.4.46-.89.69-1.46.69-.66,0-1.23-.21-1.72-.64-.49-.42-.77-.66-.86-.71-.13-.07-.27-.11-.43-.11-.36,0-.71.14-1.03.41-.51.42-.9,1.03-1.16,1.81-.4,1.21-.6,2.54-.6,4v4.02l.02,1.05c0,.71.04,1.17.13,1.37.15.34.37.59.65.75.3.15.8.24,1.5.28v.67h-9.45v-.67c.76-.06,1.27-.27,1.53-.62.27-.36.41-1.3.41-2.83v-9.67c0-1-.05-1.63-.15-1.91-.13-.35-.31-.6-.54-.77-.24-.16-.65-.27-1.25-.34v-.69h7.15Z"/>
  <path d="M383.82,159.8v6.4h4.15v1.85h-4.15v10.8c0,1.01.04,1.67.13,1.96.1.29.27.52.51.71.24.17.46.26.65.26.81,0,1.58-.62,2.3-1.85l.56.41c-1.01,2.39-2.65,3.59-4.92,3.59-1.11,0-2.05-.31-2.83-.92-.76-.62-1.25-1.32-1.46-2.08-.12-.42-.19-1.57-.19-3.44v-9.45h-2.28v-.65c1.57-1.11,2.91-2.28,4-3.5,1.11-1.22,2.08-2.59,2.9-4.1h.62Z"/>
  <path d="M396.9,166.2v2.3c.96-1.05,1.85-1.78,2.66-2.19.82-.42,1.72-.64,2.69-.64,1.12,0,2.06.26,2.83.79.76.52,1.35,1.32,1.76,2.39,1-1.12,1.95-1.93,2.86-2.43.92-.5,1.88-.75,2.88-.75,1.21,0,2.17.28,2.88.84.72.55,1.22,1.25,1.5,2.11.29.85.43,2.21.43,4.08v7.17c0,1.35.12,2.18.36,2.51.25.32.76.54,1.53.64v.67h-9.04v-.67c.71-.06,1.23-.34,1.57-.82.22-.34.34-1.11.34-2.32v-7.52c0-1.56-.06-2.55-.19-2.97-.12-.42-.32-.74-.6-.94-.26-.21-.57-.32-.94-.32-.54,0-1.08.2-1.63.6-.55.39-1.1.97-1.67,1.76v9.39c0,1.26.11,2.05.32,2.38.29.46.84.72,1.65.77v.67h-9.06v-.67c.49-.02.87-.14,1.14-.36.29-.22.47-.49.56-.79.1-.31.15-.98.15-2v-7.52c0-1.58-.06-2.58-.19-2.97-.12-.4-.34-.71-.64-.94-.29-.22-.6-.34-.94-.34-.5,0-.95.13-1.37.39-.59.39-1.21,1.05-1.87,1.98v9.39c0,1.23.12,2.05.36,2.45.25.39.76.62,1.53.69v.67h-9.02v-.67c.74-.07,1.26-.31,1.57-.71.21-.27.32-1.09.32-2.43v-9.88c0-1.32-.12-2.15-.37-2.47-.24-.32-.74-.54-1.52-.64v-.69h7.13Z"/>
  <path class="cls-1" d="M435.23,174.32h-9.6c.11,2.32.73,4.15,1.85,5.5.86,1.04,1.9,1.55,3.11,1.55.75,0,1.43-.21,2.04-.62.61-.42,1.27-1.18,1.97-2.26l.64.41c-.95,1.93-2,3.31-3.14,4.12-1.15.8-2.48,1.2-3.98,1.2-2.6,0-4.56-1-5.89-2.99-1.07-1.61-1.61-3.6-1.61-5.99,0-2.92.79-5.24,2.36-6.96,1.58-1.73,3.44-2.6,5.56-2.6,1.77,0,3.3.73,4.6,2.19,1.31,1.45,2.01,3.6,2.11,6.46h0ZM430.63,173.06c0-2.01-.11-3.39-.34-4.14-.21-.75-.55-1.32-1.01-1.7-.26-.22-.61-.34-1.05-.34-.65,0-1.18.32-1.59.95-.74,1.11-1.1,2.63-1.1,4.57v.65h5.09Z"/>
  <path d="M444.19,166.2v2.26c.9-.97,1.76-1.68,2.58-2.11.82-.45,1.71-.67,2.66-.67,1.14,0,2.08.32,2.83.95.75.62,1.25,1.4,1.5,2.34.2.71.3,2.08.3,4.1v6.81c0,1.35.12,2.19.36,2.53.25.32.76.53,1.53.62v.67h-8.85v-.67c.66-.09,1.14-.36,1.42-.82.2-.31.3-1.09.3-2.32v-7.78c0-1.43-.06-2.34-.17-2.71-.11-.37-.31-.66-.58-.86-.26-.21-.56-.32-.88-.32-1.07,0-2.07.77-2.99,2.3v9.37c0,1.31.12,2.14.36,2.49.25.35.7.57,1.37.65v.67h-8.85v-.67c.74-.07,1.26-.31,1.57-.71.21-.27.32-1.09.32-2.43v-9.88c0-1.32-.12-2.15-.37-2.47-.24-.32-.74-.54-1.52-.64v-.69h7.13Z"/>
  <path d="M463.95,159.8v6.4h4.15v1.85h-4.15v10.8c0,1.01.04,1.67.13,1.96.1.29.27.52.51.71.24.17.45.26.65.26.81,0,1.58-.62,2.3-1.85l.56.41c-1.01,2.39-2.65,3.59-4.92,3.59-1.11,0-2.05-.31-2.83-.92-.76-.62-1.25-1.32-1.46-2.08-.13-.42-.19-1.57-.19-3.44v-9.45h-2.28v-.65c1.57-1.11,2.91-2.28,4-3.5,1.11-1.22,2.08-2.59,2.9-4.1h.62Z"/>
  <path class="cls-1" d="M486.45,165.67c1.52,0,2.94.39,4.25,1.18,1.31.79,2.3,1.9,2.98,3.35.69,1.45,1.03,3.03,1.03,4.75,0,2.48-.63,4.56-1.89,6.23-1.52,2.02-3.62,3.03-6.31,3.03s-4.66-.92-6.08-2.77c-1.42-1.85-2.13-3.99-2.13-6.42s.72-4.69,2.17-6.55c1.46-1.87,3.46-2.81,5.99-2.81h0ZM486.53,167c-.64,0-1.18.24-1.65.73-.45.47-.75,1.42-.9,2.84-.14,1.41-.21,3.37-.21,5.89,0,1.33.09,2.58.26,3.74.14.89.43,1.56.88,2.02.45.46.96.69,1.53.69s1.03-.16,1.4-.47c.49-.42.81-1.02.97-1.78.25-1.19.37-3.58.37-7.18,0-2.12-.12-3.57-.36-4.36-.24-.8-.59-1.38-1.05-1.74-.32-.26-.75-.39-1.27-.39h0Z"/>
  <path d="M504.07,168.03v12.14c0,1.17.12,1.91.37,2.21.4.46,1.14.67,2.21.64v.67h-10.31v-.67c.79-.01,1.34-.1,1.66-.26.34-.17.57-.41.69-.71s.19-.92.19-1.87v-12.14h-2.54v-1.83h2.54v-1.29l-.02-.88c0-1.8.66-3.29,1.97-4.49,1.32-1.2,3.1-1.8,5.35-1.8,1.54,0,2.67.29,3.41.86.75.57,1.12,1.21,1.12,1.91,0,.56-.23,1.05-.69,1.46-.46.41-1.07.62-1.83.62-.65,0-1.17-.17-1.55-.51-.37-.34-.56-.71-.56-1.12,0-.11.04-.34.11-.69.05-.21.07-.41.07-.6,0-.26-.07-.46-.22-.58-.2-.19-.44-.28-.73-.28-.36,0-.67.15-.92.45-.24.3-.36.78-.36,1.44l.04,3.27v2.23h2.58v1.83h-2.58Z"/>
  <path d="M526.45,159.78v10.42h.73c1.12,0,2.04-.17,2.75-.51.71-.34,1.31-.9,1.8-1.7.5-.8.82-1.88.97-3.24h.65v12.74h-.65c-.24-2.41-.89-3.99-1.95-4.75-1.05-.77-2.24-1.16-3.57-1.16h-.73v7.77c0,1.3.07,2.11.21,2.43.15.32.43.61.84.86.42.24.99.36,1.7.36h.84v.69h-13.27v-.69h.84c.74,0,1.33-.13,1.78-.39.32-.17.57-.47.75-.9.14-.3.21-1.09.21-2.36v-16.69c0-1.3-.07-2.11-.21-2.43-.14-.32-.42-.6-.84-.84-.41-.25-.97-.37-1.68-.37h-.84v-.69h21.41v7.28h-.77c-.17-1.71-.62-2.98-1.35-3.8-.71-.82-1.75-1.4-3.11-1.74-.75-.19-2.13-.28-4.15-.28h-2.36Z"/>
  <path class="cls-1" d="M546.57,165.67c1.52,0,2.94.39,4.25,1.18,1.31.79,2.3,1.9,2.97,3.35.69,1.45,1.03,3.03,1.03,4.75,0,2.48-.63,4.56-1.89,6.23-1.52,2.02-3.63,3.03-6.31,3.03s-4.66-.92-6.08-2.77c-1.42-1.85-2.13-3.99-2.13-6.42s.72-4.69,2.17-6.55c1.46-1.87,3.46-2.81,5.99-2.81h0ZM546.64,167c-.64,0-1.19.24-1.65.73-.45.47-.75,1.42-.9,2.84-.14,1.41-.21,3.37-.21,5.89,0,1.33.09,2.58.26,3.74.14.89.43,1.56.88,2.02.45.46.96.69,1.53.69s1.03-.16,1.4-.47c.49-.42.81-1.02.97-1.78.25-1.19.37-3.58.37-7.18,0-2.12-.12-3.57-.36-4.36-.24-.8-.59-1.38-1.05-1.74-.32-.26-.75-.39-1.27-.39h0Z"/>
  <path d="M563.21,166.2v3.97c1.16-1.81,2.18-3.01,3.05-3.59.87-.6,1.71-.9,2.53-.9.7,0,1.25.22,1.67.65.42.42.63,1.03.64,1.81,0,.84-.21,1.48-.62,1.95-.4.46-.89.69-1.46.69-.66,0-1.23-.21-1.72-.64-.49-.42-.77-.66-.86-.71-.13-.07-.27-.11-.43-.11-.36,0-.71.14-1.03.41-.51.42-.9,1.03-1.16,1.81-.4,1.21-.6,2.54-.6,4v4.02l.02,1.05c0,.71.04,1.17.13,1.37.15.34.37.59.65.75.3.15.8.24,1.5.28v.67h-9.45v-.67c.76-.06,1.27-.27,1.53-.62.27-.36.41-1.3.41-2.83v-9.67c0-1-.05-1.63-.15-1.91-.13-.35-.31-.6-.54-.77-.24-.16-.65-.27-1.25-.34v-.69h7.15Z"/>
  <path class="cls-1" d="M585.86,174.32h-9.6c.11,2.32.73,4.15,1.85,5.5.86,1.04,1.9,1.55,3.11,1.55.75,0,1.43-.21,2.04-.62.61-.42,1.27-1.18,1.96-2.26l.64.41c-.95,1.93-2,3.31-3.14,4.12-1.15.8-2.48,1.2-3.99,1.2-2.59,0-4.56-1-5.89-2.99-1.07-1.61-1.61-3.6-1.61-5.99,0-2.92.79-5.24,2.36-6.96,1.58-1.73,3.44-2.6,5.56-2.6,1.77,0,3.31.73,4.6,2.19,1.31,1.45,2.01,3.6,2.11,6.46h0ZM581.25,173.06c0-2.01-.11-3.39-.34-4.14-.21-.75-.55-1.32-1.01-1.7-.26-.22-.61-.34-1.05-.34-.65,0-1.18.32-1.59.95-.74,1.11-1.1,2.63-1.1,4.57v.65h5.09Z"/>
  <path class="cls-1" d="M591.49,157.72c.81,0,1.5.29,2.06.86.56.56.84,1.24.84,2.04s-.29,1.48-.86,2.04c-.56.56-1.24.84-2.04.84s-1.48-.28-2.04-.84c-.56-.56-.84-1.24-.84-2.04s.28-1.48.84-2.04c.56-.57,1.24-.86,2.04-.86h0ZM594.11,166.2v13.86c0,1.23.14,2.03.43,2.38.29.34.85.53,1.68.58v.67h-9.45v-.67c.77-.02,1.35-.25,1.72-.67.25-.29.37-1.05.37-2.28v-10.22c0-1.23-.14-2.02-.43-2.36-.29-.35-.84-.55-1.67-.6v-.69h7.33Z"/>
  <path class="cls-1" d="M608,166.4h5.89v2.06h-3.35c.61.61,1.03,1.17,1.27,1.67.3.67.45,1.38.45,2.11,0,1.25-.35,2.33-1.05,3.26-.69.91-1.63,1.63-2.83,2.15-1.18.51-2.24.77-3.16.77-.07,0-.82-.03-2.25-.09-.56,0-1.04.19-1.42.56-.37.36-.56.8-.56,1.31,0,.45.17.82.51,1.1.35.29.91.43,1.68.43l3.24-.04c2.62,0,4.42.29,5.41.86,1.41.8,2.11,2.03,2.11,3.69,0,1.06-.33,2.02-.97,2.88-.65.87-1.5,1.51-2.56,1.93-1.61.61-3.46.92-5.56.92-1.57,0-3.01-.16-4.3-.47-1.3-.3-2.23-.73-2.79-1.27-.56-.54-.84-1.1-.84-1.7s.21-1.09.64-1.55c.43-.45,1.24-.83,2.41-1.14-1.62-.8-2.43-1.91-2.43-3.33,0-.86.33-1.7.99-2.51.66-.81,1.71-1.52,3.14-2.11-1.67-.61-2.88-1.42-3.63-2.41-.75-1-1.12-2.15-1.12-3.46,0-1.71.7-3.19,2.1-4.43,1.4-1.26,3.19-1.89,5.39-1.89,1.16,0,2.36.24,3.59.73h0ZM604.77,166.83c-.73,0-1.33.37-1.83,1.1-.5.72-.75,2.23-.75,4.53,0,1.86.24,3.14.73,3.84.5.69,1.08,1.03,1.76,1.03.75,0,1.37-.34,1.87-1.03.5-.69.75-2.02.75-4,0-2.23-.28-3.75-.84-4.57-.4-.6-.96-.9-1.68-.9h0ZM603.66,186.27c-1.27,0-2.11.11-2.53.32-.71.39-1.07.91-1.07,1.57s.37,1.21,1.1,1.72c.73.52,2.12.79,4.15.79,1.73,0,3.09-.23,4.08-.69,1-.46,1.5-1.11,1.5-1.95,0-.31-.09-.58-.28-.79-.34-.37-.85-.63-1.53-.77-.67-.14-2.48-.21-5.43-.21h0Z"/>
  <path d="M622.32,166.2v2.26c.9-.97,1.76-1.68,2.58-2.11.82-.45,1.71-.67,2.66-.67,1.14,0,2.08.32,2.83.95.75.62,1.25,1.4,1.5,2.34.2.71.3,2.08.3,4.1v6.81c0,1.35.12,2.19.36,2.53.25.32.76.53,1.53.62v.67h-8.85v-.67c.66-.09,1.14-.36,1.42-.82.2-.31.3-1.09.3-2.32v-7.78c0-1.43-.06-2.34-.17-2.71-.11-.37-.31-.66-.58-.86-.26-.21-.56-.32-.88-.32-1.07,0-2.07.77-2.99,2.3v9.37c0,1.31.12,2.14.36,2.49.25.35.7.57,1.37.65v.67h-8.85v-.67c.74-.07,1.26-.31,1.57-.71.21-.27.32-1.09.32-2.43v-9.88c0-1.32-.12-2.15-.37-2.47-.24-.32-.74-.54-1.52-.64v-.69h7.13Z"/>
  <path class="cls-1" d="M658.03,176.47h-8.96l-1.07,2.47c-.35.82-.52,1.5-.52,2.04,0,.71.29,1.23.86,1.57.34.2,1.17.35,2.49.45v.69h-8.44v-.69c.91-.14,1.66-.51,2.25-1.12.59-.62,1.31-1.9,2.17-3.84l9.07-20.25h.36l9.15,20.81c.87,1.97,1.59,3.21,2.15,3.72.42.39,1.02.61,1.8.67v.69h-12.27v-.69h.51c.99,0,1.68-.14,2.08-.41.27-.2.41-.49.41-.86,0-.22-.04-.46-.11-.69-.02-.11-.21-.58-.56-1.4l-1.35-3.16h0ZM657.39,175.09l-3.78-8.74-3.89,8.74h7.67Z"/>
  <path d="M676.81,168.03v12.14c0,1.17.12,1.91.37,2.21.4.46,1.14.67,2.21.64v.67h-10.31v-.67c.79-.01,1.34-.1,1.67-.26.34-.17.57-.41.69-.71.12-.3.19-.92.19-1.87v-12.14h-2.54v-1.83h2.54v-1.29l-.02-.88c0-1.8.65-3.29,1.96-4.49,1.32-1.2,3.11-1.8,5.35-1.8,1.53,0,2.67.29,3.41.86.75.57,1.12,1.21,1.12,1.91,0,.56-.23,1.05-.69,1.46-.46.41-1.07.62-1.83.62-.65,0-1.17-.17-1.55-.51-.37-.34-.56-.71-.56-1.12,0-.11.04-.34.11-.69.05-.21.07-.41.07-.6,0-.26-.07-.46-.22-.58-.2-.19-.44-.28-.73-.28-.36,0-.67.15-.92.45-.24.3-.36.78-.36,1.44l.04,3.27v2.23h2.58v1.83h-2.58Z"/>
  <path d="M689.57,168.03v12.14c0,1.17.13,1.91.37,2.21.4.46,1.14.67,2.21.64v.67h-10.31v-.67c.79-.01,1.34-.1,1.67-.26.34-.17.57-.41.69-.71.12-.3.19-.92.19-1.87v-12.14h-2.54v-1.83h2.54v-1.29l-.02-.88c0-1.8.65-3.29,1.96-4.49,1.32-1.2,3.11-1.8,5.35-1.8,1.53,0,2.67.29,3.41.86.75.57,1.12,1.21,1.12,1.91,0,.56-.23,1.05-.69,1.46-.46.41-1.07.62-1.83.62-.65,0-1.17-.17-1.55-.51-.37-.34-.56-.71-.56-1.12,0-.11.04-.34.11-.69.05-.21.07-.41.07-.6,0-.26-.07-.46-.22-.58-.2-.19-.44-.28-.73-.28-.36,0-.67.15-.92.45-.24.3-.36.78-.36,1.44l.04,3.27v2.23h2.58v1.83h-2.58Z"/>
  <path class="cls-1" d="M704.31,181.11c-2.13,1.88-4.05,2.82-5.74,2.83-1,0-1.83-.32-2.49-.97-.66-.66-.99-1.48-.99-2.47,0-1.33.57-2.53,1.72-3.59,1.15-1.07,3.65-2.49,7.5-4.27v-1.76c0-1.32-.07-2.15-.22-2.49-.14-.35-.41-.65-.8-.9-.4-.26-.85-.39-1.35-.39-.81,0-1.48.18-2,.54-.32.22-.49.49-.49.79,0,.26.17.59.52.97.47.54.71,1.05.71,1.55,0,.61-.23,1.14-.69,1.57-.45.42-1.04.64-1.78.64-.79,0-1.45-.24-1.98-.71-.52-.47-.79-1.03-.79-1.67,0-.9.36-1.75,1.07-2.56.71-.82,1.7-1.45,2.97-1.89,1.27-.44,2.59-.65,3.97-.65,1.66,0,2.97.36,3.93,1.07.97.7,1.6,1.46,1.89,2.28.17.52.26,1.73.26,3.61v6.79c0,.8.03,1.3.09,1.52.06.2.16.35.28.45.12.1.27.15.43.15.32,0,.65-.23.99-.69l.56.45c-.62.92-1.27,1.6-1.95,2.02-.66.41-1.42.62-2.26.62-1,0-1.78-.23-2.34-.69-.56-.47-.9-1.19-1.03-2.13h0ZM704.31,179.74v-5.86c-1.51.89-2.63,1.83-3.37,2.84-.49.67-.73,1.35-.73,2.04,0,.57.21,1.08.62,1.52.31.34.75.51,1.31.51.62,0,1.35-.35,2.17-1.05h0Z"/>
  <path class="cls-1" d="M717.65,157.72c.81,0,1.5.29,2.06.86.56.56.84,1.24.84,2.04s-.29,1.48-.86,2.04c-.56.56-1.24.84-2.04.84s-1.48-.28-2.04-.84-.84-1.24-.84-2.04.28-1.48.84-2.04c.56-.57,1.24-.86,2.04-.86h0ZM720.27,166.2v13.86c0,1.23.14,2.03.43,2.38.29.34.85.53,1.68.58v.67h-9.45v-.67c.77-.02,1.35-.25,1.72-.67.25-.29.37-1.05.37-2.28v-10.22c0-1.23-.14-2.02-.43-2.36-.29-.35-.84-.55-1.67-.6v-.69h7.33Z"/>
  <path d="M730.96,166.2v3.97c1.16-1.81,2.18-3.01,3.05-3.59.87-.6,1.72-.9,2.53-.9.7,0,1.25.22,1.67.65.42.42.64,1.03.64,1.81,0,.84-.21,1.48-.62,1.95-.4.46-.89.69-1.46.69-.66,0-1.24-.21-1.72-.64-.49-.42-.77-.66-.86-.71-.12-.07-.27-.11-.43-.11-.36,0-.7.14-1.03.41-.51.42-.9,1.03-1.16,1.81-.4,1.21-.6,2.54-.6,4v4.02l.02,1.05c0,.71.04,1.17.13,1.37.15.34.37.59.65.75.3.15.8.24,1.5.28v.67h-9.45v-.67c.76-.06,1.27-.27,1.53-.62.27-.36.41-1.3.41-2.83v-9.67c0-1-.05-1.63-.15-1.91-.12-.35-.31-.6-.54-.77-.24-.16-.65-.27-1.25-.34v-.69h7.15Z"/>
  <path d="M751,165.71l.28,5.97h-.64c-.76-1.77-1.55-2.98-2.38-3.63-.81-.65-1.62-.97-2.43-.97-.51,0-.95.17-1.31.52-.36.34-.54.73-.54,1.18,0,.34.12.66.37.97.4.51,1.51,1.39,3.35,2.64,1.83,1.23,3.04,2.29,3.61,3.16.59.86.88,1.83.88,2.9,0,.97-.24,1.93-.73,2.86-.49.94-1.17,1.65-2.06,2.15s-1.86.75-2.94.75c-.84,0-1.95-.26-3.35-.79-.37-.14-.63-.21-.77-.21-.41,0-.75.31-1.03.94h-.62l-.3-6.29h.64c.56,1.65,1.33,2.88,2.3,3.7.99.82,1.91,1.23,2.79,1.23.6,0,1.09-.18,1.46-.54.39-.37.58-.82.58-1.35,0-.6-.19-1.12-.56-1.55-.37-.44-1.21-1.1-2.51-1.98-1.91-1.32-3.14-2.33-3.7-3.03-.82-1.02-1.23-2.15-1.23-3.39,0-1.35.46-2.56,1.38-3.65.94-1.1,2.28-1.65,4.04-1.65.95,0,1.86.23,2.75.69.34.19.61.28.82.28.22,0,.41-.04.54-.13.14-.1.35-.37.65-.8h.64Z"/>
  <path class="cls-1" d="M771.41,181.11c-2.13,1.88-4.05,2.82-5.74,2.83-1,0-1.83-.32-2.49-.97-.66-.66-.99-1.48-.99-2.47,0-1.33.57-2.53,1.72-3.59,1.15-1.07,3.65-2.49,7.5-4.27v-1.76c0-1.32-.07-2.15-.22-2.49-.14-.35-.41-.65-.8-.9-.4-.26-.85-.39-1.35-.39-.81,0-1.48.18-2,.54-.32.22-.49.49-.49.79,0,.26.17.59.52.97.47.54.71,1.05.71,1.55,0,.61-.23,1.14-.69,1.57-.45.42-1.04.64-1.78.64-.79,0-1.45-.24-1.98-.71-.52-.47-.79-1.03-.79-1.67,0-.9.36-1.75,1.07-2.56.71-.82,1.7-1.45,2.98-1.89,1.27-.44,2.59-.65,3.97-.65,1.66,0,2.97.36,3.93,1.07.97.7,1.6,1.46,1.89,2.28.17.52.26,1.73.26,3.61v6.79c0,.8.03,1.3.09,1.52.06.2.16.35.28.45s.27.15.43.15c.32,0,.65-.23.99-.69l.56.45c-.62.92-1.27,1.6-1.95,2.02-.66.41-1.42.62-2.26.62-1,0-1.78-.23-2.34-.69-.56-.47-.9-1.19-1.03-2.13h0ZM771.41,179.74v-5.86c-1.51.89-2.63,1.83-3.37,2.84-.49.67-.73,1.35-.73,2.04,0,.57.21,1.08.62,1.52.31.34.75.51,1.31.51.62,0,1.35-.35,2.17-1.05h0Z"/>
  <path d="M786.91,166.2v2.26c.9-.97,1.76-1.68,2.58-2.11.82-.45,1.71-.67,2.66-.67,1.14,0,2.08.32,2.83.95.75.62,1.25,1.4,1.5,2.34.2.71.3,2.08.3,4.1v6.81c0,1.35.12,2.19.36,2.53.25.32.76.53,1.53.62v.67h-8.85v-.67c.66-.09,1.14-.36,1.42-.82.2-.31.3-1.09.3-2.32v-7.78c0-1.43-.06-2.34-.17-2.71-.11-.37-.31-.66-.58-.86-.26-.21-.55-.32-.88-.32-1.07,0-2.07.77-2.99,2.3v9.37c0,1.31.12,2.14.36,2.49.25.35.7.57,1.37.65v.67h-8.85v-.67c.74-.07,1.26-.31,1.57-.71.21-.27.32-1.09.32-2.43v-9.88c0-1.32-.12-2.15-.37-2.47-.24-.32-.74-.54-1.52-.64v-.69h7.13Z"/>
  <path class="cls-1" d="M816.17,158.32v20.13c0,1.36.04,2.16.11,2.41.1.41.29.72.56.92.29.2.78.32,1.48.37v.62l-7.39,1.44v-2.77c-.89,1.07-1.68,1.8-2.38,2.19-.69.39-1.47.58-2.34.58-2.23,0-4-1-5.3-2.99-1.05-1.62-1.57-3.61-1.57-5.97,0-1.88.32-3.57.97-5.05.65-1.5,1.53-2.63,2.66-3.39,1.13-.76,2.35-1.14,3.65-1.14.83,0,1.58.16,2.23.49.65.32,1.34.89,2.08,1.7v-5.28c0-1.33-.06-2.14-.17-2.41-.15-.36-.37-.63-.67-.8-.3-.17-.86-.26-1.68-.26v-.79h7.77ZM810.93,170.18c-.92-1.77-2.05-2.66-3.39-2.66-.46,0-.84.12-1.14.37-.46.39-.84,1.07-1.14,2.04-.29.97-.43,2.46-.43,4.47,0,2.21.16,3.84.49,4.9.32,1.06.77,1.83,1.33,2.3.29.24.68.36,1.18.36,1.1,0,2.13-.86,3.11-2.58v-9.21h0Z"/>
  <path d="M850.25,158.32v6.87h-.67c-.4-1.58-.84-2.72-1.33-3.41-.49-.7-1.15-1.25-2-1.67-.47-.22-1.3-.34-2.49-.34h-1.89v19.57c0,1.3.07,2.11.21,2.43.15.32.43.61.84.86.42.24,1,.36,1.72.36h.84v.69h-13.28v-.69h.84c.74,0,1.33-.13,1.78-.39.32-.17.58-.47.77-.9.14-.3.21-1.09.21-2.36v-19.57h-1.83c-1.71,0-2.95.36-3.72,1.09-1.09,1.01-1.77,2.45-2.06,4.32h-.71v-6.87h22.79Z"/>
  <path d="M857.5,166.2v3.97c1.16-1.81,2.18-3.01,3.05-3.59.87-.6,1.72-.9,2.53-.9.7,0,1.25.22,1.67.65.42.42.64,1.03.64,1.81,0,.84-.21,1.48-.62,1.95-.4.46-.89.69-1.46.69-.66,0-1.23-.21-1.72-.64-.49-.42-.77-.66-.86-.71-.12-.07-.27-.11-.43-.11-.36,0-.7.14-1.03.41-.51.42-.9,1.03-1.16,1.81-.4,1.21-.6,2.54-.6,4v4.02l.02,1.05c0,.71.04,1.17.13,1.37.15.34.37.59.65.75.3.15.8.24,1.5.28v.67h-9.45v-.67c.76-.06,1.27-.27,1.53-.62.27-.36.41-1.3.41-2.83v-9.67c0-1-.05-1.63-.15-1.91-.12-.35-.31-.6-.54-.77-.24-.16-.65-.27-1.25-.34v-.69h7.15Z"/>
  <path class="cls-1" d="M874.99,181.11c-2.13,1.88-4.05,2.82-5.74,2.83-1,0-1.83-.32-2.49-.97-.66-.66-.99-1.48-.99-2.47,0-1.33.57-2.53,1.72-3.59,1.15-1.07,3.65-2.49,7.5-4.27v-1.76c0-1.32-.07-2.15-.22-2.49-.14-.35-.41-.65-.8-.9-.4-.26-.85-.39-1.35-.39-.81,0-1.48.18-2,.54-.33.22-.49.49-.49.79,0,.26.17.59.52.97.47.54.71,1.05.71,1.55,0,.61-.23,1.14-.69,1.57-.45.42-1.04.64-1.78.64-.79,0-1.45-.24-1.98-.71-.52-.47-.78-1.03-.78-1.67,0-.9.35-1.75,1.06-2.56.71-.82,1.7-1.45,2.97-1.89,1.27-.44,2.59-.65,3.97-.65,1.66,0,2.97.36,3.93,1.07.97.7,1.6,1.46,1.89,2.28.17.52.26,1.73.26,3.61v6.79c0,.8.03,1.3.09,1.52.06.2.16.35.28.45.12.1.27.15.43.15.33,0,.65-.23.99-.69l.56.45c-.62.92-1.27,1.6-1.95,2.02-.66.41-1.42.62-2.26.62-1,0-1.78-.23-2.34-.69-.56-.47-.9-1.19-1.03-2.13h0ZM874.99,179.74v-5.86c-1.51.89-2.63,1.83-3.37,2.84-.49.67-.73,1.35-.73,2.04,0,.57.21,1.08.62,1.52.31.34.75.51,1.31.51.63,0,1.35-.35,2.17-1.05h0Z"/>
  <path class="cls-1" d="M899.97,158.32v20.13c0,1.36.04,2.16.11,2.41.1.41.29.72.56.92.29.2.78.32,1.48.37v.62l-7.39,1.44v-2.77c-.89,1.07-1.68,1.8-2.38,2.19-.69.39-1.47.58-2.34.58-2.23,0-4-1-5.3-2.99-1.05-1.62-1.57-3.61-1.57-5.97,0-1.88.32-3.57.97-5.05.65-1.5,1.53-2.63,2.66-3.39,1.13-.76,2.35-1.14,3.65-1.14.83,0,1.58.16,2.23.49.65.32,1.34.89,2.08,1.7v-5.28c0-1.33-.06-2.14-.17-2.41-.15-.36-.37-.63-.67-.8-.3-.17-.86-.26-1.68-.26v-.79h7.77ZM894.73,170.18c-.92-1.77-2.05-2.66-3.39-2.66-.46,0-.84.12-1.14.37-.46.39-.84,1.07-1.14,2.04-.29.97-.43,2.46-.43,4.47,0,2.21.16,3.84.49,4.9.32,1.06.77,1.83,1.33,2.3.29.24.68.36,1.18.36,1.1,0,2.13-.86,3.11-2.58v-9.21h0Z"/>
  <path class="cls-1" d="M917.56,174.32h-9.6c.11,2.32.73,4.15,1.85,5.5.86,1.04,1.89,1.55,3.11,1.55.75,0,1.43-.21,2.04-.62.61-.42,1.27-1.18,1.96-2.26l.64.41c-.95,1.93-2,3.31-3.14,4.12-1.15.8-2.48,1.2-3.99,1.2-2.6,0-4.56-1-5.89-2.99-1.07-1.61-1.61-3.6-1.61-5.99,0-2.92.79-5.24,2.36-6.96,1.58-1.73,3.44-2.6,5.56-2.6,1.77,0,3.31.73,4.6,2.19,1.31,1.45,2.01,3.6,2.11,6.46h0ZM912.96,173.06c0-2.01-.11-3.39-.34-4.14-.21-.75-.55-1.32-1.01-1.7-.26-.22-.61-.34-1.05-.34-.65,0-1.18.32-1.59.95-.74,1.11-1.1,2.63-1.1,4.57v.65h5.09Z"/>
</svg>