<?xml version="1.0" encoding="UTF-8"?>
<svg id="Layer_1" data-name="Layer 1" xmlns="http://www.w3.org/2000/svg" viewBox="0 0 254.88 240">
  <defs>
    <style>
      .cls-1, .cls-2 {
        fill: #ee2435;
      }

      .cls-3 {
        fill: #fefefe;
      }

      .cls-3, .cls-2 {
        fill-rule: evenodd;
      }
    </style>
  </defs>
  <polygon class="cls-3" points="127.65 41.14 131.12 41.23 134.55 41.49 137.92 41.92 141.24 42.52 144.51 43.27 147.71 44.18 150.84 45.24 153.91 46.45 156.9 47.8 159.81 49.29 162.63 50.91 165.37 52.66 168.01 54.55 170.56 56.55 173.01 58.68 175.36 60.9 177.59 63.25 179.71 65.7 181.71 68.25 183.6 70.89 185.35 73.63 186.97 76.46 188.47 79.37 189.82 82.35 191.02 85.42 192.08 88.55 193 91.76 193.75 95.02 194.34 98.34 194.77 101.72 195.04 105.14 195.12 108.61 195.04 112.09 194.77 115.51 194.34 118.89 193.75 122.21 193 125.47 192.08 128.68 191.02 131.81 189.82 134.88 188.47 137.86 186.97 140.77 185.35 143.6 183.6 146.34 181.71 148.98 179.71 151.53 177.59 153.98 175.36 156.33 173.01 158.56 170.56 160.68 168.01 162.68 165.37 164.57 162.63 166.32 159.81 167.94 156.9 169.43 153.91 170.78 150.84 171.99 147.71 173.05 144.51 173.96 141.24 174.71 137.92 175.31 134.55 175.74 131.12 176 127.65 176.09 124.17 176 120.75 175.74 117.38 175.31 114.05 174.71 110.79 173.96 107.58 173.05 104.46 171.99 101.39 170.78 98.4 169.43 95.49 167.94 92.66 166.32 89.92 164.57 87.28 162.68 84.74 160.68 82.28 158.56 79.94 156.33 77.7 153.98 75.59 151.53 73.59 148.98 71.7 146.34 69.94 143.6 68.32 140.77 66.83 137.86 65.48 134.88 64.28 131.81 63.21 128.68 62.3 125.47 61.55 122.21 60.95 118.89 60.52 115.51 60.26 112.09 60.18 108.61 60.26 105.14 60.52 101.72 60.95 98.34 61.55 95.02 62.3 91.76 63.21 88.55 64.28 85.42 65.48 82.35 66.83 79.37 68.32 76.46 69.94 73.63 71.7 70.89 73.59 68.25 75.59 65.7 77.7 63.25 79.94 60.9 82.28 58.68 84.74 56.55 87.28 54.55 89.92 52.66 92.66 50.91 95.49 49.29 98.4 47.8 101.39 46.45 104.46 45.24 107.58 44.18 110.79 43.27 114.05 42.52 117.38 41.92 120.75 41.49 124.17 41.23 127.65 41.14"/>
  <path class="cls-1" d="M127.65,176.84h-.02s-3.51-.09-3.51-.09l-3.46-.27-3.41-.44-3.36-.61-3.3-.76-3.24-.92-3.16-1.07-3.1-1.22-3.02-1.37-2.94-1.51-2.86-1.64-2.77-1.78-2.67-1.91-2.57-2.02-2.48-2.14-2.37-2.26-2.26-2.37-2.14-2.48-2.02-2.57-1.91-2.67-1.77-2.77-1.64-2.86-1.51-2.94-1.36-3.02-1.22-3.1-1.07-3.17-.92-3.24-.76-3.3-.6-3.36-.43-3.41-.26-3.46-.08-3.49.09-3.53.27-3.46.44-3.41.61-3.36.76-3.3.92-3.24,1.07-3.16,1.22-3.1,1.37-3.02,1.51-2.94,1.64-2.86,1.78-2.77,1.91-2.67,2.02-2.57,2.14-2.48,2.26-2.37,2.37-2.25,2.48-2.15,2.57-2.02,2.67-1.91,2.77-1.77,2.86-1.64,2.94-1.51,3.02-1.36,3.1-1.22,3.17-1.07,3.24-.92,3.3-.76,3.36-.6,3.41-.43,3.46-.26,3.49-.08,3.53.09,3.46.27,3.41.44,3.36.61,3.3.76,3.24.92,3.16,1.07,3.1,1.22,3.02,1.37,2.94,1.51,2.86,1.64,2.77,1.78,2.67,1.91,2.57,2.02,2.48,2.15,2.37,2.25,2.25,2.37,2.15,2.48,2.02,2.57,1.91,2.67,1.77,2.77,1.64,2.86,1.51,2.94,1.36,3.02,1.22,3.1,1.07,3.16.92,3.24.76,3.3.6,3.36.43,3.41.26,3.46.08,3.49v.02s-.09,3.51-.09,3.51l-.27,3.46-.44,3.41-.61,3.36-.76,3.3-.92,3.24-1.07,3.16-1.22,3.1-1.37,3.02-1.51,2.94-1.64,2.86-1.78,2.77-1.91,2.67-2.02,2.57-2.15,2.48-2.25,2.37-2.37,2.26-2.48,2.14-2.57,2.02-2.67,1.91-2.77,1.77-2.86,1.64-2.94,1.51-3.02,1.36-3.1,1.22-3.17,1.07-3.24.92-3.3.76-3.36.6-3.41.43-3.46.26-3.49.08ZM124.21,175.25l3.44.08,3.44-.08,3.39-.26,3.34-.43,3.29-.59,3.23-.74,3.17-.9,3.09-1.05,3.04-1.19,2.95-1.33,2.88-1.48,2.79-1.6,2.71-1.73,2.61-1.87,2.52-1.98,2.43-2.09,2.32-2.21,2.2-2.32,2.1-2.43,1.98-2.52,1.87-2.61,1.73-2.71,1.6-2.79,1.48-2.88,1.33-2.95,1.19-3.04,1.05-3.09.9-3.17.74-3.23.59-3.29.43-3.34.26-3.39.08-3.44-.08-3.44-.26-3.39-.43-3.34-.59-3.29-.74-3.23-.9-3.17-1.05-3.09-1.19-3.04-1.33-2.95-1.48-2.88-1.6-2.79-1.73-2.71-1.87-2.61-1.98-2.52-2.1-2.43-2.2-2.32-2.32-2.2-2.43-2.1-2.52-1.98-2.61-1.87-2.71-1.73-2.79-1.6-2.88-1.48-2.95-1.33-3.04-1.19-3.09-1.05-3.17-.9-3.23-.74-3.29-.59-3.34-.43-3.39-.26-3.44-.08-3.44.08-3.39.26-3.34.43-3.29.59-3.23.74-3.17.9-3.09,1.05-3.04,1.19-2.95,1.33-2.88,1.48-2.79,1.6-2.71,1.73-2.61,1.87-2.52,1.98-2.43,2.1-2.32,2.2-2.21,2.32-2.09,2.43-1.98,2.52-1.87,2.61-1.73,2.71-1.6,2.79-1.48,2.88-1.33,2.95-1.19,3.04-1.05,3.09-.9,3.17-.74,3.23-.59,3.29-.43,3.34-.26,3.39-.08,3.44.08,3.44.26,3.39.43,3.34.59,3.29.74,3.23.9,3.17,1.05,3.09,1.19,3.04,1.33,2.95,1.48,2.88,1.6,2.79,1.73,2.71,1.87,2.61,1.98,2.52,2.09,2.43,2.21,2.32,2.32,2.21,2.43,2.09,2.52,1.98,2.61,1.87,2.71,1.73,2.79,1.6,2.88,1.48,2.95,1.33,3.04,1.19,3.09,1.05,3.17.9,3.23.74,3.29.59,3.34.43,3.39.26Z"/>
  <polygon class="cls-3" points="127.65 64.43 129.93 64.49 132.17 64.66 134.38 64.94 136.56 65.33 138.69 65.82 140.79 66.42 142.84 67.11 144.85 67.9 146.8 68.79 148.71 69.77 150.56 70.83 152.35 71.98 154.08 73.21 155.75 74.52 157.35 75.91 158.89 77.38 160.36 78.91 161.74 80.51 163.05 82.18 164.29 83.91 165.43 85.71 166.5 87.56 167.47 89.46 168.36 91.42 169.15 93.43 169.84 95.47 170.44 97.57 170.93 99.71 171.33 101.88 171.61 104.09 171.78 106.34 171.83 108.61 171.78 110.89 171.61 113.14 171.33 115.35 170.93 117.52 170.44 119.65 169.84 121.75 169.15 123.8 168.36 125.81 167.47 127.77 166.5 129.67 165.43 131.52 164.29 133.32 163.05 135.05 161.74 136.72 160.36 138.32 158.89 139.85 157.35 141.32 155.75 142.7 154.08 144.02 152.35 145.25 150.56 146.4 148.71 147.47 146.8 148.44 144.85 149.33 142.84 150.12 140.79 150.81 138.69 151.41 136.56 151.9 134.38 152.29 132.17 152.57 129.93 152.74 127.65 152.8 125.37 152.74 123.13 152.57 120.92 152.29 118.74 151.9 116.61 151.41 114.51 150.81 112.46 150.12 110.45 149.33 108.5 148.44 106.59 147.47 104.74 146.4 102.95 145.25 101.22 144.02 99.55 142.7 97.94 141.32 96.41 139.85 94.94 138.32 93.56 136.72 92.24 135.05 91.01 133.32 89.86 131.52 88.79 129.67 87.82 127.77 86.94 125.81 86.15 123.8 85.45 121.75 84.85 119.65 84.37 117.52 83.97 115.35 83.69 113.14 83.52 110.89 83.46 108.61 83.52 106.34 83.69 104.09 83.97 101.88 84.37 99.71 84.85 97.57 85.45 95.47 86.15 93.43 86.94 91.42 87.82 89.46 88.79 87.56 89.86 85.71 91.01 83.91 92.24 82.18 93.56 80.51 94.94 78.91 96.41 77.38 97.94 75.91 99.55 74.52 101.22 73.21 102.95 71.98 104.74 70.83 106.59 69.77 108.5 68.79 110.45 67.9 112.46 67.11 114.51 66.42 116.61 65.82 118.74 65.33 120.92 64.94 123.13 64.66 125.37 64.49 127.65 64.43"/>
  <path class="cls-1" d="M127.65,153.55h-.02s-2.31-.06-2.31-.06l-2.28-.17-2.25-.28-2.21-.4-2.17-.5-2.13-.61-2.09-.7-2.04-.81-1.99-.9-1.94-.99-1.87-1.09-1.83-1.17-1.76-1.25-1.7-1.34-1.63-1.41-1.56-1.49-1.49-1.56-1.4-1.63-1.34-1.7-1.25-1.76-1.16-1.82-1.09-1.88-.98-1.94-.9-1.99-.81-2.04-.7-2.08-.61-2.14-.5-2.17-.4-2.22-.28-2.25-.17-2.28-.06-2.3.06-2.33.17-2.28.28-2.25.4-2.21.5-2.17.61-2.13.7-2.09.81-2.04.9-1.99.99-1.94,1.09-1.87,1.17-1.83,1.25-1.76,1.34-1.7,1.41-1.63,1.49-1.56,1.56-1.49,1.63-1.4,1.7-1.34,1.76-1.25,1.83-1.16,1.88-1.08,1.94-.99,1.99-.9,2.04-.81,2.08-.7,2.14-.61,2.17-.5,2.22-.4,2.25-.28,2.28-.17,2.3-.06,2.33.06,2.28.17,2.25.28,2.21.4,2.17.5,2.13.61,2.09.7,2.04.81,1.99.9,1.94,1,1.88,1.08,1.83,1.17,1.76,1.25,1.7,1.34,1.63,1.41,1.56,1.49,1.49,1.56,1.4,1.63,1.34,1.7,1.25,1.76,1.16,1.83,1.08,1.88.99,1.94.9,1.99.81,2.04.7,2.08.61,2.14.5,2.17.4,2.22.28,2.25.17,2.28.06,2.3v.02s-.06,2.31-.06,2.31l-.17,2.28-.28,2.25-.4,2.21-.5,2.17-.61,2.13-.7,2.09-.81,2.04-.9,1.99-1,1.94-1.08,1.88-1.17,1.83-1.25,1.76-1.34,1.7-1.41,1.63-1.49,1.56-1.56,1.49-1.63,1.4-1.7,1.34-1.76,1.25-1.82,1.16-1.88,1.09-1.94.98-1.99.9-2.04.81-2.08.7-2.14.61-2.17.5-2.22.4-2.25.28-2.28.17-2.3.06ZM125.41,151.99l2.24.06,2.24-.06,2.21-.17,2.17-.27,2.14-.39,2.1-.48,2.06-.59,2.01-.68,1.97-.78,1.92-.87,1.87-.95,1.82-1.05,1.77-1.13,1.7-1.21,1.64-1.29,1.57-1.36,1.51-1.44,1.44-1.51,1.36-1.58,1.29-1.64,1.21-1.7,1.13-1.77,1.04-1.82.96-1.87.87-1.92.78-1.97.68-2.01.59-2.06.48-2.1.39-2.14.27-2.17.17-2.21.06-2.24-.06-2.24-.17-2.21-.27-2.17-.39-2.14-.48-2.1-.59-2.06-.68-2.01-.78-1.97-.87-1.92-.96-1.87-1.05-1.82-1.13-1.77-1.21-1.7-1.29-1.64-1.36-1.58-1.44-1.51-1.51-1.44-1.58-1.36-1.64-1.29-1.7-1.21-1.77-1.13-1.82-1.05-1.87-.96-1.92-.87-1.97-.78-2.01-.68-2.06-.59-2.1-.48-2.14-.39-2.17-.27-2.21-.17-2.24-.06-2.24.06-2.21.17-2.17.27-2.14.39-2.1.48-2.06.59-2.01.68-1.97.78-1.92.87-1.87.96-1.82,1.05-1.77,1.13-1.7,1.21-1.64,1.29-1.58,1.36-1.51,1.44-1.44,1.51-1.36,1.58-1.29,1.64-1.21,1.7-1.13,1.77-1.05,1.82-.95,1.87-.87,1.92-.78,1.97-.68,2.01-.59,2.06-.48,2.1-.39,2.14-.27,2.17-.17,2.21-.06,2.24.06,2.24.17,2.21.27,2.17.39,2.14.48,2.1.59,2.06.68,2.01.78,1.97.87,1.92.95,1.87,1.05,1.82,1.13,1.77,1.21,1.7,1.29,1.64,1.36,1.58,1.44,1.51,1.51,1.44,1.58,1.36,1.64,1.29,1.7,1.21,1.77,1.13,1.82,1.05,1.87.95,1.92.87,1.97.78,2.01.68,2.06.59,2.1.48,2.14.39,2.17.27,2.21.17Z"/>
  <g>
    <polygon class="cls-2" points="132.78 161.44 129.6 164.77 130.82 170.15 127.65 166.82 124.48 170.15 125.69 164.77 122.52 161.44 126.43 161.44 127.65 156.06 128.86 161.44 132.78 161.44"/>
    <path class="cls-2" d="M116.81,158.85c-.09-1.31-.44-2.74-1.48-3.63-2.21-1.89-4.48-.43-5.98,1.51l.15.24c.61-.61,1.21-1.33,1.99-1.71,1.28-.62,3.45.07,3.84,1.5.99,3.61-.35,7.61-3.23,9.98-.58.67-2.04.54-2.7.11-1.04-.44-1.1-1.62-1.3-2.54.05.23-.03-.54-.03-.68,0-.35.01-.69.04-1.04l-.23-.08-1.05,4.42.24.08c.11-.28.32-.53.54-.73.36-.23,1.1.89,1.44,1.12.54.36,1.14.53,1.78.53,1.28,0,2.62-.72,3.43-1.7,1.67-2,2.74-4.76,2.54-7.39Z"/>
    <path class="cls-2" d="M107.69,154.39c-.12-.87-.36-1.68-.93-2.36-.42-.51-1.24-1.14-1.94-1.14-.77,0-1.46-.05-2.19.31-.81.4-1.56.83-2.21,1.47-2.2,2.2-3.98,6.18-2.63,9.25s5.06,1.96,6.96.08,3.35-5.02,2.93-7.62h0ZM106.57,154.42c-.26,1.84-.93,3.43-1.8,5.05-.73,1.36-1.92,3.18-3.5,3.63-1.64.46-2.95-.93-2.77-2.55.19-1.71.74-3.31,1.58-4.81.89-1.58,1.78-3.19,3.51-3.94.75-.33,1.68-.23,2.29.32.64.58.69,1.5.69,2.31h0Z"/>
    <path class="cls-2" d="M92.99,160.05l-1.97-1.54,2.04-11.55-4.97,6.16s-.13.17-.17.23c-1.1,1.49-.29,1.97-.29,1.97l.24.19-.24.27-2.5-2,.23-.27.27.19s.8.55,1.85-.73c.04-.05.17-.21.17-.21l7.22-9.03.19.15-2.16,12.43,5.63-7.04s.22-.25.28-.33c.2-.29.52-.88-.17-1.39-.06-.04-.23-.19-.23-.19l.23-.31,2.5,2.01-.23.3s-.36-.28-.39-.3c-.6-.47-1.27.3-1.27.3l-.15.15-6.43,8s-.35,1.32.19,1.93c.02.02.08.11.08.11l.12.12.15.12-.23.27Z"/>
    <path class="cls-2" d="M90.61,138.95l-10.97,4.93-.23.08-.24.12-.21.07c-.07.04-.15.07-.24.09-.09.03-.18.05-.27.06h-.01c-.11.04-.22.07-.36.07-.01,0-.03,0-.04,0-.01,0-.02,0-.04,0-.05,0-.09,0-.13-.01h-.02c-.18-.03-.34-.09-.46-.18l-.15-.09-.3.23,1.8,2.19.3-.22c-.15-.19-.22-.44-.22-.68v-.02s0-.05,0-.05c.02-.33.19-.65.49-.82.01,0,.02-.02.03-.02.16-.09.34-.15.52-.22.01,0,.03,0,.05,0l.18-.11.23-.12.27-.12,7.47-3.35-4.66,6.89-.15.24-.12.19-.12.15s-.05.09-.08.14c-.12.21-.27.41-.45.58-.07.07-.15.11-.23.15,0,0-.01,0-.02,0-.11.05-.22.07-.33.08-.02,0-.03,0-.05,0-.01,0-.02,0-.04,0,0,0,0,0,0,0-.32-.01-.55-.17-.68-.39-.02-.03-.04-.06-.06-.09h-.02s-.3.22-.3.22l2.42,2.88.27-.23-.06-.12c-.17-.22-.23-.51-.17-.78v-.06l.03-.16h0c.01-.14.06-.26.12-.37.06-.2.16-.39.3-.55.04-.09.1-.17.17-.24.02-.02.03-.04.05-.06.22-.36.47-.7.75-1.02l6.12-9.08-.15-.19Z"/>
    <path class="cls-2" d="M84.21,128.98l-3.42,1,.12.23.3-.03s.66-.09.89-.12c.77-.1,1.43.08,1.43.08,0,0,.43.07,1.08,1.11.2.32.76,1.32.76,1.32.09.08.18.87-.84,1.38-.05.03-.19.12-.19.12l-4.01,2.19-.96-1.77-.07-.11h0s-.05-.08-.08-.12h0s0-.02,0-.02h0c-.03-.06-.06-.13-.08-.2,0,0,0-.01,0-.02-.02-.06-.03-.13-.03-.2,0,0,0-.01,0-.02,0-.07,0-.13,0-.2,0,0,0,0,0-.01.02-.22.11-.43.26-.59.09-.15.57-.49.68-.54.06-.04.21-.14.21-.14l.24-.12-.16-.23-4.23,2.34.12.24.27-.15.05-.02c.05-.04.12-.07.18-.1.22-.15.47-.23.76-.25.03,0,.05,0,.08,0,.02,0,.03,0,.05,0,.13,0,.24.02.34.06h.03l.03.02c.09.04.16.08.23.14l.05.03.11.12.08.11.12.16.08.15,1,1.77-4.82,2.66-1.23-2.2-.08-.15-.08-.15s0-.02-.07-.11c-.29-.47,0-.89,0-.89,0,0,.15-.34.27-.46.03-.03.69-.62.69-.62l.19-.16.23-.15-.15-.23-2.61,1.58,3.42,6.23.32-.18c-.29-.28-.37-.74-.25-1.13h0s0,0,0,0c.05-.16.15-.31.28-.43.02-.02.05-.04.07-.06.11-.12.77-.37.92-.45.07-.04,0,0,.2-.12l7.88-4.33.19-.12.19-.11s1.1-.65,1.68-.16c.03.03.36.54.36.54l.35-.19-3.42-6.23Z"/>
    <path class="cls-2" d="M70.63,132.95l-.61-1.87c-.05-.16-.22-.4-.09-.54l.52-.56c1.1-1.19,2.21-2.38,3.31-3.56,1.36-1.47,2.72-2.93,4.08-4.4-2.5.82-5,1.64-7.5,2.46-.48.16-1.1.33-1.45.71-.16.18-.25.44-.18.68.03.12.06.24.09.35.03.13.05.13-.08.18l-.23.08c-.19-.57-.38-1.14-.56-1.71l-.4-1.22c-.05-.15-.02-.12.13-.18.03-.01.17-.08.18-.04l.09.24c.42,1.11,1.63.52,2.44.25,2.59-.86,5.19-1.71,7.78-2.57.82-.27,1.63-.54,2.45-.81l.51-.17s.09.21.08.23l-.09.1c-1.1,1.19-2.2,2.38-3.3,3.57-1.71,1.85-3.41,3.69-5.12,5.54l-.03.03c2.59-.86,5.18-1.71,7.77-2.57.47-.16.98-.3,1.41-.55.23-.13.4-.34.45-.61s-.06-.52-.16-.77c.05-.02.34-.14.39-.12.05.02.1.31.12.36l.37,1.13.29.87.18.56c.05.16,0,.13-.16.18-.08.03-.15.09-.18,0l-.07-.2c-.05-.14-.11-.25-.19-.38-.16-.25-.44-.29-.71-.29-.48,0-.91.17-1.36.32-2.68.89-5.36,1.78-8.04,2.67l-.93.31c-.09.03-.18.17-.25.23-.12.12-.25.28-.35.43-.19.27-.24.57-.3.89-.03.15,0,.31.04.45.02.09.08.14-.02.17l-.29.1Z"/>
    <path class="cls-2" d="M65.97,112.98l13.74,4.31-.26-1.95c-.08-.63-.12-1.28-.26-1.9s-.43-1.04-1.04-1.28c-.56-.22-1.15-.29-1.75-.34l-.34-.03c0-.06,0-.24.06-.24h.32c.41,0,.83-.01,1.24-.01l2.1-.02c.08,0,.48,3.6.51,3.86l.34,2.61.1.77c.03.24.01.19-.25.24-.21.05-.51-.12-.71-.18l-1.78-.56c-3.31-1.05-6.62-2.1-9.94-3.14l-1.03-.33c.15,1.18.27,2.36.53,3.52.11.5.77.88,1.26.88.28,0,.57.03.86.03h.42c.25,0,.21.02.25.27l-2.04.16-1.2.09c-.11,0-.25.08-.27-.04l-.58-4.63-.26-2.07Z"/>
    <path class="cls-2" d="M79.48,106.17c.1,0,.2,0,.3,0,.17,0,.09.22.09.35v2.88c0,.21-.01.42,0,.63,0,.09-.39.1-.4,0-.03-.28.04-.55-.14-.8-.25-.34-.71-.4-1.1-.44-.94-.09-1.93-.01-2.88-.02-1.95,0-3.89-.02-5.84-.03-.45,0-.9,0-1.36,0-.37,0-.75-.02-1.1.08-.3.09-.55.28-.69.56-.08.16-.05.38-.05.56,0,.17-.11.11-.25.11-.18,0-.13-.09-.13-.26v-3.44c0-.18-.05-.28.16-.27.12,0,.24,0,.24.15,0,.28-.04.52.16.75s.48.32.76.38c.84.16,1.74.1,2.59.09,1.87-.01,3.75,0,5.62.02h1.37c.45,0,.93.08,1.38.02.34-.04.73-.09.99-.35s.27-.63.27-.97c.04,0,0,.4,0,0Z"/>
    <path class="cls-2" d="M67.32,99.7c0,1.86,1.55,2.84,3.19,3.36,2.02.64,4.41,1.06,6.51.68,1.43-.26,3.01-1.23,2.66-2.93-.37-1.79-2.96-2.86-4.52-3.23-2.08-.49-7.25-1.15-7.84,2.12ZM66.66,99.46c.34-2.26,2.9-3.22,4.89-3.44,2.12-.24,4.7.29,6.46,1.5s3.21,3.28,1.95,5.36-3.83,2.32-5.97,2.32c-1.77,0-3.48-.65-4.99-1.5-1.34-.75-2.8-2.6-2.34-4.23Z"/>
    <path class="cls-2" d="M67.94,92.39l.89-2.35,11.58-1.76c-2.47-.9-4.95-1.8-7.42-2.7-.33-.12-.64-.23-.98-.31-.17-.04-.35-.08-.52-.12-.35-.08-.6.46-.67.56-.09.12-.1.26-.14.4l-.35-.15,1.08-3,.35.11c-.23.6-.24,1.17.41,1.49.37.19.75.34,1.14.48l3.7,1.35c2.34.86,4.69,1.71,7.03,2.57l-.08.23-12.47,1.92c2.61.95,5.21,1.9,7.82,2.84.42.15.81.29,1.25.38.23.05.57.09.76-.09.22-.2.32-.48.44-.75l.35.12-1.11,3-.35-.12c.04-.11.1-.22.12-.34s.32-.74-.33-1.05c-.26-.12-.49-.27-.76-.36-.34-.11-.67-.26-1.01-.38-1.58-.58-3.17-1.16-4.75-1.73-1.17-.43-2.35-.83-3.51-1.28-.51-.2-.83-.06-1.08.03-.47.17-.88.57-1,1.11l-.39-.11Z"/>
    <path class="cls-2" d="M74.75,78.57l4.69,2.84.73-1.21c.19-.31.45-.63.54-.99.05-.19.08-.31.04-.5-.04-.22-.13-.31-.27-.49-.27-.34-.6-.58-.96-.82l.11-.24,4.16,2.5-.12.23c-.61-.29-1.53-.86-2.15-.3-.28.25-.46.58-.65.9l-.78,1.3c.89.54,1.78,1.09,2.67,1.63.4.24.8.49,1.21.73.13.08.26.17.39.25.12.08.43.22.58.27.26.08.53.06.63-.09.15-.24.31-.46.46-.71.3-.49.68-1.02.88-1.57s.03-1.1-.27-1.58-.64-.99-1.03-1.44l.15-.23,2.57,2.5-3.69,6.07-.3-.19c.15-.3.27-.5.27-.84,0-.24-.18-.53-.37-.71-.09-.09-.2-.16-.31-.23-.21-.12-.28-.18-.43-.27-.13-.08-.25-.17-.38-.25-1.26-.76-2.53-1.52-3.79-2.28-1.25-.75-2.49-1.5-3.74-2.25-.39-.24-.78-.51-1.21-.67-.22-.08-.56-.14-.77,0-.27.17-.42.41-.56.7l-.31-.19,3.66-6.08,2.66,1.47-.12.23c-.4-.18-.86-.4-1.29-.49-.23-.05-.43-.04-.66,0-.12.02-.23.05-.33.11-.11.06-.12.11-.25.26-.28.33-.52.76-.75,1.13l-.9,1.49Z"/>
    <path class="cls-2" d="M92.03,75.5c.52-.23,1.11-.55,1.45-1.03s.58-1.06.58-1.65c0-.3.03-.62-.03-.91s-.15-.58-.24-.87c-.18-.56-.5-1.14-.85-1.62s-.7-1.04-1.15-1.47-.92-.91-1.43-1.32c-.93-.77-2.03-1.32-3.23-1.52-.58-.1-1.22-.06-1.76.17-.13.05-.22.14-.35.19-.12.05-.27.17-.37.27-.2.2-.37.43-.54.65-.05.07-.43.62-.37.68l.21.21,1.19,1.21c2.25,2.29,4.49,4.58,6.74,6.87l.14.14ZM90.83,78.07l-.27-.27c.21-.17.48-.41.54-.69s-.1-.53-.22-.78-.39-.51-.59-.71c-.1-.11-.21-.21-.32-.32-1.04-1.06-2.07-2.12-3.11-3.19l-3.01-3.08c-.1-.1-.2-.21-.31-.32-.2-.19-.45-.5-.7-.61-.23-.11-.51-.29-.78-.2-.29.1-.48.28-.71.48l-.24-.27c.92-.9,1.81-1.86,2.77-2.72s1.94-1.63,3.3-1.63c1.23,0,2.45.5,3.44,1.19.53.37,1.01.76,1.49,1.19s.91.85,1.27,1.35.73,1,1.04,1.55.51,1.15.68,1.75c.08.28.08.6.12.89s.03.63-.03.92c-.11.53-.29,1.24-.65,1.65-.27.31-.49.64-.78.93l-.83.81c-.71.69-1.42,1.38-2.13,2.08Z"/>
    <path class="cls-2" d="M101.22,68.6l.23.3-3.19,2.31-.24-.3c.46-.33.85-.78.56-1.37-.22-.43-.49-.79-.77-1.18-.84-1.2-1.69-2.39-2.53-3.59-.84-1.19-1.68-2.38-2.53-3.58-.25-.35-.52-.74-.83-1.05-.49-.49-1.05-.33-1.56.02l-.19-.3,3.2-2.27.24.3c-.25.18-.5.3-.59.61s-.07.51.08.8c.2.4.44.79.7,1.15l2.58,3.6c.84,1.17,1.67,2.34,2.51,3.51.25.35.5.72.81,1.03.22.22.4.35.73.35.16,0,.28,0,.42-.08.14-.08.26-.18.39-.27Z"/>
    <path class="cls-2" d="M106.46,50.9l1.85,3.77-.19.12c-.2-.23-.38-.48-.58-.71s-.37-.5-.62-.67c-.27-.18-.49-.41-.78-.56-.26-.13-.53-.2-.82-.28-.49-.14-1.16,0-1.6.26-.13.08-.25.17-.38.25-.16.1-.25.23-.37.36-.21.22-.36.49-.46.77-.44,1.22-.25,2.51.04,3.74s.77,2.36,1.44,3.37,1.48,2.13,2.59,2.7c1.08.55,2.52.4,3.4-.43.23-.22.52-.49.41-.77-.45-1.15-.97-2.27-1.45-3.41-.17-.4-.35-.77-.56-1.15-.1-.18-.36-.4-.57-.44-.28-.05-.54.08-.8.15l-.16-.35,3.31-1.38.15.35c-1.16.32-.43,1.63-.13,2.35l1.51,3.58c0,.64-1.06,1.98-2.73,2.43-.61.17-1.16.3-1.79.3s-1.22-.24-1.79-.49c-.29-.13-.53-.29-.77-.5s-.5-.37-.73-.59c-.45-.45-.88-.92-1.23-1.47-.66-1.03-1.18-2.25-1.4-3.46-.11-.64-.17-1.28-.22-1.92-.02-.29.05-.64.08-.93s.04-.63.13-.92c.18-.58.39-1.23.79-1.7s.92-.89,1.5-1.12c.43-.16.81-.27,1.28-.27s1.12.13,1.5,0c.11-.04.09-.31.04-.51-.03-.11-.06-.22-.1-.33-.03-.09.15-.12.22-.16Z"/>
    <path class="cls-2" d="M116.73,61.62l.08.39-3.81.96-.12-.35c.55-.12,1.16-.45,1.01-1.13-.07-.3-.06-.61-.15-.91-.1-.37-.2-.74-.29-1.11-.37-1.44-.74-2.87-1.11-4.31s-.68-2.79-1.07-4.17c-.13-.47-.37-1.15-.95-1.23-.07,0-.68.09-.67.12l-.12-.38,3.81-.96.12.35c-.59.14-1,.38-1,1.04s.24,1.34.4,1.99c.37,1.44.73,2.87,1.1,4.31s.72,2.78,1.07,4.17c.09.34.21.78.44,1.07.3.39.85.31,1.26.16Z"/>
    <path class="cls-2" d="M115.55,48.28l2.5-.26,6.74,9.58-.89-7.85c-.03-.25-.03-.45-.09-.72-.05-.23-.06-.49-.19-.69-.14-.23-.25-.38-.52-.47-.19-.07-.51,0-.71.04l-.04-.39,3.2-.35.03.35c-.27.03-.62.05-.82.26s-.33.49-.33.78c0,.43.05.85.09,1.27.15,1.34.3,2.68.44,4.02.27,2.43.54,4.86.8,7.3l-.23.03-7.27-10.31c.3,2.75.6,5.51.9,8.26.05.45.14.88.24,1.32.07.3.24.48.49.65.07.05.27.05.36.05.16,0,.31-.02.46-.04l.03.39-3.2.35-.03-.39c.15-.02.3-.04.45-.04.07,0,.33-.11.37-.17.08-.11.2-.21.23-.34.04-.15.06-.29.1-.43.06-.25,0-.63-.04-.87-.02-.14-.03-.28-.05-.42l-.49-4.42c-.17-1.54-.34-3.08-.51-4.62,0-.07,0-.21-.04-.28-.16-.24-.36-.52-.56-.72s-.44-.32-.71-.43c-.14-.05-.25-.07-.39-.07h-.25c-.05,0-.06-.18-.07-.23l-.03-.12Z"/>
    <path class="cls-2" d="M130.97,48.17l-.42,5.5,1.39.11c.37.03.78.1,1.15.05.85-.11.99-1.21,1.08-1.89h.23l-.35,4.85-.27-.04c0-.21.02-.44,0-.65-.02-.18,0-.4-.07-.56-.07-.19-.07-.36-.22-.54-.12-.15-.27-.21-.46-.31-.14-.08-.36-.12-.52-.13l-.54-.04c-.5-.04-1-.07-1.49-.11-.11,1.44-.22,2.88-.33,4.32-.01.18-.06.38-.06.56,0,.24-.07.61,0,.84.03.1.08.25.15.33.11.12.21.1.36.12.31.05.64.07.95.09.43.03.87.11,1.3.1.39-.02.69-.14,1.02-.35.14-.09.3-.3.4-.44.13-.18.24-.38.34-.58s.22-.37.31-.58c.08-.2.18-.39.27-.59l.27.03-1.08,3.39-7.08-.54.03-.39c.32.04.54.06.83-.08.12-.06.25-.15.33-.26.09-.13.13-.26.17-.4.12-.42.12-.88.16-1.32l.35-4.37.35-4.39c.04-.45.05-.89.05-1.34,0-.3-.1-.54-.33-.74s-.58-.18-.86-.22l.03-.38,7.08.57-.15,3.04-.27-.04c0-.81-.06-2.1-1.03-2.32s-2.07-.22-3.1-.3Z"/>
    <path class="cls-2" d="M148.33,50.75l-.11.38c-.7,0-1.06.41-1.47.93-.22.28-.37.59-.54.89l-2.21,3.73c-1.25,2.1-2.5,4.21-3.75,6.31l-.27-.08c-.05-2.88-.11-5.76-.16-8.64-.02-1.14-.04-2.27-.06-3.41,0-.07,0-.13-.01-.2-.02-.32,0-.58-.03-.87s-.15-.53-.28-.79c-.11-.21-.43-.35-.64-.44l.11-.35,3.62,1-.08.35c-.23-.05-.62-.08-.82.03-.24.13-.35.39-.42.64-.14.49-.11,1.03-.1,1.54.03,1.4.07,2.79.1,4.19.03,1.37.06,2.73.1,4.1,1.38-2.33,2.76-4.65,4.14-6.98.09-.16.18-.32.26-.48.05-.09.1-.19.15-.29.06-.12.16-.24.18-.35.07-.25.16-.42.16-.68,0-.11,0-.22-.05-.32s-.07-.19-.19-.29c-.1-.09-.36-.21-.46-.3l.08-.35c.92.24,1.84.49,2.77.73Z"/>
    <path class="cls-2" d="M150.25,59.02c.5.35,1.13.5,1.72.5.64,0,1.18-.38,1.63-.81s.74-1.04.99-1.61c.22-.5.34-1.28.2-1.82-.06-.24-.2-.62-.4-.78-.11-.08-.22-.23-.34-.28-.14-.05-.26-.15-.4-.2s-.27-.08-.4-.11c-.03,0-.39-.05-.38-.06l-.23.45c-.75,1.48-1.5,2.95-2.25,4.43l-.14.28ZM152.91,68.37l-2.23-1.11.15-7.24c-.14-.04-.29-.1-.44-.17-.18-.09-.29-.12-.41-.25-.6,1.17-1.2,2.35-1.8,3.52-.09.18-.16.37-.24.55-.11.26-.26.5-.32.78s0,.49.08.74.5.4.7.49l-.19.35-3.51-1.77.16-.35c.27.14.49.23.8.23.28,0,.51-.23.7-.42s.34-.54.47-.8c.07-.13.13-.26.2-.39l1.99-3.96c.65-1.29,1.3-2.58,1.94-3.87.21-.41.37-.81.54-1.24.25-.64-.19-1.06-.73-1.32l.16-.35c1.16.6,2.32,1.2,3.48,1.78.52.26,1.06.62,1.41,1.1.16.22.23.55.33.79.11.28.08.63.08.92,0,1.01-.46,2.14-1.17,2.88-.19.2-.39.38-.61.56s-.44.27-.69.39c-.5.24-1.11.25-1.65.19-.02,1.42-.05,2.84-.07,4.27,0,.52-.05,1.07.02,1.59.08.62.28,1.09.71,1.53.04.04.26.19.27.23.02.06-.13.28-.16.35Z"/>
    <path class="cls-2" d="M162.32,68.57l2.12-5.31c-1.55,1.13-3.1,2.26-4.66,3.39.85.64,1.69,1.28,2.54,1.92ZM162.02,69.26l-2.64-2c-.27-.21-.24-.13-.57.09-.56.39-1.14.76-1.65,1.2-.38.33-1.06.81-.82,1.4.03.08.43.59.43.59l-.22.3c-.75-.58-1.5-1.17-2.25-1.75-.04-.03.03-.1.06-.14.13-.2.12-.19.37-.11.26.08.42.1.67.02.29-.09.56-.23.81-.39,1.05-.71,2.07-1.48,3.09-2.23,2.19-1.6,4.37-3.21,6.56-4.81.08-.06.62-.51.68-.47.21.17.16.17.05.44l-.79,1.99c-.51,1.27-1.02,2.55-1.53,3.82-.58,1.44-1.15,2.88-1.73,4.32-.28.7-1.32,2.63-.3,3.19l-.23.3c-.96-.74-1.92-1.48-2.88-2.23l.18-.22c.11-.13.39.11.52.17.39.17.79-.27.94-.57.47-.95.84-1.94,1.24-2.92Z"/>
    <path class="cls-2" d="M170.95,81.36l-2.51.99-3.18-4.4c.29-.22.48-.23.85-.23.48,0,.95.01,1.43,0,.92-.03,1.86-.04,2.77-.14,1.71-.19,3.41-.47,4.87-1.44.94-.63,2.09-1.68,1.78-2.97-.17-.68-.86-1.02-1.52-1.06-.4-.03-.81.05-1.19.18-.17.06-.34.12-.51.2-.06-.01-.14-.16-.18-.2,1.24-.65,3.33-1.66,4.5-.32s.37,3.05-.75,4.05c-1.21,1.09-2.84,1.62-4.43,1.84-.92.13-1.85.16-2.78.23s-1.85.18-2.78.14c.55.77,1.1,1.53,1.63,2.31.22.33.57.63.97.69.22.03.45,0,.67-.03.21-.03.22.03.35.18Z"/>
    <path class="cls-2" d="M174.25,87.57l-2.61.65-2.54-4.83c.18-.1.27-.19.47-.15.46.09.92.16,1.38.23.87.12,1.75.13,2.63.23,1.66.19,3.56.13,5.13-.47,1.13-.42,2.9-1.5,2.63-2.95-.12-.68-.71-1.11-1.37-1.24-.4-.07-.81-.04-1.2.03-.18.03-.35.07-.53.11-.04-.02-.08-.19-.11-.24,1.36-.52,3.62-1.12,4.56.44.9,1.48-.33,3.14-1.58,3.92-2.95,1.85-6.79.85-10.02.69.44.84.87,1.67,1.35,2.5.23.39.44.71.9.82.2.05.41.06.61.04s.19.05.27.22Z"/>
    <path class="cls-2" d="M180.16,97.26l4.95-2.85c-1.91-.07-3.82-.15-5.73-.22.26,1.03.52,2.05.78,3.08ZM179.49,97.62l-.89-3.47c-.88-.04-1.76-.05-2.64-.09-.2,0-.42-.02-.61.03-.11.02-.18,0-.28.06-.09.05-.18.1-.27.16-.31.19-.25.75-.18,1.04l-.35.1-.72-2.81.36-.1c.07.12.16.23.22.34.07.13.19.19.3.28.19.17.59.15.82.17.47.06.93.09,1.4.11,1.28.05,2.55.1,3.83.15l7.73.31.07.23c-2.52,1.44-5.04,2.89-7.57,4.33l-2.63,1.5c-.74.43-2.05,1.03-1.81,2.09l-.35.1-.88-3.55.35-.09c.1.4.34.66.73.76.14.04.41-.07.54-.12.17-.05.37-.16.54-.24.34-.14.65-.38.98-.56l1.31-.73Z"/>
    <path class="cls-2" d="M190.13,109.9l-4.17.42v-.23c.78-.29,1.73-.48,2.35-1.07.65-.62,1.15-1.33,1.02-2.28-.11-.83-.5-1.5-1.19-1.99s-1.54-.74-2.33-.88c-1.71-.32-3.62-.3-5.31.19-.84.24-1.62.58-2.35,1.05-.65.42-1.3,1.25-1.34,2.05-.04.88.27,1.51.78,2.2l3.82-.17c.41-.02.96.02,1.34-.15.22-.1.41-.25.5-.47.09-.23.03-.42.07-.65l.38-.02.15,3.55-.39.02c.13-1.04-1.04-.93-1.7-.97-.96-.04-1.93.05-2.89.09l-1.4.06c-.26.01-.44-.51-.61-.77-.19-.31-.43-.77-.55-1.12-.14-.39-.2-.87-.21-1.28-.02-.79.12-1.71.54-2.38.23-.37.47-.7.79-1s.66-.51,1.03-.75c1.53-1,3.3-1.17,5.08-1.22.43-.01.87.1,1.28.18.44.08.85.13,1.27.29.83.31,1.71.65,2.39,1.22s1.15,1.21,1.4,2.03c.12.39.16.88.14,1.29s-.19.75-.31,1.12c-.09.26-.62.95-.39,1.2.12.13.25.18.43.19.08,0,.2-.01.27.01.14.05.11.04.1.23Z"/>
    <path class="cls-2" d="M188.58,118.65c.14-3.1-4.77-3.92-7.08-4.02-1.46-.07-3.18-.18-4.44.72-1.22.88-1,2.4-.04,3.38,1.57,1.61,4.16,1.73,6.24,2.05,1.03.16,2.26.11,3.25-.18,1.14-.32,1.7-.86,2.07-1.96ZM189.26,118.91c-.92,3.21-4.66,3.64-7.51,3.28s-6.75-2.45-6.17-5.8c.55-3.2,5.08-3.62,7.59-3.15,2.82.53,6.26,2.17,6.1,5.5v.17Z"/>
    <path class="cls-2" d="M185.6,131.99l-4.32-1.55.09-.22c1.26.42,3.31.61,4.19-.63.93-1.31-.35-2.77-1.76-2.83s-2.87,1.13-3.98,1.85c-1.41.92-2.88.97-4.42.36-1.57-.62-2.83-2.46-1.98-4.11.31-.6.8-.94,1.21-1.48.37-.48.11-.69-.38-.93l.09-.27,4.32,1.55-.09.23c-1.44-.24-3.08-.62-4.15.69-1.18,1.45.1,2.9,1.62,3.21,1.34.27,2.88-.89,3.95-1.58,1.32-.86,2.88-1.21,4.36-.57,1.07.46,2.26,1.35,2.36,2.63.05.68-.2,1.17-.55,1.73-.27.43-.88.61-1.06,1.09.05.34.69.57.5.83Z"/>
    <path class="cls-2" d="M180.48,142.12l-2.89-1.53.12-.22c.66.29,1.49.69,2.22.37.68-.3,1-1.23,1.32-1.83-2.39-1.33-4.78-2.66-7.16-3.99-.81-.45-1.6-.95-2.45-1.34-.95-.44-1.5-.69-2.1.32l-.3-.17,1.89-3.42.34.17c-.19.36-.43.68-.2,1.09.2.35.54.63.9.82.81.44,1.62.88,2.42,1.33,2.43,1.35,4.86,2.7,7.29,4.06.32-.57,1.04-1.46.83-2.16s-.9-1.2-1.46-1.57l.12-.22c.83.5,1.66.99,2.49,1.49.21.13.33.1.21.31l-.6,1.09c-.99,1.8-1.99,3.59-2.98,5.39Z"/>
    <path class="cls-2" d="M175.37,147.66c2.84-3.08-5.55-9.16-8.35-8.67-2.12.37-1.97,2.67-1.11,4.11,1.3,2.17,4,4.32,6.39,5.11,1,.33,2.41.48,3.06-.55ZM175.84,148.23c-1.26,1.89-4.45,1.22-6.1.38-2.34-1.19-4.67-3.48-5.18-6.14-.4-2.07.65-4.06,2.85-4.41,2.64-.43,5.46,1.42,7.17,3.26,1.49,1.61,3.19,4.98,1.26,6.91Z"/>
    <path class="cls-2" d="M166.54,154.27l-.41,1.47c-.12.43-.16,1.02-.48,1.34l-5.49-6.8c-.58-.72-1.16-1.43-1.74-2.15-.28-.35-.6-.72-.91-1.03-.42-.42-.9-.09-1.29.18l-.24-.27,2.7-2.19.23.27c-.18.17-.46.37-.54.62-.09.28.02.55.18.78.25.37.52.72.81,1.08,1.02,1.25,2.04,2.49,3.06,3.74l1.21,1.48c.22.27.4.58.64.82.37.37.64.84,1.09,1.13.55.35.74-.21.9-.65l.27.19Z"/>
    <path class="cls-2" d="M155.72,155.12c.06-.64.02-1.21-.09-1.83-.1-.59-.38-1.13-.68-1.64-.32-.54-.74-1-1.27-1.33-.48-.29-1.14-.46-1.62-.09-.13.1-.24.14-.34.27-.08.11-.15.23-.21.36-.12.25-.17.57-.12.84.11.64.37,1.09.74,1.61.32.44.96.76,1.44.97.58.25,1.17.45,1.76.68l.4.16ZM155.8,156.73c-.04.29-.08.61-.08.9s-.03.62.04.91c.07.27.12.59.25.84.14.27.26.62.45.86.35.45.84,1.07,1.47,1.07.15,0,.3.02.45-.02.15-.03.26-.14.4-.2.28-.13.42-.42.55-.68.2-.4.06-.91-.04-1.3s-.46-.9-.79-1.16c-.36-.28-.69-.51-1.12-.66l-1.57-.55ZM156.18,155.27c.3.08.56.22.86.31.27.09.6.21.83.37.14.09.27.17.41.24.11.05.24.22.34.3.26.2.47.43.67.69.35.45.71,1.05.79,1.62.08.61.14,1.29-.13,1.87s-.82.9-1.37,1.18c-.12.06-.27.08-.4.08-.16,0-.3.05-.46.03-.13-.02-.34,0-.45-.07-.16-.08-.3-.14-.47-.18-.24-.07-.5-.34-.7-.5-.24-.19-.44-.45-.61-.7-.31-.46-.55-1.13-.55-1.69,0-.77.16-1.54.39-2.27-1.19-.31-2.38-.79-3.28-1.65s-1.47-2.12-1.3-3.34c.09-.67.34-1.15.81-1.63.4-.4,1.03-.57,1.58-.57,1.23,0,2.27,1.05,2.84,2.05.66,1.17.47,2.63.2,3.88Z"/>
    <path class="cls-2" d="M150.02,158.58c-.21-.54-.39-1.11-.59-1.66-.22-.62-.5-1.18-.86-1.72-.34-.51-.67-1-1.11-1.42-.18-.17-.44-.4-.68-.48-.13-.05-.24-.07-.39-.07-.17,0-.25.02-.4.08-.56.22-.69.88-.69,1.43,0,.59.14,1.23.38,1.77.13.3.25.61.41.89.14.26.23.54.41.77.37.48.65,1.07,1.17,1.4.16.1.31.2.46.29.16.1.3.13.52.14.09,0,.19-.01.27-.04q.09-.03.21-.11c.11-.07.31-.23.38-.34.17-.31.36-.61.53-.94ZM148.79,166.58l-.12-.3c.22-.2.49-.34.7-.55s.38-.43.53-.69c.32-.53.43-1.14.52-1.73.05-.3.09-.59.12-.9s-.02-.61-.04-.92c-.04-.65-.11-1.32-.27-1.95l-.07-.27c-.21.6-.53,1.06-1.03,1.46-.24.19-.53.33-.85.36s-.59-.09-.88-.17-.57-.32-.79-.5c-.24-.2-.46-.4-.66-.64-.37-.44-.7-1.04-.91-1.58-.47-1.19-.65-2.41-.43-3.68.09-.54.31-1.12.74-1.48.49-.4,1.06-.54,1.68-.42.54.1,1.15.56,1.55.9.46.39.86.88,1.2,1.38.71,1.03,1.18,2.21,1.5,3.42.32,1.24.41,2.49.3,3.77-.11,1.19-.47,2.47-1.21,3.42-.41.53-.98.84-1.59,1.08Z"/>
    <path class="cls-2" d="M140.29,159.89l1.76,6.54c.45-2.46.9-4.93,1.35-7.39-1.04.28-2.07.56-3.11.84ZM138.01,160.5l-.38-1.38,1.19-.35-.92-3.47,1.07-.27.97,3.47,3.77-1,.26,1.05c.03.13.04.18.02.31-.1.52-.19,1.03-.29,1.55l-1,5.44-.5,2.7-.69.19c-.74-2.75-1.48-5.5-2.22-8.25l-.09-.34-1.2.35Z"/>
    <polygon class="cls-2" points="116.78 75.99 116.78 97.74 95.03 97.74 95.03 119.49 116.78 119.49 116.78 141.24 138.52 141.24 138.52 119.49 160.27 119.49 160.27 97.74 138.52 97.74 138.52 75.99 116.78 75.99"/>
    <g>
      <path class="cls-1" d="M48.13,194.64l2.53.8c-.39,1.41-1.03,2.46-1.93,3.14-.9.68-2.05,1.03-3.43,1.03-1.72,0-3.13-.59-4.23-1.76-1.1-1.17-1.66-2.77-1.66-4.81,0-2.15.56-3.82,1.67-5.01s2.57-1.78,4.38-1.78c1.58,0,2.86.47,3.85,1.4.59.55,1.03,1.35,1.32,2.38l-2.58.62c-.15-.67-.47-1.2-.96-1.59-.48-.39-1.07-.58-1.77-.58-.96,0-1.73.34-2.33,1.03-.6.69-.89,1.8-.89,3.34,0,1.63.29,2.8.88,3.49.59.69,1.35,1.04,2.29,1.04.69,0,1.29-.22,1.79-.66.5-.44.86-1.13,1.08-2.08Z"/>
      <path class="cls-1" d="M55.25,199.39h-2.48v-9.36h2.3v1.33c.39-.63.75-1.04,1.06-1.24.31-.2.67-.3,1.07-.3.56,0,1.11.16,1.63.47l-.77,2.16c-.42-.27-.8-.41-1.16-.41s-.64.1-.88.29c-.24.19-.43.54-.57,1.04-.14.5-.21,1.55-.21,3.14v2.89Z"/>
      <path class="cls-1" d="M59.33,194.58c0-.82.2-1.62.61-2.39.41-.77.98-1.36,1.72-1.76s1.57-.61,2.49-.61c1.42,0,2.58.46,3.48,1.38.9.92,1.36,2.08,1.36,3.49s-.46,2.59-1.37,3.52c-.91.93-2.06,1.4-3.45,1.4-.86,0-1.68-.19-2.45-.58-.78-.39-1.37-.96-1.78-1.71-.41-.75-.61-1.66-.61-2.74ZM61.87,194.71c0,.93.22,1.64.66,2.13.44.49.98.74,1.63.74s1.19-.25,1.63-.74c.44-.49.66-1.21.66-2.15s-.22-1.62-.66-2.11c-.44-.49-.98-.74-1.63-.74s-1.19.25-1.63.74c-.44.49-.66,1.2-.66,2.13Z"/>
      <path class="cls-1" d="M79.09,192.8l-2.44.44c-.08-.49-.27-.86-.56-1.1s-.67-.37-1.13-.37c-.62,0-1.11.21-1.48.64-.37.43-.55,1.14-.55,2.14,0,1.11.19,1.89.56,2.35.37.46.87.69,1.5.69.47,0,.85-.13,1.15-.4s.51-.73.63-1.38l2.43.41c-.25,1.12-.74,1.96-1.45,2.53-.72.57-1.68.86-2.88.86-1.37,0-2.46-.43-3.27-1.3-.81-.86-1.22-2.06-1.22-3.59s.41-2.75,1.22-3.61c.82-.86,1.92-1.29,3.31-1.29,1.14,0,2.05.25,2.72.74.67.49,1.16,1.24,1.45,2.24Z"/>
      <path class="cls-1" d="M86.38,196.41l2.47.41c-.32.9-.82,1.59-1.5,2.07-.68.47-1.54.71-2.57.71-1.63,0-2.83-.53-3.61-1.6-.62-.85-.93-1.93-.93-3.23,0-1.55.41-2.77,1.22-3.64.81-.88,1.84-1.32,3.08-1.32,1.39,0,2.49.46,3.3,1.38.8.92,1.19,2.33,1.15,4.23h-6.2c.02.73.22,1.31.6,1.71.38.41.86.61,1.43.61.39,0,.71-.11.98-.32.26-.21.46-.55.6-1.02ZM86.52,193.91c-.02-.72-.2-1.26-.56-1.63-.35-.37-.78-.56-1.29-.56-.54,0-.99.2-1.34.59s-.53.93-.52,1.6h3.7Z"/>
      <path class="cls-1" d="M96.04,199.39v-12.92h5.49c1.38,0,2.38.12,3.01.35.63.23,1.13.64,1.5,1.24.38.59.56,1.27.56,2.04,0,.97-.28,1.77-.85,2.4-.57.63-1.42,1.03-2.56,1.19.56.33,1.03.69,1.4,1.08.37.39.86,1.09,1.48,2.1l1.58,2.52h-3.12l-1.89-2.81c-.67-1-1.13-1.64-1.37-1.9-.25-.26-.51-.44-.78-.54-.28-.1-.71-.15-1.31-.15h-.53v5.39h-2.61ZM98.65,191.93h1.93c1.25,0,2.03-.05,2.34-.16.31-.11.56-.29.73-.55.18-.26.26-.58.26-.97,0-.43-.12-.79-.35-1.05-.23-.27-.56-.44-.98-.51-.21-.03-.85-.04-1.9-.04h-2.04v3.28Z"/>
      <path class="cls-1" d="M108.47,194.58c0-.82.2-1.62.61-2.39.41-.77.98-1.36,1.72-1.76s1.57-.61,2.49-.61c1.42,0,2.58.46,3.48,1.38.9.92,1.36,2.08,1.36,3.49s-.46,2.59-1.37,3.52c-.91.93-2.06,1.4-3.45,1.4-.86,0-1.68-.19-2.45-.58-.78-.39-1.37-.96-1.78-1.71-.41-.75-.61-1.66-.61-2.74ZM111.01,194.71c0,.93.22,1.64.66,2.13.44.49.98.74,1.63.74s1.19-.25,1.63-.74c.44-.49.66-1.21.66-2.15s-.22-1.62-.66-2.11c-.44-.49-.98-.74-1.63-.74s-1.19.25-1.63.74c-.44.49-.66,1.2-.66,2.13Z"/>
      <path class="cls-1" d="M119.2,196.72l2.49-.38c.11.48.32.85.64,1.1.32.25.78.37,1.36.37.64,0,1.12-.12,1.45-.35.22-.16.33-.38.33-.66,0-.19-.06-.34-.18-.47-.12-.12-.4-.23-.83-.33-2-.44-3.26-.84-3.8-1.21-.74-.51-1.11-1.21-1.11-2.11,0-.81.32-1.49.96-2.04.64-.55,1.63-.83,2.98-.83s2.23.21,2.86.63c.62.42,1.05,1.03,1.29,1.85l-2.34.43c-.1-.36-.29-.64-.57-.84s-.68-.29-1.19-.29c-.65,0-1.12.09-1.4.27-.19.13-.28.3-.28.5,0,.18.08.33.25.45.22.16.99.4,2.31.7,1.32.3,2.24.67,2.76,1.1.52.44.78,1.05.78,1.84,0,.86-.36,1.6-1.07,2.21-.72.62-1.78.93-3.18.93-1.27,0-2.28-.26-3.03-.78-.74-.52-1.23-1.22-1.46-2.11Z"/>
      <path class="cls-1" d="M129.24,196.72l2.49-.38c.11.48.32.85.64,1.1.32.25.78.37,1.36.37.64,0,1.12-.12,1.44-.35.22-.16.33-.38.33-.66,0-.19-.06-.34-.18-.47-.12-.12-.4-.23-.83-.33-2-.44-3.26-.84-3.8-1.21-.74-.51-1.11-1.21-1.11-2.11,0-.81.32-1.49.96-2.04.64-.55,1.63-.83,2.98-.83s2.23.21,2.86.63c.62.42,1.05,1.03,1.29,1.85l-2.34.43c-.1-.36-.29-.64-.57-.84-.28-.19-.68-.29-1.19-.29-.65,0-1.12.09-1.4.27-.19.13-.28.3-.28.5,0,.18.08.33.25.45.22.16.99.4,2.31.7,1.32.3,2.24.67,2.76,1.1.52.44.78,1.05.78,1.84,0,.86-.36,1.6-1.07,2.21-.72.62-1.78.93-3.18.93-1.28,0-2.28-.26-3.03-.78-.74-.52-1.23-1.22-1.46-2.11Z"/>
      <path class="cls-1" d="M142,192.88l-2.25-.41c.25-.9.69-1.57,1.3-2.01.62-.43,1.53-.65,2.75-.65,1.1,0,1.93.13,2.47.39.54.26.92.59,1.14,1,.22.4.33,1.14.33,2.22l-.03,2.89c0,.82.04,1.43.12,1.82.08.39.23.81.45,1.26h-2.45c-.06-.16-.14-.41-.24-.73-.04-.15-.07-.24-.09-.29-.42.41-.88.72-1.36.93-.48.21-1,.31-1.54.31-.96,0-1.72-.26-2.28-.78s-.83-1.18-.83-1.98c0-.53.13-1,.38-1.41.25-.41.61-.73,1.06-.95.46-.22,1.11-.41,1.97-.58,1.16-.22,1.96-.42,2.41-.61v-.25c0-.48-.12-.82-.35-1.02-.23-.2-.68-.3-1.33-.3-.44,0-.78.09-1.03.26-.25.17-.45.48-.6.91ZM145.31,194.89c-.32.11-.82.23-1.51.38s-1.14.29-1.35.43c-.32.23-.48.52-.48.87s.13.65.39.9.59.38.99.38c.45,0,.87-.15,1.28-.44.3-.22.5-.5.59-.82.06-.21.1-.61.1-1.21v-.49Z"/>
      <path class="cls-1" d="M155.14,199.39v-12.92h2.61v12.92h-2.61Z"/>
      <path class="cls-1" d="M164.5,190.03v1.97h-1.69v3.77c0,.76.02,1.21.05,1.34s.11.23.22.31c.11.08.25.12.42.12.23,0,.56-.08,1-.24l.21,1.92c-.58.25-1.23.37-1.96.37-.45,0-.85-.08-1.21-.22-.36-.15-.62-.34-.79-.58-.17-.24-.28-.56-.35-.96-.05-.29-.08-.87-.08-1.74v-4.08h-1.14v-1.97h1.14v-1.86l2.49-1.44v3.3h1.69Z"/>
      <path class="cls-1" d="M168.07,192.88l-2.25-.41c.25-.9.69-1.57,1.3-2.01.62-.43,1.53-.65,2.75-.65,1.1,0,1.93.13,2.47.39.54.26.92.59,1.14,1,.22.4.33,1.14.33,2.22l-.03,2.89c0,.82.04,1.43.12,1.82.08.39.23.81.45,1.26h-2.45c-.06-.16-.14-.41-.24-.73-.04-.15-.07-.24-.09-.29-.42.41-.88.72-1.36.93-.48.21-1,.31-1.54.31-.96,0-1.72-.26-2.28-.78s-.83-1.18-.83-1.98c0-.53.13-1,.38-1.41.25-.41.61-.73,1.06-.95.46-.22,1.11-.41,1.97-.58,1.16-.22,1.96-.42,2.41-.61v-.25c0-.48-.12-.82-.35-1.02-.23-.2-.68-.3-1.33-.3-.44,0-.78.09-1.03.26-.25.17-.45.48-.6.91ZM171.38,194.89c-.32.11-.82.23-1.51.38s-1.14.29-1.35.43c-.32.23-.48.52-.48.87s.13.65.39.9.59.38.99.38c.45,0,.87-.15,1.28-.44.3-.22.5-.5.59-.82.06-.21.1-.61.1-1.21v-.49Z"/>
      <path class="cls-1" d="M176.26,199.39v-12.92h2.48v12.92h-2.48Z"/>
      <path class="cls-1" d="M181.27,188.76v-2.29h2.48v2.29h-2.48ZM181.27,199.39v-9.36h2.48v9.36h-2.48Z"/>
      <path class="cls-1" d="M188.14,192.88l-2.25-.41c.25-.9.69-1.57,1.3-2.01.62-.43,1.53-.65,2.75-.65,1.1,0,1.93.13,2.47.39.54.26.92.59,1.14,1,.22.4.33,1.14.33,2.22l-.03,2.89c0,.82.04,1.43.12,1.82.08.39.23.81.45,1.26h-2.45c-.06-.16-.14-.41-.24-.73-.04-.15-.07-.24-.09-.29-.42.41-.88.72-1.36.93-.48.21-1,.31-1.54.31-.96,0-1.72-.26-2.28-.78-.56-.52-.83-1.18-.83-1.98,0-.53.13-1,.38-1.41.25-.41.61-.73,1.06-.95.46-.22,1.11-.41,1.97-.58,1.16-.22,1.96-.42,2.41-.61v-.25c0-.48-.12-.82-.35-1.02-.23-.2-.68-.3-1.33-.3-.44,0-.78.09-1.03.26-.25.17-.45.48-.6.91ZM191.45,194.89c-.32.11-.82.23-1.51.38s-1.14.29-1.35.43c-.32.23-.48.52-.48.87s.13.65.39.9.59.38.99.38c.45,0,.87-.15,1.28-.44.3-.22.5-.5.59-.82.06-.21.1-.61.1-1.21v-.49Z"/>
      <path class="cls-1" d="M204.84,199.39h-2.48v-4.78c0-1.01-.05-1.66-.16-1.96-.11-.3-.28-.53-.52-.69-.24-.16-.52-.25-.86-.25-.43,0-.81.12-1.15.35-.34.24-.57.55-.7.93s-.19,1.1-.19,2.15v4.24h-2.48v-9.36h2.3v1.37c.82-1.06,1.84-1.59,3.08-1.59.55,0,1.05.1,1.5.3.45.2.79.45,1.03.75.23.31.39.65.48,1.04.09.39.14.94.14,1.67v5.82Z"/>
      <path class="cls-1" d="M209.2,192.88l-2.25-.41c.25-.9.69-1.57,1.3-2.01.62-.43,1.53-.65,2.75-.65,1.1,0,1.93.13,2.47.39.54.26.92.59,1.14,1,.22.4.33,1.14.33,2.22l-.03,2.89c0,.82.04,1.43.12,1.82.08.39.23.81.45,1.26h-2.45c-.06-.16-.14-.41-.24-.73-.04-.15-.07-.24-.09-.29-.42.41-.88.72-1.36.93-.48.21-1,.31-1.54.31-.96,0-1.72-.26-2.28-.78s-.83-1.18-.83-1.98c0-.53.13-1,.38-1.41.25-.41.61-.73,1.06-.95.46-.22,1.11-.41,1.97-.58,1.16-.22,1.96-.42,2.41-.61v-.25c0-.48-.12-.82-.35-1.02-.23-.2-.68-.3-1.33-.3-.44,0-.78.09-1.03.26-.25.17-.45.48-.6.91ZM212.51,194.89c-.32.11-.82.23-1.51.38s-1.14.29-1.35.43c-.32.23-.48.52-.48.87s.13.65.39.9.59.38.99.38c.45,0,.87-.15,1.28-.44.3-.22.5-.5.59-.82.06-.21.1-.61.1-1.21v-.49Z"/>
    </g>
  </g>
</svg>