<?xml version="1.0" encoding="UTF-8"?>
<svg id="Layer_1" data-name="Layer 1" xmlns="http://www.w3.org/2000/svg" viewBox="0 0 961.9 240">
  <defs>
    <style>
      .cls-1 {
        fill: #6d6e70;
      }

      .cls-2 {
        fill: #ee2435;
      }
    </style>
  </defs>
  <g>
    <polygon class="cls-2" points="74.46 129.84 45.66 129.84 45.66 106.59 74.46 106.59 74.46 106.58 74.46 79.47 99.15 79.47 99.15 106.58 99.15 106.59 127.96 106.59 127.96 129.83 99.15 129.83 99.15 156.95 74.46 156.95 74.46 129.83 74.46 129.84"/>
    <path class="cls-2" d="M166.16,117.79c0-18.06,15.55-32.7,34.73-32.7,4.28,0,8.36.73,12.14,2.06-7.11-5.29-16.08-8.45-25.84-8.45-23.02,0-41.69,17.56-41.69,39.24s18.67,39.24,41.69,39.24c10.09,0,19.34-3.38,26.55-8.99-3.97,1.49-8.31,2.3-12.85,2.3-19.18,0-34.73-14.64-34.73-32.7"/>
  </g>
  <g>
    <path class="cls-2" d="M372.3,104.72h-4.79l-1.14-5.03c-4.02,4.55-7.67,6.05-12.89,6.05-12.83,0-20.5-10.19-20.5-22.41s7.67-22.41,20.5-22.41c9.35,0,17.2,4.97,18.34,14.62h-7.31c-.72-5.63-5.63-8.51-11.03-8.51-9.17,0-13.01,8.09-13.01,16.3s3.84,16.3,13.01,16.3c7.67.12,11.87-4.5,11.99-11.75h-11.39v-5.69h18.22v22.53Z"/>
    <path class="cls-2" d="M379.67,61.93h6.83v42.79h-6.83v-42.79Z"/>
    <path class="cls-2" d="M392.5,89.19c0-9.47,5.69-16.3,15.64-16.3s15.64,6.83,15.64,16.3-5.69,16.36-15.64,16.36-15.64-6.83-15.64-16.36ZM416.95,89.19c0-5.33-2.7-10.91-8.81-10.91s-8.81,5.57-8.81,10.91,2.7,10.97,8.81,10.97,8.81-5.57,8.81-10.97Z"/>
    <path class="cls-2" d="M429.65,61.93h6.83v15.82h.12c1.86-3,5.75-4.85,9.23-4.85,9.77,0,14.5,7.43,14.5,16.48,0,8.33-4.2,16.18-13.36,16.18-4.2,0-8.69-1.02-10.73-5.09h-.12v4.26h-6.47v-42.79ZM444.94,78.29c-5.75,0-8.69,4.38-8.69,10.97,0,6.23,3.18,10.91,8.69,10.91,6.23,0,8.57-5.51,8.57-10.91s-2.94-10.97-8.57-10.97Z"/>
    <path class="cls-2" d="M492.04,97.83c0,1.68.36,2.34,1.62,2.34.42,0,.96,0,1.68-.12v4.73c-1.02.36-3.18.78-4.32.78-2.76,0-4.73-.96-5.27-3.78-2.7,2.64-7.07,3.78-10.73,3.78-5.57,0-10.61-3-10.61-9.05,0-7.73,6.17-8.99,11.93-9.65,4.91-.9,9.29-.36,9.29-4.38,0-3.54-3.66-4.2-6.41-4.2-3.84,0-6.53,1.56-6.83,4.91h-6.83c.48-7.97,7.25-10.31,14.08-10.31,6.05,0,12.41,2.46,12.41,8.99v15.94ZM485.21,89.19c-2.1,1.38-5.39,1.32-8.39,1.86-2.94.48-5.57,1.56-5.57,5.15,0,3.06,3.9,3.96,6.29,3.96,3,0,7.67-1.56,7.67-5.87v-5.09Z"/>
    <path class="cls-2" d="M499.59,61.93h6.83v42.79h-6.83v-42.79Z"/>
    <path class="cls-1" d="M531.48,61.93h17.74c13.19,0,18.88,9.59,18.88,21.4s-5.69,21.4-18.88,21.4h-17.74v-42.79ZM538.97,98.6h7.37c11.75,0,14.26-6.71,14.26-15.28s-2.52-15.28-14.26-15.28h-7.37v30.57Z"/>
    <path class="cls-1" d="M573.97,61.93h6.83v6.47h-6.83v-6.47ZM573.97,73.73h6.83v30.99h-6.83v-30.99Z"/>
    <path class="cls-1" d="M593.38,94.77c.36,3.96,3.36,5.39,7.01,5.39,2.58,0,7.07-.54,6.89-4.08-.18-3.6-5.15-4.02-10.13-5.15-5.03-1.08-9.95-2.88-9.95-9.17,0-6.77,7.31-8.87,12.95-8.87,6.35,0,12.11,2.64,12.95,9.53h-7.13c-.6-3.24-3.3-4.14-6.29-4.14-1.98,0-5.63.48-5.63,3.18,0,3.36,5.03,3.84,10.07,4.97,4.97,1.14,10.01,2.94,10.01,9.05,0,7.37-7.43,10.07-13.84,10.07-7.79,0-13.6-3.48-13.72-10.79h6.83Z"/>
    <path class="cls-1" d="M645.28,97.83c0,1.68.36,2.34,1.62,2.34.42,0,.96,0,1.68-.12v4.73c-1.02.36-3.18.78-4.32.78-2.76,0-4.73-.96-5.27-3.78-2.7,2.64-7.07,3.78-10.73,3.78-5.57,0-10.61-3-10.61-9.05,0-7.73,6.17-8.99,11.93-9.65,4.91-.9,9.29-.36,9.29-4.38,0-3.54-3.66-4.2-6.41-4.2-3.84,0-6.53,1.56-6.83,4.91h-6.83c.48-7.97,7.25-10.31,14.08-10.31,6.05,0,12.41,2.46,12.41,8.99v15.94ZM638.45,89.19c-2.1,1.38-5.39,1.32-8.39,1.86-2.94.48-5.57,1.56-5.57,5.15,0,3.06,3.9,3.96,6.29,3.96,3,0,7.67-1.56,7.67-5.87v-5.09Z"/>
    <path class="cls-1" d="M657.81,94.77c.36,3.96,3.36,5.39,7.01,5.39,2.58,0,7.07-.54,6.89-4.08-.18-3.6-5.15-4.02-10.13-5.15-5.03-1.08-9.95-2.88-9.95-9.17,0-6.77,7.31-8.87,12.95-8.87,6.35,0,12.11,2.64,12.95,9.53h-7.13c-.6-3.24-3.3-4.14-6.29-4.14-1.98,0-5.63.48-5.63,3.18,0,3.36,5.03,3.84,10.07,4.97,4.97,1.14,10.01,2.94,10.01,9.05,0,7.37-7.43,10.07-13.84,10.07-7.79,0-13.6-3.48-13.72-10.79h6.83Z"/>
    <path class="cls-1" d="M680.64,73.73h5.15v-9.29h6.83v9.29h6.17v5.09h-6.17v16.54c0,2.82.24,4.26,3.3,4.26.96,0,1.92,0,2.88-.24v5.27c-1.5.12-2.94.36-4.44.36-7.13,0-8.45-2.76-8.57-7.91v-18.28h-5.15v-5.09Z"/>
    <path class="cls-1" d="M709.05,90.99c0,4.85,2.64,9.17,8.33,9.17,3.96,0,6.35-1.74,7.55-5.15h6.47c-1.5,6.77-7.25,10.55-14.02,10.55-9.71,0-15.16-6.77-15.16-16.3,0-8.81,5.75-16.36,14.98-16.36,9.77,0,15.76,8.81,14.62,18.1h-22.77ZM724.99,86.5c-.24-4.32-3.18-8.21-7.79-8.21s-7.97,3.6-8.15,8.21h15.94Z"/>
    <path class="cls-1" d="M737.04,73.73h6.41v5.99h.12c.78-3.3,4.85-6.83,9.05-6.83,1.56,0,1.98.12,2.58.18v6.59c-.96-.12-1.98-.3-2.94-.3-4.67,0-8.39,3.78-8.39,10.61v14.74h-6.83v-30.99Z"/>
    <path class="cls-1" d="M334.96,124.85h18.88c12.23,0,14.56,7.91,14.56,13.25s-2.34,13.19-14.56,13.13h-11.39v16.42h-7.49v-42.79ZM342.45,145.11h10.97c3.36,0,7.49-1.68,7.49-7.07s-3.42-7.07-7.37-7.07h-11.09v14.14Z"/>
    <path class="cls-1" d="M373.98,136.66h6.41v5.99h.12c.78-3.3,4.85-6.83,9.05-6.83,1.56,0,1.98.12,2.58.18v6.59c-.96-.12-1.98-.3-2.94-.3-4.67,0-8.39,3.78-8.39,10.61v14.74h-6.83v-30.98Z"/>
    <path class="cls-1" d="M399.33,153.92c0,4.85,2.64,9.17,8.33,9.17,3.96,0,6.35-1.74,7.55-5.15h6.47c-1.5,6.77-7.25,10.55-14.02,10.55-9.71,0-15.16-6.77-15.16-16.3,0-8.81,5.75-16.36,14.98-16.36,9.77,0,15.76,8.81,14.62,18.1h-22.77ZM415.27,149.43c-.24-4.32-3.18-8.21-7.79-8.21s-7.97,3.6-8.15,8.21h15.94Z"/>
    <path class="cls-1" d="M427.5,136.66h6.47v4.2h.12c1.92-3.54,5.63-5.03,9.59-5.03,9.77,0,14.5,7.43,14.5,16.48,0,8.33-4.2,16.18-13.37,16.18-3.96,0-8.21-1.44-10.37-4.85h-.12v15.46h-6.83v-42.43ZM442.78,141.22c-5.75,0-8.69,4.37-8.69,10.97,0,6.23,3.18,10.91,8.69,10.91,6.23,0,8.57-5.51,8.57-10.91s-2.94-10.97-8.57-10.97Z"/>
    <path class="cls-1" d="M489.88,160.75c0,1.68.36,2.34,1.62,2.34.42,0,.96,0,1.68-.12v4.73c-1.02.36-3.18.78-4.32.78-2.76,0-4.73-.96-5.27-3.78-2.7,2.64-7.07,3.78-10.73,3.78-5.57,0-10.61-3-10.61-9.05,0-7.73,6.17-8.99,11.93-9.65,4.91-.9,9.29-.36,9.29-4.38,0-3.54-3.66-4.2-6.41-4.2-3.84,0-6.53,1.56-6.83,4.91h-6.83c.48-7.97,7.25-10.31,14.08-10.31,6.05,0,12.41,2.46,12.41,8.99v15.94ZM483.05,152.12c-2.1,1.38-5.39,1.32-8.39,1.86-2.94.48-5.57,1.56-5.57,5.15,0,3.06,3.9,3.96,6.29,3.96,3,0,7.67-1.56,7.67-5.87v-5.09Z"/>
    <path class="cls-1" d="M497.26,136.66h6.41v5.99h.12c.78-3.3,4.85-6.83,9.05-6.83,1.56,0,1.98.12,2.58.18v6.59c-.96-.12-1.98-.3-2.94-.3-4.67,0-8.39,3.78-8.39,10.61v14.74h-6.83v-30.98Z"/>
    <path class="cls-1" d="M522.61,153.92c0,4.85,2.64,9.17,8.33,9.17,3.96,0,6.35-1.74,7.55-5.15h6.47c-1.5,6.77-7.25,10.55-14.02,10.55-9.71,0-15.16-6.77-15.16-16.3,0-8.81,5.75-16.36,14.98-16.36,9.77,0,15.76,8.81,14.62,18.1h-22.77ZM538.55,149.43c-.24-4.32-3.18-8.21-7.79-8.21s-7.97,3.6-8.15,8.21h15.94Z"/>
    <path class="cls-1" d="M579.78,167.65h-6.47v-4.2h-.12c-1.8,3.54-5.69,5.03-9.59,5.03-9.77,0-14.5-7.25-14.5-16.54,0-11.21,6.65-16.12,13.42-16.12,3.9,0,8.21,1.44,10.31,4.85h.12v-15.82h6.83v42.79ZM564.5,163.09c6.11,0,8.69-5.57,8.69-10.97,0-6.83-3.3-10.91-8.57-10.91-6.41,0-8.69,5.69-8.69,11.27s2.64,10.61,8.57,10.61Z"/>
    <path class="cls-1" d="M587.21,136.66h6.47v4.55l.12.12c2.04-3.42,5.57-5.51,9.65-5.51,6.71,0,10.97,3.6,10.97,10.55v21.28h-6.83v-19.48c-.12-4.85-2.04-6.95-6.05-6.95-4.55,0-7.49,3.6-7.49,8.15v18.28h-6.83v-30.98Z"/>
    <path class="cls-1" d="M626.95,153.92c0,4.85,2.64,9.17,8.33,9.17,3.96,0,6.35-1.74,7.55-5.15h6.47c-1.5,6.77-7.25,10.55-14.02,10.55-9.71,0-15.16-6.77-15.16-16.3,0-8.81,5.75-16.36,14.98-16.36,9.77,0,15.76,8.81,14.62,18.1h-22.77ZM642.89,149.43c-.24-4.32-3.18-8.21-7.79-8.21s-7.97,3.6-8.15,8.21h15.94Z"/>
    <path class="cls-1" d="M660.09,157.7c.36,3.96,3.36,5.39,7.01,5.39,2.58,0,7.07-.54,6.89-4.08-.18-3.6-5.15-4.02-10.13-5.15-5.03-1.08-9.95-2.88-9.95-9.17,0-6.77,7.31-8.87,12.95-8.87,6.35,0,12.11,2.64,12.95,9.53h-7.13c-.6-3.24-3.3-4.14-6.29-4.14-1.98,0-5.63.48-5.63,3.18,0,3.36,5.03,3.84,10.07,4.97,4.97,1.14,10.01,2.94,10.01,9.05,0,7.37-7.43,10.07-13.84,10.07-7.79,0-13.6-3.48-13.72-10.79h6.83Z"/>
    <path class="cls-1" d="M691.19,157.7c.36,3.96,3.36,5.39,7.01,5.39,2.58,0,7.07-.54,6.89-4.08-.18-3.6-5.15-4.02-10.13-5.15-5.03-1.08-9.95-2.88-9.95-9.17,0-6.77,7.31-8.87,12.95-8.87,6.35,0,12.11,2.64,12.95,9.53h-7.13c-.6-3.24-3.3-4.14-6.29-4.14-1.98,0-5.63.48-5.63,3.18,0,3.36,5.03,3.84,10.07,4.97,4.97,1.14,10.01,2.94,10.01,9.05,0,7.37-7.43,10.07-13.84,10.07-7.79,0-13.6-3.48-13.72-10.79h6.83Z"/>
    <path class="cls-1" d="M763.65,138.46c-1.26-4.91-4.44-8.51-10.67-8.51-9.17,0-13.01,8.09-13.01,16.3s3.84,16.3,13.01,16.3c6.65,0,10.31-4.97,10.91-11.21h7.31c-.6,10.25-7.85,17.32-18.22,17.32-12.83,0-20.5-10.19-20.5-22.41s7.67-22.41,20.5-22.41c9.65.06,17.26,5.39,18.16,14.62h-7.49Z"/>
    <path class="cls-1" d="M782.41,153.92c0,4.85,2.64,9.17,8.33,9.17,3.96,0,6.35-1.74,7.55-5.15h6.47c-1.5,6.77-7.25,10.55-14.02,10.55-9.71,0-15.16-6.77-15.16-16.3,0-8.81,5.75-16.36,14.98-16.36,9.77,0,15.76,8.81,14.62,18.1h-22.77ZM798.35,149.43c-.24-4.32-3.18-8.21-7.79-8.21s-7.97,3.6-8.15,8.21h15.94Z"/>
    <path class="cls-1" d="M810.4,136.66h6.47v4.55l.12.12c2.04-3.42,5.57-5.51,9.65-5.51,6.71,0,10.97,3.6,10.97,10.55v21.28h-6.83v-19.48c-.12-4.85-2.04-6.95-6.05-6.95-4.55,0-7.49,3.6-7.49,8.15v18.28h-6.83v-30.98Z"/>
    <path class="cls-1" d="M841.68,136.66h5.15v-9.29h6.83v9.29h6.17v5.09h-6.17v16.54c0,2.82.24,4.26,3.3,4.26.96,0,1.92,0,2.88-.24v5.27c-1.5.12-2.94.36-4.43.36-7.13,0-8.45-2.76-8.57-7.91v-18.28h-5.15v-5.09Z"/>
    <path class="cls-1" d="M870.09,153.92c0,4.85,2.64,9.17,8.33,9.17,3.96,0,6.35-1.74,7.55-5.15h6.47c-1.5,6.77-7.25,10.55-14.02,10.55-9.71,0-15.16-6.77-15.16-16.3,0-8.81,5.75-16.36,14.98-16.36,9.77,0,15.76,8.81,14.62,18.1h-22.77ZM886.03,149.43c-.24-4.32-3.18-8.21-7.79-8.21s-7.97,3.6-8.15,8.21h15.94Z"/>
    <path class="cls-1" d="M898.07,136.66h6.41v5.99h.12c.78-3.3,4.85-6.83,9.05-6.83,1.56,0,1.98.12,2.58.18v6.59c-.96-.12-1.98-.3-2.94-.3-4.67,0-8.39,3.78-8.39,10.61v14.74h-6.83v-30.98Z"/>
  </g>
</svg>