<?xml version="1.0" encoding="UTF-8"?>
<svg id="Layer_1" data-name="Layer 1" xmlns="http://www.w3.org/2000/svg" viewBox="0 0 638.14 240">
  <defs>
    <style>
      .cls-1 {
        fill: #ee2435;
      }
    </style>
  </defs>
  <polygon class="cls-1" points="152.63 59.92 152.63 100.38 112.18 100.38 112.18 140.59 152.63 140.59 152.63 181.05 192.85 181.05 192.85 140.59 233.31 140.59 233.31 100.38 192.85 100.38 192.85 59.92 152.63 59.92"/>
  <path d="M340.14,71.06h-6.78c-.14-3.49-3.08-6.21-6.57-6.07-.07,0-.14,0-.22.01-4.85,0-7.99,4.12-7.99,10.9s2.91,10.9,7.75,10.9c3.48.26,6.51-2.36,6.77-5.84,0-.07,0-.14.01-.22h6.78c-.73,7.75-5.81,12.11-13.57,12.11-8.96,0-14.54-6.3-14.54-16.96s5.57-16.96,14.78-16.96c8.24.24,13.32,5.09,13.57,12.11Z"/>
  <path d="M364.13,77.6v8.24c-.09,2.12.16,4.25.73,6.3h-5.81c-.21-1.04-.29-2.09-.24-3.15h0c-1.73,2.4-4.55,3.77-7.51,3.63-3.81.44-7.27-2.29-7.71-6.11-.04-.31-.05-.61-.05-.92,0-3.88,2.18-6.3,8.96-7.27,1.7-.24,4.36-.48,5.81-.73v-.73c0-2.91-1.45-4.12-3.88-4.12-1.88-.24-3.61,1.09-3.85,2.98-.02.14-.03.28-.03.42h-6.06c.24-4.36,3.39-7.99,9.93-7.99s9.69,3.39,9.69,9.45ZM358.07,81.72c-1.54.04-3.08.2-4.6.48-2.66.48-3.63,1.21-3.63,3.15s1.21,2.91,3.39,2.91c1.31-.03,2.57-.45,3.63-1.21.97-1.23,1.4-2.8,1.21-4.36v-.97Z"/>
  <path d="M391.26,78.09v14.05h-6.3v-13.57c0-3.39-1.45-5.09-4.12-5.09s-4.6,2.18-4.6,6.3v12.36h-6.3v-23.01h6.06v2.91h0c1.6-2.14,4.11-3.39,6.78-3.39,5.33,0,8.48,3.15,8.48,9.45Z"/>
  <path d="M416.21,77.6v8.24c-.09,2.12.16,4.25.73,6.3h-5.81c-.21-1.04-.29-2.09-.24-3.15h0c-1.73,2.4-4.55,3.77-7.51,3.63-3.81.44-7.27-2.29-7.71-6.11-.04-.31-.05-.61-.05-.92,0-3.88,2.18-6.3,8.96-7.27,1.7-.24,4.36-.48,5.81-.73v-.73c0-2.91-1.45-4.12-3.88-4.12-1.88-.24-3.61,1.09-3.85,2.98-.02.14-.03.28-.03.42h-6.06c.24-4.36,3.39-7.99,9.93-7.99s9.69,3.39,9.69,9.45ZM410.16,81.72c-1.54.04-3.08.2-4.6.48-2.66.48-3.63,1.21-3.63,3.15s1.21,2.91,3.39,2.91c1.31-.03,2.57-.45,3.63-1.21.97-1.23,1.4-2.8,1.21-4.36v-.97Z"/>
  <path d="M436.81,92.14v-3.15h0c-1.36,2.3-3.86,3.69-6.54,3.63-5.81,0-9.69-4.85-9.69-12.11s3.63-12.11,9.45-12.11c2.61-.05,5.07,1.23,6.54,3.39h0v-12.11h6.3v32.22h-6.06v.24ZM427.12,80.75c0,4.36,1.94,7.27,5.09,7.27s4.85-2.66,4.85-7.27-1.94-7.27-4.85-7.27-5.09,2.91-5.09,7.27Z"/>
  <path d="M449.16,65.49v-5.57h6.3v5.33h-6.3v.24ZM449.16,92.14v-23.01h6.3v23.01h-6.3Z"/>
  <path d="M480.66,77.6v8.24c-.09,2.12.16,4.25.73,6.3h-5.81c-.21-1.04-.29-2.09-.24-3.15h0c-1.73,2.4-4.55,3.77-7.51,3.63-3.81.44-7.27-2.29-7.71-6.11-.04-.31-.05-.61-.05-.92,0-3.88,2.18-6.3,8.96-7.27,1.7-.24,4.36-.48,5.81-.73v-.73c0-2.91-1.45-4.12-3.88-4.12-1.88-.24-3.61,1.09-3.85,2.98-.02.14-.03.28-.03.42h-6.06c.24-4.36,3.39-7.99,9.93-7.99s9.69,3.39,9.69,9.45ZM474.6,81.72c-1.54.04-3.08.2-4.6.48-2.66.48-3.63,1.21-3.63,3.15s1.21,2.91,3.39,2.91c1.31-.03,2.57-.45,3.63-1.21.97-1.23,1.4-2.8,1.21-4.36v-.97Z"/>
  <path d="M507.79,78.09v14.05h-6.3v-13.57c0-3.39-1.45-5.09-4.12-5.09s-4.6,2.18-4.6,6.3v12.36h-6.3v-23.01h6.06v2.91h0c1.6-2.14,4.11-3.39,6.78-3.39,5.09,0,8.48,3.15,8.48,9.45Z"/>
  <path d="M325.85,108.37c8.24,0,11.87,3.39,11.87,9.21.11,3.68-2.28,6.97-5.81,7.99h0c2.18.73,3.39,2.18,4.85,6.3l3.15,8.96h-7.27l-2.66-7.75c-1.21-3.39-2.42-4.6-5.57-4.6h-3.63v12.36h-6.78v-32.46h11.87ZM320.76,122.91h4.6c4.12,0,5.57-1.7,5.57-4.85s-2.18-4.6-6.06-4.6h-4.36v9.45h.24Z"/>
  <path d="M357.59,133.81h6.54c-1.33,4.85-5.89,8.09-10.9,7.75-7.27,0-11.39-5.09-11.39-12.36,0-6.78,4.12-12.11,11.39-12.11,4.93-.24,9.37,2.99,10.66,7.75.53,1.89.77,3.85.73,5.81h-16.47c.24,4.85,2.42,6.54,5.33,6.54,1.97-.09,3.65-1.47,4.12-3.39ZM348.14,126.54h10.18c-.48-3.39-2.42-5.09-5.09-5.09s-4.6,1.45-5.09,5.09Z"/>
  <path d="M384.48,140.59v-3.15h0c-1.36,2.3-3.86,3.69-6.54,3.63-5.81,0-9.69-4.85-9.69-12.11s3.63-12.11,9.45-12.11c2.61-.05,5.07,1.23,6.54,3.39h0v-12.11h6.3v32.22h-6.06v.24ZM374.79,129.21c0,4.36,1.94,7.27,5.09,7.27s4.85-2.66,4.85-7.27-1.94-7.27-4.85-7.27-5.09,2.91-5.09,7.27Z"/>
  <path d="M433.9,119.52h-6.78c-.14-3.49-3.08-6.21-6.57-6.07-.07,0-.14,0-.22.01-4.85,0-7.99,4.12-7.99,10.9s2.91,10.9,7.75,10.9c3.48.26,6.51-2.36,6.77-5.84,0-.07,0-.14.01-.22h6.78c-.73,7.75-5.81,12.11-13.57,12.11-8.96,0-14.54-6.3-14.54-16.96s5.57-16.96,14.78-16.96c8.24.24,13.32,5.09,13.57,12.11Z"/>
  <path d="M453.28,117.58v5.57c-.63-.19-1.28-.27-1.94-.24-3.88,0-6.06,2.42-6.06,7.03v10.9h-6.3v-23.01h5.81v3.15h0c1.26-2.29,3.69-3.69,6.3-3.63.74-.05,1.47.03,2.18.24Z"/>
  <path d="M478.23,129.21c0,7.51-4.6,12.36-11.87,12.36s-11.87-4.85-11.87-12.36,4.6-12.36,11.87-12.36,11.87,4.85,11.87,12.36ZM461.52,129.21c0,4.6,1.94,7.27,5.09,7.27s5.09-2.91,5.09-7.27-1.94-7.27-5.09-7.27-5.09,2.66-5.09,7.27h0Z"/>
  <path d="M501.49,124.6h-6.06c0-2.42-1.45-3.39-3.63-3.39s-3.15.73-3.15,2.18,1.45,1.94,4.85,2.91c4.12.97,8.72,2.18,8.72,7.75,0,4.36-3.88,7.27-10.18,7.27s-10.42-2.66-10.42-8.24h6.54c0,2.42,1.45,3.63,4.12,3.63,2.18,0,3.39-.97,3.39-2.18,0-1.94-1.7-2.42-5.33-3.39s-7.99-1.94-7.99-7.27c0-4.12,3.88-7.03,9.45-7.03,6.06,0,9.69,2.66,9.69,7.75Z"/>
  <path d="M525.23,124.6h-6.06c0-2.42-1.45-3.39-3.63-3.39s-3.15.73-3.15,2.18,1.45,1.94,4.85,2.91c4.12.97,8.72,2.18,8.72,7.75,0,4.36-3.88,7.27-10.18,7.27s-10.42-2.66-10.42-8.24h6.54c0,2.42,1.45,3.63,4.12,3.63,2.18,0,3.39-.97,3.39-2.18,0-1.94-1.7-2.42-5.33-3.39s-7.99-1.94-7.99-7.27c0-4.12,3.88-7.03,9.45-7.03,6.06,0,9.69,2.66,9.69,7.75Z"/>
</svg>