<?xml version="1.0" encoding="UTF-8"?>
<svg id="Layer_1" data-name="Layer 1" xmlns="http://www.w3.org/2000/svg" viewBox="0 0 638.14 240">
  <defs>
    <style>
      .cls-1 {
        fill: #ee2435;
      }
    </style>
  </defs>
  <path d="M201.01,79.43c-.72-.19-1.39-.3-2.11-.3-4.93,0-7.06,4.47-7.06,8.83s2.14,9.4,7.02,9.4c.72,0,1.43-.19,2.14-.42v5.3c-.83.34-1.69.49-2.59.49-8.08,0-12.55-7.29-12.55-14.73,0-7.03,4.66-14.25,12.29-14.25.97,0,1.91.19,2.85.53v5.15Z"/>
  <path d="M209.36,83.45v2.29h.08c.98-1.65,2.25-2.82,4.32-3.01v5.15c-.27-.04-.53-.08-.83-.08-3.53,0-3.57,2.33-3.57,5.15v9.47h-5.3v-18.98h5.3Z"/>
  <path d="M229.12,92.96c0,4.85-1.54,9.85-7.21,9.85s-7.22-5-7.22-9.85,1.54-9.88,7.22-9.88,7.21,5.04,7.21,9.88ZM219.99,92.96c0,1.09.07,5.11,1.92,5.11s1.91-4.02,1.91-5.11-.08-5.11-1.91-5.11-1.92,4.02-1.92,5.11Z"/>
  <path d="M172.98,148.8c-.71-.19-1.39-.3-2.1-.3-4.92,0-7.07,4.47-7.07,8.84s2.14,9.4,7.03,9.4c.72,0,1.43-.19,2.14-.42v5.3c-.83.34-1.69.49-2.59.49-8.08,0-12.55-7.29-12.55-14.73,0-7.03,4.66-14.25,12.29-14.25.98,0,1.92.19,2.86.53v5.15Z"/>
  <path d="M181.33,152.83v2.29h.08c.98-1.66,2.26-2.82,4.32-3.01v5.15c-.26-.04-.53-.08-.83-.08-3.53,0-3.57,2.33-3.57,5.15v9.47h-5.3v-18.98h5.3Z"/>
  <path d="M201.1,162.33c0,4.85-1.54,9.85-7.22,9.85s-7.22-5-7.22-9.85,1.54-9.89,7.22-9.89,7.22,5.03,7.22,9.89ZM191.97,162.33c0,1.09.07,5.11,1.91,5.11s1.92-4.02,1.92-5.11-.08-5.11-1.92-5.11-1.91,4.02-1.91,5.11Z"/>
  <path d="M230.66,77.77c0-1.92,1.54-3.34,3.46-3.34s3.27,1.62,3.27,3.42-1.54,3.34-3.38,3.34-3.35-1.54-3.35-3.42ZM236.68,83.45v18.98h-5.3v-18.98h5.3Z"/>
  <path d="M245.03,83.45l1.5,2.9.56,1.17,2.14-4.06h5.49l-4.85,8.76,5.6,10.22h-5.6l-2.78-5.22-2.82,5.22h-5.45l5.45-10.22-4.73-8.76h5.49Z"/>
  <path d="M267.01,87.51v5h-9.4v-5h9.4Z"/>
  <path d="M271.64,102.43v-28.34h5.64c3.57,0,9.96.38,9.96,8.12,0,3.12-1.24,5.79-4.02,7.33l4.92,12.89h-5.9l-4.93-13.08h-.08v13.08h-5.6ZM277.24,86.27l.98.04c2.56,0,3.57-1.73,3.57-4.06,0-2.03-.97-3.68-3.79-3.53h-.75v7.56Z"/>
  <path d="M303.5,92.96c0,4.85-1.54,9.85-7.22,9.85s-7.22-5-7.22-9.85,1.54-9.88,7.22-9.88,7.22,5.04,7.22,9.88ZM294.37,92.96c0,1.09.07,5.11,1.91,5.11s1.92-4.02,1.92-5.11-.07-5.11-1.92-5.11-1.91,4.02-1.91,5.11Z"/>
  <path d="M283.08,137.11v-28.34h5.64c3.57,0,9.96.38,9.96,8.12,0,3.12-1.24,5.79-4.02,7.33l4.92,12.89h-5.9l-4.92-13.08h-.07v13.08h-5.6ZM288.68,120.95l.97.04c2.56,0,3.57-1.73,3.57-4.06,0-2.03-.98-3.68-3.8-3.53h-.75v7.55Z"/>
  <path d="M314.93,127.64c0,4.85-1.54,9.85-7.22,9.85s-7.22-5-7.22-9.85,1.54-9.89,7.22-9.89,7.22,5.04,7.22,9.89ZM305.8,127.64c0,1.09.07,5.11,1.92,5.11s1.92-4.02,1.92-5.11-.08-5.11-1.92-5.11-1.92,4.02-1.92,5.11Z"/>
  <path d="M311.09,83.45v10.41c0,1.05-.42,3.99,1.35,3.99,1.43,0,1.32-1.88,1.32-2.82l.04-11.58h5.27v12.1c0,4.4-2.07,7.25-6.76,7.25-6.02,0-6.51-4.51-6.51-7.97v-11.39h5.3Z"/>
  <path d="M326.24,104.95c.07,1.2.41,2.71,1.92,2.71,2.37,0,2.03-3.57,2.03-5.19v-2.4h-.08c-.72,1.39-1.58,2.74-3.42,2.74-1.95,0-3.27-1.54-4.1-3.16-.94-1.88-1.24-4.32-1.24-6.43,0-3.31.6-10.15,5.11-10.15,1.77,0,3.04,1.16,3.65,2.67h.08v-2.29h5.3v20.64c0,5.56-2.48,7.78-7.1,7.78s-6.58-2.59-6.84-6.91h4.7ZM330.45,92.85c0-1.05-.08-5.07-1.88-5.07s-1.92,3.99-1.92,5.07c0,1.2.07,5.11,1.99,5.11,1.69,0,1.8-4.1,1.8-5.11Z"/>
  <path d="M351.27,94.35h-8.38c.04,1.39-.04,4.4,1.99,4.4,1.35,0,1.69-1.05,1.69-2.18h4.51c-.45,3.5-2.14,6.24-6.02,6.24-5.38,0-7.29-4.77-7.29-9.47s1.65-10.26,7.18-10.26c3.5,0,6.73,3.12,6.43,9.1l-.12,2.18ZM346.8,90.63c0-1.24-.26-3.5-1.92-3.5s-1.96,2.18-1.96,3.38v.56h3.87v-.45Z"/>
  <path d="M372.56,88.56c-.75-.68-1.47-1.24-2.56-1.24-.94,0-1.43.57-1.43,1.39.08,2.22,6.05,1.76,6.05,7.44,0,3.76-2.18,6.65-6.09,6.65-2.03,0-4.13-.86-5.71-2.18l2.33-3.76c.79.68,1.58,1.24,2.63,1.24.82,0,1.54-.6,1.54-1.58.07-2.52-6.05-1.88-6.05-7.89,0-3.61,3.01-5.56,6.35-5.56,1.92,0,3.54.49,5.07,1.62l-2.14,3.87Z"/>
  <path d="M382.44,83.45v10.41c0,1.05-.41,3.99,1.35,3.99,1.43,0,1.32-1.88,1.32-2.82l.04-11.58h5.26v12.1c0,4.4-2.07,7.25-6.77,7.25-6.02,0-6.5-4.51-6.5-7.97v-11.39h5.3Z"/>
  <path d="M392.91,77.77c0-1.92,1.54-3.34,3.46-3.34s3.27,1.62,3.27,3.42-1.54,3.34-3.38,3.34-3.35-1.54-3.35-3.42ZM398.92,83.45v18.98h-5.3v-18.98h5.3Z"/>
  <path d="M411.06,88.56c-.75-.68-1.47-1.24-2.55-1.24-.94,0-1.43.57-1.43,1.39.07,2.22,6.05,1.76,6.05,7.44,0,3.76-2.18,6.65-6.09,6.65-2.03,0-4.14-.86-5.71-2.18l2.33-3.76c.79.68,1.58,1.24,2.63,1.24.82,0,1.54-.6,1.54-1.58.07-2.52-6.05-1.88-6.05-7.89,0-3.61,3.01-5.56,6.35-5.56,1.92,0,3.53.49,5.07,1.62l-2.14,3.87Z"/>
  <path d="M425.2,88.56c-.75-.68-1.47-1.24-2.56-1.24-.94,0-1.43.57-1.43,1.39.08,2.22,6.05,1.76,6.05,7.44,0,3.76-2.18,6.65-6.09,6.65-2.03,0-4.13-.86-5.71-2.18l2.33-3.76c.79.68,1.58,1.24,2.63,1.24.83,0,1.54-.6,1.54-1.58.07-2.52-6.05-1.88-6.05-7.89,0-3.61,3.01-5.56,6.35-5.56,1.92,0,3.53.49,5.08,1.62l-2.14,3.87Z"/>
  <path d="M442.69,94.35h-8.39c.04,1.39-.04,4.4,1.99,4.4,1.35,0,1.69-1.05,1.69-2.18h4.51c-.45,3.5-2.15,6.24-6.01,6.24-5.37,0-7.29-4.77-7.29-9.47s1.66-10.26,7.18-10.26c3.5,0,6.73,3.12,6.43,9.1l-.11,2.18ZM438.22,90.63c0-1.24-.26-3.5-1.91-3.5s-1.96,2.18-1.96,3.38v.56h3.87v-.45Z"/>
  <path d="M69.31,115.16c-1.13-.98-2.52-1.81-4.06-1.81-1.73,0-2.82,1.05-2.82,2.78,0,4.66,8.53,4.92,8.53,12.59,0,5.04-2.89,8.83-8.16,8.83-1.58,0-3.53-.49-4.81-1.43v-5.34c1.31.9,2.59,1.5,4.25,1.5,1.81,0,3.23-1.2,3.23-3.08,0-2.18-1.73-3.01-3.31-4.13-3.23-2.18-5.23-4.29-5.23-8.42,0-4.47,2.59-8.34,7.41-8.34,1.8,0,3.42.49,4.96,1.39v5.45Z"/>
  <path d="M83.06,136.81c-.98.45-1.95.68-3.04.68-5.15,0-6.95-5.41-6.95-9.74,0-4.77,1.88-10,7.37-10,.94,0,1.77.19,2.63.56v4.66c-.49-.45-.9-.6-1.54-.6-2.59,0-3.16,3.12-3.16,5.08s.41,5.07,3.08,5.07c.6,0,1.13-.22,1.61-.56v4.85Z"/>
  <path d="M91.53,106.78v14.28h.08c.71-1.8,2.33-3.31,4.4-3.31,3.91,0,3.57,4.36,3.57,7.1v12.25h-5.3v-10.41c0-.98.38-3.61-1.32-3.61-1.2,0-1.43,1.24-1.43,2.18v11.84h-5.3v-30.33h5.3Z"/>
  <path d="M106.44,118.13l2.56,11.13h.07l2.48-11.13h4.55l2.41,11.13h.08l.37-2.03,2.26-9.1h5.03l-5.26,18.98h-4.36l-1.73-6.43-1.13-5.49h-.07l-1.09,6.05-1.51,5.86h-4.44l-5.37-18.98h5.15Z"/>
  <path d="M140.54,129.03h-8.38c.04,1.39-.04,4.4,1.99,4.4,1.35,0,1.69-1.05,1.69-2.18h4.51c-.45,3.49-2.14,6.24-6.01,6.24-5.38,0-7.29-4.77-7.29-9.47s1.65-10.26,7.18-10.26c3.49,0,6.73,3.12,6.43,9.1l-.11,2.18ZM136.07,125.31c0-1.24-.26-3.5-1.92-3.5s-1.95,2.18-1.95,3.38v.56h3.87v-.45Z"/>
  <path d="M142.2,112.45c0-1.92,1.54-3.34,3.46-3.34s3.27,1.62,3.27,3.42-1.54,3.34-3.38,3.34-3.35-1.54-3.35-3.42ZM148.21,118.13v18.98h-5.3v-18.98h5.3Z"/>
  <path d="M163.95,118.13l-5.86,14.58h5.22v4.4h-12.71l6.01-14.58h-5.41v-4.4h12.74Z"/>
  <path d="M178.79,129.03h-8.38c.04,1.39-.04,4.4,1.99,4.4,1.36,0,1.69-1.05,1.69-2.18h4.51c-.45,3.49-2.14,6.24-6.01,6.24-5.37,0-7.29-4.77-7.29-9.47s1.66-10.26,7.18-10.26c3.5,0,6.73,3.12,6.43,9.1l-.11,2.18ZM174.31,125.31c0-1.24-.26-3.5-1.92-3.5s-1.96,2.18-1.96,3.38v.56h3.87v-.45Z"/>
  <path d="M186.49,118.13v2.29h.08c.97-1.65,2.25-2.82,4.32-3.01v5.15c-.27-.04-.53-.07-.83-.07-3.53,0-3.57,2.33-3.57,5.15v9.47h-5.3v-18.98h5.3Z"/>
  <path d="M192.28,112.45c0-1.92,1.54-3.34,3.46-3.34s3.27,1.62,3.27,3.42-1.54,3.34-3.38,3.34-3.34-1.54-3.34-3.42ZM198.29,118.13v18.98h-5.3v-18.98h5.3Z"/>
  <path d="M210.43,123.24c-.75-.68-1.47-1.24-2.55-1.24-.94,0-1.43.56-1.43,1.39.08,2.22,6.05,1.77,6.05,7.44,0,3.76-2.18,6.65-6.09,6.65-2.03,0-4.13-.86-5.71-2.18l2.33-3.76c.79.68,1.58,1.24,2.63,1.24.83,0,1.54-.6,1.54-1.58.08-2.52-6.05-1.88-6.05-7.89,0-3.61,3.01-5.56,6.35-5.56,1.92,0,3.53.49,5.07,1.62l-2.14,3.87Z"/>
  <path d="M224.43,136.81c-.98.45-1.95.68-3.04.68-5.15,0-6.95-5.41-6.95-9.74,0-4.77,1.88-10,7.37-10,.94,0,1.77.19,2.63.56v4.66c-.49-.45-.9-.6-1.54-.6-2.59,0-3.16,3.12-3.16,5.08s.42,5.07,3.09,5.07c.6,0,1.13-.22,1.61-.56v4.85Z"/>
  <path d="M231.91,106.78v14.28h.08c.71-1.8,2.33-3.31,4.4-3.31,3.91,0,3.57,4.36,3.57,7.1v12.25h-5.3v-10.41c0-.98.37-3.61-1.32-3.61-1.2,0-1.43,1.24-1.43,2.18v11.84h-5.3v-30.33h5.3Z"/>
  <path d="M256.44,129.03h-8.38c.04,1.39-.04,4.4,1.99,4.4,1.35,0,1.69-1.05,1.69-2.18h4.51c-.45,3.49-2.14,6.24-6.02,6.24-5.37,0-7.29-4.77-7.29-9.47s1.65-10.26,7.18-10.26c3.49,0,6.73,3.12,6.42,9.1l-.11,2.18ZM251.97,125.31c0-1.24-.27-3.5-1.92-3.5s-1.96,2.18-1.96,3.38v.56h3.88v-.45Z"/>
  <path d="M268.15,123.24c-.75-.68-1.47-1.24-2.56-1.24-.94,0-1.42.56-1.42,1.39.08,2.22,6.05,1.77,6.05,7.44,0,3.76-2.18,6.65-6.09,6.65-2.03,0-4.14-.86-5.71-2.18l2.33-3.76c.79.68,1.58,1.24,2.63,1.24.83,0,1.54-.6,1.54-1.58.08-2.52-6.05-1.88-6.05-7.89,0-3.61,3.01-5.56,6.35-5.56,1.92,0,3.53.49,5.07,1.62l-2.14,3.87Z"/>
  <path d="M324.06,112.87v5.26h2.18v4.36h-2.18v14.62h-5.3v-14.62h-1.84v-4.36h1.84v-5.26h5.3Z"/>
  <path d="M341.59,129.03h-8.39c.04,1.39-.04,4.4,1.99,4.4,1.36,0,1.7-1.05,1.7-2.18h4.51c-.45,3.49-2.14,6.24-6.02,6.24-5.37,0-7.29-4.77-7.29-9.47s1.66-10.26,7.18-10.26c3.5,0,6.73,3.12,6.43,9.1l-.11,2.18ZM337.11,125.31c0-1.24-.26-3.5-1.92-3.5s-1.95,2.18-1.95,3.38v.56h3.87v-.45Z"/>
  <path d="M353.54,123.24c-.75-.68-1.47-1.24-2.56-1.24-.94,0-1.43.56-1.43,1.39.08,2.22,6.05,1.77,6.05,7.44,0,3.76-2.18,6.65-6.09,6.65-2.03,0-4.14-.86-5.72-2.18l2.33-3.76c.79.68,1.58,1.24,2.63,1.24.82,0,1.54-.6,1.54-1.58.08-2.52-6.05-1.88-6.05-7.89,0-3.61,3.01-5.56,6.35-5.56,1.92,0,3.53.49,5.07,1.62l-2.14,3.87Z"/>
  <path d="M374.11,108.77v12.67h.07l4.67-12.67h5.71l-5.23,13.08,5.91,15.26h-5.91l-5.15-14.43h-.07v14.43h-5.6v-28.34h5.6Z"/>
  <path d="M392.66,118.13v2.29h.07c.98-1.65,2.26-2.82,4.32-3.01v5.15c-.26-.04-.52-.07-.83-.07-3.53,0-3.57,2.33-3.57,5.15v9.47h-5.3v-18.98h5.3Z"/>
  <path d="M411.73,129.03h-8.38c.04,1.39-.04,4.4,1.99,4.4,1.35,0,1.69-1.05,1.69-2.18h4.51c-.45,3.49-2.14,6.24-6.01,6.24-5.38,0-7.29-4.77-7.29-9.47s1.66-10.26,7.18-10.26c3.49,0,6.73,3.12,6.43,9.1l-.11,2.18ZM407.26,125.31c0-1.24-.26-3.5-1.91-3.5s-1.96,2.18-1.96,3.38v.56h3.87v-.45Z"/>
  <path d="M419.57,118.13v10.41c0,1.05-.42,3.98,1.35,3.98,1.42,0,1.31-1.88,1.31-2.82l.04-11.58h5.26v12.1c0,4.4-2.06,7.26-6.76,7.26-6.01,0-6.5-4.51-6.5-7.97v-11.39h5.3Z"/>
  <path d="M443.05,118.13l-5.86,14.58h5.23v4.4h-12.71l6.01-14.58h-5.41v-4.4h12.74Z"/>
  <path d="M213.05,171.51c-.98.45-1.96.67-3.04.67-5.15,0-6.95-5.42-6.95-9.74,0-4.77,1.88-10,7.37-10,.94,0,1.76.19,2.63.56v4.66c-.49-.45-.9-.6-1.54-.6-2.6,0-3.16,3.12-3.16,5.08s.41,5.07,3.08,5.07c.6,0,1.13-.23,1.62-.56v4.85Z"/>
  <path d="M228.38,163.72h-8.38c.04,1.39-.04,4.4,1.99,4.4,1.35,0,1.69-1.05,1.69-2.18h4.51c-.45,3.49-2.14,6.24-6.01,6.24-5.38,0-7.29-4.77-7.29-9.47s1.65-10.26,7.18-10.26c3.5,0,6.73,3.12,6.43,9.1l-.12,2.17ZM223.91,160c0-1.24-.26-3.5-1.91-3.5s-1.96,2.18-1.96,3.38v.56h3.87v-.45Z"/>
  <path d="M273.77,162.33c0,4.85-1.54,9.85-7.22,9.85s-7.22-5-7.22-9.85,1.54-9.89,7.22-9.89,7.22,5.03,7.22,9.89ZM264.64,162.33c0,1.09.07,5.11,1.91,5.11s1.92-4.02,1.92-5.11-.08-5.11-1.92-5.11-1.91,4.02-1.91,5.11Z"/>
  <path d="M285.61,157.93c-.75-.67-1.47-1.24-2.56-1.24-.94,0-1.43.57-1.43,1.39.08,2.22,6.05,1.76,6.05,7.44,0,3.76-2.18,6.65-6.09,6.65-2.03,0-4.14-.86-5.71-2.18l2.33-3.76c.79.68,1.58,1.24,2.63,1.24.83,0,1.54-.6,1.54-1.58.07-2.52-6.05-1.88-6.05-7.89,0-3.61,3.01-5.56,6.35-5.56,1.92,0,3.53.49,5.07,1.62l-2.14,3.87Z"/>
  <path d="M299.74,157.93c-.75-.67-1.47-1.24-2.56-1.24-.94,0-1.43.57-1.43,1.39.07,2.22,6.05,1.76,6.05,7.44,0,3.76-2.18,6.65-6.09,6.65-2.03,0-4.14-.86-5.71-2.18l2.33-3.76c.79.68,1.58,1.24,2.63,1.24.82,0,1.54-.6,1.54-1.58.07-2.52-6.05-1.88-6.05-7.89,0-3.61,3.01-5.56,6.35-5.56,1.92,0,3.53.49,5.07,1.62l-2.14,3.87Z"/>
  <path d="M312.71,169.66h-.07c-.71,1.43-1.81,2.52-3.5,2.52-4.28,0-5.15-6.84-5.15-9.88,0-3.27.64-9.85,5.08-9.85,1.76,0,2.97,1.17,3.57,2.71h.07v-2.33h5.3v18.98h-5.3v-2.15ZM313.08,162.22c0-1.06-.11-5.08-1.91-5.08s-1.88,3.98-1.88,5.08c0,1.2.08,5.11,1.96,5.11,1.7,0,1.84-4.1,1.84-5.11Z"/>
  <path d="M343.25,149.85c-1.13-.98-2.52-1.8-4.06-1.8-1.73,0-2.81,1.05-2.81,2.78,0,4.66,8.53,4.93,8.53,12.59,0,5.04-2.89,8.84-8.15,8.84-1.58,0-3.54-.49-4.81-1.43v-5.33c1.31.9,2.59,1.5,4.25,1.5,1.8,0,3.24-1.2,3.24-3.08,0-2.18-1.73-3-3.31-4.13-3.23-2.18-5.22-4.28-5.22-8.42,0-4.47,2.59-8.35,7.4-8.35,1.81,0,3.42.49,4.97,1.39v5.45Z"/>
  <path d="M350.86,152.83l2.52,10.41.04.3h.08l.41-1.95.19-.79,1.88-7.96h5.48l-5.48,18.98h-4.92l-5.45-18.98h5.26Z"/>
  <path d="M363.08,147.15c0-1.92,1.54-3.34,3.46-3.34s3.27,1.61,3.27,3.42-1.54,3.34-3.38,3.34-3.35-1.54-3.35-3.42ZM369.09,152.83v18.98h-5.3v-18.98h5.3Z"/>
  <path d="M384.58,152.83l-5.87,14.58h5.22v4.4h-12.7l6.01-14.58h-5.41v-4.4h12.75Z"/>
  <path d="M399.65,152.83l-5.86,14.58h5.23v4.4h-12.71l6.01-14.58h-5.41v-4.4h12.74Z"/>
  <path d="M414.5,163.72h-8.39c.04,1.39-.04,4.4,1.99,4.4,1.36,0,1.7-1.05,1.7-2.18h4.51c-.45,3.49-2.14,6.24-6.01,6.24-5.38,0-7.29-4.77-7.29-9.47s1.65-10.26,7.18-10.26c3.5,0,6.73,3.12,6.43,9.1l-.11,2.17ZM410.02,160c0-1.24-.26-3.5-1.92-3.5s-1.95,2.18-1.95,3.38v.56h3.87v-.45Z"/>
  <path d="M422.2,152.83v2.29h.08c.98-1.65,2.26-2.82,4.32-3.01v5.15c-.26-.04-.53-.08-.83-.08-3.53,0-3.57,2.33-3.57,5.15v9.47h-5.3v-18.98h5.3Z"/>
  <path d="M437.12,169.66h-.07c-.72,1.43-1.81,2.52-3.5,2.52-4.29,0-5.15-6.84-5.15-9.88,0-3.27.64-9.85,5.07-9.85,1.77,0,2.97,1.17,3.57,2.71h.07v-2.33h5.3v18.98h-5.3v-2.15ZM437.5,162.22c0-1.06-.11-5.08-1.92-5.08s-1.88,3.98-1.88,5.08c0,1.2.07,5.11,1.95,5.11,1.69,0,1.84-4.1,1.84-5.11Z"/>
  <polygon class="cls-1" points="581.19 102.43 546.49 102.43 546.49 67.74 511.8 67.74 511.8 102.43 477.11 102.43 477.11 137.12 511.8 137.12 511.8 171.81 546.49 171.81 546.49 137.12 581.19 137.12 581.19 102.43"/>
  <path d="M241.91,171.8v-28.34h5.64c3.57,0,9.96.37,9.96,8.12,0,3.12-1.24,5.79-4.02,7.33l4.92,12.9h-5.9l-4.93-13.08h-.07v13.08h-5.6ZM247.51,155.64l.98.04c2.56,0,3.57-1.73,3.57-4.06,0-2.03-.98-3.68-3.8-3.53h-.75v7.55Z"/>
</svg>