<?xml version="1.0" encoding="UTF-8"?>
<svg id="Layer_1" data-name="Layer 1" xmlns="http://www.w3.org/2000/svg" viewBox="0 0 638.14 240">
  <defs>
    <style>
      .cls-1 {
        fill: #ee2435;
      }

      .cls-2 {
        fill-rule: evenodd;
      }
    </style>
  </defs>
  <g id="Röda_Korset" data-name="Röda Korset">
    <g id="röda_korset-2" data-name="röda korset-2">
      <path class="cls-2" d="M131.85,196.24l-12.57-18.35v-.38c5.24-1.65,8.75-6.59,8.57-12.08,0-10.05-6.4-13.77-16.25-13.77h-15.42v44.58h8.88v-16.7h5.27l10.33,16.7h11.19ZM118.62,165.57c0,5.72-2.72,7.44-7.99,7.44h-5.58v-14.91h5.58c5.27,0,7.99,1.72,7.99,7.47Z"/>
      <path class="cls-2" d="M165.86,179.51c.76-8.87-5.8-16.67-14.67-17.44-.85-.07-1.7-.08-2.55-.02-10.91,0-17.21,6.89-17.21,17.46-.73,8.89,5.89,16.68,14.78,17.41.81.07,1.62.07,2.43.01,9.16.35,16.87-6.78,17.22-15.94.02-.49.02-.99,0-1.48ZM156.67,179.51c0,7.33-1.96,11.22-8.13,11.22s-8.19-3.89-8.19-11.22,2-11.26,8.19-11.26,8.13,3.89,8.13,11.26ZM158.91,154.89v-7.33h-7.44v7.44l7.44-.1ZM145.58,154.89v-7.33h-7.47v7.44l7.47-.1Z"/>
      <path class="cls-2" d="M200.43,195.42v-46.99h-8.81v14.15c-1.83-.21-3.67-.31-5.51-.31-10.57,0-17.21,6.89-17.21,17.49,0,11.4,8.26,17.01,18.69,17.01,4.29-.08,8.56-.53,12.77-1.34h.07ZM191.61,189.94c-1.85.26-3.71.36-5.58.31-6.27-.21-8.09-5.78-8.09-10.33,0-6.3,2.24-11.09,8.78-11.09,2.41,0,4.89.28,4.89.28v21-.17Z"/>
      <path class="cls-2" d="M233.89,196.1v-22.86c0-10.33-8.64-11.19-16.39-11.12-3.86.04-7.71.44-11.5,1.2v6.3c3.61-.78,7.29-1.18,10.98-1.2,8.02,0,8.09,2.34,8.09,7.57-9.19,0-21.24-.45-21.24,10.12,0,9.3,7.16,10.67,15.01,10.81,5.03.1,10.06-.18,15.05-.83ZM225.01,190.94c-1.69.25-3.39.38-5.1.38-3.65,0-6.89-.28-6.89-4.72s3.24-4.72,6.89-4.72h5.1v9.05Z"/>
      <polygon points="292.7 196.24 272.18 173.45 291.15 151.69 279.85 151.69 262.98 173.24 262.98 151.69 254.17 151.69 254.17 196.24 262.98 196.24 262.98 175.03 280.54 196.24 292.7 196.24 292.7 196.24"/>
      <path class="cls-2" d="M324.54,179.48c.77-8.85-5.78-16.64-14.63-17.41-.86-.07-1.72-.08-2.58-.02-8.86-.66-16.57,5.98-17.23,14.84-.06.86-.06,1.72.02,2.58-.72,8.91,5.91,16.71,14.82,17.44.8.06,1.6.07,2.4.02,9.16.35,16.87-6.78,17.22-15.94.02-.51.02-1.01-.01-1.52ZM315.35,179.48c0,7.33-2,11.22-8.13,11.22s-8.19-3.89-8.19-11.22,2-11.26,8.19-11.26,8.13,3.89,8.13,11.26Z"/>
      <path d="M348.68,169.94v-7.37c-4.51-.28-8.98.93-12.74,3.44v-3.06h-7.82v33.43h8.81v-24.1c3.63-1.83,7.7-2.58,11.74-2.17v-.17Z"/>
      <path d="M379.01,185.53c0-7.13-6.89-8.85-11.09-9.67-3.17-.62-7.95-1.14-7.95-4.2s4.34-3.44,7.13-3.44c3.25.08,6.49.43,9.67,1.07v-6.16c-3.77-.62-7.58-.93-11.4-.93-5.96,0-14.43,1.96-14.43,10.33s8.4,9.36,10.33,9.81c5.23,1.2,8.57,1.34,8.57,4.51s-4.75,4.1-8.02,4.1c-3.59-.11-7.15-.65-10.6-1.62v6.3c3.93.88,7.95,1.33,11.98,1.34,9.61,0,15.8-4.2,15.8-11.33v-.1Z"/>
      <path class="cls-2" d="M400.15,197c3.89-.03,7.77-.49,11.57-1.34v-5.72c-3.07.71-6.21,1.09-9.36,1.14-5.47,0-10.88-1.51-11.43-9.05h23.34c.24-13.36-3.86-19.9-16.01-19.9-11.19,0-16.63,6.89-16.63,17.77,0,12.77,8.3,17.21,18.52,17.21v-.1ZM404.69,176.34h-13.77c0-4.54,1.86-8.54,6.89-8.54,5.82,0,6.89,4.27,6.89,8.54Z"/>
      <path d="M439.43,169.32v-6.51h-9.92v-11.71l-8.5,2.93v8.78h-6.58v6.51h6.58v17.87c0,9.05,5.03,9.05,10.67,9.05h7.09v-6.44h-5.99c-1.54.34-3.07-.63-3.41-2.18-.07-.34-.09-.68-.04-1.03v-17.21l10.09-.07Z"/>
    </g>
    <polygon class="cls-1" points="473.58 42.9 507.77 42.9 507.77 77.08 541.96 77.08 541.96 111.27 507.77 111.27 507.77 145.46 473.58 145.46 473.58 111.27 439.4 111.27 439.4 77.08 473.58 77.08 473.58 42.9 473.58 42.9 473.58 42.9 473.58 42.9"/>
  </g>
</svg>