<?xml version="1.0" encoding="UTF-8"?>
<svg id="Layer_1" data-name="Layer 1" xmlns="http://www.w3.org/2000/svg" viewBox="0 0 638.14 240">
  <defs>
    <style>
      .cls-1 {
        fill: #ee2435;
      }
    </style>
  </defs>
  <path class="cls-1" d="M151.88,102.37h35.02v-35.02h35.02v35.02h35.02v35.02h-35.02v35.02h-35.02v-35.02h-35.02v-35.02Z"/>
  <g>
    <path d="M284.24,67.18h12.52c7.52,0,13.17,4.71,13.17,14.35,0,8.41-4.31,14.67-13.17,14.67h-12.52v-29.02ZM290.63,90.83h5.69c3.7,0,7.23-2.27,7.23-8.7,0-5.85-2.03-9.59-8.37-9.59h-4.55v18.29Z"/>
    <path d="M318.18,87.09c.16,3.66,1.95,5.32,5.16,5.32,2.32,0,4.19-1.42,4.55-2.72h5.08c-1.63,4.96-5.08,7.07-9.84,7.07-6.63,0-10.73-4.55-10.73-11.06s4.35-11.1,10.73-11.1c7.15,0,10.61,6.01,10.2,12.48h-15.16ZM327.57,83.44c-.53-2.93-1.79-4.47-4.59-4.47-3.66,0-4.71,2.84-4.8,4.47h9.39Z"/>
    <path d="M356.47,96.2h-5.49v-2.93h-.12c-1.46,2.36-3.98,3.5-6.42,3.5-6.14,0-7.68-3.45-7.68-8.66v-12.92h5.77v11.87c0,3.46,1.02,5.16,3.7,5.16,3.13,0,4.47-1.75,4.47-6.02v-11.01h5.77v21.01Z"/>
    <path d="M368.42,75.19h4.23v3.86h-4.23v10.41c0,1.95.49,2.44,2.44,2.44.61,0,1.18-.04,1.79-.16v4.51c-.97.16-2.24.2-3.37.2-3.54,0-6.62-.81-6.62-5v-12.4h-3.5v-3.86h3.5v-6.3h5.77v6.3Z"/>
    <path d="M380.25,89.37c.04,2.52,2.15,3.54,4.43,3.54,1.66,0,3.78-.65,3.78-2.68,0-1.75-2.4-2.36-6.54-3.25-3.33-.73-6.67-1.91-6.67-5.61,0-5.37,4.63-6.75,9.15-6.75s8.82,1.54,9.27,6.71h-5.49c-.16-2.24-1.87-2.84-3.94-2.84-1.3,0-3.21.24-3.21,1.95,0,2.07,3.25,2.36,6.54,3.13,3.37.77,6.67,1.99,6.67,5.89,0,5.53-4.8,7.32-9.59,7.32s-9.63-1.83-9.88-7.4h5.49Z"/>
    <path d="M411.63,82.58c-.36-2.36-1.87-3.62-4.27-3.62-3.7,0-4.92,3.74-4.92,6.83s1.18,6.62,4.8,6.62c2.68,0,4.23-1.71,4.6-4.27h5.57c-.73,5.57-4.59,8.62-10.12,8.62-6.34,0-10.61-4.47-10.61-10.77s3.9-11.38,10.73-11.38c4.96,0,9.51,2.6,9.88,7.97h-5.65Z"/>
    <path d="M420.65,67.18h5.77v10.93h.12c1.46-2.36,3.98-3.49,6.14-3.49,6.14,0,7.68,3.45,7.68,8.66v12.93h-5.77v-11.87c0-3.45-1.02-5.16-3.7-5.16-3.13,0-4.47,1.75-4.47,6.02v11.01h-5.77v-29.02Z"/>
    <path d="M449.23,87.09c.16,3.66,1.95,5.32,5.16,5.32,2.32,0,4.19-1.42,4.55-2.72h5.08c-1.63,4.96-5.08,7.07-9.84,7.07-6.62,0-10.73-4.55-10.73-11.06s4.35-11.1,10.73-11.1c7.15,0,10.61,6.01,10.2,12.48h-15.16ZM458.61,83.44c-.53-2.93-1.79-4.47-4.59-4.47-3.66,0-4.72,2.84-4.8,4.47h9.39Z"/>
    <path d="M472.27,89.37c.04,2.52,2.15,3.54,4.43,3.54,1.67,0,3.78-.65,3.78-2.68,0-1.75-2.4-2.36-6.55-3.25-3.33-.73-6.66-1.91-6.66-5.61,0-5.37,4.63-6.75,9.14-6.75s8.82,1.54,9.27,6.71h-5.49c-.16-2.24-1.87-2.84-3.94-2.84-1.3,0-3.21.24-3.21,1.95,0,2.07,3.25,2.36,6.54,3.13,3.37.77,6.67,1.99,6.67,5.89,0,5.53-4.8,7.32-9.59,7.32s-9.63-1.83-9.88-7.4h5.49Z"/>
    <path d="M284.32,105.2h15.65c5.2,0,8.5,3.62,8.5,8.01,0,3.42-1.38,5.98-4.59,7.28v.08c3.13.81,4.02,3.86,4.23,6.79.12,1.83.08,5.24,1.22,6.87h-6.38c-.77-1.83-.69-4.63-1.02-6.95-.45-3.05-1.63-4.39-4.84-4.39h-6.38v11.34h-6.38v-29.02ZM290.71,118.33h6.99c2.85,0,4.39-1.22,4.39-4.15s-1.54-4.02-4.39-4.02h-6.99v8.17Z"/>
    <path d="M322.73,112.64c6.62,0,10.89,4.39,10.89,11.1s-4.27,11.06-10.89,11.06-10.85-4.39-10.85-11.06,4.27-11.1,10.85-11.1ZM322.73,130.45c3.94,0,5.12-3.37,5.12-6.71s-1.18-6.75-5.12-6.75-5.08,3.37-5.08,6.75,1.18,6.71,5.08,6.71Z"/>
    <path d="M344.6,113.21h4.23v3.86h-4.23v10.4c0,1.95.49,2.44,2.44,2.44.61,0,1.18-.04,1.79-.16v4.51c-.97.16-2.24.2-3.37.2-3.54,0-6.63-.81-6.63-5v-12.4h-3.5v-3.86h3.5v-6.3h5.77v6.3Z"/>
    <path d="M356.47,125.12c.16,3.66,1.95,5.33,5.16,5.33,2.32,0,4.19-1.42,4.55-2.72h5.08c-1.63,4.96-5.08,7.07-9.84,7.07-6.62,0-10.73-4.55-10.73-11.06s4.35-11.1,10.73-11.1c7.15,0,10.61,6.02,10.2,12.48h-15.16ZM365.86,121.46c-.53-2.93-1.79-4.47-4.59-4.47-3.66,0-4.72,2.85-4.8,4.47h9.39Z"/>
    <path d="M379.52,127.4c.04,2.52,2.15,3.54,4.43,3.54,1.67,0,3.78-.65,3.78-2.68,0-1.75-2.4-2.36-6.54-3.25-3.33-.73-6.67-1.91-6.67-5.61,0-5.37,4.63-6.75,9.14-6.75s8.82,1.54,9.27,6.71h-5.49c-.16-2.23-1.87-2.84-3.94-2.84-1.3,0-3.21.24-3.21,1.95,0,2.07,3.25,2.36,6.54,3.13,3.37.77,6.67,1.99,6.67,5.89,0,5.53-4.8,7.32-9.59,7.32s-9.63-1.83-9.88-7.4h5.49Z"/>
    <path d="M284.24,143.23h6.38v12.03l11.34-12.03h7.97l-11.34,11.46,12.44,17.56h-8.01l-8.74-13.05-3.66,3.7v9.35h-6.38v-29.02Z"/>
    <path d="M312.98,151.24h5.49v3.9h.08c1.06-2.64,3.9-4.47,6.71-4.47.41,0,.89.08,1.26.2v5.36c-.53-.12-1.38-.2-2.07-.2-4.23,0-5.69,3.05-5.69,6.75v9.47h-5.77v-21.01Z"/>
    <path d="M332.82,163.15c.16,3.66,1.95,5.32,5.16,5.32,2.32,0,4.19-1.42,4.55-2.72h5.08c-1.63,4.96-5.08,7.07-9.84,7.07-6.62,0-10.73-4.55-10.73-11.06s4.35-11.1,10.73-11.1c7.15,0,10.61,6.02,10.2,12.48h-15.16ZM342.21,159.49c-.53-2.93-1.79-4.47-4.59-4.47-3.66,0-4.72,2.85-4.8,4.47h9.39Z"/>
    <path d="M370.75,172.25h-5.49v-2.93h-.12c-1.46,2.36-3.98,3.5-6.42,3.5-6.14,0-7.68-3.45-7.68-8.66v-12.93h5.77v11.87c0,3.46,1.02,5.16,3.7,5.16,3.13,0,4.47-1.75,4.47-6.02v-11.02h5.77v21.01Z"/>
    <path d="M373.92,167.9l10.93-12.32h-10.12v-4.35h17.72v4.35l-10.94,12.32h11.71v4.35h-19.31v-4.35Z"/>
  </g>
</svg>