<?xml version="1.0" encoding="UTF-8"?>
<svg xmlns="http://www.w3.org/2000/svg" xmlns:xlink="http://www.w3.org/1999/xlink" viewBox="0 0 528.37 240">
  <defs>
    <style>
      .cls-1 {
        fill: url(#radial-gradient-2);
      }

      .cls-1, .cls-2 {
        opacity: .8;
      }

      .cls-2 {
        fill: url(#radial-gradient-3);
      }

      .cls-3 {
        fill: url(#radial-gradient);
      }

      .cls-3, .cls-4 {
        mix-blend-mode: multiply;
      }

      .cls-5 {
        fill: #6d6e6f;
      }

      .cls-6 {
        fill: url(#linear-gradient);
      }

      .cls-7 {
        isolation: isolate;
      }

      .cls-8 {
        fill: #fff;
      }

      .cls-9 {
        opacity: .77;
      }

      .cls-10 {
        fill: #cb2131;
      }
    </style>
    <radialGradient id="radial-gradient" cx="-619.59" cy="809.96" fx="-619.59" fy="809.96" r="67" gradientTransform="translate(823.92 -613.08) rotate(6)" gradientUnits="userSpaceOnUse">
      <stop offset=".7" stop-color="#000"/>
      <stop offset="1" stop-color="#000" stop-opacity="0"/>
    </radialGradient>
    <radialGradient id="radial-gradient-2" cx="-623.28" cy="801.78" fx="-623.28" fy="768.63" r="64.27" gradientTransform="translate(824.31 -616.76) rotate(6)" gradientUnits="userSpaceOnUse">
      <stop offset=".06" stop-color="#fff"/>
      <stop offset=".46" stop-color="#fdfdfd"/>
      <stop offset=".6" stop-color="#f6f6f6"/>
      <stop offset=".67" stop-color="#efefef"/>
      <stop offset=".85" stop-color="#e0e0e0"/>
      <stop offset=".97" stop-color="#c2c2c2"/>
      <stop offset="1" stop-color="#fff"/>
    </radialGradient>
    <radialGradient id="radial-gradient-3" cx="3237.16" cy="-2454.63" fx="3237.16" fy="-2490.02" r="68.61" gradientTransform="translate(-2015.86 3580.72) rotate(-21.06)" gradientUnits="userSpaceOnUse">
      <stop offset=".06" stop-color="#fff"/>
      <stop offset=".54" stop-color="#fdfdfd"/>
      <stop offset=".71" stop-color="#f6f6f6"/>
      <stop offset=".8" stop-color="#efefef"/>
      <stop offset=".91" stop-color="#e0e0e0"/>
      <stop offset=".94" stop-color="#c2c2c2"/>
      <stop offset=".96" stop-color="#cacaca"/>
      <stop offset=".98" stop-color="#fff"/>
      <stop offset="1" stop-color="#fff"/>
    </radialGradient>
    <linearGradient id="linear-gradient" x1="-167" y1="-147.78" x2="-167" y2="-25.97" gradientTransform="translate(287.02 207.19)" gradientUnits="userSpaceOnUse">
      <stop offset=".38" stop-color="#fff"/>
      <stop offset="1" stop-color="#999"/>
    </linearGradient>
  </defs>
  <g class="cls-7">
    <g id="Layer_1" data-name="Layer 1">
      <g>
        <g>
          <path class="cls-3" d="M189.72,134.69c-3.87,36.8-36.82,63.49-73.63,59.62-36.79-3.88-63.49-36.83-59.62-73.63,3.87-36.81,36.84-63.5,73.63-59.63,36.8,3.87,63.49,36.84,59.62,73.64Z"/>
          <path class="cls-8" d="M182.98,126.62c-3.65,34.77-34.82,60.01-69.6,56.36-34.78-3.65-60.01-34.82-56.36-69.6,3.65-34.78,34.81-60.01,69.59-56.36,34.79,3.65,60.04,34.82,56.37,69.6Z"/>
          <path class="cls-1" d="M182.98,126.62c-3.65,34.77-34.82,60.01-69.6,56.36-34.78-3.65-60.01-34.82-56.36-69.6,3.65-34.78,34.81-60.01,69.59-56.36,34.79,3.65,60.04,34.82,56.37,69.6Z"/>
          <g class="cls-9">
            <path class="cls-2" d="M182.03,92.71c13.43,34.83-3.95,73.96-38.79,87.38-34.84,13.42-73.96-3.95-87.38-38.79-13.43-34.84,3.94-73.95,38.77-87.38,34.85-13.42,73.99,3.94,87.4,38.79Z"/>
          </g>
          <g class="cls-4">
            <polygon class="cls-10" points="162.56 105.81 134.19 105.8 134.2 77.44 105.84 77.44 105.84 105.8 77.48 105.8 77.48 134.15 105.84 134.15 105.84 162.51 134.19 162.51 134.19 134.15 162.56 134.15 162.56 105.81"/>
          </g>
          <g class="cls-4">
            <polygon class="cls-6" points="162.56 105.81 134.19 105.8 134.2 77.44 105.84 77.44 105.84 105.8 77.48 105.8 77.48 134.15 105.84 134.15 105.84 162.51 134.19 162.51 134.19 134.15 162.56 134.15 162.56 105.81"/>
          </g>
        </g>
        <g>
          <g>
            <path class="cls-5" d="M247.15,114.58h11.61c-.35-.93-13.43-36.03-13.6-36.48h-12.34c-.17.45-13.57,35.54-13.93,36.48h11.6c.15-.46,1.73-5.46,1.73-5.46h13.23s1.57,5,1.71,5.46ZM234.58,101.33l4.35-14.09,4.24,14.09h-8.6Z"/>
            <path class="cls-5" d="M279.39,98.53c.11.54.15,1.09.15,1.61v14.44h9.92v-14.29c0-.56,0-1.74.56-2.78.67-1.27,1.73-1.91,3.53-1.91,4.08,0,3.94,3.35,3.94,4.95v14.03h9.91c0-.69,0-17.27,0-17.27v-.02c-.05-2.47-.11-5.26-2.43-7.53-1.63-1.63-4.25-2.57-7.18-2.57-6.36,0-8.13,3.37-8.63,4.5l-.3.69-.35-.67c-.69-1.33-1.63-2.86-5.01-3.91-1.58-.5-3.02-.6-3.96-.6-5.51,0-6.91,2.62-7.75,3.99l-.72,1.17v-4.49h-9.45v26.72h9.92v-14.73c.05-.91.12-2.04,1.14-3.06.75-.76,1.69-1.19,2.93-1.19,1.57,0,3.28.76,3.77,2.93Z"/>
            <path class="cls-5" d="M331.53,104.77c-1.14,2.48-2.92,3.68-5.17,3.68-.96,0-2.35-.23-3.46-1.34-1.27-1.28-1.34-2.62-1.4-3.82l-.02-.4h18.7c-.1-4-.26-8.28-3.96-11.93-3.31-3.21-7.53-4.23-10.49-4.23-8.59,0-14.36,5.98-14.36,14.35,0,3.8,1.27,7.28,3.57,9.83,2.59,2.86,6.34,4.73,10.83,4.73,6.03,0,10.69-2.9,13.85-7.48-.72-.3-7.59-3.15-8.11-3.37ZM321.63,97.17c.25-1.16.91-4.05,4.37-4.05,1.58,0,3.4.93,3.9,3.01.08.3.1.41.13.7l.08.81h-8.59l.11-.47Z"/>
            <path class="cls-5" d="M353.53,87.65h-9.51v26.93h9.86v-12.65c.05-1.69.18-6.17,6.76-6.17.61,0,1.58.03,2.18.07v-8.59c-3.7.01-5.93.69-8.7,3.16l-.6.53v-3.28Z"/>
            <path class="cls-5" d="M366.41,78.14h10.61v7.05h-10.61v-7.05ZM366.41,87.82h10.61v26.66h-10.61v-26.66Z"/>
            <path class="cls-5" d="M405.67,111.11c1.18-1.18,1.95-2.49,2.58-3.81-.53-.29-7.01-3.84-7.66-4.2-.55,1.76-1.85,4.68-5.05,4.68-2.26,0-4.95-1.13-4.95-6.51,0-4.68,1.99-7.58,5.21-7.58,2.3,0,3.94,1.38,4.78,4.26.68-.38,7.1-4.01,7.67-4.33-.52-.84-1.19-1.78-2.11-2.69-4.02-4.07-9.19-4.37-10.85-4.37-4.57,0-8.3,1.61-10.8,4.21-2.36,2.42-3.72,6.21-3.72,10.2,0,8.66,5.45,14.61,13.89,14.61,5.96,0,9.51-2.9,11.02-4.46Z"/>
            <path class="cls-5" d="M420.41,115.16c4.83,0,7.26-1.69,8.57-2.59l.62-.43v2.44h9.45c-.51-.84-.62-1.51-.62-2.98v-14.92c0-1.56,0-3.91-1.52-5.86-1.82-2.35-5.47-3.89-10.83-3.89-4.04,0-7.13.8-9.43,1.99-3.48,1.83-4.24,4.59-4.63,6.91.79-.02,8.74-.23,9.24-.24.43-2.13,1.45-2.83,3.84-2.83,3.22,0,3.91,1.36,3.97,3.4v.28s-.26.07-.26.07c-1.63.47-2.78.73-5.73,1.15-4.47.59-7.42.97-9.81,3.4-1.44,1.44-2.17,3.28-2.17,5.48,0,3.99,2.45,8.63,9.3,8.63ZM422.65,103.89h.02c.84-.29,1.67-.48,2.48-.67,0,0,.26-.07.28-.07,1.04-.29,2.04-.65,3.01-.98l.59-.21v.51c0,.93,0,1.88-.55,3.07-1.01,2.24-3.67,3.11-5.23,3.11-2.19,0-3-1.2-3-2.13,0-.41.17-1.74,2.4-2.63Z"/>
            <path class="cls-5" d="M461.66,99.93v14.65h9.92v-16.92c0-1.44,0-5.64-2.58-8.16-1.66-1.55-3.92-2.38-6.83-2.38-5.6,0-7.3,2.72-8.22,4.02l-.7.99v-4.33h-9.35v26.78h9.92v-14.29c0-1.17.05-4.75,4.02-4.75s3.83,3.19,3.83,4.38Z"/>
          </g>
          <g>
            <path class="cls-5" d="M243.96,148.13l.63-.26c1.61-.64,3-1.19,4.33-2.61,1.78-1.81,2.69-4.34,2.69-7.22,0-3.68-1.6-8.51-6.08-10.42-2.36-.99-5.96-1.11-8.85-1.11h-17.81v36.5h10.84v-13.21h3.98s7.09,12.85,7.29,13.21h11.95c-.61-1.01-8.76-14.52-8.76-14.52l-.22-.36ZM234.88,142.67h-5.16v-8.88h5.11c1.79,0,5.99.02,5.99,4.43s-4.31,4.45-5.94,4.45Z"/>
            <path class="cls-5" d="M284.88,149.03c0,8.69,4.58,14.66,11.67,14.66,1.48,0,2.75-.21,3.9-.65,1.45-.55,1.93-1.1,2.59-1.86l.63-.72v2.56h9.6v-36.45h-9.91v12.01l-.71-.63c-1.08-.97-2.7-2.45-6.47-2.45-5.63,0-11.31,4.43-11.31,13.53ZM299.14,142.73c1.4,0,3.3.88,4.06,3.34.36,1.07.43,2.16.43,3.47,0,1.39,0,3.97-1.5,5.52-.83.82-1.9,1.29-2.94,1.29-1.13,0-2.21-.45-2.95-1.25-1.07-1.15-1.59-2.95-1.59-5.51,0-1.22.1-2.24.31-3.23h0s0-.02,0-.02c.94-3.35,3.43-3.62,4.17-3.62Z"/>
            <path class="cls-5" d="M273.45,153.25c-1.14,2.47-2.92,3.68-5.17,3.68-.96,0-2.34-.23-3.46-1.34-1.28-1.28-1.34-2.62-1.39-3.82l-.02-.41h18.69c-.1-4-.26-8.28-3.96-11.93-3.31-3.2-7.53-4.24-10.49-4.24-8.59,0-14.35,5.98-14.35,14.35,0,3.79,1.27,7.28,3.57,9.83,2.59,2.85,6.34,4.73,10.84,4.73,6.02,0,10.69-2.9,13.85-7.48-.73-.3-7.59-3.15-8.11-3.38ZM263.54,145.64c.26-1.16.91-4.04,4.38-4.04,1.58,0,3.4.93,3.91,3.01.07.3.09.41.11.69l.08.81h-8.59l.1-.47Z"/>
            <g>
              <path class="cls-5" d="M340.09,151.82c-1.16-1.87-1.77-4.46-1.77-7.48,0-1.42,0-5.73,2.84-8.47.77-.77,2.47-2.07,5.15-2.07,4.92,0,6.95,4.11,7.86,6.25.62-.31,8.52-4.25,9.12-4.55-.7-1.29-1.69-2.98-3.1-4.42-3.62-3.73-8.72-5.85-14.35-5.85s-10.39,2.18-13.8,6.15c-3.01,3.52-4.74,8.66-4.74,13.62s1.59,9.76,4.48,13.13c3.33,3.9,8.19,6.02,14.06,6.02,5.51,0,10.45-1.94,13.9-5.34,1.61-1.61,2.76-3.69,3.61-5.3-.6-.29-8.63-4.18-9.27-4.48-1.75,4.82-5.21,6.18-7.72,6.18-2.77,0-4.89-1.15-6.29-3.41Z"/>
              <path class="cls-5" d="M413.12,138.98c-1.18-1.11-4.59-3.78-10.96-3.84-4.8-.02-8.79,1.47-11.54,4.2-2.55,2.54-3.9,6.36-3.9,10.51,0,3.74,1.24,7.42,3.48,9.83,2.6,2.81,6.54,4.36,11.39,4.36s8.77-1.43,11.52-3.99c2.66-2.48,4.06-6.25,4.06-10.36s-1.55-8.3-4.06-10.72ZM401.91,156.98c-4.62,0-5.32-4.66-5.32-7.44s.68-7.16,5.26-7.28c1.43-.04,2.6.37,3.49,1.22,1.22,1.19,1.84,3.18,1.84,5.95,0,6.23-2.87,7.54-5.26,7.54Z"/>
              <path class="cls-5" d="M441.34,147.35c-1.26-.65-2.38-.91-7.09-1.98l-.21-.05c-3.52-.87-4.36-1.05-4.36-2.16,0-.66.34-1.76,2.64-1.76,2.82,0,5.35,1.53,7.13,2.65.36-.32,4.78-4.36,5.33-4.85-1.29-.97-3.29-2.49-6.66-3.3-2.08-.48-4.03-.72-5.95-.72-4.02,0-7.11,1.1-9.2,3.08-1.63,1.59-2.57,4.01-2.57,6.12,0,5.43,4.63,6.93,7.13,7.65,2.4.71,4.58,1.07,5.52,1.22,1.04.15,2.99.41,2.99,1.97,0,1.39-1.58,2.01-3.15,2.01-1.44,0-2.87-.29-4.38-.9-1.95-.83-3.22-1.89-4.15-2.8-.44.4-4.95,4.55-5.48,5.03,2.21,1.79,6.65,5.48,14.1,5.48,8.52,0,12.34-4.83,12.34-9.9,0-2.9-1.42-5.41-3.99-6.79Z"/>
              <path class="cls-5" d="M469.41,147.35c-1.26-.65-2.38-.91-7.1-1.98l-.21-.05c-3.51-.87-4.36-1.05-4.36-2.16,0-.66.35-1.76,2.64-1.76,2.82,0,5.34,1.53,7.13,2.65.35-.32,4.78-4.36,5.33-4.85-1.29-.97-3.3-2.49-6.66-3.3-2.08-.48-4.03-.72-5.96-.72-4.02,0-7.11,1.1-9.2,3.08-1.64,1.59-2.57,4.01-2.57,6.12,0,5.43,4.64,6.93,7.12,7.65,2.4.71,4.59,1.07,5.53,1.22,1.05.15,2.99.41,2.99,1.97,0,1.39-1.58,2.01-3.14,2.01-1.43,0-2.87-.29-4.37-.9-1.95-.83-3.21-1.89-4.15-2.8-.44.4-4.95,4.55-5.48,5.03,2.21,1.79,6.64,5.48,14.1,5.48,8.53,0,12.34-4.83,12.34-9.9,0-2.9-1.41-5.41-3.99-6.79Z"/>
              <path class="cls-5" d="M375.53,136.13h-9.5v26.94h9.87v-12.66c.05-1.69.18-6.18,6.76-6.18.61,0,1.58.04,2.17.08v-8.6c-3.7.02-5.93.7-8.69,3.17l-.6.53v-3.28Z"/>
            </g>
          </g>
        </g>
      </g>
    </g>
  </g>
</svg>