<?xml version="1.0" encoding="UTF-8"?>
<svg id="Layer_1" data-name="Layer 1" xmlns="http://www.w3.org/2000/svg" viewBox="0 0 251.46 240">
  <defs>
    <style>
      .cls-1 {
        fill: #ee2435;
      }
    </style>
  </defs>
  <polygon class="cls-1" points="81.47 100.06 58.47 100.06 58.47 80.34 81.47 80.34 81.47 80.33 81.47 57.33 101.19 57.33 101.19 80.33 101.18 80.34 124.19 80.34 124.19 100.06 101.18 100.06 101.19 100.05 101.19 123.06 81.47 123.06 81.47 100.05 81.47 100.06"/>
  <path class="cls-1" d="M154.69,89.84c0-15.32,12.42-27.74,27.74-27.74,3.41,0,6.68.62,9.69,1.74-5.67-4.49-12.84-7.17-20.64-7.17-18.38,0-33.29,14.9-33.29,33.29s14.9,33.28,33.29,33.28c8.06,0,15.45-2.86,21.21-7.63-3.18,1.26-6.64,1.96-10.26,1.96-15.32,0-27.74-12.42-27.74-27.74"/>
  <path d="M176.63,183.33c3.43,0,6.55-.61,9.34-1.81,2.79-1.21,5.13-2.96,7.02-5.26l-5.89-5.44c-2.68,3.13-6,4.7-9.97,4.7-2.45,0-4.64-.54-6.57-1.61-1.93-1.08-3.43-2.58-4.5-4.5-1.08-1.92-1.61-4.11-1.61-6.57s.54-4.64,1.61-6.57c1.08-1.93,2.58-3.43,4.5-4.5,1.92-1.08,4.11-1.61,6.57-1.61,3.96,0,7.28,1.55,9.97,4.64l5.89-5.43c-1.89-2.27-4.22-4-6.99-5.21-2.77-1.21-5.88-1.81-9.31-1.81-4.08,0-7.75.88-11.01,2.63-3.27,1.76-5.83,4.19-7.7,7.31-1.87,3.11-2.8,6.63-2.8,10.56s.94,7.45,2.8,10.56c1.87,3.11,4.43,5.55,7.7,7.31,3.26,1.75,6.92,2.63,10.96,2.63M140,157.39c0,2.19-.72,3.89-2.15,5.1-1.44,1.21-3.53,1.81-6.29,1.81h-7.47v-13.82h7.47c2.76,0,4.85.6,6.29,1.78,1.43,1.19,2.15,2.9,2.15,5.12M150.02,182.65l-8.89-12.74c2.6-1.13,4.61-2.76,6.03-4.9,1.42-2.13,2.12-4.67,2.12-7.61s-.7-5.49-2.09-7.64c-1.4-2.15-3.39-3.81-5.97-4.98-2.59-1.17-5.63-1.76-9.14-1.76h-17.16v39.63h9.17v-11.04h8.44l7.64,11.04h9.85ZM106.99,150.37v-7.36h-29.95v39.63h9.17v-14.44h18.34v-7.36h-18.34v-10.47h20.78ZM58.47,182.65h9.17v-39.63h-9.17v39.63Z"/>
</svg>