<svg preserveAspectRatio="none" width="100%" height="100%" overflow="visible" style="display: block;" viewBox="0 0 29.0208 29.1667" fill="none" xmlns="http://www.w3.org/2000/svg">
<path id="Vector" d="M24.7917 4.24383C23.4545 2.89357 21.8619 1.82295 20.1068 1.09436C18.3517 0.365768 16.4691 -0.00621712 14.5688 7.85971e-05C6.60625 7.85971e-05 0.116667 6.48966 0.116667 14.4522C0.116667 17.0042 0.7875 19.4834 2.04167 21.6709L0 29.1667L7.65625 27.1542C9.77083 28.3063 12.1479 28.9188 14.5688 28.9188C22.5313 28.9188 29.0208 22.4292 29.0208 14.4667C29.0208 10.6022 27.5188 6.97091 24.7917 4.24383ZM14.5688 26.4688C12.4104 26.4688 10.2958 25.8855 8.44375 24.7917L8.00625 24.5292L3.45625 25.7251L4.66667 21.2917L4.375 20.8397C3.17559 18.925 2.53885 16.7115 2.5375 14.4522C2.5375 7.83133 7.93333 2.4355 14.5542 2.4355C17.7625 2.4355 20.7813 3.68966 23.0417 5.96466C24.1611 7.07863 25.0482 8.40379 25.6515 9.86327C26.2549 11.3227 26.5624 12.8875 26.5563 14.4667C26.5854 21.0876 21.1896 26.4688 14.5688 26.4688ZM21.1604 17.4855C20.7958 17.3105 19.0167 16.4355 18.6958 16.3042C18.3604 16.1876 18.1271 16.1292 17.8792 16.4792C17.6313 16.8438 16.9458 17.6605 16.7417 17.8938C16.5375 18.1417 16.3187 18.1709 15.9542 17.9813C15.5896 17.8063 14.4229 17.4126 13.0521 16.1876C11.9729 15.2251 11.2583 14.0438 11.0396 13.6792C10.8354 13.3147 11.0104 13.1251 11.2 12.9355C11.3604 12.7751 11.5646 12.5126 11.7396 12.3084C11.9146 12.1042 11.9875 11.9438 12.1042 11.7105C12.2208 11.4626 12.1625 11.2584 12.075 11.0834C11.9875 10.9084 11.2583 9.12925 10.9667 8.40008C10.675 7.70008 10.3688 7.78758 10.15 7.773H9.45C9.20208 7.773 8.82292 7.8605 8.4875 8.22508C8.16667 8.58966 7.23333 9.46466 7.23333 11.2438C7.23333 13.023 8.53125 14.7438 8.70625 14.9772C8.88125 15.2251 11.2583 18.8709 14.875 20.4313C15.7354 20.8105 16.4062 21.0292 16.9312 21.1897C17.7917 21.4667 18.5792 21.423 19.2063 21.3355C19.9063 21.2334 21.35 20.4605 21.6417 19.6147C21.9479 18.7688 21.9479 18.0542 21.8458 17.8938C21.7438 17.7334 21.525 17.6605 21.1604 17.4855Z" fill="var(--fill-0, #EE2435)"/>
</svg>
