<svg preserveAspectRatio="none" width="100%" height="100%" overflow="visible" style="display: block;" viewBox="0 0 24.5721 24.5709" fill="none" xmlns="http://www.w3.org/2000/svg">
<path id="Vector" d="M20.2417 16.7054L18.4742 14.9354L20.2417 13.1679C21.4053 11.9941 22.0566 10.4071 22.053 8.75424C22.0493 7.10138 21.3911 5.51726 20.2224 4.34851C19.0536 3.17976 17.4695 2.52156 15.8167 2.51794C14.1638 2.51432 12.5768 3.16558 11.4029 4.3292L9.6342 6.09795L7.8667 4.33045L9.6342 2.56295C11.2752 0.92192 13.5009 0 15.8217 0C18.1425 0 20.3682 0.92192 22.0092 2.56295C23.6502 4.20397 24.5721 6.42968 24.5721 8.75045C24.5721 11.0712 23.6502 13.2969 22.0092 14.9379L20.2417 16.7054ZM16.7054 20.2404L14.9379 22.0079C13.2969 23.649 11.0712 24.5709 8.75045 24.5709C6.42968 24.5709 4.20397 23.649 2.56295 22.0079C0.92192 20.3669 2.44532e-08 18.1412 0 15.8204C-2.44532e-08 13.4997 0.92192 11.274 2.56295 9.63295L4.3317 7.86545L6.0992 9.63545L4.3317 11.4029C3.18404 12.5799 2.54628 14.1616 2.55658 15.8055C2.56688 17.4493 3.22441 19.0229 4.38673 20.1854C5.54904 21.3479 7.12256 22.0057 8.76641 22.0162C10.4103 22.0267 11.9921 21.3892 13.1692 20.2417L14.9379 18.4742L16.7054 20.2404ZM15.8217 6.9817L17.5904 8.75045L8.75045 17.5879L6.98295 15.8204L15.8217 6.9817Z" fill="var(--fill-0, #EE2435)"/>
</svg>
