<svg preserveAspectRatio="none" width="100%" height="100%" overflow="visible" style="display: block;" viewBox="0 0 32.0833 32.0833" fill="none" xmlns="http://www.w3.org/2000/svg">
<g id="Group">
<path id="Vector" d="M22.4525 9.85396C22.5881 9.9894 22.6957 10.1502 22.769 10.3273C22.8424 10.5043 22.8802 10.6941 22.8802 10.8857C22.8802 11.0774 22.8424 11.2671 22.769 11.4442C22.6957 11.6212 22.5881 11.7821 22.4525 11.9175L18.1037 16.2648L22.0062 20.1658C22.2799 20.4395 22.4336 20.8106 22.4336 21.1976C22.4336 21.5846 22.2799 21.9557 22.0062 22.2294C21.7326 22.503 21.3615 22.6568 20.9745 22.6568C20.5875 22.6568 20.2164 22.503 19.9427 22.2294L16.0417 18.3269L12.1406 22.2294C11.867 22.503 11.4958 22.6568 11.1089 22.6568C10.7219 22.6568 10.3507 22.503 10.0771 22.2294C9.80344 21.9557 9.64971 21.5846 9.64971 21.1976C9.64971 20.8106 9.80344 20.4395 10.0771 20.1658L13.9796 16.2648L9.63083 11.9175C9.49534 11.7819 9.38788 11.621 9.31459 11.4438C9.24129 11.2667 9.20361 11.0769 9.20367 10.8852C9.20374 10.6935 9.24156 10.5037 9.31498 10.3267C9.3884 10.1496 9.49597 9.98872 9.63156 9.85323C9.76715 9.71774 9.9281 9.61027 10.1052 9.53698C10.2823 9.46369 10.4722 9.426 10.6638 9.42607C10.8555 9.42614 11.0453 9.46396 11.2224 9.53738C11.3995 9.61079 11.5603 9.71837 11.6958 9.85396L16.0417 14.2042L20.389 9.85542C20.5244 9.71983 20.6852 9.61226 20.8623 9.53887C21.0393 9.46548 21.2291 9.42771 21.4207 9.42771C21.6124 9.42771 21.8021 9.46548 21.9792 9.53887C22.1562 9.61226 22.3171 9.71837 22.4525 9.85396Z" fill="#EE2435"/>
<path id="Vector_2" fill-rule="evenodd" clip-rule="evenodd" d="M4.375 0C3.21468 0 2.10188 0.460936 1.28141 1.28141C0.460936 2.10188 0 3.21468 0 4.375V27.7083C0 28.8687 0.460936 29.9815 1.28141 30.8019C2.10188 31.6224 3.21468 32.0833 4.375 32.0833H27.7083C28.8687 32.0833 29.9815 31.6224 30.8019 30.8019C31.6224 29.9815 32.0833 28.8687 32.0833 27.7083V4.375C32.0833 3.21468 31.6224 2.10188 30.8019 1.28141C29.9815 0.460936 28.8687 0 27.7083 0H4.375ZM27.7083 2.91667H4.375C3.98823 2.91667 3.61729 3.07031 3.3438 3.3438C3.07031 3.61729 2.91667 3.98823 2.91667 4.375V27.7083C2.91667 28.0951 3.07031 28.466 3.3438 28.7395C3.61729 29.013 3.98823 29.1667 4.375 29.1667H27.7083C28.0951 29.1667 28.466 29.013 28.7395 28.7395C29.013 28.466 29.1667 28.0951 29.1667 27.7083V4.375C29.1667 3.98823 29.013 3.61729 28.7395 3.3438C28.466 3.07031 28.0951 2.91667 27.7083 2.91667Z" fill="#EE2435"/>
</g>
</svg>
