<?xml version="1.0" encoding="UTF-8"?>
<svg id="Layer_1" data-name="Layer 1" xmlns="http://www.w3.org/2000/svg" viewBox="0 0 528.37 240">
  <defs>
    <style>
      .cls-1 {
        fill: none;
      }

      .cls-2 {
        fill: #ee2435;
      }
    </style>
  </defs>
  <path class="cls-1" d="M344.79,132.96c-4.68,0-7.49,3.7-7.49,10.08s2.95,9.85,7.15,9.85c6.19,0,7.45-4.67,7.45-10.29s-1.16-9.63-7.11-9.63Z"/>
  <path class="cls-1" d="M120.91,136.58c-.97-.8-2.38-1.2-4.24-1.2h-5.04v9.32h5.04c1.86,0,3.27-.4,4.24-1.22.97-.82,1.45-1.96,1.45-3.44s-.49-2.65-1.45-3.46Z"/>
  <path class="cls-1" d="M375.51,132.62c-4.6,0-6.6,3.2-7.05,7.72h13.69c-.05-4.27-2.13-7.72-6.64-7.72Z"/>
  <path class="cls-1" d="M308.46,148.57c0,2.69,1.82,4.69,5.08,4.69,6.27,0,7.11-4.25,7.11-8.97v-.85h-4.19c-5.31,0-8,1.49-8,5.13Z"/>
  <path class="cls-1" d="M308.12,88.13c-4.6,0-6.6,3.2-7.05,7.72h13.69c-.05-4.27-2.13-7.72-6.64-7.72Z"/>
  <path class="cls-1" d="M251.93,148.57c0,2.69,1.82,4.69,5.08,4.69,6.27,0,7.11-4.25,7.11-8.97v-.85h-4.19c-5.31,0-8,1.49-8,5.13Z"/>
  <path class="cls-1" d="M256.89,98.46c0-6.1-2.67-10.06-7.56-10.06s-7.45,3.85-7.45,10.04,2.87,10.04,7.56,10.04,7.46-3.97,7.46-10.01Z"/>
  <path class="cls-1" d="M407.74,98.46c0-6.1-2.67-10.06-7.56-10.06s-7.45,3.85-7.45,10.04,2.87,10.04,7.56,10.04,7.46-3.97,7.46-10.01Z"/>
  <g>
    <polygon class="cls-2" points="96.2 88.07 96.2 72.56 82.9 72.56 82.9 88.07 82.9 88.08 67.4 88.08 67.4 101.38 82.9 101.38 82.9 116.88 96.2 116.88 96.2 101.37 111.7 101.37 111.7 88.08 96.19 88.08 96.2 88.07"/>
    <path class="cls-2" d="M150.97,113.34c-10.33,0-18.7-8.38-18.7-18.7s8.37-18.7,18.7-18.7c2.3,0,4.5.42,6.54,1.18-3.83-3.03-8.66-4.84-13.92-4.84-12.4,0-22.44,10.05-22.44,22.44s10.05,22.44,22.44,22.44c5.43,0,10.41-1.93,14.3-5.14-2.14.85-4.48,1.32-6.92,1.32Z"/>
  </g>
  <g>
    <path d="M222.26,95.49c-4.93-1.17-6-2.12-6-4.04,0-1.69,1.08-3.4,4.67-3.4,4.1,0,5.32,2.37,5.68,4h5.1c-.33-3.81-3.22-8-10.55-8s-10.16,3.92-10.16,7.84,1.6,6.23,9.67,8.2c4.99,1.21,6.24,2.31,6.24,4.72s-1.48,3.94-5.28,3.94c-3.55,0-5.69-1.66-6.44-4.51h-5.26c.68,4.91,4.16,8.59,11.52,8.59s10.89-3.64,10.89-8.4c0-4.07-1.6-6.92-10.09-8.93Z"/>
    <path d="M262.33,98.38c0-8.62-5.05-14.34-12.77-14.34-8.37,0-13.12,6.25-13.12,14.44s4.8,14.34,12.8,14.34c8.46,0,13.08-6.45,13.08-14.44ZM241.87,98.44c0-6.18,2.62-10.04,7.45-10.04s7.56,3.96,7.56,10.06-2.68,10.01-7.46,10.01-7.56-4.15-7.56-10.04Z"/>
    <rect x="268.29" y="72.59" width="5.3" height="39.59"/>
    <path d="M282.88,112.18h5.3v-23.25h5.37v-4.23h-5.37v-2.77c0-3.81,1.02-5.35,3.73-5.35.71,0,1.64.08,2.25.23v-4.41c-.67-.22-2.08-.35-3.14-.35-6.05,0-8.15,4.35-8.15,9.53v3.12h-4.35v4.23h4.35v23.25Z"/>
    <path d="M307.88,112.83c7.74,0,10.7-4.86,11.76-8.35h-5.33c-.85,1.94-2.16,4-6.28,4-4.5,0-7.1-3.85-7.13-9.03h19.13c.08-.75.08-1.43.08-2.29,0-6.06-2.96-13.11-11.94-13.11-8.45,0-12.62,6.44-12.62,14.7,0,7.1,3.6,14.08,12.32,14.08ZM308.12,88.13c4.51,0,6.59,3.45,6.64,7.72h-13.69c.45-4.52,2.44-7.72,7.05-7.72Z"/>
    <path d="M340.53,89.27v-5.22c-4.57.12-7.78,2.5-9.17,6.11,0-2.45-.08-4.72-.16-5.46h-5.2c.02,1.62.05,3.84.05,7.46v20.02h5.3v-13.08c0-7.06,3.56-9.72,9.17-9.83Z"/>
    <rect x="345.17" y="72.59" width="5.3" height="6.1"/>
    <rect x="345.17" y="84.69" width="5.3" height="27.48"/>
    <path d="M363.67,112.18v-14.7c0-5.39,2.04-8.92,6.85-8.92,4.03,0,5.54,2.69,5.54,6.64v16.99h5.3v-17.64c0-7.23-3.95-10.49-9.17-10.49s-7.46,2.73-8.52,4.97c0-.83-.07-3.53-.21-4.32h-5.15c.05,2.11.05,4.55.05,6.93v20.56h5.3Z"/>
    <path d="M413.18,98.38c0-8.62-5.05-14.34-12.77-14.34-8.37,0-13.12,6.25-13.12,14.44s4.8,14.34,12.8,14.34c8.46,0,13.08-6.45,13.08-14.44ZM392.73,98.44c0-6.18,2.62-10.04,7.45-10.04s7.56,3.96,7.56,10.06-2.68,10.01-7.46,10.01-7.56-4.15-7.56-10.04Z"/>
    <path d="M269.29,137.63c0-6.31-3.77-9.07-10.62-9.09-7.99-.02-10.46,4.27-10.84,8.27h5.1c.47-2.12,1.23-4.22,5.56-4.22,4.83,0,5.59,2.76,5.59,5.09v2.21h-4.54c-8.15,0-13.01,2.82-13.01,8.98,0,4.2,2.77,8.44,9.28,8.44,5.24,0,7.37-2.29,8.34-4.07.06,1.49.22,2.82.44,3.42h5.07c-.16-.77-.38-3.69-.38-6.21v-12.83ZM264.12,144.29c0,4.73-.83,8.97-7.11,8.97-3.26,0-5.08-2-5.08-4.69,0-3.64,2.69-5.13,8-5.13h4.19v.85Z"/>
    <path d="M287.94,132.89c3.78,0,5.44,2.26,6.08,4.95h5.23c-.31-3.46-3.02-9.3-11.2-9.3s-12.74,6.71-12.74,14.55c0,8.7,4.63,14.23,12.39,14.23,7.22,0,10.43-4.45,11.55-9.15h-5.26c-1.04,3.04-2.92,4.82-6.2,4.82-4.49,0-7.05-3.91-7.05-10.09s2.6-10.01,7.2-10.01Z"/>
    <path d="M325.82,137.63c0-6.31-3.77-9.07-10.62-9.09-7.99-.02-10.46,4.27-10.84,8.27h5.1c.47-2.12,1.23-4.22,5.56-4.22,4.83,0,5.59,2.76,5.59,5.09v2.21h-4.54c-8.15,0-13.01,2.82-13.01,8.98,0,4.2,2.77,8.44,9.28,8.44,5.24,0,7.37-2.29,8.34-4.07.06,1.49.22,2.82.44,3.42h5.07c-.16-.77-.38-3.69-.38-6.21v-12.83ZM320.65,144.29c0,4.73-.83,8.97-7.11,8.97-3.26,0-5.08-2-5.08-4.69,0-3.64,2.69-5.13,8-5.13h4.19v.85Z"/>
    <path d="M357,117.07h-5.3v14.8c-.71-1.48-2.87-3.34-7.56-3.34-7.64,0-12.32,6.2-12.32,14.67s4.36,14.12,11.4,14.12c4.43,0,7.13-1.62,8.48-4.35.02.98.13,2.96.26,3.7h5.09c-.05-2.63-.05-5.16-.05-7.72v-31.87ZM344.45,152.89c-4.2,0-7.15-3.46-7.15-9.85s2.81-10.08,7.49-10.08c5.95,0,7.11,3.8,7.11,9.63s-1.26,10.29-7.45,10.29Z"/>
    <path d="M375.57,128.53c-8.45,0-12.62,6.44-12.62,14.7,0,7.1,3.6,14.08,12.32,14.08,7.74,0,10.7-4.86,11.76-8.35h-5.33c-.85,1.94-2.16,4-6.28,4-4.5,0-7.1-3.85-7.13-9.03h19.13c.08-.75.08-1.43.08-2.29,0-6.06-2.96-13.11-11.94-13.11ZM368.46,140.33c.45-4.52,2.44-7.72,7.05-7.72s6.59,3.45,6.64,7.72h-13.69Z"/>
    <path d="M422.84,128.53c-4.65,0-7.2,2.24-8.7,4.78-1.03-2.79-3.61-4.78-7.51-4.78-4.28,0-6.65,2.31-7.93,4.69,0-1.32-.13-3.25-.21-4.04h-5.1c.05,2.25.05,4.72.05,7.09v20.4h5.25v-15.24c0-5.14,2-8.38,6.15-8.38s5.05,2.98,5.05,6.39v17.24h5.2v-15.77c0-4.75,1.81-7.88,6.04-7.88s5.16,3.18,5.16,6.23v17.41h5.2v-18.06c0-7.38-4.15-10.08-8.67-10.08Z"/>
    <path d="M455.64,129.18c-4.26,13.4-6.15,19.67-6.98,22.71h-.05c-.67-2.74-3.12-10.27-7.25-22.71h-5.72l10.24,28.5c-1.51,4.29-2.85,5.71-6.19,5.71-.74,0-1.55-.05-2.21-.14v4.51c1.11.13,2.25.19,3.07.19,5.82,0,7.91-2.1,10.67-10.12l9.76-28.66h-5.33Z"/>
    <rect x="67.4" y="130.33" width="6.18" height="26.72"/>
    <path d="M142.98,136.23c1.3-.72,2.77-1.09,4.43-1.09,2.67,0,4.91,1.04,6.72,3.13l3.97-3.66c-1.27-1.53-2.84-2.7-4.71-3.51-1.87-.81-3.97-1.22-6.28-1.22-2.75,0-5.23.59-7.42,1.77-2.2,1.18-3.93,2.83-5.19,4.92-1.26,2.1-1.89,4.47-1.89,7.12s.63,5.02,1.89,7.12c1.26,2.1,2.99,3.74,5.19,4.92,2.2,1.18,4.66,1.77,7.39,1.77h0c2.32,0,4.41-.41,6.3-1.22,1.88-.81,3.46-2,4.73-3.55l-3.97-3.66c-1.81,2.11-4.05,3.17-6.72,3.17-1.65,0-3.13-.36-4.43-1.09-1.3-.72-2.31-1.74-3.04-3.04-.72-1.3-1.09-2.77-1.09-4.43s.36-3.13,1.09-4.43c.72-1.3,1.74-2.31,3.04-3.04Z"/>
    <path d="M127.19,145.16c.96-1.44,1.43-3.15,1.43-5.13s-.47-3.7-1.41-5.16-2.29-2.57-4.03-3.36c-1.74-.79-3.8-1.18-6.17-1.18h-11.57v26.72h6.18v-7.45h5.69l5.15,7.45h6.65s-5.99-8.59-5.99-8.59c1.76-.76,3.11-1.86,4.06-3.3ZM120.91,143.47c-.97.82-2.38,1.22-4.24,1.22h-5.04v-9.32h5.04c1.86,0,3.27.4,4.24,1.2.97.8,1.45,1.96,1.45,3.46s-.49,2.62-1.45,3.44Z"/>
    <polygon points="79.92 157.06 86.1 157.06 86.1 147.32 98.47 147.32 98.47 142.36 86.1 142.36 86.1 135.3 100.11 135.3 100.11 135.3 100.11 130.34 79.92 130.34 79.92 157.06"/>
    <rect x="183.84" y="72.6" width="1.38" height="84.53"/>
  </g>
</svg>